<svg width="80" height="47" viewBox="0 0 80 47" fill="none" xmlns="http://www.w3.org/2000/svg">
<path d="M61.465 1.83395C59.215 5.72195 56.9583 9.60661 54.707 13.4939C54.585 13.4423 54.4597 13.3986 54.336 13.3506C48.253 11.0316 42.7227 10.6839 39.6027 10.7273C33.419 10.7889 28.4213 12.2749 25.4037 13.4616C25.1237 12.9636 19.5617 3.39161 18.6653 1.84028C18.5316 1.61195 18.3746 1.39813 18.1967 1.20228C17.0927 -0.0110522 15.1787 -0.417386 13.6 0.525614C12.0167 1.46561 11.2213 3.64595 12.3047 5.53195C18.7933 16.7639 11.9827 4.81261 18.7957 16.7296C18.853 16.8329 17.147 17.6103 14.1537 20.1219C9.66233 23.8919 1.50667 32.5453 0 46.6059H80C79.6033 42.9033 78.7713 39.6093 77.513 36.3783C75.0337 30.0056 71.368 25.4023 68.379 22.4329C66.23 20.2972 63.8473 18.4103 61.276 16.8079C63.474 13.0679 65.6493 9.28828 67.8257 5.52528C68.518 4.32028 68.4543 2.87328 67.7993 1.79495C67.5014 1.2946 67.0885 0.872419 66.5949 0.563348C66.1013 0.254277 65.5412 0.0672036 64.961 0.0176142C63.2193 -0.161053 61.8303 1.06028 61.465 1.83395ZM61.3347 30.0373C62.6493 32.0126 62.4147 34.4726 60.8137 35.5383C59.214 36.6039 56.8537 35.8666 55.5403 33.8913C54.2257 31.9156 54.4603 29.4556 56.0613 28.3899C57.637 27.3399 59.9987 28.0283 61.3347 30.0373ZM24.0233 28.3963C25.6243 29.4619 25.8587 31.9219 24.5443 33.8976C23.231 35.8729 20.865 36.6103 19.2643 35.5446C17.6643 34.4789 17.43 32.0189 18.7433 30.0433C20.0793 28.0363 22.439 27.3413 24.0233 28.3963Z" fill="#ECEDEE"/>
</svg>
