<svg width="66" height="80" viewBox="0 0 66 80" fill="none" xmlns="http://www.w3.org/2000/svg">
<path d="M33.0898 22.9865C29.9299 22.9865 25.0399 19.3932 19.8899 19.5199C13.09 19.6099 6.85667 23.4632 3.35336 29.5665C-3.70327 41.8164 1.53337 59.9096 8.41666 69.8662C11.7933 74.7129 15.7766 80.1662 21.0566 79.9962C26.1232 79.7795 28.0232 76.7062 34.1732 76.7062C40.2765 76.7062 42.0065 79.9962 47.3731 79.8662C52.8297 79.7795 56.293 74.9329 59.6264 70.0396C63.4797 64.4129 65.0797 58.9563 65.1663 58.6563C65.0363 58.613 54.5597 54.5863 54.433 42.4664C54.3464 32.3331 62.6997 27.4865 63.0897 27.2698C58.3264 20.3032 51.0131 19.5232 48.4564 19.3499C41.7898 18.8299 36.2065 22.9865 33.0898 22.9865ZM44.3498 12.7666C47.1598 9.39328 49.0164 4.67664 48.4997 0C44.4764 0.173332 39.6265 2.68332 36.7265 6.05996C34.1265 9.04661 31.8799 13.8532 32.4832 18.4399C36.9432 18.7866 41.5331 16.1466 44.3464 12.7699" fill="#ECEDEE"/>
</svg>
