<svg width="80" height="80" viewBox="0 0 80 80" fill="none" xmlns="http://www.w3.org/2000/svg">
<path d="M25.5833 0C16.6933 0 13.47 0.926667 10.2167 2.66667C6.99776 4.37417 4.36707 7.01067 2.66667 10.2333C0.926667 13.49 0 16.7233 0 25.64V28.9667C0 29.63 0.26 30.26 0.726667 30.73L6.62667 36.6433C6.69641 36.7143 6.78575 36.7629 6.88325 36.7828C6.98076 36.8027 7.08199 36.7931 7.17399 36.7552C7.26599 36.7172 7.34457 36.6527 7.39968 36.5698C7.45479 36.4869 7.48392 36.3895 7.48333 36.29V26.73C7.48333 20.0433 8.17667 17.62 9.48333 15.1733C10.7587 12.7577 12.7307 10.781 15.1433 9.5C17.58 8.19333 20 7.5 26.6733 7.5H33.8867C34.55 7.5 35.1867 7.23333 35.6533 6.76333L41.5533 0.856667C41.6239 0.787322 41.6723 0.698592 41.6925 0.60171C41.7126 0.504829 41.7035 0.404152 41.6664 0.312427C41.6293 0.220701 41.5658 0.142052 41.484 0.0864359C41.4021 0.0308199 41.3056 0.000738495 41.2067 0L25.5833 0ZM50.9333 0C50.2667 0 49.6267 0.266667 49.16 0.733333L43.2633 6.65C43.2172 6.69526 43.1806 6.74919 43.1554 6.80869C43.1302 6.86818 43.1171 6.93207 43.1167 6.99667C43.1167 7.27333 43.3433 7.49667 43.6167 7.49667H53.1567C59.83 7.49667 62.25 8.19667 64.69 9.5C67.1025 10.7812 69.0745 12.7578 70.35 15.1733C71.65 17.62 72.3467 20.0433 72.3467 26.73V33.9633C72.3467 34.6233 72.6067 35.2633 73.0733 35.73L78.9733 41.6433C79.0431 41.7143 79.1324 41.7629 79.2299 41.7828C79.3274 41.8027 79.4287 41.7931 79.5207 41.7552C79.6127 41.7172 79.6912 41.6527 79.7463 41.5698C79.8015 41.4869 79.8306 41.3895 79.83 41.29V25.64C79.83 16.7233 78.9033 13.49 77.1633 10.23C75.4629 7.01016 72.8335 4.3761 69.6167 2.67C66.3667 0.926667 63.1433 0 54.25 0H50.9333ZM22.4533 12.5C21.1417 12.5009 19.8432 12.7602 18.6318 13.2631C17.4205 13.7661 16.3201 14.5028 15.3936 15.4311C14.4671 16.3595 13.7326 17.4613 13.2321 18.6737C12.7316 19.886 12.4749 21.1851 12.4767 22.4967V41.4667C12.4772 42.1278 12.7397 42.7619 13.2067 43.23L19.1067 49.15C19.1761 49.2203 19.265 49.2683 19.3619 49.2879C19.4588 49.3074 19.5594 49.2975 19.6507 49.2596C19.7419 49.2216 19.8198 49.1573 19.8743 49.0749C19.9289 48.9924 19.9575 48.8955 19.9567 48.7967V24.9967C19.9569 24.3931 20.0665 23.7945 20.28 23.23C20.52 22.5633 20.9067 21.9467 21.44 21.4133L29.1333 13.3433C29.2006 13.2721 29.2455 13.1827 29.2624 13.0863C29.2793 12.9898 29.2674 12.8905 29.2284 12.8006C29.1893 12.7108 29.1248 12.6344 29.0427 12.581C28.9606 12.5275 28.8646 12.4994 28.7667 12.5H22.4533ZM38.46 12.5C37.7933 12.5 37.16 12.7667 36.6933 13.2333L30.7833 19.1467C30.7151 19.2172 30.6689 19.3061 30.6506 19.4025C30.6322 19.4989 30.6424 19.5986 30.6799 19.6893C30.7175 19.78 30.7807 19.8577 30.8619 19.9129C30.943 19.9681 31.0385 19.9984 31.1367 20H54.8833C55.5033 20 56.0967 20.1133 56.6433 20.3233C57.31 20.5633 57.93 20.95 58.4633 21.48L66.5067 29.19C66.5772 29.2591 66.6665 29.3058 66.7635 29.3242C66.8605 29.3426 66.9608 29.3318 67.0517 29.2933C67.1426 29.2548 67.22 29.1903 67.2743 29.1078C67.3286 29.0254 67.3572 28.9287 67.3567 28.83V22.4967C67.3589 21.1848 67.1025 19.8854 66.6022 18.6726C66.1018 17.4599 65.3674 16.3577 64.4409 15.429C63.5143 14.5002 62.4138 13.7633 61.2023 13.2601C59.9907 12.757 58.6919 12.4975 57.38 12.4967L38.46 12.5ZM60.37 30.71C60.2374 30.71 60.1102 30.7627 60.0164 30.8564C59.9227 30.9502 59.87 31.0774 59.87 31.21V55.0067C59.8719 55.6098 59.7646 56.2084 59.5533 56.7733C59.3047 57.4577 58.9087 58.079 58.3933 58.5933L50.7 66.66C50.6309 66.7305 50.5842 66.8199 50.5658 66.9169C50.5474 67.0138 50.5582 67.1141 50.5967 67.205C50.6352 67.2959 50.6997 67.3734 50.7822 67.4276C50.8646 67.4819 50.9613 67.5106 51.06 67.51H57.38C58.6922 67.5082 59.9912 67.248 61.2028 66.7441C62.4144 66.2403 63.5148 65.5026 64.4413 64.5734C65.3677 63.6441 66.1021 62.5415 66.6023 61.3284C67.1025 60.1153 67.3589 58.8155 67.3567 57.5033V38.5367C67.3562 37.8745 67.0938 37.2393 66.6267 36.77L60.7267 30.8567C60.6799 30.8098 60.6243 30.7727 60.563 30.7476C60.5018 30.7224 60.4362 30.7096 60.37 30.71ZM0.503333 38.21C0.370725 38.21 0.243548 38.2627 0.14978 38.3564C0.0560118 38.4502 0.00333333 38.5774 0.00333333 38.71V54.36C0.00333333 63.2733 0.93 66.51 2.67 69.77C4.3694 72.9886 6.99773 75.6216 10.2133 77.3267C13.4667 79.0667 16.69 80 25.5867 80H28.9C29.5667 80 30.2 79.7333 30.6667 79.2667L36.57 73.35C36.6403 73.2805 36.6883 73.1916 36.7079 73.0947C36.7274 72.9978 36.7175 72.8973 36.6796 72.806C36.6416 72.7147 36.5773 72.6368 36.4949 72.5823C36.4124 72.5278 36.3155 72.4991 36.2167 72.5H26.6733C20 72.5 17.58 71.8067 15.14 70.5C12.7273 69.2189 10.7554 67.2423 9.48 64.8267C8.18 62.38 7.48333 59.9567 7.48333 53.27V46.03C7.48135 45.3694 7.21765 44.7365 6.75 44.27L0.856667 38.3567C0.762988 38.2629 0.635897 38.2101 0.503333 38.21ZM72.8467 43.21C72.7141 43.21 72.5869 43.2627 72.4931 43.3564C72.3993 43.4502 72.3467 43.5774 72.3467 43.71V53.27C72.3467 59.9567 71.6533 62.38 70.3467 64.8267C69.0713 67.2423 67.0993 69.2189 64.6867 70.5C62.25 71.8067 59.83 72.5 53.1567 72.5H45.9433C45.614 72.4992 45.2877 72.5636 44.9834 72.6895C44.679 72.8153 44.4026 73.0002 44.17 73.2333L38.2733 79.1433C38.1803 79.2386 38.1287 79.3668 38.13 79.5C38.13 79.7767 38.3467 80 38.6233 80H54.25C63.15 80 66.37 79.0667 69.6233 77.3267C72.8389 75.6216 75.4673 72.9886 77.1667 69.77C78.9067 66.51 79.8333 63.2767 79.8333 54.36V51.0333C79.8322 50.3716 79.5685 49.7374 79.1 49.27L73.2033 43.3567C73.1097 43.2629 72.9792 43.2101 72.8467 43.21ZM12.98 50.67C12.9141 50.6696 12.8487 50.6822 12.7876 50.7071C12.7266 50.732 12.6711 50.7688 12.6243 50.8153C12.5775 50.8617 12.5404 50.917 12.515 50.9779C12.4897 51.0388 12.4767 51.1041 12.4767 51.17V57.4967C12.4749 58.8086 12.7316 60.108 13.232 61.3207C13.7324 62.5334 14.4668 63.6357 15.3932 64.5646C16.3197 65.4935 17.42 66.2308 18.6313 66.7345C19.8427 67.2381 21.1414 67.4982 22.4533 67.5H41.3733C42.04 67.5 42.6733 67.2333 43.14 66.7667L49.05 60.85C49.0962 60.8048 49.133 60.7509 49.1582 60.6914C49.1834 60.6319 49.1965 60.568 49.1967 60.5033C49.1967 60.3707 49.144 60.2435 49.0502 60.1498C48.9565 60.056 48.8293 60.0033 48.6967 60.0033H24.95C24.3461 60.0035 23.7473 59.8928 23.1833 59.6767C22.4993 59.4291 21.878 59.0342 21.3633 58.52L13.32 50.81C13.2283 50.7202 13.1084 50.6699 12.98 50.67Z" fill="#ECEDEE"/>
</svg>
