<svg width="72" height="80" viewBox="0 0 72 80" fill="none" xmlns="http://www.w3.org/2000/svg">
<path d="M68.835 54.5364C68.6916 54.3764 65.2783 50.603 60.9515 50.5697C58.6848 50.5697 56.6582 51.513 54.9015 53.4297C52.3248 56.2364 47.068 59.5965 40.7346 59.8331C35.4079 60.0298 30.4512 58.0064 25.9911 53.8164C20.511 48.6697 18.8077 40.4296 21.6511 32.8261C24.4311 25.3927 30.8245 20.7726 38.7546 20.4693L38.9013 20.456C38.9813 20.446 46.5747 19.596 53.3181 25.616C53.8848 26.2327 57.1648 29.6061 61.5682 29.7094C64.3116 29.7694 66.8549 28.5894 69.135 26.1927C71.1417 24.086 72.035 21.7193 71.7917 19.1526C71.2783 13.7859 65.7716 9.56585 65.0249 9.01918C64.3183 8.40583 58.7649 3.75911 50.1047 1.37241C41.7046 -0.94428 28.7045 -1.47095 14.4876 9.20251C13.8415 9.71519 13.2218 10.2603 12.631 10.8359C11.6976 11.5292 10.8876 12.3759 10.2443 13.3459C3.27657 21.3323 -0.376957 31.6788 0.0307996 42.2696C0.720808 63.2132 17.581 73.2466 18.851 73.97C19.7244 74.5366 28.5378 80.0034 40.5013 80C47.5214 80 55.6281 78.1167 63.8516 72.2599C64.6782 71.7999 69.565 68.8866 70.8617 63.8598C71.6283 60.8798 71.0017 57.8098 68.9883 54.7364L68.835 54.5364ZM12.3943 61.1031C12.3943 57.4698 15.351 54.5131 18.9844 54.5131C22.6177 54.5131 25.5744 57.4664 25.5744 61.1031C25.5744 64.7365 22.6177 67.6932 18.9844 67.6932C15.351 67.6932 12.3943 64.7365 12.3943 61.1031ZM12.8576 15.5793C13.6443 14.6626 14.361 13.9192 14.951 13.3459C16.0255 12.631 17.2871 12.2495 18.5777 12.2492C22.2111 12.2492 25.1678 15.2059 25.1678 18.8393C25.1678 22.4727 22.2111 25.4327 18.5777 25.4327C14.9443 25.4327 11.9876 22.476 11.9876 18.8426C11.9876 17.6559 12.3076 16.5426 12.8576 15.5826V15.5793ZM40.0813 3.32911C53.2614 3.32911 62.2716 11.1159 62.8349 11.6159L62.9782 11.7292C64.3783 12.7292 68.085 16.0659 68.4116 19.476C68.5583 21.0393 67.9916 22.4693 66.6783 23.8527C65.0883 25.5194 63.4016 26.3594 61.6649 26.3127C58.4515 26.2494 55.8548 23.356 55.7981 23.296L55.6581 23.1493C48.0181 16.2726 39.5579 16.9659 38.5579 17.0759C35.0454 17.1965 31.6088 18.1299 28.5178 19.8026C28.7493 17.3726 28.0839 14.9418 26.6472 12.9684C25.2104 10.995 23.1014 9.61521 20.7177 9.08918C27.7278 4.83246 34.3079 3.32911 40.0813 3.32911ZM8.86424 21.1327C9.38153 23.3215 10.6216 25.272 12.3841 26.6692C14.1466 28.0663 16.3286 28.8286 18.5777 28.8327C18.9844 28.8327 19.3777 28.7994 19.771 28.7528C19.2758 29.6859 18.8416 30.6501 18.471 31.6394C15.971 38.3162 16.5043 45.4396 19.6677 51.153C19.441 51.1364 19.2144 51.1197 18.9844 51.1197C16.5665 51.124 14.2321 52.0045 12.4137 53.598C10.5952 55.1915 9.41592 57.3901 9.09424 59.7865C5.59098 54.5579 3.62743 48.4501 3.42751 42.1596C3.15975 34.7708 5.04761 27.4637 8.86091 21.1293L8.86424 21.1327ZM67.575 62.9998C66.5749 66.9132 62.1916 69.2999 62.1516 69.3199L61.9582 69.4399C41.0013 84.4368 21.5011 71.6633 20.6844 71.1133L20.5644 71.0399C20.5265 71.018 20.4887 70.9957 20.451 70.9733C22.9687 70.5967 25.2477 69.2736 26.823 67.274C28.3983 65.2744 29.1511 62.7489 28.9278 60.2131C32.6745 62.3465 36.7146 63.3832 40.8613 63.2332C48.2414 62.9565 54.3848 59.0198 57.4015 55.7331C58.4915 54.5464 59.6349 53.9664 60.8949 53.9664H60.9115C63.4516 53.9797 65.7783 56.2598 66.2216 56.7198C67.625 58.9131 68.0816 61.0231 67.575 62.9998Z" fill="#ECEDEE"/>
</svg>
