<svg width="63" height="80" viewBox="0 0 63 80" fill="none" xmlns="http://www.w3.org/2000/svg">
<path d="M28.2 0H41.28V60.5533C34.57 61.8267 29.6433 62.3367 24.2933 62.3367C8.32333 62.3367 0 55.1167 0 41.27C0 27.93 8.83333 19.27 22.51 19.27C24.6333 19.27 26.2467 19.4367 28.2 19.9467V0ZM28.2 30.4767C26.7782 29.9964 25.2838 29.7663 23.7833 29.7967C17.1567 29.7967 13.3367 33.8733 13.3367 41.0133C13.3367 47.98 16.99 51.8 23.7 51.8C25.1433 51.8 26.3333 51.7167 28.2 51.46V30.4767ZM62.0933 20.2V50.5267C62.0933 60.9733 61.33 65.9867 59.0367 70.3167C56.9133 74.48 54.11 77.1133 48.3333 80L36.1867 74.2233C41.9633 71.5067 44.7667 69.1233 46.55 65.4733C48.42 61.7367 49.0133 57.4033 49.0133 46.0233V20.1967L62.0933 20.2ZM49.0133 0.07H62.0933V13.49H49.0133V0.07Z" fill="#ECEDEE"/>
</svg>
