<svg width="78" height="80" viewBox="0 0 78 80" fill="none" xmlns="http://www.w3.org/2000/svg">
<path d="M77.6609 18.101C77.6919 18.2094 77.7076 18.3216 77.7076 18.4344V35.5979C77.7076 36.0479 77.4643 36.4646 77.0776 36.6846L62.6674 44.9847V61.4316C62.667 61.6516 62.6089 61.8678 62.4989 62.0584C62.389 62.2491 62.231 62.4076 62.0408 62.5182L31.9537 79.8318C31.884 79.87 31.8102 79.9002 31.7337 79.9218C31.7071 79.9284 31.6804 79.9484 31.6537 79.9551C31.4446 80.0151 31.2228 80.0151 31.0137 79.9551C30.977 79.9484 30.947 79.9284 30.9137 79.9151C30.847 79.8884 30.7737 79.8684 30.707 79.8318L0.630008 62.5182C0.438671 62.4085 0.279665 62.2503 0.169047 62.0595C0.0584298 61.8687 0.000117834 61.6521 0 61.4316V9.91426C0 9.80426 0.0166669 9.69425 0.0466672 9.58759C0.0566674 9.54758 0.080001 9.52092 0.0933345 9.48092C0.113386 9.41442 0.139034 9.34975 0.170002 9.28758C0.183336 9.24425 0.220003 9.21425 0.24667 9.17758L0.356671 9.02758C0.396671 8.99424 0.440005 8.96758 0.480006 8.93758C0.526673 8.89758 0.570007 8.85758 0.616674 8.82424L15.6635 0.16747C15.8536 0.0577585 16.0691 0 16.2885 0C16.508 0 16.7235 0.0577585 16.9135 0.16747L31.9537 8.82424H31.9604C32.0104 8.85758 32.0504 8.89424 32.0937 8.93424L32.2204 9.02424C32.2637 9.07091 32.2871 9.12425 32.3304 9.17425C32.3571 9.21091 32.3971 9.24425 32.4137 9.28425C32.4471 9.35092 32.4704 9.41092 32.4937 9.47758C32.5037 9.51425 32.5271 9.54758 32.5371 9.58425C32.5704 9.68759 32.5837 9.79759 32.5837 9.91092V42.0846L45.1172 34.8712V18.4244C45.1172 18.3144 45.1306 18.2044 45.1606 18.0977C45.1705 18.0644 45.1939 18.031 45.2039 17.991C45.2262 17.9238 45.253 17.8581 45.2839 17.7944C45.3072 17.7543 45.3439 17.7277 45.3672 17.6843C45.4072 17.6343 45.4372 17.5843 45.4772 17.541C45.5172 17.501 45.5606 17.4743 45.6006 17.4477C45.6472 17.4143 45.6872 17.371 45.7372 17.341H45.7406L60.7841 8.68091C60.9741 8.5712 61.1897 8.51344 61.4091 8.51344C61.6285 8.51344 61.8441 8.5712 62.0341 8.68091L77.0776 17.341C77.1309 17.3743 77.1676 17.411 77.2176 17.4443C77.2576 17.4777 77.3009 17.5043 77.3376 17.5377C77.3809 17.5843 77.4109 17.6377 77.4509 17.6843C77.4776 17.7243 77.5143 17.7543 77.5309 17.7944C77.5676 17.861 77.591 17.9277 77.6109 17.9944C77.631 18.0277 77.6509 18.0644 77.6609 18.101ZM75.1943 34.8746V20.5977L69.9342 23.6244L62.6608 27.8111V42.088L75.1943 34.8746ZM60.1607 60.7082V46.418L53.004 50.5014L32.5837 62.1616V76.5784L60.1607 60.7082ZM2.4967 12.0809V60.7082L30.0737 76.5784V62.1616L15.6669 54.0115L15.6602 54.0015H15.6535C15.6069 53.9681 15.5702 53.9315 15.5202 53.8981C15.4835 53.8648 15.4402 53.8381 15.4035 53.8081L15.4002 53.8015C15.3569 53.7615 15.3302 53.7181 15.2969 53.6681C15.2635 53.6315 15.2269 53.5948 15.2035 53.5481H15.1969C15.1702 53.5015 15.1535 53.4448 15.1302 53.3915C15.1102 53.3381 15.0835 53.3015 15.0702 53.2481C15.0576 53.1854 15.0487 53.1219 15.0435 53.0581C15.0368 53.0114 15.0235 52.9681 15.0235 52.9214V19.2977L7.75676 15.1077L2.4967 12.0809ZM16.2869 2.70083L3.75338 9.91426L16.2869 17.1277L28.8137 9.91426L16.2869 2.70083ZM22.8069 47.718L30.0804 43.5313V12.0809L24.8136 15.1143L17.5402 19.2977V50.7481L22.8069 47.718ZM61.4107 11.2176L48.8773 18.4277L61.4107 25.6378L73.9409 18.4244L61.4107 11.2176ZM60.1574 27.8111L52.8873 23.6244L47.6206 20.6011V34.8779L54.894 39.0646L60.1607 42.0913L60.1574 27.8111ZM31.3237 59.9915L49.7039 49.4981L58.8907 44.258L46.3672 37.0479L31.9571 45.3447L18.8202 52.9114L31.3237 59.9915Z" fill="#ECEDEE"/>
</svg>
