<svg width="80" height="43" viewBox="0 0 80 43" fill="none" xmlns="http://www.w3.org/2000/svg">
<path d="M23.3667 15.0633H20.22L18.5033 23.89H21.2967C23.15 23.89 24.53 23.54 25.4367 22.8433C26.3433 22.1433 26.9533 20.98 27.27 19.3467C27.5767 17.78 27.4367 16.6733 26.8567 16.03C26.2733 15.3867 25.1133 15.0633 23.3667 15.0633ZM40 0C17.91 0 0 9.42 0 21.04C0 32.66 17.91 42.0833 40 42.0833C62.09 42.0833 80 32.66 80 21.04C80 9.42 62.09 0 40 0ZM29.1333 24.8367C28.2633 25.67 27.2167 26.2967 26.0767 26.6733C24.9567 27.0333 23.5267 27.22 21.7933 27.22H17.8567L16.7667 32.8233H12.1733L16.2733 11.7367H25.1067C27.7633 11.7367 29.7 12.4333 30.92 13.83C32.14 15.2233 32.5067 17.17 32.02 19.67C31.8336 20.6592 31.4904 21.6124 31.0033 22.4933C30.5267 23.3433 29.9033 24.1267 29.1333 24.8367ZM42.5467 27.22L44.3567 17.89C44.5667 16.83 44.4867 16.1033 44.13 15.72C43.7733 15.3333 43.01 15.14 41.84 15.14H38.2L35.8533 27.2233H31.2933L35.3933 6.13333H39.95L38.86 11.74H42.92C45.4767 11.74 47.2367 12.1867 48.2067 13.0767C49.1767 13.9667 49.4667 15.41 49.0833 17.4067L47.1767 27.22H42.5467ZM67.87 19.67C67.6866 20.6601 67.3433 21.6137 66.8533 22.4933C66.3767 23.3433 65.7533 24.1267 64.9833 24.8367C64.1129 25.6675 63.0689 26.2948 61.9267 26.6733C60.8067 27.0333 59.3767 27.22 57.64 27.22H53.7067L52.6167 32.8267H48.0233L52.1233 11.74H60.9533C63.61 11.74 65.5467 12.4367 66.7667 13.8333C67.9867 15.2233 68.3567 17.17 67.87 19.67ZM59.22 15.0633H56.0767L54.3567 23.89H57.15C59.0067 23.89 60.3867 23.54 61.29 22.8433C62.1967 22.1433 62.8067 20.98 63.1267 19.3467C63.4333 17.78 63.29 16.6733 62.71 16.03C62.13 15.3867 60.9633 15.0633 59.22 15.0633Z" fill="#ECEDEE"/>
</svg>
