<svg width="80" height="50" viewBox="0 0 80 50" fill="none" xmlns="http://www.w3.org/2000/svg">
<path d="M2.47 49.1H30.3367C30.3367 49.1 25.01 24.7967 42.6467 14.9567L43.0933 14.7367C47.38 12.6133 59.45 6.63333 78.7667 20.9167C79.4 20.3867 80 19.9633 80 19.9633C80 19.9633 61.6567 1.65667 41.2333 3.70333C30.97 4.62 18.3433 13.9667 10.9333 26.3133C3.52667 38.66 2.47 49.1 2.47 49.1ZM31.8167 46.49C31.5828 45.0192 31.4414 43.5352 31.3933 42.0467L35.2033 43.42C35.4133 45.08 35.7333 46.63 36.05 48.0067L31.8167 46.49ZM5.82 32.1L1.76333 30.6167C1.09333 32.1333 0.353333 33.8967 0 34.85L4.05667 36.33C4.51333 35.1333 5.25667 33.4033 5.82 32.1ZM31.9233 33.0867L34.78 35.3433C34.92 33.9667 35.1667 32.5933 35.52 31.2167L32.98 29.2067C32.5233 30.51 32.2033 31.8167 31.9233 33.0867ZM38.73 24.2667L37.0367 21.7267C37.6733 20.9167 38.4133 20.1067 39.2233 19.3633L40.81 21.7633C40.0493 22.5395 39.3537 23.3767 38.73 24.2667ZM13.9667 14.1433L16.4733 16.33C15.6267 17.2133 14.8133 18.1667 14.0733 19.1167L11.3567 16.79C12.17 15.9067 13.05 15.0267 13.9667 14.1433ZM46.63 17.5667L45.82 15.1333C46.7033 14.7433 47.7233 14.3567 48.9233 14.0033L49.7 16.33C48.648 16.6671 47.6219 17.0804 46.63 17.5667ZM57.0367 15.38L57.1767 13.1567C58.3067 13.2267 59.47 13.37 60.67 13.6167L60.53 15.8033C59.3807 15.5574 58.2115 15.4157 57.0367 15.38ZM29.8067 5.85667L28.22 3.42C27.3367 3.88 26.42 4.37333 25.4667 4.93667L27.09 7.40667C28.0067 6.84333 28.89 6.31333 29.8067 5.85667ZM60.53 5.68L60.67 3.31667C60.3533 3.14 59.47 2.71667 57.25 2.08L57.1067 4.41C58.27 4.79667 59.4 5.22 60.53 5.68ZM44.1267 2.15H44.48L43.7733 0C42.68 0 41.5533 0.0699991 40.3867 0.209999L41.0567 2.29333C42.0768 2.19237 43.1015 2.14452 44.1267 2.15Z" fill="#ECEDEE"/>
</svg>
