<svg width="80" height="72" viewBox="0 0 80 72" fill="none" xmlns="http://www.w3.org/2000/svg">
<path d="M47.4333 35.6333C47.4333 37.6095 46.6485 39.5048 45.2515 40.9025C43.8544 42.3001 41.9595 43.0858 39.9833 43.0867C38.0066 43.0867 36.1108 42.3014 34.713 40.9036C33.3153 39.5059 32.53 37.6101 32.53 35.6333C32.53 33.6572 33.3148 31.7619 34.7119 30.3642C36.1089 28.9665 38.0038 28.1809 39.98 28.18C41.9567 28.18 43.8525 28.9653 45.2503 30.363C46.6481 31.7608 47.4333 33.6566 47.4333 35.6333ZM56.26 0C51.7733 0 45.9033 3.2 39.9667 8.74C34.0333 3.23 28.16 0.0666666 23.6767 0.0666666C22.31 0.0666666 21.0667 0.376667 19.99 0.993333C15.4067 3.63667 14.38 11.8733 16.7467 22.21C6.6 25.3433 0 30.3533 0 35.6333C0 40.9333 6.63333 45.9567 16.81 49.0667C14.4633 59.4433 15.51 67.6933 20.1033 70.3333C21.17 70.9567 22.4033 71.25 23.7767 71.25C28.26 71.25 34.1333 68.05 40.07 62.5033C46.0033 68.0167 51.8767 71.18 56.36 71.18C57.7267 71.18 58.97 70.88 60.0467 70.2633C64.6267 67.6233 65.6567 59.3867 63.29 49.0467C73.4 45.94 80 40.92 80 35.6333C80 30.3333 73.3667 25.31 63.19 22.1933C65.5367 11.8267 64.49 3.57 59.8967 0.926667C58.8367 0.313333 57.6067 0.00333333 56.26 0ZM56.2433 3.63333V3.65333C56.9933 3.65333 57.5967 3.8 58.1033 4.07667C60.3233 5.35 61.2867 10.1933 60.5367 16.4233C60.3567 17.9567 60.0633 19.5733 59.7033 21.2233C56.5033 20.4367 53.0167 19.8333 49.3467 19.4433C47.1467 16.4267 44.8633 13.6867 42.5633 11.2867C47.87 6.35333 52.8533 3.64667 56.2467 3.63667L56.2433 3.63333ZM23.6767 3.7C27.05 3.7 32.0567 6.39333 37.3767 11.3C35.09 13.7 32.81 16.4233 30.6433 19.44C26.9533 19.83 23.4633 20.4333 20.2667 21.2333C19.8933 19.6 19.6167 18.02 19.42 16.5C18.6533 10.2733 19.6 5.43333 21.8 4.14333C22.4333 3.84333 23.1333 3.71667 23.6767 3.7ZM39.95 13.8667C41.4667 15.4267 42.9833 17.1733 44.4833 19.08C43.0167 19.0133 41.5167 18.9667 40 18.9667C38.4667 18.9667 36.95 19 35.4667 19.08C36.9333 17.1733 38.45 15.43 39.95 13.8667ZM40 22.62C42.4667 22.62 44.9233 22.7333 47.34 22.93C48.6933 24.87 50.0133 26.94 51.2833 29.13C52.5233 31.2633 53.65 33.43 54.6767 35.6167C53.65 37.8 52.5233 39.9833 51.3 42.1167C50.0333 44.3167 48.7233 46.41 47.3667 48.35C44.94 48.56 42.48 48.6767 40 48.6767C37.5333 48.6767 35.0767 48.56 32.66 48.3667C31.3067 46.4267 29.9867 44.3533 28.7167 42.1667C27.4767 40.0333 26.35 37.8667 25.3233 35.68C26.3333 33.49 27.4767 31.3033 28.7 29.1667C29.9667 26.9667 31.2767 24.88 32.6333 22.94C35.06 22.7267 37.52 22.6133 40 22.6133V22.62ZM27.8833 23.4667C27.0833 24.7233 26.2833 26.01 25.5367 27.3333C24.7867 28.6333 24.0867 29.94 23.42 31.2467C22.5367 29.06 21.7867 26.88 21.1667 24.7567C23.3 24.2567 25.55 23.81 27.8833 23.4667ZM52.0833 23.4667C54.4 23.81 56.6333 24.2333 58.77 24.7567C58.17 26.8633 57.42 29.03 56.57 31.2C55.9033 29.9 55.2033 28.59 54.4367 27.2867C53.6867 25.98 52.8867 24.7067 52.0867 23.4667H52.0833ZM62.2933 25.7167C63.9067 26.2167 65.44 26.7733 66.8767 27.3767C72.65 29.8433 76.3833 33.07 76.3833 35.63C76.3667 38.19 72.6333 41.43 66.86 43.88C65.46 44.48 63.9267 45.02 62.3433 45.5233C61.41 42.33 60.19 39.0033 58.6767 35.59C60.1767 32.2 61.3767 28.89 62.2933 25.71V25.7167ZM17.6433 25.73C18.57 28.93 19.7933 32.2533 21.31 35.6633C19.81 39.0533 18.6033 42.3633 17.69 45.5433C16.0767 45.0433 14.5433 44.4833 13.1233 43.8767C7.35 41.42 3.61667 38.19 3.61667 35.63C3.61667 33.07 7.35 29.8233 13.1233 27.3767C14.5233 26.7767 16.0567 26.2367 17.6433 25.73ZM56.57 39.9967C57.4533 42.1867 58.2033 44.37 58.8233 46.49C56.69 47.0133 54.4367 47.4567 52.1033 47.79C52.9033 46.54 53.7033 45.25 54.4533 43.93C55.2033 42.63 55.9 41.3033 56.57 39.9967ZM23.42 40.0633C24.0867 41.37 24.7867 42.6733 25.5533 43.98C26.32 45.28 27.1033 46.5533 27.9033 47.79C25.5867 47.45 23.3533 47.0233 21.2167 46.5033C21.8167 44.4033 22.57 42.23 23.4167 40.06L23.42 40.0633ZM59.7333 50.02C60.1067 51.6633 60.4 53.2467 60.58 54.7633C61.3467 60.99 60.4 65.83 58.2 67.1233C57.71 67.4233 57.0733 67.55 56.3233 67.55C52.95 67.55 47.9433 64.86 42.6233 59.95C44.91 57.55 47.19 54.83 49.3567 51.8167C53.0467 51.4233 56.5367 50.82 59.7333 50.02ZM20.3 50.0533C23.5 50.8333 26.9867 51.4367 30.6567 51.8267C32.8567 54.8433 35.14 57.5833 37.44 59.98C32.1233 64.9233 27.1333 67.63 23.74 67.63C23.0067 67.6133 22.3867 67.4633 21.8967 67.19C19.6767 65.9233 18.7133 61.0767 19.4633 54.8467C19.6433 53.3133 19.94 51.7 20.3 50.0533ZM35.5 52.1867C36.9667 52.2533 38.4667 52.3 39.9833 52.3C41.5167 52.3 43.0333 52.2667 44.5167 52.1867C43.05 54.0933 41.5333 55.8367 40.0333 57.4033C38.5167 55.8367 37 54.0933 35.5 52.1867Z" fill="#ECEDEE"/>
</svg>
