<svg width="80" height="80" viewBox="0 0 80 80" fill="none" xmlns="http://www.w3.org/2000/svg">
<path d="M71.5633 22.75C74.3633 27.8733 75.9567 33.75 75.9567 40C75.9567 53.2633 68.77 64.8533 58.08 71.0833L69.0633 39.3267C71.1133 34.1933 71.7967 30.09 71.7967 26.4467C71.7967 25.0967 71.71 23.85 71.5633 22.75ZM44.96 23.0967C47.1167 22.9967 49.0667 22.7467 49.0667 22.7467C51.0067 22.4967 50.78 19.6467 48.8433 19.75C48.8433 19.75 42.9933 20.2 39.2433 20.2C35.6967 20.2 29.7433 19.7 29.7433 19.7C27.7933 19.6 27.54 22.55 29.4933 22.65C29.4933 22.65 31.2933 22.8533 33.2433 22.95L38.8433 38.3L30.9433 61.9L17.8467 23C20.01 22.9 21.96 22.6667 21.96 22.6667C23.91 22.4167 23.68 19.5667 21.7433 19.68C21.7433 19.68 15.9233 20.14 12.1633 20.14C11.4967 20.14 10.7033 20.1133 9.86333 20.09C16.37 10.5 27.45 4.05 40 4.05C49.3633 4.05 57.8833 7.62333 64.2867 13.4933C64.1333 13.4833 63.9833 13.4633 63.8167 13.4633C60.2833 13.4633 57.7767 16.54 57.7767 19.8433C57.7767 22.81 59.4867 25.32 61.31 28.28C62.68 30.68 64.2767 33.7567 64.2767 38.2033C64.2767 41.2533 63.0967 44.85 61.54 49.8L57.9567 61.75L44.9567 23.05L44.96 23.0967ZM40 75.9467C36.47 75.9467 33.0633 75.4367 29.84 74.49L40.63 43.1367L51.68 73.4267C51.76 73.6033 51.8467 73.7633 51.94 73.9233C48.2067 75.2333 44.19 75.9533 40 75.9533M4.03667 40C4.03667 34.7867 5.15667 29.8333 7.15333 25.3667L24.3 72.3633C12.3133 66.5333 4.04 54.2367 4.03667 40ZM40 0C17.95 0 0 17.95 0 40C0 62.05 17.95 80 40 80C62.05 80 80 62.05 80 40C80 17.95 62.05 0 40 0Z" fill="#ECEDEE"/>
</svg>
