<svg width="414" height="221" viewBox="0 0 414 221" fill="none" xmlns="http://www.w3.org/2000/svg">
<path d="M36.6772 44.6365C38.1862 44.6365 39.4095 43.4132 39.4095 41.9042C39.4095 40.3952 38.1862 39.1719 36.6772 39.1719C35.1681 39.1719 33.9448 40.3952 33.9448 41.9042C33.9448 43.4132 35.1681 44.6365 36.6772 44.6365Z" fill="#2C2C2C"/>
<path d="M54.5617 44.6365C56.0707 44.6365 57.294 43.4132 57.294 41.9042C57.294 40.3952 56.0707 39.1719 54.5617 39.1719C53.0527 39.1719 51.8293 40.3952 51.8293 41.9042C51.8293 43.4132 53.0527 44.6365 54.5617 44.6365Z" fill="#2C2C2C"/>
<path d="M45.6195 44.6365C47.1286 44.6365 48.3519 43.4132 48.3519 41.9042C48.3519 40.3952 47.1286 39.1719 45.6195 39.1719C44.1105 39.1719 42.8872 40.3952 42.8872 41.9042C42.8872 43.4132 44.1105 44.6365 45.6195 44.6365Z" fill="#2C2C2C"/>
<path d="M36.6772 53.082C38.1862 53.082 39.4095 51.8587 39.4095 50.3496C39.4095 48.8406 38.1862 47.6173 36.6772 47.6173C35.1681 47.6173 33.9448 48.8406 33.9448 50.3496C33.9448 51.8587 35.1681 53.082 36.6772 53.082Z" fill="#2C2C2C"/>
<path d="M45.6195 53.082C47.1286 53.082 48.3519 51.8587 48.3519 50.3496C48.3519 48.8406 47.1286 47.6173 45.6195 47.6173C44.1105 47.6173 42.8872 48.8406 42.8872 50.3496C42.8872 51.8587 44.1105 53.082 45.6195 53.082Z" fill="#2C2C2C"/>
<path d="M54.5617 53.082C56.0707 53.082 57.294 51.8587 57.294 50.3496C57.294 48.8406 56.0707 47.6173 54.5617 47.6173C53.0527 47.6173 51.8293 48.8406 51.8293 50.3496C51.8293 51.8587 53.0527 53.082 54.5617 53.082Z" fill="#2C2C2C"/>
<path d="M63.5038 53.082C65.0128 53.082 66.2362 51.8587 66.2362 50.3496C66.2362 48.8406 65.0128 47.6173 63.5038 47.6173C61.9948 47.6173 60.7715 48.8406 60.7715 50.3496C60.7715 51.8587 61.9948 53.082 63.5038 53.082Z" fill="#2C2C2C"/>
<path d="M72.4462 53.082C73.9552 53.082 75.1785 51.8587 75.1785 50.3496C75.1785 48.8406 73.9552 47.6173 72.4462 47.6173C70.9372 47.6173 69.7139 48.8406 69.7139 50.3496C69.7139 51.8587 70.9372 53.082 72.4462 53.082Z" fill="#2C2C2C"/>
<path d="M81.3883 53.082C82.8974 53.082 84.1207 51.8587 84.1207 50.3496C84.1207 48.8406 82.8974 47.6173 81.3883 47.6173C79.8793 47.6173 78.656 48.8406 78.656 50.3496C78.656 51.8587 79.8793 53.082 81.3883 53.082Z" fill="#2C2C2C"/>
<path d="M81.3883 44.6365C82.8974 44.6365 84.1207 43.4132 84.1207 41.9042C84.1207 40.3952 82.8974 39.1719 81.3883 39.1719C79.8793 39.1719 78.656 40.3952 78.656 41.9042C78.656 43.4132 79.8793 44.6365 81.3883 44.6365Z" fill="#2C2C2C"/>
<path d="M90.3307 53.082C91.8398 53.082 93.0631 51.8587 93.0631 50.3496C93.0631 48.8406 91.8398 47.6173 90.3307 47.6173C88.8217 47.6173 87.5984 48.8406 87.5984 50.3496C87.5984 51.8587 88.8217 53.082 90.3307 53.082Z" fill="#2C2C2C"/>
<path d="M90.3307 44.6365C91.8398 44.6365 93.0631 43.4132 93.0631 41.9042C93.0631 40.3952 91.8398 39.1719 90.3307 39.1719C88.8217 39.1719 87.5984 40.3952 87.5984 41.9042C87.5984 43.4132 88.8217 44.6365 90.3307 44.6365Z" fill="#2C2C2C"/>
<path d="M90.3307 36.191C91.8398 36.191 93.0631 34.9677 93.0631 33.4587C93.0631 31.9496 91.8398 30.7263 90.3307 30.7263C88.8217 30.7263 87.5984 31.9496 87.5984 33.4587C87.5984 34.9677 88.8217 36.191 90.3307 36.191Z" fill="#2C2C2C"/>
<path d="M99.2729 53.082C100.782 53.082 102.005 51.8587 102.005 50.3496C102.005 48.8406 100.782 47.6173 99.2729 47.6173C97.7638 47.6173 96.5405 48.8406 96.5405 50.3496C96.5405 51.8587 97.7638 53.082 99.2729 53.082Z" fill="#2C2C2C"/>
<path d="M117.157 132.072C118.666 132.072 119.89 130.849 119.89 129.34C119.89 127.831 118.666 126.607 117.157 126.607C115.648 126.607 114.425 127.831 114.425 129.34C114.425 130.849 115.648 132.072 117.157 132.072Z" fill="#2C2C2C"/>
<path d="M126.1 132.072C127.609 132.072 128.832 130.849 128.832 129.34C128.832 127.831 127.609 126.607 126.1 126.607C124.59 126.607 123.367 127.831 123.367 129.34C123.367 130.849 124.59 132.072 126.1 132.072Z" fill="#2C2C2C"/>
<path d="M126.1 140.518C127.609 140.518 128.832 139.294 128.832 137.785C128.832 136.276 127.609 135.053 126.1 135.053C124.59 135.053 123.367 136.276 123.367 137.785C123.367 139.294 124.59 140.518 126.1 140.518Z" fill="#2C2C2C"/>
<path d="M135.042 140.518C136.551 140.518 137.774 139.294 137.774 137.785C137.774 136.276 136.551 135.053 135.042 135.053C133.533 135.053 132.31 136.276 132.31 137.785C132.31 139.294 133.533 140.518 135.042 140.518Z" fill="#2C2C2C"/>
<path d="M135.042 148.963C136.551 148.963 137.774 147.74 137.774 146.231C137.774 144.722 136.551 143.498 135.042 143.498C133.533 143.498 132.31 144.722 132.31 146.231C132.31 147.74 133.533 148.963 135.042 148.963Z" fill="#2C2C2C"/>
<path d="M143.984 148.963C145.493 148.963 146.716 147.74 146.716 146.231C146.716 144.722 145.493 143.498 143.984 143.498C142.475 143.498 141.252 144.722 141.252 146.231C141.252 147.74 142.475 148.963 143.984 148.963Z" fill="#2C2C2C"/>
<path d="M143.984 157.409C145.493 157.409 146.716 156.185 146.716 154.676C146.716 153.167 145.493 151.944 143.984 151.944C142.475 151.944 141.252 153.167 141.252 154.676C141.252 156.185 142.475 157.409 143.984 157.409Z" fill="#2C2C2C"/>
<path d="M143.984 165.854C145.493 165.854 146.716 164.631 146.716 163.122C146.716 161.613 145.493 160.389 143.984 160.389C142.475 160.389 141.252 161.613 141.252 163.122C141.252 164.631 142.475 165.854 143.984 165.854Z" fill="#2C2C2C"/>
<path d="M152.926 148.963C154.435 148.963 155.659 147.74 155.659 146.231C155.659 144.722 154.435 143.498 152.926 143.498C151.417 143.498 150.194 144.722 150.194 146.231C150.194 147.74 151.417 148.963 152.926 148.963Z" fill="#2C2C2C"/>
<path d="M135.042 157.409C136.551 157.409 137.774 156.185 137.774 154.676C137.774 153.167 136.551 151.944 135.042 151.944C133.533 151.944 132.31 153.167 132.31 154.676C132.31 156.185 133.533 157.409 135.042 157.409Z" fill="#2C2C2C"/>
<path d="M135.042 165.854C136.551 165.854 137.774 164.631 137.774 163.122C137.774 161.613 136.551 160.389 135.042 160.389C133.533 160.389 132.31 161.613 132.31 163.122C132.31 164.631 133.533 165.854 135.042 165.854Z" fill="#2C2C2C"/>
<path d="M135.042 174.299C136.551 174.299 137.774 173.076 137.774 171.567C137.774 170.058 136.551 168.835 135.042 168.835C133.533 168.835 132.31 170.058 132.31 171.567C132.31 173.076 133.533 174.299 135.042 174.299Z" fill="#2C2C2C"/>
<path d="M126.1 148.963C127.609 148.963 128.832 147.74 128.832 146.231C128.832 144.722 127.609 143.498 126.1 143.498C124.59 143.498 123.367 144.722 123.367 146.231C123.367 147.74 124.59 148.963 126.1 148.963Z" fill="#2C2C2C"/>
<path d="M126.1 157.409C127.609 157.409 128.832 156.185 128.832 154.676C128.832 153.167 127.609 151.944 126.1 151.944C124.59 151.944 123.367 153.167 123.367 154.676C123.367 156.185 124.59 157.409 126.1 157.409Z" fill="#2C2C2C"/>
<path d="M126.1 165.854C127.609 165.854 128.832 164.631 128.832 163.122C128.832 161.613 127.609 160.389 126.1 160.389C124.59 160.389 123.367 161.613 123.367 163.122C123.367 164.631 124.59 165.854 126.1 165.854Z" fill="#2C2C2C"/>
<path d="M126.1 174.299C127.609 174.299 128.832 173.076 128.832 171.567C128.832 170.058 127.609 168.835 126.1 168.835C124.59 168.835 123.367 170.058 123.367 171.567C123.367 173.076 124.59 174.299 126.1 174.299Z" fill="#2C2C2C"/>
<path d="M126.1 182.745C127.609 182.745 128.832 181.522 128.832 180.013C128.832 178.504 127.609 177.28 126.1 177.28C124.59 177.28 123.367 178.504 123.367 180.013C123.367 181.522 124.59 182.745 126.1 182.745Z" fill="#2C2C2C"/>
<path d="M108.215 132.072C109.724 132.072 110.947 130.849 110.947 129.34C110.947 127.831 109.724 126.607 108.215 126.607C106.706 126.607 105.483 127.831 105.483 129.34C105.483 130.849 106.706 132.072 108.215 132.072Z" fill="#2C2C2C"/>
<path d="M108.215 53.082C109.724 53.082 110.947 51.8587 110.947 50.3496C110.947 48.8406 109.724 47.6173 108.215 47.6173C106.706 47.6173 105.483 48.8406 105.483 50.3496C105.483 51.8587 106.706 53.082 108.215 53.082Z" fill="#2C2C2C"/>
<path d="M36.6772 61.5275C38.1862 61.5275 39.4095 60.3042 39.4095 58.7952C39.4095 57.2862 38.1862 56.0629 36.6772 56.0629C35.1681 56.0629 33.9448 57.2862 33.9448 58.7952C33.9448 60.3042 35.1681 61.5275 36.6772 61.5275Z" fill="#2C2C2C"/>
<path d="M36.6772 69.973C38.1862 69.973 39.4095 68.7497 39.4095 67.2406C39.4095 65.7316 38.1862 64.5083 36.6772 64.5083C35.1681 64.5083 33.9448 65.7316 33.9448 67.2406C33.9448 68.7497 35.1681 69.973 36.6772 69.973Z" fill="#2C2C2C"/>
<path d="M45.6195 61.5275C47.1286 61.5275 48.3519 60.3042 48.3519 58.7952C48.3519 57.2862 47.1286 56.0629 45.6195 56.0629C44.1105 56.0629 42.8872 57.2862 42.8872 58.7952C42.8872 60.3042 44.1105 61.5275 45.6195 61.5275Z" fill="#2C2C2C"/>
<path d="M54.5617 61.5275C56.0707 61.5275 57.294 60.3042 57.294 58.7952C57.294 57.2862 56.0707 56.0629 54.5617 56.0629C53.0527 56.0629 51.8293 57.2862 51.8293 58.7952C51.8293 60.3042 53.0527 61.5275 54.5617 61.5275Z" fill="#2C2C2C"/>
<path d="M63.5038 61.5275C65.0128 61.5275 66.2362 60.3042 66.2362 58.7952C66.2362 57.2862 65.0128 56.0629 63.5038 56.0629C61.9948 56.0629 60.7715 57.2862 60.7715 58.7952C60.7715 60.3042 61.9948 61.5275 63.5038 61.5275Z" fill="#2C2C2C"/>
<path d="M63.5038 69.973C65.0128 69.973 66.2362 68.7497 66.2362 67.2406C66.2362 65.7316 65.0128 64.5083 63.5038 64.5083C61.9948 64.5083 60.7715 65.7316 60.7715 67.2406C60.7715 68.7497 61.9948 69.973 63.5038 69.973Z" fill="#2C2C2C"/>
<path d="M72.4462 61.5275C73.9552 61.5275 75.1785 60.3042 75.1785 58.7952C75.1785 57.2862 73.9552 56.0629 72.4462 56.0629C70.9372 56.0629 69.7139 57.2862 69.7139 58.7952C69.7139 60.3042 70.9372 61.5275 72.4462 61.5275Z" fill="#2C2C2C"/>
<path d="M72.4462 69.973C73.9552 69.973 75.1785 68.7497 75.1785 67.2406C75.1785 65.7316 73.9552 64.5083 72.4462 64.5083C70.9372 64.5083 69.7139 65.7316 69.7139 67.2406C69.7139 68.7497 70.9372 69.973 72.4462 69.973Z" fill="#2C2C2C"/>
<path d="M72.4462 95.3094C73.9552 95.3094 75.1785 94.0861 75.1785 92.5771C75.1785 91.068 73.9552 89.8447 72.4462 89.8447C70.9372 89.8447 69.7139 91.068 69.7139 92.5771C69.7139 94.0861 70.9372 95.3094 72.4462 95.3094Z" fill="#2C2C2C"/>
<path d="M81.3883 61.5275C82.8974 61.5275 84.1207 60.3042 84.1207 58.7952C84.1207 57.2862 82.8974 56.0629 81.3883 56.0629C79.8793 56.0629 78.656 57.2862 78.656 58.7952C78.656 60.3042 79.8793 61.5275 81.3883 61.5275Z" fill="#2C2C2C"/>
<path d="M81.3883 69.973C82.8974 69.973 84.1207 68.7497 84.1207 67.2406C84.1207 65.7316 82.8974 64.5083 81.3883 64.5083C79.8793 64.5083 78.656 65.7316 78.656 67.2406C78.656 68.7497 79.8793 69.973 81.3883 69.973Z" fill="#2C2C2C"/>
<path d="M81.3883 78.4184C82.8974 78.4184 84.1207 77.1951 84.1207 75.6861C84.1207 74.177 82.8974 72.9537 81.3883 72.9537C79.8793 72.9537 78.656 74.177 78.656 75.6861C78.656 77.1951 79.8793 78.4184 81.3883 78.4184Z" fill="#2C2C2C"/>
<path d="M81.3883 86.864C82.8974 86.864 84.1207 85.6407 84.1207 84.1316C84.1207 82.6226 82.8974 81.3993 81.3883 81.3993C79.8793 81.3993 78.656 82.6226 78.656 84.1316C78.656 85.6407 79.8793 86.864 81.3883 86.864Z" fill="#2C2C2C"/>
<path d="M81.3883 95.3094C82.8974 95.3094 84.1207 94.0861 84.1207 92.5771C84.1207 91.068 82.8974 89.8447 81.3883 89.8447C79.8793 89.8447 78.656 91.068 78.656 92.5771C78.656 94.0861 79.8793 95.3094 81.3883 95.3094Z" fill="#2C2C2C"/>
<path d="M81.3883 112.2C82.8974 112.2 84.1207 110.977 84.1207 109.468C84.1207 107.959 82.8974 106.736 81.3883 106.736C79.8793 106.736 78.656 107.959 78.656 109.468C78.656 110.977 79.8793 112.2 81.3883 112.2Z" fill="#2C2C2C"/>
<path d="M90.3307 61.5275C91.8398 61.5275 93.0631 60.3042 93.0631 58.7952C93.0631 57.2862 91.8398 56.0629 90.3307 56.0629C88.8217 56.0629 87.5984 57.2862 87.5984 58.7952C87.5984 60.3042 88.8217 61.5275 90.3307 61.5275Z" fill="#2C2C2C"/>
<path d="M90.3307 69.973C91.8398 69.973 93.0631 68.7497 93.0631 67.2406C93.0631 65.7316 91.8398 64.5083 90.3307 64.5083C88.8217 64.5083 87.5984 65.7316 87.5984 67.2406C87.5984 68.7497 88.8217 69.973 90.3307 69.973Z" fill="#2C2C2C"/>
<path d="M90.3307 78.4184C91.8398 78.4184 93.0631 77.1951 93.0631 75.6861C93.0631 74.177 91.8398 72.9537 90.3307 72.9537C88.8217 72.9537 87.5984 74.177 87.5984 75.6861C87.5984 77.1951 88.8217 78.4184 90.3307 78.4184Z" fill="#2C2C2C"/>
<path d="M90.3307 86.864C91.8398 86.864 93.0631 85.6407 93.0631 84.1316C93.0631 82.6226 91.8398 81.3993 90.3307 81.3993C88.8217 81.3993 87.5984 82.6226 87.5984 84.1316C87.5984 85.6407 88.8217 86.864 90.3307 86.864Z" fill="#2C2C2C"/>
<path d="M90.3307 95.3094C91.8398 95.3094 93.0631 94.0861 93.0631 92.5771C93.0631 91.068 91.8398 89.8447 90.3307 89.8447C88.8217 89.8447 87.5984 91.068 87.5984 92.5771C87.5984 94.0861 88.8217 95.3094 90.3307 95.3094Z" fill="#2C2C2C"/>
<path d="M90.3307 103.755C91.8398 103.755 93.0631 102.532 93.0631 101.022C93.0631 99.5135 91.8398 98.2902 90.3307 98.2902C88.8217 98.2902 87.5984 99.5135 87.5984 101.022C87.5984 102.532 88.8217 103.755 90.3307 103.755Z" fill="#2C2C2C"/>
<path d="M90.3307 112.2C91.8398 112.2 93.0631 110.977 93.0631 109.468C93.0631 107.959 91.8398 106.736 90.3307 106.736C88.8217 106.736 87.5984 107.959 87.5984 109.468C87.5984 110.977 88.8217 112.2 90.3307 112.2Z" fill="#2C2C2C"/>
<path d="M99.2729 61.5275C100.782 61.5275 102.005 60.3042 102.005 58.7952C102.005 57.2862 100.782 56.0629 99.2729 56.0629C97.7638 56.0629 96.5405 57.2862 96.5405 58.7952C96.5405 60.3042 97.7638 61.5275 99.2729 61.5275Z" fill="#2C2C2C"/>
<path d="M117.157 140.518C118.666 140.518 119.89 139.294 119.89 137.785C119.89 136.276 118.666 135.053 117.157 135.053C115.648 135.053 114.425 136.276 114.425 137.785C114.425 139.294 115.648 140.518 117.157 140.518Z" fill="#2C2C2C"/>
<path d="M108.215 140.518C109.724 140.518 110.947 139.294 110.947 137.785C110.947 136.276 109.724 135.053 108.215 135.053C106.706 135.053 105.483 136.276 105.483 137.785C105.483 139.294 106.706 140.518 108.215 140.518Z" fill="#2C2C2C"/>
<path d="M99.2729 69.973C100.782 69.973 102.005 68.7497 102.005 67.2406C102.005 65.7316 100.782 64.5083 99.2729 64.5083C97.7638 64.5083 96.5405 65.7316 96.5405 67.2406C96.5405 68.7497 97.7638 69.973 99.2729 69.973Z" fill="#2C2C2C"/>
<path d="M117.157 148.963C118.666 148.963 119.89 147.74 119.89 146.231C119.89 144.722 118.666 143.498 117.157 143.498C115.648 143.498 114.425 144.722 114.425 146.231C114.425 147.74 115.648 148.963 117.157 148.963Z" fill="#2C2C2C"/>
<path d="M108.215 148.963C109.724 148.963 110.947 147.74 110.947 146.231C110.947 144.722 109.724 143.498 108.215 143.498C106.706 143.498 105.483 144.722 105.483 146.231C105.483 147.74 106.706 148.963 108.215 148.963Z" fill="#2C2C2C"/>
<path d="M99.2729 78.4184C100.782 78.4184 102.005 77.1951 102.005 75.6861C102.005 74.177 100.782 72.9537 99.2729 72.9537C97.7638 72.9537 96.5405 74.177 96.5405 75.6861C96.5405 77.1951 97.7638 78.4184 99.2729 78.4184Z" fill="#2C2C2C"/>
<path d="M117.157 157.409C118.666 157.409 119.89 156.185 119.89 154.676C119.89 153.167 118.666 151.944 117.157 151.944C115.648 151.944 114.425 153.167 114.425 154.676C114.425 156.185 115.648 157.409 117.157 157.409Z" fill="#2C2C2C"/>
<path d="M99.2729 86.864C100.782 86.864 102.005 85.6407 102.005 84.1316C102.005 82.6226 100.782 81.3993 99.2729 81.3993C97.7638 81.3993 96.5405 82.6226 96.5405 84.1316C96.5405 85.6407 97.7638 86.864 99.2729 86.864Z" fill="#2C2C2C"/>
<path d="M117.157 165.854C118.666 165.854 119.89 164.631 119.89 163.122C119.89 161.613 118.666 160.389 117.157 160.389C115.648 160.389 114.425 161.613 114.425 163.122C114.425 164.631 115.648 165.854 117.157 165.854Z" fill="#2C2C2C"/>
<path d="M99.2729 95.3094C100.782 95.3094 102.005 94.0861 102.005 92.5771C102.005 91.068 100.782 89.8447 99.2729 89.8447C97.7638 89.8447 96.5405 91.068 96.5405 92.5771C96.5405 94.0861 97.7638 95.3094 99.2729 95.3094Z" fill="#2C2C2C"/>
<path d="M117.157 174.299C118.666 174.299 119.89 173.076 119.89 171.567C119.89 170.058 118.666 168.835 117.157 168.835C115.648 168.835 114.425 170.058 114.425 171.567C114.425 173.076 115.648 174.299 117.157 174.299Z" fill="#2C2C2C"/>
<path d="M99.2729 103.755C100.782 103.755 102.005 102.532 102.005 101.022C102.005 99.5135 100.782 98.2902 99.2729 98.2902C97.7638 98.2902 96.5405 99.5135 96.5405 101.022C96.5405 102.532 97.7638 103.755 99.2729 103.755Z" fill="#2C2C2C"/>
<path d="M117.157 182.745C118.666 182.745 119.89 181.522 119.89 180.013C119.89 178.504 118.666 177.28 117.157 177.28C115.648 177.28 114.425 178.504 114.425 180.013C114.425 181.522 115.648 182.745 117.157 182.745Z" fill="#2C2C2C"/>
<path d="M99.2729 112.2C100.782 112.2 102.005 110.977 102.005 109.468C102.005 107.959 100.782 106.736 99.2729 106.736C97.7638 106.736 96.5405 107.959 96.5405 109.468C96.5405 110.977 97.7638 112.2 99.2729 112.2Z" fill="#2C2C2C"/>
<path d="M117.157 191.191C118.666 191.191 119.89 189.967 119.89 188.458C119.89 186.949 118.666 185.726 117.157 185.726C115.648 185.726 114.425 186.949 114.425 188.458C114.425 189.967 115.648 191.191 117.157 191.191Z" fill="#2C2C2C"/>
<path d="M108.215 112.2C109.724 112.2 110.947 110.977 110.947 109.468C110.947 107.959 109.724 106.736 108.215 106.736C106.706 106.736 105.483 107.959 105.483 109.468C105.483 110.977 106.706 112.2 108.215 112.2Z" fill="#2C2C2C"/>
<path d="M108.215 103.755C109.724 103.755 110.947 102.532 110.947 101.022C110.947 99.5135 109.724 98.2902 108.215 98.2902C106.706 98.2902 105.483 99.5135 105.483 101.022C105.483 102.532 106.706 103.755 108.215 103.755Z" fill="#2C2C2C"/>
<path d="M108.215 95.3094C109.724 95.3094 110.947 94.0861 110.947 92.5771C110.947 91.068 109.724 89.8447 108.215 89.8447C106.706 89.8447 105.483 91.068 105.483 92.5771C105.483 94.0861 106.706 95.3094 108.215 95.3094Z" fill="#2C2C2C"/>
<path d="M108.215 86.864C109.724 86.864 110.947 85.6407 110.947 84.1316C110.947 82.6226 109.724 81.3993 108.215 81.3993C106.706 81.3993 105.483 82.6226 105.483 84.1316C105.483 85.6407 106.706 86.864 108.215 86.864Z" fill="#2C2C2C"/>
<path d="M117.157 86.864C118.666 86.864 119.89 85.6407 119.89 84.1316C119.89 82.6226 118.666 81.3993 117.157 81.3993C115.648 81.3993 114.425 82.6226 114.425 84.1316C114.425 85.6407 115.648 86.864 117.157 86.864Z" fill="#2C2C2C"/>
<path d="M117.157 95.3094C118.666 95.3094 119.89 94.0861 119.89 92.5771C119.89 91.068 118.666 89.8447 117.157 89.8447C115.648 89.8447 114.425 91.068 114.425 92.5771C114.425 94.0861 115.648 95.3094 117.157 95.3094Z" fill="#2C2C2C"/>
<path d="M126.1 86.864C127.609 86.864 128.832 85.6407 128.832 84.1316C128.832 82.6226 127.609 81.3993 126.1 81.3993C124.59 81.3993 123.367 82.6226 123.367 84.1316C123.367 85.6407 124.59 86.864 126.1 86.864Z" fill="#2C2C2C"/>
<path d="M135.042 86.864C136.551 86.864 137.774 85.6407 137.774 84.1316C137.774 82.6226 136.551 81.3993 135.042 81.3993C133.533 81.3993 132.31 82.6226 132.31 84.1316C132.31 85.6407 133.533 86.864 135.042 86.864Z" fill="#2C2C2C"/>
<path d="M108.215 78.4184C109.724 78.4184 110.947 77.1951 110.947 75.6861C110.947 74.177 109.724 72.9537 108.215 72.9537C106.706 72.9537 105.483 74.177 105.483 75.6861C105.483 77.1951 106.706 78.4184 108.215 78.4184Z" fill="#2C2C2C"/>
<path d="M117.157 78.4184C118.666 78.4184 119.89 77.1951 119.89 75.6861C119.89 74.177 118.666 72.9537 117.157 72.9537C115.648 72.9537 114.425 74.177 114.425 75.6861C114.425 77.1951 115.648 78.4184 117.157 78.4184Z" fill="#2C2C2C"/>
<path d="M117.157 69.973C118.666 69.973 119.89 68.7497 119.89 67.2406C119.89 65.7316 118.666 64.5083 117.157 64.5083C115.648 64.5083 114.425 65.7316 114.425 67.2406C114.425 68.7497 115.648 69.973 117.157 69.973Z" fill="#2C2C2C"/>
<path d="M117.157 44.6365C118.666 44.6365 119.89 43.4132 119.89 41.9042C119.89 40.3952 118.666 39.1719 117.157 39.1719C115.648 39.1719 114.425 40.3952 114.425 41.9042C114.425 43.4132 115.648 44.6365 117.157 44.6365Z" fill="#2C2C2C"/>
<path d="M117.157 36.191C118.666 36.191 119.89 34.9677 119.89 33.4587C119.89 31.9496 118.666 30.7263 117.157 30.7263C115.648 30.7263 114.425 31.9496 114.425 33.4587C114.425 34.9677 115.648 36.191 117.157 36.191Z" fill="#2C2C2C"/>
<path d="M126.1 36.191C127.609 36.191 128.832 34.9677 128.832 33.4587C128.832 31.9496 127.609 30.7263 126.1 30.7263C124.59 30.7263 123.367 31.9496 123.367 33.4587C123.367 34.9677 124.59 36.191 126.1 36.191Z" fill="#2C2C2C"/>
<path d="M126.1 27.7456C127.609 27.7456 128.832 26.5222 128.832 25.0132C128.832 23.5042 127.609 22.2809 126.1 22.2809C124.59 22.2809 123.367 23.5042 123.367 25.0132C123.367 26.5222 124.59 27.7456 126.1 27.7456Z" fill="#2C2C2C"/>
<path d="M135.042 36.191C136.551 36.191 137.774 34.9677 137.774 33.4587C137.774 31.9496 136.551 30.7263 135.042 30.7263C133.533 30.7263 132.31 31.9496 132.31 33.4587C132.31 34.9677 133.533 36.191 135.042 36.191Z" fill="#2C2C2C"/>
<path d="M135.042 27.7456C136.551 27.7456 137.774 26.5222 137.774 25.0132C137.774 23.5042 136.551 22.2809 135.042 22.2809C133.533 22.2809 132.31 23.5042 132.31 25.0132C132.31 26.5222 133.533 27.7456 135.042 27.7456Z" fill="#2C2C2C"/>
<path d="M143.984 36.191C145.493 36.191 146.716 34.9677 146.716 33.4587C146.716 31.9496 145.493 30.7263 143.984 30.7263C142.475 30.7263 141.252 31.9496 141.252 33.4587C141.252 34.9677 142.475 36.191 143.984 36.191Z" fill="#2C2C2C"/>
<path d="M143.984 27.7456C145.493 27.7456 146.716 26.5222 146.716 25.0132C146.716 23.5042 145.493 22.2809 143.984 22.2809C142.475 22.2809 141.252 23.5042 141.252 25.0132C141.252 26.5222 142.475 27.7456 143.984 27.7456Z" fill="#2C2C2C"/>
<path d="M143.984 44.6365C145.493 44.6365 146.716 43.4132 146.716 41.9042C146.716 40.3952 145.493 39.1719 143.984 39.1719C142.475 39.1719 141.252 40.3952 141.252 41.9042C141.252 43.4132 142.475 44.6365 143.984 44.6365Z" fill="#2C2C2C"/>
<path d="M152.926 44.6365C154.435 44.6365 155.659 43.4132 155.659 41.9042C155.659 40.3952 154.435 39.1719 152.926 39.1719C151.417 39.1719 150.194 40.3952 150.194 41.9042C150.194 43.4132 151.417 44.6365 152.926 44.6365Z" fill="#2C2C2C"/>
<path d="M152.926 53.082C154.435 53.082 155.659 51.8587 155.659 50.3496C155.659 48.8406 154.435 47.6173 152.926 47.6173C151.417 47.6173 150.194 48.8406 150.194 50.3496C150.194 51.8587 151.417 53.082 152.926 53.082Z" fill="#2C2C2C"/>
<path d="M152.926 61.5275C154.435 61.5275 155.659 60.3042 155.659 58.7952C155.659 57.2862 154.435 56.0629 152.926 56.0629C151.417 56.0629 150.194 57.2862 150.194 58.7952C150.194 60.3042 151.417 61.5275 152.926 61.5275Z" fill="#2C2C2C"/>
<path d="M152.926 69.973C154.435 69.973 155.659 68.7497 155.659 67.2406C155.659 65.7316 154.435 64.5083 152.926 64.5083C151.417 64.5083 150.194 65.7316 150.194 67.2406C150.194 68.7497 151.417 69.973 152.926 69.973Z" fill="#2C2C2C"/>
<path d="M161.869 53.082C163.378 53.082 164.601 51.8587 164.601 50.3496C164.601 48.8406 163.378 47.6173 161.869 47.6173C160.36 47.6173 159.136 48.8406 159.136 50.3496C159.136 51.8587 160.36 53.082 161.869 53.082Z" fill="#2C2C2C"/>
<path d="M161.869 44.6365C163.378 44.6365 164.601 43.4132 164.601 41.9042C164.601 40.3952 163.378 39.1719 161.869 39.1719C160.36 39.1719 159.136 40.3952 159.136 41.9042C159.136 43.4132 160.36 44.6365 161.869 44.6365Z" fill="#2C2C2C"/>
<path d="M170.811 44.6365C172.32 44.6365 173.543 43.4132 173.543 41.9042C173.543 40.3952 172.32 39.1719 170.811 39.1719C169.302 39.1719 168.078 40.3952 168.078 41.9042C168.078 43.4132 169.302 44.6365 170.811 44.6365Z" fill="#2C2C2C"/>
<path d="M152.926 36.191C154.435 36.191 155.659 34.9677 155.659 33.4587C155.659 31.9496 154.435 30.7263 152.926 30.7263C151.417 30.7263 150.194 31.9496 150.194 33.4587C150.194 34.9677 151.417 36.191 152.926 36.191Z" fill="#2C2C2C"/>
<path d="M152.926 27.7456C154.435 27.7456 155.659 26.5222 155.659 25.0132C155.659 23.5042 154.435 22.2809 152.926 22.2809C151.417 22.2809 150.194 23.5042 150.194 25.0132C150.194 26.5222 151.417 27.7456 152.926 27.7456Z" fill="#2C2C2C"/>
<path d="M161.869 36.191C163.378 36.191 164.601 34.9677 164.601 33.4587C164.601 31.9496 163.378 30.7263 161.869 30.7263C160.36 30.7263 159.136 31.9496 159.136 33.4587C159.136 34.9677 160.36 36.191 161.869 36.191Z" fill="#2C2C2C"/>
<path d="M161.869 27.7456C163.378 27.7456 164.601 26.5222 164.601 25.0132C164.601 23.5042 163.378 22.2809 161.869 22.2809C160.36 22.2809 159.136 23.5042 159.136 25.0132C159.136 26.5222 160.36 27.7456 161.869 27.7456Z" fill="#2C2C2C"/>
<path d="M170.811 36.191C172.32 36.191 173.543 34.9677 173.543 33.4587C173.543 31.9496 172.32 30.7263 170.811 30.7263C169.302 30.7263 168.078 31.9496 168.078 33.4587C168.078 34.9677 169.302 36.191 170.811 36.191Z" fill="#2C2C2C"/>
<path d="M170.811 27.7456C172.32 27.7456 173.543 26.5222 173.543 25.0132C173.543 23.5042 172.32 22.2809 170.811 22.2809C169.302 22.2809 168.078 23.5042 168.078 25.0132C168.078 26.5222 169.302 27.7456 170.811 27.7456Z" fill="#2C2C2C"/>
<path d="M179.753 36.191C181.262 36.191 182.485 34.9677 182.485 33.4587C182.485 31.9496 181.262 30.7263 179.753 30.7263C178.244 30.7263 177.021 31.9496 177.021 33.4587C177.021 34.9677 178.244 36.191 179.753 36.191Z" fill="#2C2C2C"/>
<path d="M179.753 27.7456C181.262 27.7456 182.485 26.5222 182.485 25.0132C182.485 23.5042 181.262 22.2809 179.753 22.2809C178.244 22.2809 177.021 23.5042 177.021 25.0132C177.021 26.5222 178.244 27.7456 179.753 27.7456Z" fill="#2C2C2C"/>
<path d="M179.753 95.3094C181.262 95.3094 182.485 94.0861 182.485 92.5771C182.485 91.068 181.262 89.8447 179.753 89.8447C178.244 89.8447 177.021 91.068 177.021 92.5771C177.021 94.0861 178.244 95.3094 179.753 95.3094Z" fill="#2C2C2C"/>
<path d="M179.753 86.864C181.262 86.864 182.485 85.6407 182.485 84.1316C182.485 82.6226 181.262 81.3993 179.753 81.3993C178.244 81.3993 177.021 82.6226 177.021 84.1316C177.021 85.6407 178.244 86.864 179.753 86.864Z" fill="#2C2C2C"/>
<path d="M190.186 86.864C191.695 86.864 192.918 85.6407 192.918 84.1316C192.918 82.6226 191.695 81.3993 190.186 81.3993C188.677 81.3993 187.453 82.6226 187.453 84.1316C187.453 85.6407 188.677 86.864 190.186 86.864Z" fill="#2C2C2C"/>
<path d="M199.128 69.973C200.637 69.973 201.86 68.7497 201.86 67.2406C201.86 65.7316 200.637 64.5083 199.128 64.5083C197.619 64.5083 196.396 65.7316 196.396 67.2406C196.396 68.7497 197.619 69.973 199.128 69.973Z" fill="#2C2C2C"/>
<path d="M208.07 69.973C209.579 69.973 210.802 68.7497 210.802 67.2406C210.802 65.7316 209.579 64.5083 208.07 64.5083C206.561 64.5083 205.338 65.7316 205.338 67.2406C205.338 68.7497 206.561 69.973 208.07 69.973Z" fill="#2C2C2C"/>
<path d="M217.012 69.973C218.521 69.973 219.745 68.7497 219.745 67.2406C219.745 65.7316 218.521 64.5083 217.012 64.5083C215.503 64.5083 214.28 65.7316 214.28 67.2406C214.28 68.7497 215.503 69.973 217.012 69.973Z" fill="#2C2C2C"/>
<path d="M225.955 69.973C227.464 69.973 228.687 68.7497 228.687 67.2406C228.687 65.7316 227.464 64.5083 225.955 64.5083C224.445 64.5083 223.222 65.7316 223.222 67.2406C223.222 68.7497 224.445 69.973 225.955 69.973Z" fill="#2C2C2C"/>
<path d="M217.012 61.5275C218.521 61.5275 219.745 60.3042 219.745 58.7952C219.745 57.2862 218.521 56.0629 217.012 56.0629C215.503 56.0629 214.28 57.2862 214.28 58.7952C214.28 60.3042 215.503 61.5275 217.012 61.5275Z" fill="#2C2C2C"/>
<path d="M225.955 61.5275C227.464 61.5275 228.687 60.3042 228.687 58.7952C228.687 57.2862 227.464 56.0629 225.955 56.0629C224.445 56.0629 223.222 57.2862 223.222 58.7952C223.222 60.3042 224.445 61.5275 225.955 61.5275Z" fill="#2C2C2C"/>
<path d="M234.897 69.973C236.406 69.973 237.629 68.7497 237.629 67.2406C237.629 65.7316 236.406 64.5083 234.897 64.5083C233.388 64.5083 232.165 65.7316 232.165 67.2406C232.165 68.7497 233.388 69.973 234.897 69.973Z" fill="#2C2C2C"/>
<path d="M243.839 69.973C245.348 69.973 246.571 68.7497 246.571 67.2406C246.571 65.7316 245.348 64.5083 243.839 64.5083C242.33 64.5083 241.107 65.7316 241.107 67.2406C241.107 68.7497 242.33 69.973 243.839 69.973Z" fill="#2C2C2C"/>
<path d="M252.781 69.973C254.29 69.973 255.514 68.7497 255.514 67.2406C255.514 65.7316 254.29 64.5083 252.781 64.5083C251.272 64.5083 250.049 65.7316 250.049 67.2406C250.049 68.7497 251.272 69.973 252.781 69.973Z" fill="#2C2C2C"/>
<path d="M252.781 61.5275C254.29 61.5275 255.514 60.3042 255.514 58.7952C255.514 57.2862 254.29 56.0629 252.781 56.0629C251.272 56.0629 250.049 57.2862 250.049 58.7952C250.049 60.3042 251.272 61.5275 252.781 61.5275Z" fill="#2C2C2C"/>
<path d="M261.724 69.973C263.233 69.973 264.456 68.7497 264.456 67.2406C264.456 65.7316 263.233 64.5083 261.724 64.5083C260.215 64.5083 258.991 65.7316 258.991 67.2406C258.991 68.7497 260.215 69.973 261.724 69.973Z" fill="#2C2C2C"/>
<path d="M261.724 61.5275C263.233 61.5275 264.456 60.3042 264.456 58.7952C264.456 57.2862 263.233 56.0629 261.724 56.0629C260.215 56.0629 258.991 57.2862 258.991 58.7952C258.991 60.3042 260.215 61.5275 261.724 61.5275Z" fill="#2C2C2C"/>
<path d="M270.666 69.973C272.175 69.973 273.398 68.7497 273.398 67.2406C273.398 65.7316 272.175 64.5083 270.666 64.5083C269.157 64.5083 267.933 65.7316 267.933 67.2406C267.933 68.7497 269.157 69.973 270.666 69.973Z" fill="#2C2C2C"/>
<path d="M270.666 61.5275C272.175 61.5275 273.398 60.3042 273.398 58.7952C273.398 57.2862 272.175 56.0629 270.666 56.0629C269.157 56.0629 267.933 57.2862 267.933 58.7952C267.933 60.3042 269.157 61.5275 270.666 61.5275Z" fill="#2C2C2C"/>
<path d="M279.608 69.973C281.117 69.973 282.34 68.7497 282.34 67.2406C282.34 65.7316 281.117 64.5083 279.608 64.5083C278.099 64.5083 276.875 65.7316 276.875 67.2406C276.875 68.7497 278.099 69.973 279.608 69.973Z" fill="#2C2C2C"/>
<path d="M279.608 61.5275C281.117 61.5275 282.34 60.3042 282.34 58.7952C282.34 57.2862 281.117 56.0629 279.608 56.0629C278.099 56.0629 276.875 57.2862 276.875 58.7952C276.875 60.3042 278.099 61.5275 279.608 61.5275Z" fill="#2C2C2C"/>
<path d="M279.608 53.082C281.117 53.082 282.34 51.8587 282.34 50.3496C282.34 48.8406 281.117 47.6173 279.608 47.6173C278.099 47.6173 276.875 48.8406 276.875 50.3496C276.875 51.8587 278.099 53.082 279.608 53.082Z" fill="#2C2C2C"/>
<path d="M288.55 69.973C290.059 69.973 291.283 68.7497 291.283 67.2406C291.283 65.7316 290.059 64.5083 288.55 64.5083C287.041 64.5083 285.818 65.7316 285.818 67.2406C285.818 68.7497 287.041 69.973 288.55 69.973Z" fill="#2C2C2C"/>
<path d="M288.55 61.5275C290.059 61.5275 291.283 60.3042 291.283 58.7952C291.283 57.2862 290.059 56.0629 288.55 56.0629C287.041 56.0629 285.818 57.2862 285.818 58.7952C285.818 60.3042 287.041 61.5275 288.55 61.5275Z" fill="#2C2C2C"/>
<path d="M288.55 53.082C290.059 53.082 291.283 51.8587 291.283 50.3496C291.283 48.8406 290.059 47.6173 288.55 47.6173C287.041 47.6173 285.818 48.8406 285.818 50.3496C285.818 51.8587 287.041 53.082 288.55 53.082Z" fill="#2C2C2C"/>
<path d="M288.55 44.6365C290.059 44.6365 291.283 43.4132 291.283 41.9042C291.283 40.3952 290.059 39.1719 288.55 39.1719C287.041 39.1719 285.818 40.3952 285.818 41.9042C285.818 43.4132 287.041 44.6365 288.55 44.6365Z" fill="#2C2C2C"/>
<path d="M297.492 69.973C299.001 69.973 300.225 68.7497 300.225 67.2406C300.225 65.7316 299.001 64.5083 297.492 64.5083C295.983 64.5083 294.76 65.7316 294.76 67.2406C294.76 68.7497 295.983 69.973 297.492 69.973Z" fill="#2C2C2C"/>
<path d="M297.492 61.5275C299.001 61.5275 300.225 60.3042 300.225 58.7952C300.225 57.2862 299.001 56.0629 297.492 56.0629C295.983 56.0629 294.76 57.2862 294.76 58.7952C294.76 60.3042 295.983 61.5275 297.492 61.5275Z" fill="#2C2C2C"/>
<path d="M297.492 53.082C299.001 53.082 300.225 51.8587 300.225 50.3496C300.225 48.8406 299.001 47.6173 297.492 47.6173C295.983 47.6173 294.76 48.8406 294.76 50.3496C294.76 51.8587 295.983 53.082 297.492 53.082Z" fill="#2C2C2C"/>
<path d="M306.435 69.973C307.944 69.973 309.167 68.7497 309.167 67.2406C309.167 65.7316 307.944 64.5083 306.435 64.5083C304.926 64.5083 303.702 65.7316 303.702 67.2406C303.702 68.7497 304.926 69.973 306.435 69.973Z" fill="#2C2C2C"/>
<path d="M306.435 61.5275C307.944 61.5275 309.167 60.3042 309.167 58.7952C309.167 57.2862 307.944 56.0629 306.435 56.0629C304.926 56.0629 303.702 57.2862 303.702 58.7952C303.702 60.3042 304.926 61.5275 306.435 61.5275Z" fill="#2C2C2C"/>
<path d="M315.377 69.973C316.886 69.973 318.109 68.7497 318.109 67.2406C318.109 65.7316 316.886 64.5083 315.377 64.5083C313.868 64.5083 312.645 65.7316 312.645 67.2406C312.645 68.7497 313.868 69.973 315.377 69.973Z" fill="#2C2C2C"/>
<path d="M315.377 61.5275C316.886 61.5275 318.109 60.3042 318.109 58.7952C318.109 57.2862 316.886 56.0629 315.377 56.0629C313.868 56.0629 312.645 57.2862 312.645 58.7952C312.645 60.3042 313.868 61.5275 315.377 61.5275Z" fill="#2C2C2C"/>
<path d="M324.319 69.973C325.828 69.973 327.052 68.7497 327.052 67.2406C327.052 65.7316 325.828 64.5083 324.319 64.5083C322.81 64.5083 321.587 65.7316 321.587 67.2406C321.587 68.7497 322.81 69.973 324.319 69.973Z" fill="#2C2C2C"/>
<path d="M324.319 61.5275C325.828 61.5275 327.052 60.3042 327.052 58.7952C327.052 57.2862 325.828 56.0629 324.319 56.0629C322.81 56.0629 321.587 57.2862 321.587 58.7952C321.587 60.3042 322.81 61.5275 324.319 61.5275Z" fill="#2C2C2C"/>
<path d="M333.261 61.5275C334.77 61.5275 335.994 60.3042 335.994 58.7952C335.994 57.2862 334.77 56.0629 333.261 56.0629C331.752 56.0629 330.529 57.2862 330.529 58.7952C330.529 60.3042 331.752 61.5275 333.261 61.5275Z" fill="#2C2C2C"/>
<path d="M333.261 53.082C334.77 53.082 335.994 51.8587 335.994 50.3496C335.994 48.8406 334.77 47.6173 333.261 47.6173C331.752 47.6173 330.529 48.8406 330.529 50.3496C330.529 51.8587 331.752 53.082 333.261 53.082Z" fill="#2C2C2C"/>
<path d="M333.261 69.973C334.77 69.973 335.994 68.7497 335.994 67.2406C335.994 65.7316 334.77 64.5083 333.261 64.5083C331.752 64.5083 330.529 65.7316 330.529 67.2406C330.529 68.7497 331.752 69.973 333.261 69.973Z" fill="#2C2C2C"/>
<path d="M342.204 69.973C343.713 69.973 344.936 68.7497 344.936 67.2406C344.936 65.7316 343.713 64.5083 342.204 64.5083C340.695 64.5083 339.471 65.7316 339.471 67.2406C339.471 68.7497 340.695 69.973 342.204 69.973Z" fill="#2C2C2C"/>
<path d="M351.146 69.973C352.655 69.973 353.878 68.7497 353.878 67.2406C353.878 65.7316 352.655 64.5083 351.146 64.5083C349.637 64.5083 348.414 65.7316 348.414 67.2406C348.414 68.7497 349.637 69.973 351.146 69.973Z" fill="#2C2C2C"/>
<path d="M360.088 69.973C361.597 69.973 362.82 68.7497 362.82 67.2406C362.82 65.7316 361.597 64.5083 360.088 64.5083C358.579 64.5083 357.356 65.7316 357.356 67.2406C357.356 68.7497 358.579 69.973 360.088 69.973Z" fill="#2C2C2C"/>
<path d="M199.128 78.4184C200.637 78.4184 201.86 77.1951 201.86 75.6861C201.86 74.177 200.637 72.9537 199.128 72.9537C197.619 72.9537 196.396 74.177 196.396 75.6861C196.396 77.1951 197.619 78.4184 199.128 78.4184Z" fill="#2C2C2C"/>
<path d="M208.07 78.4184C209.579 78.4184 210.802 77.1951 210.802 75.6861C210.802 74.177 209.579 72.9537 208.07 72.9537C206.561 72.9537 205.338 74.177 205.338 75.6861C205.338 77.1951 206.561 78.4184 208.07 78.4184Z" fill="#2C2C2C"/>
<path d="M208.07 86.864C209.579 86.864 210.802 85.6407 210.802 84.1316C210.802 82.6226 209.579 81.3993 208.07 81.3993C206.561 81.3993 205.338 82.6226 205.338 84.1316C205.338 85.6407 206.561 86.864 208.07 86.864Z" fill="#2C2C2C"/>
<path d="M208.07 95.3094C209.579 95.3094 210.802 94.0861 210.802 92.5771C210.802 91.068 209.579 89.8447 208.07 89.8447C206.561 89.8447 205.338 91.068 205.338 92.5771C205.338 94.0861 206.561 95.3094 208.07 95.3094Z" fill="#2C2C2C"/>
<path d="M199.128 95.3094C200.637 95.3094 201.86 94.0861 201.86 92.5771C201.86 91.068 200.637 89.8447 199.128 89.8447C197.619 89.8447 196.396 91.068 196.396 92.5771C196.396 94.0861 197.619 95.3094 199.128 95.3094Z" fill="#2C2C2C"/>
<path d="M217.012 78.4184C218.521 78.4184 219.745 77.1951 219.745 75.6861C219.745 74.177 218.521 72.9537 217.012 72.9537C215.503 72.9537 214.28 74.177 214.28 75.6861C214.28 77.1951 215.503 78.4184 217.012 78.4184Z" fill="#2C2C2C"/>
<path d="M217.012 86.864C218.521 86.864 219.745 85.6407 219.745 84.1316C219.745 82.6226 218.521 81.3993 217.012 81.3993C215.503 81.3993 214.28 82.6226 214.28 84.1316C214.28 85.6407 215.503 86.864 217.012 86.864Z" fill="#2C2C2C"/>
<path d="M217.012 95.3094C218.521 95.3094 219.745 94.0861 219.745 92.5771C219.745 91.068 218.521 89.8447 217.012 89.8447C215.503 89.8447 214.28 91.068 214.28 92.5771C214.28 94.0861 215.503 95.3094 217.012 95.3094Z" fill="#2C2C2C"/>
<path d="M217.012 104.252C218.521 104.252 219.745 103.028 219.745 101.519C219.745 100.01 218.521 98.787 217.012 98.787C215.503 98.787 214.28 100.01 214.28 101.519C214.28 103.028 215.503 104.252 217.012 104.252Z" fill="#2C2C2C"/>
<path d="M217.012 113.194C218.521 113.194 219.745 111.971 219.745 110.462C219.745 108.953 218.521 107.729 217.012 107.729C215.503 107.729 214.28 108.953 214.28 110.462C214.28 111.971 215.503 113.194 217.012 113.194Z" fill="#2C2C2C"/>
<path d="M217.012 122.136C218.521 122.136 219.745 120.913 219.745 119.404C219.745 117.895 218.521 116.672 217.012 116.672C215.503 116.672 214.28 117.895 214.28 119.404C214.28 120.913 215.503 122.136 217.012 122.136Z" fill="#2C2C2C"/>
<path d="M217.012 131.079C218.521 131.079 219.745 129.855 219.745 128.346C219.745 126.837 218.521 125.614 217.012 125.614C215.503 125.614 214.28 126.837 214.28 128.346C214.28 129.855 215.503 131.079 217.012 131.079Z" fill="#2C2C2C"/>
<path d="M217.012 140.021C218.521 140.021 219.745 138.798 219.745 137.288C219.745 135.779 218.521 134.556 217.012 134.556C215.503 134.556 214.28 135.779 214.28 137.288C214.28 138.798 215.503 140.021 217.012 140.021Z" fill="#2C2C2C"/>
<path d="M217.012 148.963C218.521 148.963 219.745 147.74 219.745 146.231C219.745 144.722 218.521 143.498 217.012 143.498C215.503 143.498 214.28 144.722 214.28 146.231C214.28 147.74 215.503 148.963 217.012 148.963Z" fill="#2C2C2C"/>
<path d="M217.012 157.905C218.521 157.905 219.745 156.682 219.745 155.173C219.745 153.664 218.521 152.441 217.012 152.441C215.503 152.441 214.28 153.664 214.28 155.173C214.28 156.682 215.503 157.905 217.012 157.905Z" fill="#2C2C2C"/>
<path d="M217.012 166.847C218.521 166.847 219.745 165.624 219.745 164.115C219.745 162.606 218.521 161.383 217.012 161.383C215.503 161.383 214.28 162.606 214.28 164.115C214.28 165.624 215.503 166.847 217.012 166.847Z" fill="#2C2C2C"/>
<path d="M217.012 175.79C218.521 175.79 219.745 174.567 219.745 173.058C219.745 171.549 218.521 170.325 217.012 170.325C215.503 170.325 214.28 171.549 214.28 173.058C214.28 174.567 215.503 175.79 217.012 175.79Z" fill="#2C2C2C"/>
<path d="M225.955 104.252C227.464 104.252 228.687 103.028 228.687 101.519C228.687 100.01 227.464 98.787 225.955 98.787C224.445 98.787 223.222 100.01 223.222 101.519C223.222 103.028 224.445 104.252 225.955 104.252Z" fill="#2C2C2C"/>
<path d="M225.955 113.194C227.464 113.194 228.687 111.971 228.687 110.462C228.687 108.953 227.464 107.729 225.955 107.729C224.445 107.729 223.222 108.953 223.222 110.462C223.222 111.971 224.445 113.194 225.955 113.194Z" fill="#2C2C2C"/>
<path d="M225.955 122.136C227.464 122.136 228.687 120.913 228.687 119.404C228.687 117.895 227.464 116.672 225.955 116.672C224.445 116.672 223.222 117.895 223.222 119.404C223.222 120.913 224.445 122.136 225.955 122.136Z" fill="#2C2C2C"/>
<path d="M225.955 131.079C227.464 131.079 228.687 129.855 228.687 128.346C228.687 126.837 227.464 125.614 225.955 125.614C224.445 125.614 223.222 126.837 223.222 128.346C223.222 129.855 224.445 131.079 225.955 131.079Z" fill="#2C2C2C"/>
<path d="M225.955 140.021C227.464 140.021 228.687 138.798 228.687 137.288C228.687 135.779 227.464 134.556 225.955 134.556C224.445 134.556 223.222 135.779 223.222 137.288C223.222 138.798 224.445 140.021 225.955 140.021Z" fill="#2C2C2C"/>
<path d="M225.955 148.963C227.464 148.963 228.687 147.74 228.687 146.231C228.687 144.722 227.464 143.498 225.955 143.498C224.445 143.498 223.222 144.722 223.222 146.231C223.222 147.74 224.445 148.963 225.955 148.963Z" fill="#2C2C2C"/>
<path d="M225.955 157.905C227.464 157.905 228.687 156.682 228.687 155.173C228.687 153.664 227.464 152.441 225.955 152.441C224.445 152.441 223.222 153.664 223.222 155.173C223.222 156.682 224.445 157.905 225.955 157.905Z" fill="#2C2C2C"/>
<path d="M225.955 166.847C227.464 166.847 228.687 165.624 228.687 164.115C228.687 162.606 227.464 161.383 225.955 161.383C224.445 161.383 223.222 162.606 223.222 164.115C223.222 165.624 224.445 166.847 225.955 166.847Z" fill="#2C2C2C"/>
<path d="M225.955 175.79C227.464 175.79 228.687 174.567 228.687 173.058C228.687 171.549 227.464 170.325 225.955 170.325C224.445 170.325 223.222 171.549 223.222 173.058C223.222 174.567 224.445 175.79 225.955 175.79Z" fill="#2C2C2C"/>
<path d="M234.897 175.79C236.406 175.79 237.629 174.567 237.629 173.058C237.629 171.549 236.406 170.325 234.897 170.325C233.388 170.325 232.165 171.549 232.165 173.058C232.165 174.567 233.388 175.79 234.897 175.79Z" fill="#2C2C2C"/>
<path d="M208.07 118.659C209.579 118.659 210.802 117.435 210.802 115.926C210.802 114.417 209.579 113.194 208.07 113.194C206.561 113.194 205.338 114.417 205.338 115.926C205.338 117.435 206.561 118.659 208.07 118.659Z" fill="#2C2C2C"/>
<path d="M208.07 127.601C209.579 127.601 210.802 126.378 210.802 124.869C210.802 123.36 209.579 122.136 208.07 122.136C206.561 122.136 205.338 123.36 205.338 124.869C205.338 126.378 206.561 127.601 208.07 127.601Z" fill="#2C2C2C"/>
<path d="M208.07 136.543C209.579 136.543 210.802 135.32 210.802 133.811C210.802 132.302 209.579 131.079 208.07 131.079C206.561 131.079 205.338 132.302 205.338 133.811C205.338 135.32 206.561 136.543 208.07 136.543Z" fill="#2C2C2C"/>
<path d="M208.07 145.486C209.579 145.486 210.802 144.262 210.802 142.753C210.802 141.244 209.579 140.021 208.07 140.021C206.561 140.021 205.338 141.244 205.338 142.753C205.338 144.262 206.561 145.486 208.07 145.486Z" fill="#2C2C2C"/>
<path d="M208.07 154.428C209.579 154.428 210.802 153.204 210.802 151.695C210.802 150.186 209.579 148.963 208.07 148.963C206.561 148.963 205.338 150.186 205.338 151.695C205.338 153.204 206.561 154.428 208.07 154.428Z" fill="#2C2C2C"/>
<path d="M208.07 163.37C209.579 163.37 210.802 162.147 210.802 160.638C210.802 159.129 209.579 157.905 208.07 157.905C206.561 157.905 205.338 159.129 205.338 160.638C205.338 162.147 206.561 163.37 208.07 163.37Z" fill="#2C2C2C"/>
<path d="M208.07 172.312C209.579 172.312 210.802 171.089 210.802 169.58C210.802 168.071 209.579 166.848 208.07 166.848C206.561 166.848 205.338 168.071 205.338 169.58C205.338 171.089 206.561 172.312 208.07 172.312Z" fill="#2C2C2C"/>
<path d="M208.07 181.255C209.579 181.255 210.802 180.031 210.802 178.522C210.802 177.013 209.579 175.79 208.07 175.79C206.561 175.79 205.338 177.013 205.338 178.522C205.338 180.031 206.561 181.255 208.07 181.255Z" fill="#2C2C2C"/>
<path d="M208.07 190.197C209.579 190.197 210.802 188.974 210.802 187.465C210.802 185.955 209.579 184.732 208.07 184.732C206.561 184.732 205.338 185.955 205.338 187.465C205.338 188.974 206.561 190.197 208.07 190.197Z" fill="#2C2C2C"/>
<path d="M199.128 118.659C200.637 118.659 201.86 117.435 201.86 115.926C201.86 114.417 200.637 113.194 199.128 113.194C197.619 113.194 196.396 114.417 196.396 115.926C196.396 117.435 197.619 118.659 199.128 118.659Z" fill="#2C2C2C"/>
<path d="M199.128 110.213C200.637 110.213 201.86 108.99 201.86 107.481C201.86 105.972 200.637 104.749 199.128 104.749C197.619 104.749 196.396 105.972 196.396 107.481C196.396 108.99 197.619 110.213 199.128 110.213Z" fill="#2C2C2C"/>
<path d="M190.186 110.213C191.695 110.213 192.918 108.99 192.918 107.481C192.918 105.972 191.695 104.749 190.186 104.749C188.677 104.749 187.453 105.972 187.453 107.481C187.453 108.99 188.677 110.213 190.186 110.213Z" fill="#2C2C2C"/>
<path d="M190.186 118.659C191.695 118.659 192.918 117.435 192.918 115.926C192.918 114.417 191.695 113.194 190.186 113.194C188.677 113.194 187.453 114.417 187.453 115.926C187.453 117.435 188.677 118.659 190.186 118.659Z" fill="#2C2C2C"/>
<path d="M190.186 127.601C191.695 127.601 192.918 126.378 192.918 124.869C192.918 123.36 191.695 122.136 190.186 122.136C188.677 122.136 187.453 123.36 187.453 124.869C187.453 126.378 188.677 127.601 190.186 127.601Z" fill="#2C2C2C"/>
<path d="M190.186 135.053C191.695 135.053 192.918 133.829 192.918 132.32C192.918 130.811 191.695 129.588 190.186 129.588C188.677 129.588 187.453 130.811 187.453 132.32C187.453 133.829 188.677 135.053 190.186 135.053Z" fill="#2C2C2C"/>
<path d="M179.753 135.053C181.262 135.053 182.485 133.829 182.485 132.32C182.485 130.811 181.262 129.588 179.753 129.588C178.244 129.588 177.021 130.811 177.021 132.32C177.021 133.829 178.244 135.053 179.753 135.053Z" fill="#2C2C2C"/>
<path d="M199.128 127.601C200.637 127.601 201.86 126.378 201.86 124.869C201.86 123.36 200.637 122.136 199.128 122.136C197.619 122.136 196.396 123.36 196.396 124.869C196.396 126.378 197.619 127.601 199.128 127.601Z" fill="#2C2C2C"/>
<path d="M199.128 136.543C200.637 136.543 201.86 135.32 201.86 133.811C201.86 132.302 200.637 131.079 199.128 131.079C197.619 131.079 196.396 132.302 196.396 133.811C196.396 135.32 197.619 136.543 199.128 136.543Z" fill="#2C2C2C"/>
<path d="M199.128 145.486C200.637 145.486 201.86 144.262 201.86 142.753C201.86 141.244 200.637 140.021 199.128 140.021C197.619 140.021 196.396 141.244 196.396 142.753C196.396 144.262 197.619 145.486 199.128 145.486Z" fill="#2C2C2C"/>
<path d="M199.128 154.428C200.637 154.428 201.86 153.204 201.86 151.695C201.86 150.186 200.637 148.963 199.128 148.963C197.619 148.963 196.396 150.186 196.396 151.695C196.396 153.204 197.619 154.428 199.128 154.428Z" fill="#2C2C2C"/>
<path d="M199.128 163.37C200.637 163.37 201.86 162.147 201.86 160.638C201.86 159.129 200.637 157.905 199.128 157.905C197.619 157.905 196.396 159.129 196.396 160.638C196.396 162.147 197.619 163.37 199.128 163.37Z" fill="#2C2C2C"/>
<path d="M199.128 172.312C200.637 172.312 201.86 171.089 201.86 169.58C201.86 168.071 200.637 166.848 199.128 166.848C197.619 166.848 196.396 168.071 196.396 169.58C196.396 171.089 197.619 172.312 199.128 172.312Z" fill="#2C2C2C"/>
<path d="M217.012 184.732C218.521 184.732 219.745 183.509 219.745 182C219.745 180.491 218.521 179.268 217.012 179.268C215.503 179.268 214.28 180.491 214.28 182C214.28 183.509 215.503 184.732 217.012 184.732Z" fill="#2C2C2C"/>
<path d="M225.955 78.4184C227.464 78.4184 228.687 77.1951 228.687 75.6861C228.687 74.177 227.464 72.9537 225.955 72.9537C224.445 72.9537 223.222 74.177 223.222 75.6861C223.222 77.1951 224.445 78.4184 225.955 78.4184Z" fill="#2C2C2C"/>
<path d="M225.955 86.864C227.464 86.864 228.687 85.6407 228.687 84.1316C228.687 82.6226 227.464 81.3993 225.955 81.3993C224.445 81.3993 223.222 82.6226 223.222 84.1316C223.222 85.6407 224.445 86.864 225.955 86.864Z" fill="#2C2C2C"/>
<path d="M225.955 95.3094C227.464 95.3094 228.687 94.0861 228.687 92.5771C228.687 91.068 227.464 89.8447 225.955 89.8447C224.445 89.8447 223.222 91.068 223.222 92.5771C223.222 94.0861 224.445 95.3094 225.955 95.3094Z" fill="#2C2C2C"/>
<path d="M234.897 78.4184C236.406 78.4184 237.629 77.1951 237.629 75.6861C237.629 74.177 236.406 72.9537 234.897 72.9537C233.388 72.9537 232.165 74.177 232.165 75.6861C232.165 77.1951 233.388 78.4184 234.897 78.4184Z" fill="#2C2C2C"/>
<path d="M234.897 86.864C236.406 86.864 237.629 85.6407 237.629 84.1316C237.629 82.6226 236.406 81.3993 234.897 81.3993C233.388 81.3993 232.165 82.6226 232.165 84.1316C232.165 85.6407 233.388 86.864 234.897 86.864Z" fill="#2C2C2C"/>
<path d="M234.897 95.3094C236.406 95.3094 237.629 94.0861 237.629 92.5771C237.629 91.068 236.406 89.8447 234.897 89.8447C233.388 89.8447 232.165 91.068 232.165 92.5771C232.165 94.0861 233.388 95.3094 234.897 95.3094Z" fill="#2C2C2C"/>
<path d="M234.897 103.755C236.406 103.755 237.629 102.532 237.629 101.022C237.629 99.5135 236.406 98.2902 234.897 98.2902C233.388 98.2902 232.165 99.5135 232.165 101.022C232.165 102.532 233.388 103.755 234.897 103.755Z" fill="#2C2C2C"/>
<path d="M234.897 112.2C236.406 112.2 237.629 110.977 237.629 109.468C237.629 107.959 236.406 106.736 234.897 106.736C233.388 106.736 232.165 107.959 232.165 109.468C232.165 110.977 233.388 112.2 234.897 112.2Z" fill="#2C2C2C"/>
<path d="M234.897 120.646C236.406 120.646 237.629 119.423 237.629 117.913C237.629 116.404 236.406 115.181 234.897 115.181C233.388 115.181 232.165 116.404 232.165 117.913C232.165 119.423 233.388 120.646 234.897 120.646Z" fill="#2C2C2C"/>
<path d="M234.897 129.091C236.406 129.091 237.629 127.868 237.629 126.359C237.629 124.85 236.406 123.627 234.897 123.627C233.388 123.627 232.165 124.85 232.165 126.359C232.165 127.868 233.388 129.091 234.897 129.091Z" fill="#2C2C2C"/>
<path d="M234.897 137.537C236.406 137.537 237.629 136.314 237.629 134.804C237.629 133.295 236.406 132.072 234.897 132.072C233.388 132.072 232.165 133.295 232.165 134.804C232.165 136.314 233.388 137.537 234.897 137.537Z" fill="#2C2C2C"/>
<path d="M243.839 78.4184C245.348 78.4184 246.571 77.1951 246.571 75.6861C246.571 74.177 245.348 72.9537 243.839 72.9537C242.33 72.9537 241.107 74.177 241.107 75.6861C241.107 77.1951 242.33 78.4184 243.839 78.4184Z" fill="#2C2C2C"/>
<path d="M243.839 86.864C245.348 86.864 246.571 85.6407 246.571 84.1316C246.571 82.6226 245.348 81.3993 243.839 81.3993C242.33 81.3993 241.107 82.6226 241.107 84.1316C241.107 85.6407 242.33 86.864 243.839 86.864Z" fill="#2C2C2C"/>
<path d="M243.839 95.3094C245.348 95.3094 246.571 94.0861 246.571 92.5771C246.571 91.068 245.348 89.8447 243.839 89.8447C242.33 89.8447 241.107 91.068 241.107 92.5771C241.107 94.0861 242.33 95.3094 243.839 95.3094Z" fill="#2C2C2C"/>
<path d="M243.839 103.755C245.348 103.755 246.571 102.532 246.571 101.022C246.571 99.5135 245.348 98.2902 243.839 98.2902C242.33 98.2902 241.107 99.5135 241.107 101.022C241.107 102.532 242.33 103.755 243.839 103.755Z" fill="#2C2C2C"/>
<path d="M252.781 103.755C254.29 103.755 255.514 102.532 255.514 101.022C255.514 99.5135 254.29 98.2902 252.781 98.2902C251.272 98.2902 250.049 99.5135 250.049 101.022C250.049 102.532 251.272 103.755 252.781 103.755Z" fill="#2C2C2C"/>
<path d="M261.724 103.755C263.233 103.755 264.456 102.532 264.456 101.022C264.456 99.5135 263.233 98.2902 261.724 98.2902C260.215 98.2902 258.991 99.5135 258.991 101.022C258.991 102.532 260.215 103.755 261.724 103.755Z" fill="#2C2C2C"/>
<path d="M270.666 103.755C272.175 103.755 273.398 102.532 273.398 101.022C273.398 99.5135 272.175 98.2902 270.666 98.2902C269.157 98.2902 267.933 99.5135 267.933 101.022C267.933 102.532 269.157 103.755 270.666 103.755Z" fill="#2C2C2C"/>
<path d="M279.608 103.755C281.117 103.755 282.34 102.532 282.34 101.022C282.34 99.5135 281.117 98.2902 279.608 98.2902C278.099 98.2902 276.875 99.5135 276.875 101.022C276.875 102.532 278.099 103.755 279.608 103.755Z" fill="#2C2C2C"/>
<path d="M288.55 103.755C290.059 103.755 291.283 102.532 291.283 101.022C291.283 99.5135 290.059 98.2902 288.55 98.2902C287.041 98.2902 285.818 99.5135 285.818 101.022C285.818 102.532 287.041 103.755 288.55 103.755Z" fill="#2C2C2C"/>
<path d="M297.492 103.755C299.001 103.755 300.225 102.532 300.225 101.022C300.225 99.5135 299.001 98.2902 297.492 98.2902C295.983 98.2902 294.76 99.5135 294.76 101.022C294.76 102.532 295.983 103.755 297.492 103.755Z" fill="#2C2C2C"/>
<path d="M306.435 103.755C307.944 103.755 309.167 102.532 309.167 101.022C309.167 99.5135 307.944 98.2902 306.435 98.2902C304.926 98.2902 303.702 99.5135 303.702 101.022C303.702 102.532 304.926 103.755 306.435 103.755Z" fill="#2C2C2C"/>
<path d="M315.377 103.755C316.886 103.755 318.109 102.532 318.109 101.022C318.109 99.5135 316.886 98.2902 315.377 98.2902C313.868 98.2902 312.645 99.5135 312.645 101.022C312.645 102.532 313.868 103.755 315.377 103.755Z" fill="#2C2C2C"/>
<path d="M315.377 112.2C316.886 112.2 318.109 110.977 318.109 109.468C318.109 107.959 316.886 106.736 315.377 106.736C313.868 106.736 312.645 107.959 312.645 109.468C312.645 110.977 313.868 112.2 315.377 112.2Z" fill="#2C2C2C"/>
<path d="M324.319 103.755C325.828 103.755 327.052 102.532 327.052 101.022C327.052 99.5135 325.828 98.2902 324.319 98.2902C322.81 98.2902 321.587 99.5135 321.587 101.022C321.587 102.532 322.81 103.755 324.319 103.755Z" fill="#2C2C2C"/>
<path d="M243.839 112.2C245.348 112.2 246.571 110.977 246.571 109.468C246.571 107.959 245.348 106.736 243.839 106.736C242.33 106.736 241.107 107.959 241.107 109.468C241.107 110.977 242.33 112.2 243.839 112.2Z" fill="#2C2C2C"/>
<path d="M252.781 112.2C254.29 112.2 255.514 110.977 255.514 109.468C255.514 107.959 254.29 106.736 252.781 106.736C251.272 106.736 250.049 107.959 250.049 109.468C250.049 110.977 251.272 112.2 252.781 112.2Z" fill="#2C2C2C"/>
<path d="M252.781 120.646C254.29 120.646 255.514 119.423 255.514 117.913C255.514 116.404 254.29 115.181 252.781 115.181C251.272 115.181 250.049 116.404 250.049 117.913C250.049 119.423 251.272 120.646 252.781 120.646Z" fill="#2C2C2C"/>
<path d="M261.724 120.646C263.233 120.646 264.456 119.423 264.456 117.913C264.456 116.404 263.233 115.181 261.724 115.181C260.215 115.181 258.991 116.404 258.991 117.913C258.991 119.423 260.215 120.646 261.724 120.646Z" fill="#2C2C2C"/>
<path d="M261.724 129.091C263.233 129.091 264.456 127.868 264.456 126.359C264.456 124.85 263.233 123.627 261.724 123.627C260.215 123.627 258.991 124.85 258.991 126.359C258.991 127.868 260.215 129.091 261.724 129.091Z" fill="#2C2C2C"/>
<path d="M270.666 129.091C272.175 129.091 273.398 127.868 273.398 126.359C273.398 124.85 272.175 123.627 270.666 123.627C269.157 123.627 267.933 124.85 267.933 126.359C267.933 127.868 269.157 129.091 270.666 129.091Z" fill="#2C2C2C"/>
<path d="M279.608 129.091C281.117 129.091 282.34 127.868 282.34 126.359C282.34 124.85 281.117 123.627 279.608 123.627C278.099 123.627 276.875 124.85 276.875 126.359C276.875 127.868 278.099 129.091 279.608 129.091Z" fill="#2C2C2C"/>
<path d="M279.608 137.537C281.117 137.537 282.34 136.314 282.34 134.804C282.34 133.295 281.117 132.072 279.608 132.072C278.099 132.072 276.875 133.295 276.875 134.804C276.875 136.314 278.099 137.537 279.608 137.537Z" fill="#2C2C2C"/>
<path d="M288.55 137.537C290.059 137.537 291.283 136.314 291.283 134.804C291.283 133.295 290.059 132.072 288.55 132.072C287.041 132.072 285.818 133.295 285.818 134.804C285.818 136.314 287.041 137.537 288.55 137.537Z" fill="#2C2C2C"/>
<path d="M288.55 148.963C290.059 148.963 291.283 147.74 291.283 146.231C291.283 144.722 290.059 143.498 288.55 143.498C287.041 143.498 285.818 144.722 285.818 146.231C285.818 147.74 287.041 148.963 288.55 148.963Z" fill="#2C2C2C"/>
<path d="M297.492 148.963C299.001 148.963 300.225 147.74 300.225 146.231C300.225 144.722 299.001 143.498 297.492 143.498C295.983 143.498 294.76 144.722 294.76 146.231C294.76 147.74 295.983 148.963 297.492 148.963Z" fill="#2C2C2C"/>
<path d="M306.435 157.905C307.944 157.905 309.167 156.682 309.167 155.173C309.167 153.664 307.944 152.441 306.435 152.441C304.926 152.441 303.702 153.664 303.702 155.173C303.702 156.682 304.926 157.905 306.435 157.905Z" fill="#2C2C2C"/>
<path d="M306.435 175.79C307.944 175.79 309.167 174.567 309.167 173.058C309.167 171.549 307.944 170.325 306.435 170.325C304.926 170.325 303.702 171.549 303.702 173.058C303.702 174.567 304.926 175.79 306.435 175.79Z" fill="#2C2C2C"/>
<path d="M315.377 175.79C316.886 175.79 318.109 174.567 318.109 173.058C318.109 171.549 316.886 170.325 315.377 170.325C313.868 170.325 312.645 171.549 312.645 173.058C312.645 174.567 313.868 175.79 315.377 175.79Z" fill="#2C2C2C"/>
<path d="M315.377 184.235C316.886 184.235 318.109 183.012 318.109 181.503C318.109 179.994 316.886 178.771 315.377 178.771C313.868 178.771 312.645 179.994 312.645 181.503C312.645 183.012 313.868 184.235 315.377 184.235Z" fill="#2C2C2C"/>
<path d="M324.319 184.235C325.828 184.235 327.052 183.012 327.052 181.503C327.052 179.994 325.828 178.771 324.319 178.771C322.81 178.771 321.587 179.994 321.587 181.503C321.587 183.012 322.81 184.235 324.319 184.235Z" fill="#2C2C2C"/>
<path d="M324.319 192.681C325.828 192.681 327.052 191.457 327.052 189.948C327.052 188.439 325.828 187.216 324.319 187.216C322.81 187.216 321.587 188.439 321.587 189.948C321.587 191.457 322.81 192.681 324.319 192.681Z" fill="#2C2C2C"/>
<path d="M351.146 208.081C352.655 208.081 353.878 206.858 353.878 205.349C353.878 203.84 352.655 202.617 351.146 202.617C349.637 202.617 348.414 203.84 348.414 205.349C348.414 206.858 349.637 208.081 351.146 208.081Z" fill="#2C2C2C"/>
<path d="M333.261 184.235C334.77 184.235 335.994 183.012 335.994 181.503C335.994 179.994 334.77 178.771 333.261 178.771C331.752 178.771 330.529 179.994 330.529 181.503C330.529 183.012 331.752 184.235 333.261 184.235Z" fill="#2C2C2C"/>
<path d="M324.319 175.79C325.828 175.79 327.052 174.567 327.052 173.058C327.052 171.549 325.828 170.325 324.319 170.325C322.81 170.325 321.587 171.549 321.587 173.058C321.587 174.567 322.81 175.79 324.319 175.79Z" fill="#2C2C2C"/>
<path d="M324.319 167.344C325.828 167.344 327.052 166.121 327.052 164.612C327.052 163.103 325.828 161.88 324.319 161.88C322.81 161.88 321.587 163.103 321.587 164.612C321.587 166.121 322.81 167.344 324.319 167.344Z" fill="#2C2C2C"/>
<path d="M324.319 157.905C325.828 157.905 327.052 156.682 327.052 155.173C327.052 153.664 325.828 152.441 324.319 152.441C322.81 152.441 321.587 153.664 321.587 155.173C321.587 156.682 322.81 157.905 324.319 157.905Z" fill="#2C2C2C"/>
<path d="M333.261 175.79C334.77 175.79 335.994 174.567 335.994 173.058C335.994 171.549 334.77 170.325 333.261 170.325C331.752 170.325 330.529 171.549 330.529 173.058C330.529 174.567 331.752 175.79 333.261 175.79Z" fill="#2C2C2C"/>
<path d="M333.261 166.847C334.77 166.847 335.994 165.624 335.994 164.115C335.994 162.606 334.77 161.383 333.261 161.383C331.752 161.383 330.529 162.606 330.529 164.115C330.529 165.624 331.752 166.847 333.261 166.847Z" fill="#2C2C2C"/>
<path d="M333.261 158.402C334.77 158.402 335.994 157.179 335.994 155.67C335.994 154.161 334.77 152.938 333.261 152.938C331.752 152.938 330.529 154.161 330.529 155.67C330.529 157.179 331.752 158.402 333.261 158.402Z" fill="#2C2C2C"/>
<path d="M333.261 149.46C334.77 149.46 335.994 148.236 335.994 146.727C335.994 145.218 334.77 143.995 333.261 143.995C331.752 143.995 330.529 145.218 330.529 146.727C330.529 148.236 331.752 149.46 333.261 149.46Z" fill="#2C2C2C"/>
<path d="M306.435 193.674C307.944 193.674 309.167 192.451 309.167 190.942C309.167 189.433 307.944 188.21 306.435 188.21C304.926 188.21 303.702 189.433 303.702 190.942C303.702 192.451 304.926 193.674 306.435 193.674Z" fill="#2C2C2C"/>
<path d="M306.435 184.235C307.944 184.235 309.167 183.012 309.167 181.503C309.167 179.994 307.944 178.771 306.435 178.771C304.926 178.771 303.702 179.994 303.702 181.503C303.702 183.012 304.926 184.235 306.435 184.235Z" fill="#2C2C2C"/>
<path d="M288.55 129.091C290.059 129.091 291.283 127.868 291.283 126.359C291.283 124.85 290.059 123.627 288.55 123.627C287.041 123.627 285.818 124.85 285.818 126.359C285.818 127.868 287.041 129.091 288.55 129.091Z" fill="#2C2C2C"/>
<path d="M297.492 129.091C299.001 129.091 300.225 127.868 300.225 126.359C300.225 124.85 299.001 123.627 297.492 123.627C295.983 123.627 294.76 124.85 294.76 126.359C294.76 127.868 295.983 129.091 297.492 129.091Z" fill="#2C2C2C"/>
<path d="M252.781 129.091C254.29 129.091 255.514 127.868 255.514 126.359C255.514 124.85 254.29 123.627 252.781 123.627C251.272 123.627 250.049 124.85 250.049 126.359C250.049 127.868 251.272 129.091 252.781 129.091Z" fill="#2C2C2C"/>
<path d="M261.724 137.537C263.233 137.537 264.456 136.314 264.456 134.804C264.456 133.295 263.233 132.072 261.724 132.072C260.215 132.072 258.991 133.295 258.991 134.804C258.991 136.314 260.215 137.537 261.724 137.537Z" fill="#2C2C2C"/>
<path d="M261.724 145.982C263.233 145.982 264.456 144.759 264.456 143.25C264.456 141.741 263.233 140.518 261.724 140.518C260.215 140.518 258.991 141.741 258.991 143.25C258.991 144.759 260.215 145.982 261.724 145.982Z" fill="#2C2C2C"/>
<path d="M270.666 120.646C272.175 120.646 273.398 119.423 273.398 117.913C273.398 116.404 272.175 115.181 270.666 115.181C269.157 115.181 267.933 116.404 267.933 117.913C267.933 119.423 269.157 120.646 270.666 120.646Z" fill="#2C2C2C"/>
<path d="M279.608 120.646C281.117 120.646 282.34 119.423 282.34 117.913C282.34 116.404 281.117 115.181 279.608 115.181C278.099 115.181 276.875 116.404 276.875 117.913C276.875 119.423 278.099 120.646 279.608 120.646Z" fill="#2C2C2C"/>
<path d="M288.55 120.646C290.059 120.646 291.283 119.423 291.283 117.913C291.283 116.404 290.059 115.181 288.55 115.181C287.041 115.181 285.818 116.404 285.818 117.913C285.818 119.423 287.041 120.646 288.55 120.646Z" fill="#2C2C2C"/>
<path d="M297.492 120.646C299.001 120.646 300.225 119.423 300.225 117.913C300.225 116.404 299.001 115.181 297.492 115.181C295.983 115.181 294.76 116.404 294.76 117.913C294.76 119.423 295.983 120.646 297.492 120.646Z" fill="#2C2C2C"/>
<path d="M306.435 120.646C307.944 120.646 309.167 119.423 309.167 117.913C309.167 116.404 307.944 115.181 306.435 115.181C304.926 115.181 303.702 116.404 303.702 117.913C303.702 119.423 304.926 120.646 306.435 120.646Z" fill="#2C2C2C"/>
<path d="M306.435 129.588C307.944 129.588 309.167 128.365 309.167 126.856C309.167 125.347 307.944 124.123 306.435 124.123C304.926 124.123 303.702 125.347 303.702 126.856C303.702 128.365 304.926 129.588 306.435 129.588Z" fill="#2C2C2C"/>
<path d="M306.435 137.04C307.944 137.04 309.167 135.817 309.167 134.308C309.167 132.799 307.944 131.575 306.435 131.575C304.926 131.575 303.702 132.799 303.702 134.308C303.702 135.817 304.926 137.04 306.435 137.04Z" fill="#2C2C2C"/>
<path d="M261.724 112.2C263.233 112.2 264.456 110.977 264.456 109.468C264.456 107.959 263.233 106.736 261.724 106.736C260.215 106.736 258.991 107.959 258.991 109.468C258.991 110.977 260.215 112.2 261.724 112.2Z" fill="#2C2C2C"/>
<path d="M270.666 112.2C272.175 112.2 273.398 110.977 273.398 109.468C273.398 107.959 272.175 106.736 270.666 106.736C269.157 106.736 267.933 107.959 267.933 109.468C267.933 110.977 269.157 112.2 270.666 112.2Z" fill="#2C2C2C"/>
<path d="M279.608 112.2C281.117 112.2 282.34 110.977 282.34 109.468C282.34 107.959 281.117 106.736 279.608 106.736C278.099 106.736 276.875 107.959 276.875 109.468C276.875 110.977 278.099 112.2 279.608 112.2Z" fill="#2C2C2C"/>
<path d="M288.55 112.2C290.059 112.2 291.283 110.977 291.283 109.468C291.283 107.959 290.059 106.736 288.55 106.736C287.041 106.736 285.818 107.959 285.818 109.468C285.818 110.977 287.041 112.2 288.55 112.2Z" fill="#2C2C2C"/>
<path d="M297.492 112.2C299.001 112.2 300.225 110.977 300.225 109.468C300.225 107.959 299.001 106.736 297.492 106.736C295.983 106.736 294.76 107.959 294.76 109.468C294.76 110.977 295.983 112.2 297.492 112.2Z" fill="#2C2C2C"/>
<path d="M243.839 120.646C245.348 120.646 246.571 119.423 246.571 117.913C246.571 116.404 245.348 115.181 243.839 115.181C242.33 115.181 241.107 116.404 241.107 117.913C241.107 119.423 242.33 120.646 243.839 120.646Z" fill="#2C2C2C"/>
<path d="M252.781 78.4184C254.29 78.4184 255.514 77.1951 255.514 75.6861C255.514 74.177 254.29 72.9537 252.781 72.9537C251.272 72.9537 250.049 74.177 250.049 75.6861C250.049 77.1951 251.272 78.4184 252.781 78.4184Z" fill="#2C2C2C"/>
<path d="M252.781 86.864C254.29 86.864 255.514 85.6407 255.514 84.1316C255.514 82.6226 254.29 81.3993 252.781 81.3993C251.272 81.3993 250.049 82.6226 250.049 84.1316C250.049 85.6407 251.272 86.864 252.781 86.864Z" fill="#2C2C2C"/>
<path d="M252.781 95.3094C254.29 95.3094 255.514 94.0861 255.514 92.5771C255.514 91.068 254.29 89.8447 252.781 89.8447C251.272 89.8447 250.049 91.068 250.049 92.5771C250.049 94.0861 251.272 95.3094 252.781 95.3094Z" fill="#2C2C2C"/>
<path d="M261.724 78.4184C263.233 78.4184 264.456 77.1951 264.456 75.6861C264.456 74.177 263.233 72.9537 261.724 72.9537C260.215 72.9537 258.991 74.177 258.991 75.6861C258.991 77.1951 260.215 78.4184 261.724 78.4184Z" fill="#2C2C2C"/>
<path d="M261.724 86.864C263.233 86.864 264.456 85.6407 264.456 84.1316C264.456 82.6226 263.233 81.3993 261.724 81.3993C260.215 81.3993 258.991 82.6226 258.991 84.1316C258.991 85.6407 260.215 86.864 261.724 86.864Z" fill="#2C2C2C"/>
<path d="M261.724 95.3094C263.233 95.3094 264.456 94.0861 264.456 92.5771C264.456 91.068 263.233 89.8447 261.724 89.8447C260.215 89.8447 258.991 91.068 258.991 92.5771C258.991 94.0861 260.215 95.3094 261.724 95.3094Z" fill="#2C2C2C"/>
<path d="M270.666 78.4184C272.175 78.4184 273.398 77.1951 273.398 75.6861C273.398 74.177 272.175 72.9537 270.666 72.9537C269.157 72.9537 267.933 74.177 267.933 75.6861C267.933 77.1951 269.157 78.4184 270.666 78.4184Z" fill="#2C2C2C"/>
<path d="M270.666 86.864C272.175 86.864 273.398 85.6407 273.398 84.1316C273.398 82.6226 272.175 81.3993 270.666 81.3993C269.157 81.3993 267.933 82.6226 267.933 84.1316C267.933 85.6407 269.157 86.864 270.666 86.864Z" fill="#2C2C2C"/>
<path d="M270.666 95.3094C272.175 95.3094 273.398 94.0861 273.398 92.5771C273.398 91.068 272.175 89.8447 270.666 89.8447C269.157 89.8447 267.933 91.068 267.933 92.5771C267.933 94.0861 269.157 95.3094 270.666 95.3094Z" fill="#2C2C2C"/>
<path d="M279.608 78.4184C281.117 78.4184 282.34 77.1951 282.34 75.6861C282.34 74.177 281.117 72.9537 279.608 72.9537C278.099 72.9537 276.875 74.177 276.875 75.6861C276.875 77.1951 278.099 78.4184 279.608 78.4184Z" fill="#2C2C2C"/>
<path d="M279.608 86.864C281.117 86.864 282.34 85.6407 282.34 84.1316C282.34 82.6226 281.117 81.3993 279.608 81.3993C278.099 81.3993 276.875 82.6226 276.875 84.1316C276.875 85.6407 278.099 86.864 279.608 86.864Z" fill="#2C2C2C"/>
<path d="M279.608 95.3094C281.117 95.3094 282.34 94.0861 282.34 92.5771C282.34 91.068 281.117 89.8447 279.608 89.8447C278.099 89.8447 276.875 91.068 276.875 92.5771C276.875 94.0861 278.099 95.3094 279.608 95.3094Z" fill="#2C2C2C"/>
<path d="M288.55 78.4184C290.059 78.4184 291.283 77.1951 291.283 75.6861C291.283 74.177 290.059 72.9537 288.55 72.9537C287.041 72.9537 285.818 74.177 285.818 75.6861C285.818 77.1951 287.041 78.4184 288.55 78.4184Z" fill="#2C2C2C"/>
<path d="M288.55 86.864C290.059 86.864 291.283 85.6407 291.283 84.1316C291.283 82.6226 290.059 81.3993 288.55 81.3993C287.041 81.3993 285.818 82.6226 285.818 84.1316C285.818 85.6407 287.041 86.864 288.55 86.864Z" fill="#2C2C2C"/>
<path d="M288.55 95.3094C290.059 95.3094 291.283 94.0861 291.283 92.5771C291.283 91.068 290.059 89.8447 288.55 89.8447C287.041 89.8447 285.818 91.068 285.818 92.5771C285.818 94.0861 287.041 95.3094 288.55 95.3094Z" fill="#2C2C2C"/>
<path d="M297.492 78.4184C299.001 78.4184 300.225 77.1951 300.225 75.6861C300.225 74.177 299.001 72.9537 297.492 72.9537C295.983 72.9537 294.76 74.177 294.76 75.6861C294.76 77.1951 295.983 78.4184 297.492 78.4184Z" fill="#2C2C2C"/>
<path d="M297.492 86.864C299.001 86.864 300.225 85.6407 300.225 84.1316C300.225 82.6226 299.001 81.3993 297.492 81.3993C295.983 81.3993 294.76 82.6226 294.76 84.1316C294.76 85.6407 295.983 86.864 297.492 86.864Z" fill="#2C2C2C"/>
<path d="M297.492 95.3094C299.001 95.3094 300.225 94.0861 300.225 92.5771C300.225 91.068 299.001 89.8447 297.492 89.8447C295.983 89.8447 294.76 91.068 294.76 92.5771C294.76 94.0861 295.983 95.3094 297.492 95.3094Z" fill="#2C2C2C"/>
<path d="M306.435 78.4184C307.944 78.4184 309.167 77.1951 309.167 75.6861C309.167 74.177 307.944 72.9537 306.435 72.9537C304.926 72.9537 303.702 74.177 303.702 75.6861C303.702 77.1951 304.926 78.4184 306.435 78.4184Z" fill="#2C2C2C"/>
<path d="M306.435 86.864C307.944 86.864 309.167 85.6407 309.167 84.1316C309.167 82.6226 307.944 81.3993 306.435 81.3993C304.926 81.3993 303.702 82.6226 303.702 84.1316C303.702 85.6407 304.926 86.864 306.435 86.864Z" fill="#2C2C2C"/>
<path d="M306.435 95.3094C307.944 95.3094 309.167 94.0861 309.167 92.5771C309.167 91.068 307.944 89.8447 306.435 89.8447C304.926 89.8447 303.702 91.068 303.702 92.5771C303.702 94.0861 304.926 95.3094 306.435 95.3094Z" fill="#2C2C2C"/>
<path d="M315.377 78.4184C316.886 78.4184 318.109 77.1951 318.109 75.6861C318.109 74.177 316.886 72.9537 315.377 72.9537C313.868 72.9537 312.645 74.177 312.645 75.6861C312.645 77.1951 313.868 78.4184 315.377 78.4184Z" fill="#2C2C2C"/>
<path d="M315.377 86.864C316.886 86.864 318.109 85.6407 318.109 84.1316C318.109 82.6226 316.886 81.3993 315.377 81.3993C313.868 81.3993 312.645 82.6226 312.645 84.1316C312.645 85.6407 313.868 86.864 315.377 86.864Z" fill="#2C2C2C"/>
<path d="M315.377 95.3094C316.886 95.3094 318.109 94.0861 318.109 92.5771C318.109 91.068 316.886 89.8447 315.377 89.8447C313.868 89.8447 312.645 91.068 312.645 92.5771C312.645 94.0861 313.868 95.3094 315.377 95.3094Z" fill="#2C2C2C"/>
<path d="M324.319 78.4184C325.828 78.4184 327.052 77.1951 327.052 75.6861C327.052 74.177 325.828 72.9537 324.319 72.9537C322.81 72.9537 321.587 74.177 321.587 75.6861C321.587 77.1951 322.81 78.4184 324.319 78.4184Z" fill="#2C2C2C"/>
<path d="M324.319 86.864C325.828 86.864 327.052 85.6407 327.052 84.1316C327.052 82.6226 325.828 81.3993 324.319 81.3993C322.81 81.3993 321.587 82.6226 321.587 84.1316C321.587 85.6407 322.81 86.864 324.319 86.864Z" fill="#2C2C2C"/>
<path d="M324.319 95.3094C325.828 95.3094 327.052 94.0861 327.052 92.5771C327.052 91.068 325.828 89.8447 324.319 89.8447C322.81 89.8447 321.587 91.068 321.587 92.5771C321.587 94.0861 322.81 95.3094 324.319 95.3094Z" fill="#2C2C2C"/>
<path d="M333.261 78.4184C334.77 78.4184 335.994 77.1951 335.994 75.6861C335.994 74.177 334.77 72.9537 333.261 72.9537C331.752 72.9537 330.529 74.177 330.529 75.6861C330.529 77.1951 331.752 78.4184 333.261 78.4184Z" fill="#2C2C2C"/>
<path d="M333.261 86.864C334.77 86.864 335.994 85.6407 335.994 84.1316C335.994 82.6226 334.77 81.3993 333.261 81.3993C331.752 81.3993 330.529 82.6226 330.529 84.1316C330.529 85.6407 331.752 86.864 333.261 86.864Z" fill="#2C2C2C"/>
<path d="M333.261 95.3094C334.77 95.3094 335.994 94.0861 335.994 92.5771C335.994 91.068 334.77 89.8447 333.261 89.8447C331.752 89.8447 330.529 91.068 330.529 92.5771C330.529 94.0861 331.752 95.3094 333.261 95.3094Z" fill="#2C2C2C"/>
<path d="M342.204 78.4184C343.713 78.4184 344.936 77.1951 344.936 75.6861C344.936 74.177 343.713 72.9537 342.204 72.9537C340.695 72.9537 339.471 74.177 339.471 75.6861C339.471 77.1951 340.695 78.4184 342.204 78.4184Z" fill="#2C2C2C"/>
<path d="M342.204 86.864C343.713 86.864 344.936 85.6407 344.936 84.1316C344.936 82.6226 343.713 81.3993 342.204 81.3993C340.695 81.3993 339.471 82.6226 339.471 84.1316C339.471 85.6407 340.695 86.864 342.204 86.864Z" fill="#2C2C2C"/>
<path d="M342.204 95.3094C343.713 95.3094 344.936 94.0861 344.936 92.5771C344.936 91.068 343.713 89.8447 342.204 89.8447C340.695 89.8447 339.471 91.068 339.471 92.5771C339.471 94.0861 340.695 95.3094 342.204 95.3094Z" fill="#2C2C2C"/>
<path d="M351.146 78.4184C352.655 78.4184 353.878 77.1951 353.878 75.6861C353.878 74.177 352.655 72.9537 351.146 72.9537C349.637 72.9537 348.414 74.177 348.414 75.6861C348.414 77.1951 349.637 78.4184 351.146 78.4184Z" fill="#2C2C2C"/>
<path d="M351.146 86.864C352.655 86.864 353.878 85.6407 353.878 84.1316C353.878 82.6226 352.655 81.3993 351.146 81.3993C349.637 81.3993 348.414 82.6226 348.414 84.1316C348.414 85.6407 349.637 86.864 351.146 86.864Z" fill="#2C2C2C"/>
<path d="M351.146 95.3094C352.655 95.3094 353.878 94.0861 353.878 92.5771C353.878 91.068 352.655 89.8447 351.146 89.8447C349.637 89.8447 348.414 91.068 348.414 92.5771C348.414 94.0861 349.637 95.3094 351.146 95.3094Z" fill="#2C2C2C"/>
<path d="M360.088 78.4184C361.597 78.4184 362.82 77.1951 362.82 75.6861C362.82 74.177 361.597 72.9537 360.088 72.9537C358.579 72.9537 357.356 74.177 357.356 75.6861C357.356 77.1951 358.579 78.4184 360.088 78.4184Z" fill="#2C2C2C"/>
<path d="M369.03 78.4184C370.539 78.4184 371.763 77.1951 371.763 75.6861C371.763 74.177 370.539 72.9537 369.03 72.9537C367.521 72.9537 366.298 74.177 366.298 75.6861C366.298 77.1951 367.521 78.4184 369.03 78.4184Z" fill="#2C2C2C"/>
<path d="M360.088 86.864C361.597 86.864 362.82 85.6407 362.82 84.1316C362.82 82.6226 361.597 81.3993 360.088 81.3993C358.579 81.3993 357.356 82.6226 357.356 84.1316C357.356 85.6407 358.579 86.864 360.088 86.864Z" fill="#2C2C2C"/>
<path d="M360.088 95.3094C361.597 95.3094 362.82 94.0861 362.82 92.5771C362.82 91.068 361.597 89.8447 360.088 89.8447C358.579 89.8447 357.356 91.068 357.356 92.5771C357.356 94.0861 358.579 95.3094 360.088 95.3094Z" fill="#2C2C2C"/>
<path d="M179.753 127.601C181.262 127.601 182.485 126.378 182.485 124.869C182.485 123.36 181.262 122.136 179.753 122.136C178.244 122.136 177.021 123.36 177.021 124.869C177.021 126.378 178.244 127.601 179.753 127.601Z" fill="#2C2C2C"/>
<path d="M179.753 119.155C181.262 119.155 182.485 117.932 182.485 116.423C182.485 114.914 181.262 113.691 179.753 113.691C178.244 113.691 177.021 114.914 177.021 116.423C177.021 117.932 178.244 119.155 179.753 119.155Z" fill="#2C2C2C"/>
<path d="M108.215 36.191C109.724 36.191 110.947 34.9677 110.947 33.4587C110.947 31.9496 109.724 30.7263 108.215 30.7263C106.706 30.7263 105.483 31.9496 105.483 33.4587C105.483 34.9677 106.706 36.191 108.215 36.191Z" fill="#2C2C2C"/>
<path d="M99.2729 36.191C100.782 36.191 102.005 34.9677 102.005 33.4587C102.005 31.9496 100.782 30.7263 99.2729 30.7263C97.7638 30.7263 96.5405 31.9496 96.5405 33.4587C96.5405 34.9677 97.7638 36.191 99.2729 36.191Z" fill="#2C2C2C"/>
<path d="M117.157 27.7456C118.666 27.7456 119.89 26.5222 119.89 25.0132C119.89 23.5042 118.666 22.2809 117.157 22.2809C115.648 22.2809 114.425 23.5042 114.425 25.0132C114.425 26.5222 115.648 27.7456 117.157 27.7456Z" fill="#2C2C2C"/>
<path d="M108.215 27.7456C109.724 27.7456 110.947 26.5222 110.947 25.0132C110.947 23.5042 109.724 22.2809 108.215 22.2809C106.706 22.2809 105.483 23.5042 105.483 25.0132C105.483 26.5222 106.706 27.7456 108.215 27.7456Z" fill="#2C2C2C"/>
<path d="M117.157 19.3001C118.666 19.3001 119.89 18.0768 119.89 16.5678C119.89 15.0588 118.666 13.8354 117.157 13.8354C115.648 13.8354 114.425 15.0588 114.425 16.5678C114.425 18.0768 115.648 19.3001 117.157 19.3001Z" fill="#2C2C2C"/>
<path d="M126.1 78.4184C127.609 78.4184 128.832 77.1951 128.832 75.6861C128.832 74.177 127.609 72.9537 126.1 72.9537C124.59 72.9537 123.367 74.177 123.367 75.6861C123.367 77.1951 124.59 78.4184 126.1 78.4184Z" fill="#2C2C2C"/>
<path d="M126.1 61.5275C127.609 61.5275 128.832 60.3042 128.832 58.7952C128.832 57.2862 127.609 56.0629 126.1 56.0629C124.59 56.0629 123.367 57.2862 123.367 58.7952C123.367 60.3042 124.59 61.5275 126.1 61.5275Z" fill="#2C2C2C"/>
<path d="M126.1 53.082C127.609 53.082 128.832 51.8587 128.832 50.3496C128.832 48.8406 127.609 47.6173 126.1 47.6173C124.59 47.6173 123.367 48.8406 123.367 50.3496C123.367 51.8587 124.59 53.082 126.1 53.082Z" fill="#2C2C2C"/>
<path d="M135.042 78.4184C136.551 78.4184 137.774 77.1951 137.774 75.6861C137.774 74.177 136.551 72.9537 135.042 72.9537C133.533 72.9537 132.31 74.177 132.31 75.6861C132.31 77.1951 133.533 78.4184 135.042 78.4184Z" fill="#2C2C2C"/>
<path d="M99.2729 120.646C100.782 120.646 102.005 119.423 102.005 117.913C102.005 116.404 100.782 115.181 99.2729 115.181C97.7638 115.181 96.5405 116.404 96.5405 117.913C96.5405 119.423 97.7638 120.646 99.2729 120.646Z" fill="#2C2C2C"/>
<path d="M117.157 199.636C118.666 199.636 119.89 198.413 119.89 196.904C119.89 195.395 118.666 194.171 117.157 194.171C115.648 194.171 114.425 195.395 114.425 196.904C114.425 198.413 115.648 199.636 117.157 199.636Z" fill="#2C2C2C"/>
<path d="M108.215 120.646C109.724 120.646 110.947 119.423 110.947 117.913C110.947 116.404 109.724 115.181 108.215 115.181C106.706 115.181 105.483 116.404 105.483 117.913C105.483 119.423 106.706 120.646 108.215 120.646Z" fill="#2C2C2C"/>
<path d="M99.2729 129.091C100.782 129.091 102.005 127.868 102.005 126.359C102.005 124.85 100.782 123.627 99.2729 123.627C97.7638 123.627 96.5405 124.85 96.5405 126.359C96.5405 127.868 97.7638 129.091 99.2729 129.091Z" fill="#2C2C2C"/>
<path d="M117.157 208.081C118.666 208.081 119.89 206.858 119.89 205.349C119.89 203.84 118.666 202.617 117.157 202.617C115.648 202.617 114.425 203.84 114.425 205.349C114.425 206.858 115.648 208.081 117.157 208.081Z" fill="#2C2C2C"/>
<path d="M108.215 61.5275C109.724 61.5275 110.947 60.3042 110.947 58.7952C110.947 57.2862 109.724 56.0629 108.215 56.0629C106.706 56.0629 105.483 57.2862 105.483 58.7952C105.483 60.3042 106.706 61.5275 108.215 61.5275Z" fill="#2C2C2C"/>
<path d="M27.735 53.082C29.2441 53.082 30.4674 51.8587 30.4674 50.3496C30.4674 48.8406 29.2441 47.6173 27.735 47.6173C26.226 47.6173 25.0027 48.8406 25.0027 50.3496C25.0027 51.8587 26.226 53.082 27.735 53.082Z" fill="#2C2C2C"/>
<path d="M54.5617 53.082C56.0707 53.082 57.294 51.8587 57.294 50.3496C57.294 48.8406 56.0707 47.6173 54.5617 47.6173C53.0527 47.6173 51.8293 48.8406 51.8293 50.3496C51.8293 51.8587 53.0527 53.082 54.5617 53.082Z" fill="#FEC213"/>
<path d="M90.3307 53.082C91.8398 53.082 93.0631 51.8587 93.0631 50.3496C93.0631 48.8406 91.8398 47.6173 90.3307 47.6173C88.8217 47.6173 87.5984 48.8406 87.5984 50.3496C87.5984 51.8587 88.8217 53.082 90.3307 53.082Z" fill="#FEC213"/>
<path d="M117.157 132.072C118.666 132.072 119.89 130.849 119.89 129.34C119.89 127.831 118.666 126.607 117.157 126.607C115.648 126.607 114.425 127.831 114.425 129.34C114.425 130.849 115.648 132.072 117.157 132.072Z" fill="#FEC213"/>
<path d="M143.984 148.963C145.493 148.963 146.716 147.74 146.716 146.231C146.716 144.722 145.493 143.498 143.984 143.498C142.475 143.498 141.252 144.722 141.252 146.231C141.252 147.74 142.475 148.963 143.984 148.963Z" fill="#FEC213"/>
<path d="M126.1 148.963C127.609 148.963 128.832 147.74 128.832 146.231C128.832 144.722 127.609 143.498 126.1 143.498C124.59 143.498 123.367 144.722 123.367 146.231C123.367 147.74 124.59 148.963 126.1 148.963Z" fill="#FEC213"/>
<path d="M126.1 165.854C127.609 165.854 128.832 164.631 128.832 163.122C128.832 161.613 127.609 160.389 126.1 160.389C124.59 160.389 123.367 161.613 123.367 163.122C123.367 164.631 124.59 165.854 126.1 165.854Z" fill="#FEC213"/>
<path d="M45.6195 61.5275C47.1286 61.5275 48.3519 60.3042 48.3519 58.7952C48.3519 57.2862 47.1286 56.0629 45.6195 56.0629C44.1105 56.0629 42.8872 57.2862 42.8872 58.7952C42.8872 60.3042 44.1105 61.5275 45.6195 61.5275Z" fill="#FEC213"/>
<path d="M72.4462 69.973C73.9552 69.973 75.1785 68.7497 75.1785 67.2406C75.1785 65.7316 73.9552 64.5083 72.4462 64.5083C70.9372 64.5083 69.7139 65.7316 69.7139 67.2406C69.7139 68.7497 70.9372 69.973 72.4462 69.973Z" fill="#FEC213"/>
<path d="M81.3883 103.755C82.8974 103.755 84.1207 102.532 84.1207 101.022C84.1207 99.5135 82.8974 98.2902 81.3883 98.2902C79.8793 98.2902 78.656 99.5135 78.656 101.022C78.656 102.532 79.8793 103.755 81.3883 103.755Z" fill="#FEC213"/>
<path d="M90.3307 86.864C91.8398 86.864 93.0631 85.6407 93.0631 84.1316C93.0631 82.6226 91.8398 81.3993 90.3307 81.3993C88.8217 81.3993 87.5984 82.6226 87.5984 84.1316C87.5984 85.6407 88.8217 86.864 90.3307 86.864Z" fill="#FEC213"/>
<path d="M108.215 148.963C109.724 148.963 110.947 147.74 110.947 146.231C110.947 144.722 109.724 143.498 108.215 143.498C106.706 143.498 105.483 144.722 105.483 146.231C105.483 147.74 106.706 148.963 108.215 148.963Z" fill="#FEC213"/>
<path d="M99.2729 103.755C100.782 103.755 102.005 102.532 102.005 101.022C102.005 99.5135 100.782 98.2902 99.2729 98.2902C97.7638 98.2902 96.5405 99.5135 96.5405 101.022C96.5405 102.532 97.7638 103.755 99.2729 103.755Z" fill="#FEC213"/>
<path d="M117.157 95.3094C118.666 95.3094 119.89 94.0861 119.89 92.5771C119.89 91.068 118.666 89.8447 117.157 89.8447C115.648 89.8447 114.425 91.068 114.425 92.5771C114.425 94.0861 115.648 95.3094 117.157 95.3094Z" fill="#FEC213"/>
<path d="M108.215 78.4184C109.724 78.4184 110.947 77.1951 110.947 75.6861C110.947 74.177 109.724 72.9537 108.215 72.9537C106.706 72.9537 105.483 74.177 105.483 75.6861C105.483 77.1951 106.706 78.4184 108.215 78.4184Z" fill="#FEC213"/>
<path d="M126.1 27.7456C127.609 27.7456 128.832 26.5222 128.832 25.0132C128.832 23.5042 127.609 22.2809 126.1 22.2809C124.59 22.2809 123.367 23.5042 123.367 25.0132C123.367 26.5222 124.59 27.7456 126.1 27.7456Z" fill="#FEC213"/>
<path d="M143.984 36.191C145.493 36.191 146.716 34.9677 146.716 33.4587C146.716 31.9496 145.493 30.7263 143.984 30.7263C142.475 30.7263 141.252 31.9496 141.252 33.4587C141.252 34.9677 142.475 36.191 143.984 36.191Z" fill="#FEC213"/>
<path d="M152.926 69.973C154.435 69.973 155.659 68.7497 155.659 67.2406C155.659 65.7316 154.435 64.5083 152.926 64.5083C151.417 64.5083 150.194 65.7316 150.194 67.2406C150.194 68.7497 151.417 69.973 152.926 69.973Z" fill="#FEC213"/>
<path d="M161.869 53.082C163.378 53.082 164.601 51.8587 164.601 50.3496C164.601 48.8406 163.378 47.6173 161.869 47.6173C160.36 47.6173 159.136 48.8406 159.136 50.3496C159.136 51.8587 160.36 53.082 161.869 53.082Z" fill="#FEC213"/>
<path d="M170.811 36.191C172.32 36.191 173.543 34.9677 173.543 33.4587C173.543 31.9496 172.32 30.7263 170.811 30.7263C169.302 30.7263 168.078 31.9496 168.078 33.4587C168.078 34.9677 169.302 36.191 170.811 36.191Z" fill="#FEC213"/>
<path d="M179.753 86.864C181.262 86.864 182.485 85.6407 182.485 84.1316C182.485 82.6226 181.262 81.3993 179.753 81.3993C178.244 81.3993 177.021 82.6226 177.021 84.1316C177.021 85.6407 178.244 86.864 179.753 86.864Z" fill="#FEC213"/>
<path d="M190.186 101.271C191.695 101.271 192.918 100.048 192.918 98.5386C192.918 97.0296 191.695 95.8063 190.186 95.8063C188.677 95.8063 187.453 97.0296 187.453 98.5386C187.453 100.048 188.677 101.271 190.186 101.271Z" fill="#FEC213"/>
<path d="M225.955 69.973C227.464 69.973 228.687 68.7497 228.687 67.2406C228.687 65.7316 227.464 64.5083 225.955 64.5083C224.445 64.5083 223.222 65.7316 223.222 67.2406C223.222 68.7497 224.445 69.973 225.955 69.973Z" fill="#FEC213"/>
<path d="M252.781 69.973C254.29 69.973 255.514 68.7497 255.514 67.2406C255.514 65.7316 254.29 64.5083 252.781 64.5083C251.272 64.5083 250.049 65.7316 250.049 67.2406C250.049 68.7497 251.272 69.973 252.781 69.973Z" fill="#FEC213"/>
<path d="M261.724 61.5275C263.233 61.5275 264.456 60.3042 264.456 58.7952C264.456 57.2862 263.233 56.0629 261.724 56.0629C260.215 56.0629 258.991 57.2862 258.991 58.7952C258.991 60.3042 260.215 61.5275 261.724 61.5275Z" fill="#FEC213"/>
<path d="M288.55 61.5275C290.059 61.5275 291.283 60.3042 291.283 58.7952C291.283 57.2862 290.059 56.0629 288.55 56.0629C287.041 56.0629 285.818 57.2862 285.818 58.7952C285.818 60.3042 287.041 61.5275 288.55 61.5275Z" fill="#FEC213"/>
<path d="M288.55 44.6365C290.059 44.6365 291.283 43.4132 291.283 41.9042C291.283 40.3952 290.059 39.1719 288.55 39.1719C287.041 39.1719 285.818 40.3952 285.818 41.9042C285.818 43.4132 287.041 44.6365 288.55 44.6365Z" fill="#FEC213"/>
<path d="M306.435 69.973C307.944 69.973 309.167 68.7497 309.167 67.2406C309.167 65.7316 307.944 64.5083 306.435 64.5083C304.926 64.5083 303.702 65.7316 303.702 67.2406C303.702 68.7497 304.926 69.973 306.435 69.973Z" fill="#FEC213"/>
<path d="M324.319 69.973C325.828 69.973 327.052 68.7497 327.052 67.2406C327.052 65.7316 325.828 64.5083 324.319 64.5083C322.81 64.5083 321.587 65.7316 321.587 67.2406C321.587 68.7497 322.81 69.973 324.319 69.973Z" fill="#FEC213"/>
<path d="M333.261 53.082C334.77 53.082 335.994 51.8587 335.994 50.3496C335.994 48.8406 334.77 47.6173 333.261 47.6173C331.752 47.6173 330.529 48.8406 330.529 50.3496C330.529 51.8587 331.752 53.082 333.261 53.082Z" fill="#FEC213"/>
<path d="M208.07 78.4184C209.579 78.4184 210.802 77.1951 210.802 75.6861C210.802 74.177 209.579 72.9537 208.07 72.9537C206.561 72.9537 205.338 74.177 205.338 75.6861C205.338 77.1951 206.561 78.4184 208.07 78.4184Z" fill="#FEC213"/>
<path d="M217.012 104.252C218.521 104.252 219.745 103.028 219.745 101.519C219.745 100.01 218.521 98.787 217.012 98.787C215.503 98.787 214.28 100.01 214.28 101.519C214.28 103.028 215.503 104.252 217.012 104.252Z" fill="#FEC213"/>
<path d="M225.955 140.021C227.464 140.021 228.687 138.798 228.687 137.288C228.687 135.779 227.464 134.556 225.955 134.556C224.445 134.556 223.222 135.779 223.222 137.288C223.222 138.798 224.445 140.021 225.955 140.021Z" fill="#FEC213"/>
<path d="M225.955 166.847C227.464 166.847 228.687 165.624 228.687 164.115C228.687 162.606 227.464 161.383 225.955 161.383C224.445 161.383 223.222 162.606 223.222 164.115C223.222 165.624 224.445 166.847 225.955 166.847Z" fill="#FEC213"/>
<path d="M208.07 136.543C209.579 136.543 210.802 135.32 210.802 133.811C210.802 132.302 209.579 131.079 208.07 131.079C206.561 131.079 205.338 132.302 205.338 133.811C205.338 135.32 206.561 136.543 208.07 136.543Z" fill="#FEC213"/>
<path d="M208.07 154.428C209.579 154.428 210.802 153.204 210.802 151.695C210.802 150.186 209.579 148.963 208.07 148.963C206.561 148.963 205.338 150.186 205.338 151.695C205.338 153.204 206.561 154.428 208.07 154.428Z" fill="#FEC213"/>
<path d="M208.07 163.37C209.579 163.37 210.802 162.147 210.802 160.638C210.802 159.129 209.579 157.905 208.07 157.905C206.561 157.905 205.338 159.129 205.338 160.638C205.338 162.147 206.561 163.37 208.07 163.37Z" fill="#FEC213"/>
<path d="M208.07 190.197C209.579 190.197 210.802 188.974 210.802 187.465C210.802 185.955 209.579 184.732 208.07 184.732C206.561 184.732 205.338 185.955 205.338 187.465C205.338 188.974 206.561 190.197 208.07 190.197Z" fill="#FEC213"/>
<path d="M199.128 118.659C200.637 118.659 201.86 117.435 201.86 115.926C201.86 114.417 200.637 113.194 199.128 113.194C197.619 113.194 196.396 114.417 196.396 115.926C196.396 117.435 197.619 118.659 199.128 118.659Z" fill="#FEC213"/>
<path d="M190.186 135.053C191.695 135.053 192.918 133.829 192.918 132.32C192.918 130.811 191.695 129.588 190.186 129.588C188.677 129.588 187.453 130.811 187.453 132.32C187.453 133.829 188.677 135.053 190.186 135.053Z" fill="#FEC213"/>
<path d="M199.128 172.312C200.637 172.312 201.86 171.089 201.86 169.58C201.86 168.071 200.637 166.848 199.128 166.848C197.619 166.848 196.396 168.071 196.396 169.58C196.396 171.089 197.619 172.312 199.128 172.312Z" fill="#FEC213"/>
<path d="M225.955 78.4184C227.464 78.4184 228.687 77.1951 228.687 75.6861C228.687 74.177 227.464 72.9537 225.955 72.9537C224.445 72.9537 223.222 74.177 223.222 75.6861C223.222 77.1951 224.445 78.4184 225.955 78.4184Z" fill="#FEC213"/>
<path d="M225.955 95.3094C227.464 95.3094 228.687 94.0861 228.687 92.5771C228.687 91.068 227.464 89.8447 225.955 89.8447C224.445 89.8447 223.222 91.068 223.222 92.5771C223.222 94.0861 224.445 95.3094 225.955 95.3094Z" fill="#FEC213"/>
<path d="M234.897 86.864C236.406 86.864 237.629 85.6407 237.629 84.1316C237.629 82.6226 236.406 81.3993 234.897 81.3993C233.388 81.3993 232.165 82.6226 232.165 84.1316C232.165 85.6407 233.388 86.864 234.897 86.864Z" fill="#FEC213"/>
<path d="M234.897 120.646C236.406 120.646 237.629 119.423 237.629 117.913C237.629 116.404 236.406 115.181 234.897 115.181C233.388 115.181 232.165 116.404 232.165 117.913C232.165 119.423 233.388 120.646 234.897 120.646Z" fill="#FEC213"/>
<path d="M243.839 78.4184C245.348 78.4184 246.571 77.1951 246.571 75.6861C246.571 74.177 245.348 72.9537 243.839 72.9537C242.33 72.9537 241.107 74.177 241.107 75.6861C241.107 77.1951 242.33 78.4184 243.839 78.4184Z" fill="#FEC213"/>
<path d="M243.839 103.755C245.348 103.755 246.571 102.532 246.571 101.022C246.571 99.5135 245.348 98.2902 243.839 98.2902C242.33 98.2902 241.107 99.5135 241.107 101.022C241.107 102.532 242.33 103.755 243.839 103.755Z" fill="#FEC213"/>
<path d="M288.55 103.755C290.059 103.755 291.283 102.532 291.283 101.022C291.283 99.5135 290.059 98.2902 288.55 98.2902C287.041 98.2902 285.818 99.5135 285.818 101.022C285.818 102.532 287.041 103.755 288.55 103.755Z" fill="#FEC213"/>
<path d="M270.666 129.091C272.175 129.091 273.398 127.868 273.398 126.359C273.398 124.85 272.175 123.627 270.666 123.627C269.157 123.627 267.933 124.85 267.933 126.359C267.933 127.868 269.157 129.091 270.666 129.091Z" fill="#FEC213"/>
<path d="M297.492 148.963C299.001 148.963 300.225 147.74 300.225 146.231C300.225 144.722 299.001 143.498 297.492 143.498C295.983 143.498 294.76 144.722 294.76 146.231C294.76 147.74 295.983 148.963 297.492 148.963Z" fill="#FEC213"/>
<path d="M306.435 157.905C307.944 157.905 309.167 156.682 309.167 155.173C309.167 153.664 307.944 152.441 306.435 152.441C304.926 152.441 303.702 153.664 303.702 155.173C303.702 156.682 304.926 157.905 306.435 157.905Z" fill="#FEC213"/>
<path d="M306.435 175.79C307.944 175.79 309.167 174.567 309.167 173.058C309.167 171.549 307.944 170.325 306.435 170.325C304.926 170.325 303.702 171.549 303.702 173.058C303.702 174.567 304.926 175.79 306.435 175.79Z" fill="#FEC213"/>
<path d="M324.319 184.235C325.828 184.235 327.052 183.012 327.052 181.503C327.052 179.994 325.828 178.771 324.319 178.771C322.81 178.771 321.587 179.994 321.587 181.503C321.587 183.012 322.81 184.235 324.319 184.235Z" fill="#FEC213"/>
<path d="M351.146 208.081C352.655 208.081 353.878 206.858 353.878 205.349C353.878 203.84 352.655 202.617 351.146 202.617C349.637 202.617 348.414 203.84 348.414 205.349C348.414 206.858 349.637 208.081 351.146 208.081Z" fill="#FEC213"/>
<path d="M324.319 157.905C325.828 157.905 327.052 156.682 327.052 155.173C327.052 153.664 325.828 152.441 324.319 152.441C322.81 152.441 321.587 153.664 321.587 155.173C321.587 156.682 322.81 157.905 324.319 157.905Z" fill="#FEC213"/>
<path d="M333.261 166.847C334.77 166.847 335.994 165.624 335.994 164.115C335.994 162.606 334.77 161.383 333.261 161.383C331.752 161.383 330.529 162.606 330.529 164.115C330.529 165.624 331.752 166.847 333.261 166.847Z" fill="#FEC213"/>
<path d="M288.55 120.646C290.059 120.646 291.283 119.423 291.283 117.913C291.283 116.404 290.059 115.181 288.55 115.181C287.041 115.181 285.818 116.404 285.818 117.913C285.818 119.423 287.041 120.646 288.55 120.646Z" fill="#FEC213"/>
<path d="M306.435 137.04C307.944 137.04 309.167 135.817 309.167 134.308C309.167 132.799 307.944 131.575 306.435 131.575C304.926 131.575 303.702 132.799 303.702 134.308C303.702 135.817 304.926 137.04 306.435 137.04Z" fill="#FEC213"/>
<path d="M261.724 112.2C263.233 112.2 264.456 110.977 264.456 109.468C264.456 107.959 263.233 106.736 261.724 106.736C260.215 106.736 258.991 107.959 258.991 109.468C258.991 110.977 260.215 112.2 261.724 112.2Z" fill="#FEC213"/>
<path d="M252.781 86.864C254.29 86.864 255.514 85.6407 255.514 84.1316C255.514 82.6226 254.29 81.3993 252.781 81.3993C251.272 81.3993 250.049 82.6226 250.049 84.1316C250.049 85.6407 251.272 86.864 252.781 86.864Z" fill="#FEC213"/>
<path d="M270.666 95.3094C272.175 95.3094 273.398 94.0861 273.398 92.5771C273.398 91.068 272.175 89.8447 270.666 89.8447C269.157 89.8447 267.933 91.068 267.933 92.5771C267.933 94.0861 269.157 95.3094 270.666 95.3094Z" fill="#FEC213"/>
<path d="M279.608 78.4184C281.117 78.4184 282.34 77.1951 282.34 75.6861C282.34 74.177 281.117 72.9537 279.608 72.9537C278.099 72.9537 276.875 74.177 276.875 75.6861C276.875 77.1951 278.099 78.4184 279.608 78.4184Z" fill="#FEC213"/>
<path d="M297.492 86.864C299.001 86.864 300.225 85.6407 300.225 84.1316C300.225 82.6226 299.001 81.3993 297.492 81.3993C295.983 81.3993 294.76 82.6226 294.76 84.1316C294.76 85.6407 295.983 86.864 297.492 86.864Z" fill="#FEC213"/>
<path d="M315.377 95.3094C316.886 95.3094 318.109 94.0861 318.109 92.5771C318.109 91.068 316.886 89.8447 315.377 89.8447C313.868 89.8447 312.645 91.068 312.645 92.5771C312.645 94.0861 313.868 95.3094 315.377 95.3094Z" fill="#FEC213"/>
<path d="M324.319 86.864C325.828 86.864 327.052 85.6407 327.052 84.1316C327.052 82.6226 325.828 81.3993 324.319 81.3993C322.81 81.3993 321.587 82.6226 321.587 84.1316C321.587 85.6407 322.81 86.864 324.319 86.864Z" fill="#FEC213"/>
<path d="M342.204 78.4184C343.713 78.4184 344.936 77.1951 344.936 75.6861C344.936 74.177 343.713 72.9537 342.204 72.9537C340.695 72.9537 339.471 74.177 339.471 75.6861C339.471 77.1951 340.695 78.4184 342.204 78.4184Z" fill="#FEC213"/>
<path d="M342.204 95.3094C343.713 95.3094 344.936 94.0861 344.936 92.5771C344.936 91.068 343.713 89.8447 342.204 89.8447C340.695 89.8447 339.471 91.068 339.471 92.5771C339.471 94.0861 340.695 95.3094 342.204 95.3094Z" fill="#FEC213"/>
<path d="M351.146 86.864C352.655 86.864 353.878 85.6407 353.878 84.1316C353.878 82.6226 352.655 81.3993 351.146 81.3993C349.637 81.3993 348.414 82.6226 348.414 84.1316C348.414 85.6407 349.637 86.864 351.146 86.864Z" fill="#FEC213"/>
<path d="M369.03 78.4184C370.539 78.4184 371.763 77.1951 371.763 75.6861C371.763 74.177 370.539 72.9537 369.03 72.9537C367.521 72.9537 366.298 74.177 366.298 75.6861C366.298 77.1951 367.521 78.4184 369.03 78.4184Z" fill="#FEC213"/>
<path d="M179.753 119.155C181.262 119.155 182.485 117.932 182.485 116.423C182.485 114.914 181.262 113.691 179.753 113.691C178.244 113.691 177.021 114.914 177.021 116.423C177.021 117.932 178.244 119.155 179.753 119.155Z" fill="#FEC213"/>
<path d="M99.2729 36.191C100.782 36.191 102.005 34.9677 102.005 33.4587C102.005 31.9496 100.782 30.7263 99.2729 30.7263C97.7638 30.7263 96.5405 31.9496 96.5405 33.4587C96.5405 34.9677 97.7638 36.191 99.2729 36.191Z" fill="#FEC213"/>
<path d="M135.042 78.4184C136.551 78.4184 137.774 77.1951 137.774 75.6861C137.774 74.177 136.551 72.9537 135.042 72.9537C133.533 72.9537 132.31 74.177 132.31 75.6861C132.31 77.1951 133.533 78.4184 135.042 78.4184Z" fill="#FEC213"/>
<path d="M99.2729 120.646C100.782 120.646 102.005 119.423 102.005 117.913C102.005 116.404 100.782 115.181 99.2729 115.181C97.7638 115.181 96.5405 116.404 96.5405 117.913C96.5405 119.423 97.7638 120.646 99.2729 120.646Z" fill="#FEC213"/>
<path d="M117.157 208.081C118.666 208.081 119.89 206.858 119.89 205.349C119.89 203.84 118.666 202.617 117.157 202.617C115.648 202.617 114.425 203.84 114.425 205.349C114.425 206.858 115.648 208.081 117.157 208.081Z" fill="#FEC213"/>
</svg>
