<svg width="414" height="221" viewBox="0 0 414 221" fill="none" xmlns="http://www.w3.org/2000/svg">
<mask id="mask0_17_960" style="mask-type:luminance" maskUnits="userSpaceOnUse" x="0" y="0" width="414" height="221">
<path d="M413.32 0.432129H0.0200195V220.988H413.32V0.432129Z" fill="white"/>
</mask>
<g mask="url(#mask0_17_960)">
<path d="M206.67 272.401C251.252 272.401 287.393 236.261 287.393 191.68C287.393 147.098 251.252 110.958 206.67 110.958C162.088 110.958 125.947 147.098 125.947 191.68C125.947 236.261 162.088 272.401 206.67 272.401Z" stroke="#898989" stroke-width="0.496751" stroke-dasharray="2.98 2.98"/>
<path d="M206.67 316.611C275.669 316.611 331.604 260.678 331.604 191.68C331.604 122.682 275.669 66.7478 206.67 66.7478C137.671 66.7478 81.7361 122.682 81.7361 191.68C81.7361 260.678 137.671 316.611 206.67 316.611Z" stroke="#898989" stroke-width="0.496751" stroke-dasharray="2.98 2.98"/>
<path d="M206.67 356.351C297.617 356.351 371.344 282.625 371.344 191.68C371.344 100.734 297.617 27.0081 206.67 27.0081C115.723 27.0081 41.9956 100.734 41.9956 191.68C41.9956 282.625 115.723 356.351 206.67 356.351Z" stroke="#898989" stroke-width="0.496751" stroke-dasharray="2.98 2.98"/>
<path d="M134.64 171.065H116.26C113.654 171.065 111.541 173.178 111.541 175.784V194.164C111.541 196.77 113.654 198.883 116.26 198.883H134.64C137.246 198.883 139.359 196.77 139.359 194.164V175.784C139.359 173.178 137.246 171.065 134.64 171.065Z" fill="#121212" stroke="#2C2C2C" stroke-width="0.496751"/>
<path d="M170.903 60.2902H152.524C149.917 60.2902 147.804 62.403 147.804 65.0093V83.3891C147.804 85.9954 149.917 88.1082 152.524 88.1082H170.903C173.51 88.1082 175.623 85.9954 175.623 83.3891V65.0093C175.623 62.403 173.51 60.2902 170.903 60.2902Z" fill="#121212" stroke="#2C2C2C" stroke-width="0.496751"/>
<path d="M104.835 118.906H86.4552C83.8489 118.906 81.7361 121.019 81.7361 123.625V142.005C81.7361 144.611 83.8489 146.724 86.4552 146.724H104.835C107.441 146.724 109.554 144.611 109.554 142.005V123.625C109.554 121.019 107.441 118.906 104.835 118.906Z" fill="#121212" stroke="#2C2C2C" stroke-width="0.496751"/>
<path d="M104.835 54.3291H86.4552C83.8489 54.3291 81.7361 56.4419 81.7361 59.0482V77.428C81.7361 80.0343 83.8489 82.1472 86.4552 82.1472H104.835C107.441 82.1472 109.554 80.0343 109.554 77.428V59.0482C109.554 56.4419 107.441 54.3291 104.835 54.3291Z" fill="#121212" stroke="#2C2C2C" stroke-width="0.496751"/>
<path d="M50.6888 168.581H32.309C29.7027 168.581 27.5898 170.694 27.5898 173.3V191.68C27.5898 194.286 29.7027 196.399 32.309 196.399H50.6888C53.2951 196.399 55.4079 194.286 55.4079 191.68V173.3C55.4079 170.694 53.2951 168.581 50.6888 168.581Z" fill="#121212" stroke="#2C2C2C" stroke-width="0.496751"/>
<path d="M380.534 168.581H362.154C359.548 168.581 357.435 170.694 357.435 173.3V191.68C357.435 194.286 359.548 196.399 362.154 196.399H380.534C383.14 196.399 385.253 194.286 385.253 191.68V173.3C385.253 170.694 383.14 168.581 380.534 168.581Z" fill="#121212" stroke="#2C2C2C" stroke-width="0.496751"/>
<path d="M324.897 54.3291H306.517C303.911 54.3291 301.798 56.4419 301.798 59.0482V77.428C301.798 80.0343 303.911 82.1472 306.517 82.1472H324.897C327.504 82.1472 329.616 80.0343 329.616 77.428V59.0482C329.616 56.4419 327.504 54.3291 324.897 54.3291Z" fill="#121212" stroke="#2C2C2C" stroke-width="0.496751"/>
<path d="M215.611 12.6024H197.232C194.625 12.6024 192.512 14.7152 192.512 17.3216V35.7013C192.512 38.3077 194.625 40.4205 197.232 40.4205H215.611C218.218 40.4205 220.331 38.3077 220.331 35.7013V17.3216C220.331 14.7152 218.218 12.6024 215.611 12.6024Z" fill="#121212" stroke="#2C2C2C" stroke-width="0.496751"/>
<path d="M324.897 118.906H306.517C303.911 118.906 301.798 121.019 301.798 123.625V142.005C301.798 144.611 303.911 146.724 306.517 146.724H324.897C327.504 146.724 329.616 144.611 329.616 142.005V123.625C329.616 121.019 327.504 118.906 324.897 118.906Z" fill="#121212" stroke="#2C2C2C" stroke-width="0.496751"/>
<path d="M268.267 60.2902H249.888C247.281 60.2902 245.168 62.403 245.168 65.0093V83.3891C245.168 85.9954 247.281 88.1082 249.888 88.1082H268.267C270.874 88.1082 272.987 85.9954 272.987 83.3891V65.0093C272.987 62.403 270.874 60.2902 268.267 60.2902Z" fill="#121212" stroke="#2C2C2C" stroke-width="0.496751"/>
<path d="M296.582 171.065H278.203C275.596 171.065 273.483 173.178 273.483 175.784V194.164C273.483 196.77 275.596 198.883 278.203 198.883H296.582C299.189 198.883 301.301 196.77 301.301 194.164V175.784C301.301 173.178 299.189 171.065 296.582 171.065Z" fill="#121212" stroke="#2C2C2C" stroke-width="0.496751"/>
<path d="M215.611 96.5526H197.232C194.625 96.5526 192.512 98.6654 192.512 101.272V119.652C192.512 122.258 194.625 124.371 197.232 124.371H215.611C218.218 124.371 220.331 122.258 220.331 119.652V101.272C220.331 98.6654 218.218 96.5526 215.611 96.5526Z" fill="#121212" stroke="#2C2C2C" stroke-width="0.496751"/>
<path fill-rule="evenodd" clip-rule="evenodd" d="M295.169 191.407C294.197 191.381 293.439 191.479 292.81 191.751C292.628 191.823 292.337 191.823 292.311 192.057C292.408 192.154 292.421 192.31 292.506 192.447C292.648 192.694 292.907 193.019 293.14 193.187C293.393 193.383 293.653 193.577 293.918 193.747C294.392 194.039 294.93 194.208 295.39 194.5C295.655 194.669 295.928 194.89 296.193 195.073C296.33 195.17 296.414 195.326 296.582 195.391V195.352C296.498 195.242 296.472 195.086 296.388 194.962C296.265 194.839 296.142 194.728 296.025 194.611C295.675 194.137 295.234 193.721 294.761 193.376C294.372 193.11 293.516 192.739 293.361 192.291C293.361 192.291 293.348 192.278 293.335 192.265C293.601 192.239 293.918 192.141 294.178 192.07C294.592 191.96 294.968 191.985 295.396 191.875C295.591 191.823 295.785 191.764 295.98 191.706V191.595C295.759 191.374 295.604 191.082 295.37 190.874C294.748 190.335 294.067 189.815 293.361 189.373C292.985 189.126 292.499 188.97 292.097 188.762C291.954 188.69 291.708 188.651 291.624 188.528C291.403 188.261 291.28 187.904 291.125 187.586C290.775 186.916 290.431 186.169 290.127 185.461C289.906 184.986 289.776 184.511 289.504 184.07C288.253 181.996 286.886 180.742 284.798 179.507C284.351 179.254 283.813 179.143 283.243 179.007C282.938 178.994 282.634 178.967 282.329 178.961C282.134 178.877 281.94 178.643 281.771 178.532C281.078 178.09 279.289 177.141 278.777 178.396C278.447 179.189 279.263 179.968 279.542 180.371C279.749 180.651 280.015 180.969 280.164 181.288C280.248 181.496 280.274 181.717 280.359 181.938C280.553 182.477 280.735 183.075 280.994 183.575C281.13 183.829 281.273 184.102 281.441 184.329C281.538 184.466 281.707 184.525 281.745 184.745C281.577 184.993 281.564 185.356 281.467 185.662C281.026 187.04 281.201 188.749 281.817 189.763C282.011 190.068 282.472 190.738 283.094 190.484C283.638 190.263 283.521 189.568 283.677 188.957C283.716 188.807 283.69 188.71 283.761 188.612V188.638C283.93 188.977 284.105 189.308 284.261 189.652C284.637 190.25 285.298 190.874 285.842 191.283C286.134 191.504 286.367 191.882 286.73 192.018V191.979H286.704C286.633 191.869 286.523 191.823 286.425 191.738C286.205 191.517 285.965 191.251 285.79 191.004C285.278 190.322 284.831 189.561 284.429 188.781C284.235 188.404 284.066 187.988 283.904 187.611C283.833 187.468 283.833 187.247 283.71 187.169C283.528 187.436 283.263 187.67 283.126 187.995C282.893 188.522 282.874 189.165 282.783 189.841C282.737 189.854 282.757 189.841 282.737 189.867C282.349 189.769 282.212 189.366 282.07 189.028C281.707 188.164 281.642 186.773 281.96 185.772C282.044 185.519 282.413 184.713 282.264 184.466C282.193 184.232 281.947 184.102 281.817 183.914C281.662 183.68 281.486 183.387 281.382 183.134C281.091 182.451 280.942 181.691 280.631 181.009C280.482 180.69 280.229 180.358 280.021 180.066C279.788 179.734 279.535 179.507 279.354 179.117C279.295 178.981 279.211 178.76 279.302 178.617C279.328 178.519 279.373 178.48 279.47 178.461C279.626 178.324 280.08 178.5 280.235 178.571C280.689 178.753 281.065 178.929 281.441 179.182C281.609 179.306 281.791 179.533 282.011 179.598H282.271C282.659 179.683 283.1 179.624 283.463 179.734C284.105 179.943 284.695 180.248 285.213 180.579C286.808 181.593 288.124 183.029 289.011 184.752C289.161 185.031 289.219 185.291 289.355 185.584C289.608 186.182 289.925 186.793 290.185 187.377C290.438 187.949 290.684 188.534 291.047 189.015C291.228 189.269 291.961 189.405 292.285 189.542C292.525 189.652 292.907 189.749 293.128 189.88C293.542 190.133 293.957 190.426 294.346 190.712C294.528 190.861 295.137 191.167 295.169 191.407Z" fill="white"/>
<path fill-rule="evenodd" clip-rule="evenodd" d="M282.763 180.808C282.556 180.808 282.413 180.834 282.264 180.866V180.892H282.29C282.387 181.087 282.556 181.224 282.679 181.393C282.776 181.588 282.86 181.782 282.958 181.978C282.971 181.965 282.983 181.951 282.983 181.951C283.152 181.828 283.243 181.633 283.243 181.341C283.172 181.256 283.158 181.171 283.094 181.087C283.016 180.964 282.86 180.905 282.763 180.808Z" fill="white"/>
<path d="M124.384 179.484C125.032 178.722 125.591 177.936 125.698 177.78C125.71 177.768 125.728 177.768 125.741 177.78C125.854 177.942 126.412 178.722 127.06 179.49C132.617 186.576 126.184 191.359 126.184 191.359L126.13 191.395C126.082 192.133 125.962 193.195 125.962 193.195H125.722H125.482C125.482 193.195 125.363 192.139 125.314 191.395L125.26 191.353C125.26 191.353 118.828 186.576 124.384 179.484ZM125.722 191.251C125.722 191.251 126.01 191.005 126.088 190.879V190.867L125.741 183.15C125.741 183.126 125.704 183.126 125.704 183.15L125.363 190.861V190.873C125.441 191.005 125.722 191.251 125.722 191.251Z" fill="white"/>
<path d="M206.653 113.249C206.593 115.367 206.667 117.499 206.875 118.018C207.082 118.536 207.526 119.545 209.052 119.218C210.327 118.944 210.791 118.415 210.992 117.248C211.14 116.389 211.426 114.003 211.463 113.515" stroke="white" stroke-width="0.496751" stroke-linecap="round" stroke-linejoin="round"/>
<path d="M204.823 102.632C204.823 102.632 197.915 99.8078 198.236 106.229C198.304 107.595 200.194 116.566 202.448 113.856C203.272 112.866 204.017 112.088 204.017 112.088" stroke="white" stroke-width="0.496751" stroke-linecap="round" stroke-linejoin="round"/>
<path d="M208.556 102.116C208.317 102.191 212.399 100.624 214.719 103.589C215.539 104.636 214.589 108.914 212.317 112.285" stroke="white" stroke-width="0.496751" stroke-linecap="round" stroke-linejoin="round"/>
<path d="M212.317 112.285C212.317 112.285 212.465 113.013 214.617 112.569C215.559 112.375 214.992 113.116 214.036 113.56C213.251 113.924 211.492 114.017 211.464 113.514C211.39 112.216 212.39 112.61 212.317 112.285ZM212.317 112.285C212.252 111.992 211.805 111.704 211.509 110.987C211.251 110.361 207.967 105.562 212.419 106.274C212.583 106.241 211.258 102.04 207.092 101.972C202.926 101.903 203.063 107.094 203.063 107.094" stroke="white" stroke-width="0.496751" stroke-linecap="round" stroke-linejoin="bevel"/>
<path d="M205.487 112.73C204.906 113.378 205.077 113.493 203.916 113.732C202.741 113.974 203.431 114.405 203.882 114.517C204.428 114.654 205.691 114.847 206.545 113.652C206.805 113.288 206.543 112.707 206.187 112.559C206.014 112.488 205.783 112.398 205.487 112.73Z" stroke="white" stroke-width="0.496751" stroke-linecap="round" stroke-linejoin="round"/>
<path d="M205.448 112.718C205.39 112.336 205.573 111.882 205.771 111.351C206.067 110.555 206.75 109.758 206.203 107.231C205.796 105.348 203.064 106.839 203.062 107.094C203.06 107.349 203.186 108.389 203.017 109.598C202.796 111.177 204.021 112.513 205.432 112.376" stroke="white" stroke-width="0.496751" stroke-linecap="round" stroke-linejoin="round"/>
<path d="M204.798 107.056C204.786 107.143 204.957 107.376 205.182 107.407C205.406 107.438 205.597 107.257 205.609 107.17C205.622 107.082 205.45 106.986 205.226 106.955C205.002 106.924 204.81 106.969 204.798 107.056Z" fill="white" stroke="white" stroke-width="0.496751"/>
<path d="M211.618 106.878C211.63 106.965 211.458 107.198 211.234 107.229C211.01 107.261 210.818 107.079 210.805 106.991C210.794 106.904 210.965 106.808 211.19 106.777C211.414 106.745 211.605 106.791 211.618 106.878Z" fill="white" stroke="white" stroke-width="0.496751"/>
<path d="M212.418 106.274C212.455 106.958 212.271 107.425 212.248 108.153C212.213 109.212 212.753 110.423 211.94 111.636" stroke="white" stroke-width="0.496751" stroke-linecap="round" stroke-linejoin="round"/>
<path d="M161.715 71.0948C164.225 71.0948 166.488 71.5454 168.116 72.2354C168.93 72.5807 169.574 72.9811 170.01 73.4052C170.446 73.8297 170.657 74.259 170.657 74.6699C170.657 75.0807 170.446 75.5099 170.01 75.9344C169.574 76.3584 168.93 76.7588 168.116 77.104C166.488 77.794 164.225 78.2445 161.715 78.2445C159.205 78.2445 156.941 77.794 155.314 77.104C154.499 76.7588 153.856 76.3584 153.419 75.9344C152.983 75.5099 152.772 75.0807 152.772 74.6699C152.772 74.259 152.983 73.8297 153.419 73.4052C153.856 72.9811 154.499 72.5807 155.314 72.2354C156.941 71.5454 159.205 71.0948 161.715 71.0948ZM161.715 77.9142C164.049 77.9142 166.171 77.4914 167.716 76.8959C168.487 76.5985 169.126 76.2541 169.576 75.8894C170.016 75.5331 170.326 75.1166 170.326 74.6699C170.326 74.2232 170.016 73.8066 169.576 73.4502C169.126 73.0854 168.487 72.7409 167.716 72.4435C166.171 71.8479 164.049 71.4251 161.715 71.4251C159.38 71.4251 157.258 71.8479 155.713 72.4435C154.942 72.7409 154.303 73.0854 153.853 73.4502C153.412 73.8066 153.102 74.2232 153.102 74.6699C153.102 75.1166 153.412 75.5331 153.853 75.8894C154.303 76.2541 154.942 76.5985 155.713 76.8959C157.258 77.4914 159.38 77.9142 161.715 77.9142Z" fill="white" stroke="#FEC213" stroke-width="0.496751"/>
<path d="M161.109 69.0994C160.172 70.0919 159.215 71.3233 158.407 72.7575C155.87 77.1502 155.392 81.6354 157.12 82.6284C158.168 83.2349 159.933 82.4992 161.715 80.8451C163.498 82.4992 165.263 83.2349 166.311 82.6284C168.039 81.6354 167.561 77.1502 165.024 72.7575C164.197 71.3233 163.259 70.0919 162.304 69.0994C162.12 68.8788 161.918 68.695 161.715 68.5112M161.109 69.0994L161.285 69.275C161.285 69.2742 161.286 69.2733 161.287 69.2725M161.109 69.0994C161.311 68.8972 161.513 68.695 161.715 68.5112M161.109 69.0994L161.289 69.2699C161.289 69.2708 161.288 69.2716 161.287 69.2725M161.287 69.2725C160.363 70.2517 159.42 71.4662 158.623 72.8795L158.622 72.8817L158.622 72.8817C157.367 75.0548 156.627 77.2426 156.411 78.9981C156.303 79.8766 156.328 80.6347 156.476 81.2242C156.625 81.8144 156.89 82.21 157.244 82.4131L157.244 82.4134C157.674 82.6619 158.288 82.6557 159.051 82.3536C159.808 82.0536 160.669 81.4769 161.546 80.663L161.715 80.5062L161.884 80.663C162.762 81.4769 163.623 82.0536 164.38 82.3536C165.143 82.6557 165.757 82.6619 166.186 82.4134L166.187 82.4131C166.54 82.21 166.806 81.8144 166.955 81.2242C167.103 80.6347 167.128 79.8766 167.02 78.9981C166.804 77.2426 166.064 75.0548 164.809 72.8817L164.809 72.8816C163.991 71.4642 163.066 70.249 162.125 69.2717L162.118 69.2652L162.113 69.2584C161.99 69.1108 161.857 68.9801 161.717 68.8494M161.287 69.2725C161.432 69.1271 161.575 68.9844 161.717 68.8494M161.717 68.8494C161.772 68.7967 161.827 68.7451 161.883 68.695L161.715 68.5112M161.717 68.8494C161.662 68.7983 161.606 68.7471 161.548 68.695L161.715 68.5112M162.136 80.4399C162.901 81.1494 163.653 81.6769 164.309 81.9783C164.637 82.129 164.95 82.227 165.233 82.2587C165.516 82.2903 165.787 82.2574 166.012 82.1262C166.401 81.9032 166.61 81.4275 166.701 80.8683C166.793 80.2958 166.773 79.571 166.646 78.7548C166.39 77.1203 165.694 75.0742 164.522 73.056C163.722 71.6599 162.809 70.4675 161.895 69.5155L161.715 69.329L161.536 69.5155C160.622 70.4676 159.71 71.6591 158.874 73.0524L158.874 73.0524L158.871 73.0562C157.709 75.0742 157.013 77.1201 156.755 78.7545C156.626 79.5705 156.605 80.2952 156.696 80.8676C156.785 81.4264 156.992 81.9023 157.381 82.1257C157.834 82.394 158.458 82.2798 159.093 81.9847C159.747 81.6808 160.494 81.1485 161.258 80.4399M162.136 80.4399C161.988 80.3061 161.842 80.1632 161.697 80.0196C161.552 80.1632 161.406 80.3061 161.258 80.4399M162.136 80.4399C162.136 80.4401 162.136 80.4404 162.137 80.4407L162.304 80.2569L162.135 80.4391C162.135 80.4393 162.135 80.4396 162.136 80.4399ZM161.258 80.4399C161.259 80.4396 161.259 80.4394 161.259 80.4391L161.091 80.2569L161.258 80.4407C161.258 80.4404 161.258 80.4402 161.258 80.4399ZM161.715 69.6875L161.895 69.8596C161.892 69.8625 161.889 69.8654 161.886 69.8682C161.829 69.807 161.772 69.7468 161.715 69.6875ZM161.715 69.6875L161.536 69.8596C161.539 69.8625 161.542 69.8654 161.545 69.8682C161.602 69.807 161.658 69.7468 161.715 69.6875ZM161.697 79.6688C161.694 79.6713 161.692 79.6739 161.689 79.6765L161.703 79.6749C161.701 79.673 161.699 79.6711 161.697 79.6692L161.697 79.6688Z" fill="white" stroke="#FEC213" stroke-width="0.496751"/>
<path d="M166.204 66.925L166.205 66.9254C166.558 67.1285 166.823 67.524 166.972 68.1142C167.121 68.7037 167.146 69.4617 167.038 70.3401C166.822 72.0954 166.082 74.283 164.827 76.4563C164.009 77.8561 163.084 79.0889 162.144 80.0651C161.998 80.2107 161.855 80.3536 161.713 80.4888C161.576 80.3596 161.45 80.2326 161.344 80.0901L161.334 80.0778L161.324 80.0668C160.383 79.0894 159.457 77.8743 158.639 76.4569L158.639 76.4568C157.384 74.2834 156.644 72.0956 156.428 70.3401C156.32 69.4617 156.345 68.7037 156.494 68.1142C156.643 67.524 156.908 67.1285 157.261 66.9254L157.261 66.9254L157.262 66.925C157.691 66.6766 158.305 66.6827 159.068 66.9847C159.826 67.2846 160.687 67.8613 161.564 68.6755L161.733 68.8323L161.902 68.6755C162.779 67.8613 163.64 67.2846 164.398 66.9847C165.161 66.6827 165.775 66.6766 166.204 66.925ZM161.536 79.823L161.715 80.0094L161.894 79.823C162.809 78.8709 163.72 77.6789 164.556 76.2861L164.556 76.2861L164.559 76.2822C165.721 74.2641 166.417 72.2181 166.675 70.5838C166.804 69.7679 166.825 69.0431 166.734 68.4708C166.645 67.9121 166.438 67.4362 166.049 67.2128C165.596 66.9442 164.972 67.0585 164.337 67.3536C163.684 67.6576 162.937 68.19 162.172 68.8986C162.024 69.0324 161.878 69.1753 161.733 69.3189C161.588 69.1753 161.442 69.0324 161.294 68.8986C160.529 68.1891 159.777 67.6615 159.121 67.36C158.793 67.2093 158.48 67.1112 158.197 67.0795C157.914 67.0479 157.643 67.0809 157.418 67.2123C157.029 67.4353 156.82 67.9109 156.73 68.4701C156.637 69.0425 156.657 69.7673 156.784 70.5835C157.04 72.2179 157.736 74.264 158.908 76.2824C159.708 77.678 160.621 78.8709 161.536 79.823Z" fill="white" stroke="#FEC213" stroke-width="0.496751"/>
<mask id="path-32-inside-1_17_960" fill="white">
<path d="M161.715 77.6653C157.101 77.6653 153.351 75.9928 153.351 74.6689H152.524C152.524 76.5809 156.292 78.3454 161.053 78.4924"/>
</mask>
<path d="M161.715 77.6653C157.101 77.6653 153.351 75.9928 153.351 74.6689H152.524C152.524 76.5809 156.292 78.3454 161.053 78.4924" fill="white"/>
<path d="M153.351 74.6689H153.848V74.1722H153.351V74.6689ZM152.524 74.6689V74.1722H152.027V74.6689H152.524ZM161.715 77.1686C159.463 77.1686 157.433 76.7597 155.981 76.2001C155.253 75.9194 154.691 75.6089 154.321 75.3095C153.931 74.9934 153.848 74.7683 153.848 74.6689H152.854C152.854 75.2315 153.239 75.7119 153.696 76.0817C154.174 76.4683 154.838 76.8241 155.624 77.1271C157.2 77.7347 159.352 78.1621 161.715 78.1621V77.1686ZM153.351 74.1722H152.524V75.1657H153.351V74.1722ZM152.027 74.6689C152.027 75.3192 152.348 75.9059 152.832 76.3999C153.316 76.8942 153.994 77.3297 154.797 77.6948C156.407 78.4259 158.606 78.9139 161.038 78.989L161.068 77.9959C158.739 77.924 156.674 77.4562 155.208 76.7903C154.475 76.4569 153.913 76.0836 153.542 75.7047C153.17 75.3256 153.02 74.9747 153.02 74.6689H152.027Z" fill="#FEC213" mask="url(#path-32-inside-1_17_960)"/>
<path d="M161.962 71.4267V71.0963C164.373 71.1249 166.541 71.5682 168.115 72.2354C168.929 72.5807 169.573 72.9811 170.009 73.4052C170.358 73.7449 170.563 74.0876 170.631 74.4215H170.294C170.205 74.0688 169.933 73.7396 169.576 73.4502C169.125 73.0854 168.487 72.7409 167.715 72.4435C166.225 71.8691 164.198 71.4555 161.962 71.4267Z" fill="white" stroke="#FEC213" stroke-width="0.496751"/>
<path d="M163.177 74.6694C163.177 75.4766 162.522 76.1309 161.716 76.1309C160.909 76.1309 160.254 75.4766 160.254 74.6694C160.254 73.8628 160.908 73.2085 161.716 73.2085C162.522 73.2085 163.177 73.8628 163.177 74.6694Z" fill="#FEC213" stroke="#FEC213" stroke-width="0.496751"/>
<path d="M164.809 72.8822L164.809 72.8822C166.064 75.0554 166.804 77.2432 167.02 78.9987C167.128 79.8772 167.103 80.6353 166.955 81.2247C166.835 81.6975 166.641 82.0454 166.387 82.2695L166.214 81.9748C166.476 81.7214 166.627 81.3226 166.701 80.8688C166.793 80.2964 166.774 79.5715 166.646 78.7554C166.39 77.1208 165.694 75.0747 164.522 73.0566C164.334 72.728 164.243 72.4689 164.215 72.2922C164.205 72.2334 164.204 72.1888 164.206 72.1568C164.229 72.1693 164.259 72.1888 164.296 72.2185C164.431 72.3274 164.611 72.538 164.809 72.8822Z" fill="white" stroke="#FEC213" stroke-width="0.496751"/>
<path d="M102.525 137.729L95.8752 141.384L89.1914 137.68L87.9451 127.345L95.8837 124.619L103.772 127.395L102.525 137.729Z" fill="white"/>
<path d="M93.929 133.49L95.9026 134.413H97.9829L98.9605 136.859L100.78 136.893L95.9026 126.043L93.929 133.49ZM94.1197 133.025L95.8896 129.522L97.3411 132.965H95.9026L94.1197 133.025Z" fill="#121212"/>
<path d="M94.2428 132.968H95.8994L95.9034 134.411L93.6124 134.413L92.5419 136.893L90.8018 136.925L95.9034 126.043L95.89 129.522L94.2428 132.968Z" fill="#121212"/>
<path d="M265.348 70.1407C264.208 70.8441 263.504 72.0507 263.504 73.3914C263.504 74.8996 264.41 76.2741 265.784 76.8439C265.515 77.7152 265.113 78.5194 264.611 79.2566C263.873 80.2958 263.102 81.3683 261.963 81.3683C260.823 81.3683 260.488 80.6981 259.147 80.6981C257.84 80.6981 257.371 81.4015 256.299 81.4015C255.226 81.4015 254.489 80.4299 253.651 79.2233C252.545 77.5473 251.908 75.6035 251.875 73.5593C251.875 70.241 254.019 68.4647 256.164 68.4647C257.304 68.4647 258.242 69.2018 258.946 69.2018C259.617 69.2018 260.689 68.4314 261.963 68.4314C263.303 68.3976 264.577 69.0344 265.348 70.1407ZM261.359 67.0236C261.929 66.3535 262.231 65.5154 262.265 64.6441C262.265 64.5433 262.265 64.4092 262.231 64.3088C261.259 64.4092 260.354 64.8786 259.717 65.6158C259.147 66.2526 258.812 67.0569 258.779 67.9287C258.779 68.029 258.779 68.1294 258.812 68.2302C258.879 68.2302 258.98 68.2635 259.047 68.2635C259.952 68.1964 260.79 67.7275 261.359 67.0236Z" fill="white"/>
<path d="M319.89 134.525C319.745 134.525 319.603 134.482 319.482 134.401C319.361 134.321 319.267 134.206 319.212 134.072C319.156 133.938 319.141 133.79 319.169 133.648C319.198 133.505 319.268 133.375 319.371 133.272C319.473 133.169 319.604 133.099 319.747 133.07C319.889 133.042 320.037 133.057 320.171 133.112C320.305 133.168 320.42 133.262 320.5 133.383C320.581 133.504 320.624 133.645 320.624 133.791C320.624 133.985 320.546 134.172 320.409 134.31C320.271 134.447 320.084 134.525 319.89 134.525ZM311.773 134.525C311.628 134.525 311.486 134.482 311.365 134.401C311.245 134.321 311.15 134.206 311.095 134.072C311.04 133.938 311.025 133.79 311.053 133.648C311.081 133.505 311.151 133.375 311.254 133.272C311.356 133.169 311.488 133.099 311.63 133.07C311.772 133.042 311.92 133.057 312.054 133.112C312.189 133.168 312.303 133.262 312.384 133.383C312.465 133.504 312.507 133.645 312.508 133.791C312.507 133.985 312.43 134.172 312.292 134.31C312.155 134.447 311.968 134.525 311.773 134.525ZM320.153 130.102L321.621 127.561C321.641 127.526 321.654 127.488 321.659 127.448C321.665 127.409 321.662 127.368 321.652 127.329C321.641 127.29 321.623 127.254 321.599 127.222C321.574 127.19 321.544 127.164 321.509 127.144C321.474 127.123 321.436 127.11 321.396 127.105C321.357 127.1 321.316 127.103 321.278 127.113C321.239 127.123 321.203 127.141 321.171 127.166C321.139 127.19 321.112 127.22 321.092 127.255L319.606 129.829C318.469 129.31 317.193 129.021 315.832 129.021C314.47 129.021 313.193 129.311 312.057 129.829L310.572 127.255C310.551 127.22 310.524 127.19 310.493 127.166C310.461 127.141 310.425 127.123 310.386 127.113C310.347 127.103 310.307 127.1 310.267 127.105C310.227 127.11 310.189 127.123 310.154 127.143C310.12 127.164 310.089 127.19 310.065 127.222C310.04 127.254 310.022 127.29 310.012 127.329C310.002 127.367 309.999 127.408 310.004 127.448C310.009 127.488 310.023 127.526 310.043 127.561L311.51 130.102C308.99 131.473 307.267 134.024 307.014 137.038H324.649C324.397 134.024 322.673 131.473 320.153 130.102Z" fill="white"/>
<path d="M315.841 69.631C315.929 69.8083 315.841 70.0075 315.663 70.0964C315.486 70.1854 315.286 70.0965 315.197 69.9191L314.976 69.4089H312.869L312.647 69.9191C312.559 70.0965 312.359 70.1854 312.181 70.0964C312.004 70.0075 311.915 69.8083 312.004 69.631L313.601 66.0827C313.645 65.9496 313.778 65.8607 313.934 65.8607C314.066 65.8607 314.199 65.9496 314.244 66.0827L315.841 69.631ZM313.201 68.6996H314.643L313.911 67.0807L313.201 68.6996ZM318.723 66.2158C318.723 66.038 318.879 65.8607 319.078 65.8607C319.256 65.8607 319.433 66.038 319.433 66.2158V69.7636C319.433 69.9633 319.256 70.1188 319.078 70.1188C318.901 70.1188 318.768 70.0075 318.723 69.8525C318.457 70.0299 318.147 70.1188 317.837 70.1188C316.949 70.1188 316.239 69.4089 316.239 68.5217C316.239 67.6569 316.949 66.9252 317.837 66.9252C318.147 66.9252 318.457 67.036 318.723 67.2138V66.2158ZM317.837 67.635C317.326 67.635 316.949 68.0339 316.949 68.5217C316.949 69.0319 317.326 69.4089 317.837 69.4089C318.324 69.4089 318.723 69.0319 318.723 68.5217C318.723 68.0339 318.324 67.635 317.837 67.635ZM309.498 64.4414C309.498 63.6655 310.119 63.0222 310.917 63.0222H320.852C321.629 63.0222 322.272 63.6655 322.272 64.4414V71.538C322.272 72.3363 321.629 72.9572 320.852 72.9572H310.917C310.119 72.9572 309.498 72.3363 309.498 71.538V64.4414ZM310.208 64.4414V71.538C310.208 71.9369 310.518 72.2474 310.917 72.2474H320.852C321.229 72.2474 321.562 71.9369 321.562 71.538V64.4414C321.562 64.0644 321.229 63.7321 320.852 63.7321H310.917C310.518 63.7321 310.208 64.0644 310.208 64.4414Z" fill="white"/>
<path d="M201.206 23.2115C201.206 22.4353 201.827 21.7922 202.625 21.7922H211.141C211.917 21.7922 212.56 22.4353 212.56 23.2115V30.308C212.56 31.1063 211.917 31.7273 211.141 31.7273H202.625C201.827 31.7273 201.206 31.1063 201.206 30.308V23.2115ZM204.754 23.9212H211.85V23.2115C211.85 22.8345 211.518 22.5019 211.141 22.5019H204.754V23.9212ZM204.044 22.5019H202.625C202.226 22.5019 201.915 22.8345 201.915 23.2115V23.9212H204.044V22.5019ZM201.915 24.6308V30.308C201.915 30.7071 202.226 31.0176 202.625 31.0176H211.141C211.518 31.0176 211.85 30.7071 211.85 30.308V24.6308H201.915Z" fill="white"/>
<path d="M100.53 63.5189C101.435 63.5189 102.186 64.269 102.186 65.1746V71.7983C102.186 72.7297 101.435 73.4539 100.53 73.4539H90.5946C89.6632 73.4539 88.939 72.7297 88.939 71.7983V65.1746C88.939 64.269 89.6632 63.5189 90.5946 63.5189H100.53ZM90.5946 64.347C90.1292 64.347 89.7671 64.735 89.7671 65.1746V66.106L94.8121 69.9096C95.2517 70.2459 95.8468 70.2459 96.2869 69.9096L101.358 66.1318V65.1746C101.358 64.735 100.97 64.347 100.53 64.347H90.5946ZM101.358 71.7983V67.1412L96.804 70.5564C96.4161 70.841 95.9764 70.996 95.5621 70.996C95.1225 70.996 94.6824 70.841 94.3203 70.5564L89.7671 67.1412V71.7983C89.7671 72.2637 90.1292 72.6259 90.5946 72.6259H100.53C100.97 72.6259 101.358 72.2637 101.358 71.7983Z" fill="white"/>
<path d="M38.7522 184.225L38.6431 184.197L38.5497 184.26C38.0366 184.608 37.2306 184.974 36.2442 184.974C36.1608 184.974 36.0848 184.929 36.049 184.859C36.0175 184.754 36.04 184.672 36.0898 184.622L36.09 184.622L36.0969 184.615L35.9143 184.446L36.0969 184.614L36.097 184.614L36.0972 184.614L36.0976 184.614L36.099 184.612L36.1038 184.607L36.1208 184.588C36.1353 184.572 36.1559 184.548 36.1813 184.518C36.2321 184.458 36.3025 184.371 36.3823 184.265C36.5409 184.054 36.7407 183.757 36.896 183.426L36.9673 183.274L36.8527 183.151C36.347 182.609 36.0463 181.931 36.0463 181.186C36.0463 179.478 37.6995 178.019 39.834 178.019C41.95 178.019 43.6217 179.479 43.6217 181.186C43.6217 182.912 41.951 184.353 39.834 184.353C39.443 184.353 39.0961 184.316 38.7522 184.225ZM36.1705 181.186C36.1705 181.871 36.428 182.533 36.9372 183.064L37.1141 183.253L37.0085 183.488C36.8421 183.836 36.6306 184.141 36.4599 184.386C36.4423 184.411 36.4252 184.436 36.4087 184.46L36.1008 184.905L36.6389 184.848C37.4298 184.765 38.0686 184.433 38.4901 184.172L38.498 184.167L38.5055 184.162L38.6291 184.072L38.7882 184.106C39.1195 184.188 39.4877 184.229 39.834 184.229C41.8037 184.229 43.4975 182.92 43.4975 181.186C43.4975 179.472 41.8049 178.143 39.834 178.143C37.8427 178.143 36.1705 179.473 36.1705 181.186ZM47.3583 186.082L47.2565 186.217L47.3457 186.362C47.4786 186.576 47.6158 186.759 47.7184 186.889C47.7578 186.939 47.7928 186.983 47.8197 187.016C47.8242 187.021 47.8285 187.026 47.8325 187.031V187.052L47.9054 187.125C47.9442 187.164 47.9727 187.25 47.946 187.344C47.9101 187.413 47.8343 187.457 47.751 187.457C47.1473 187.457 46.6364 187.33 46.1972 187.147L46.1009 187.107L46.0048 187.147C45.5297 187.348 45.0192 187.457 44.491 187.457C42.9285 187.457 41.6448 186.557 41.1825 185.31C41.2289 185.299 41.2748 185.287 41.32 185.275C41.7665 186.491 43.0138 187.333 44.491 187.333C44.9925 187.333 45.4696 187.229 45.94 187.044L45.9503 187.04L45.9603 187.035L46.0953 186.968L46.2395 187.023C46.6082 187.187 46.9802 187.29 47.3549 187.332L47.9082 187.393L47.5843 186.94C47.4881 186.806 47.3571 186.618 47.246 186.433L47.2461 186.433L47.243 186.428L47.1025 186.206L47.2497 186.013L47.2497 186.013L47.2511 186.011C47.6297 185.507 47.8441 184.912 47.8441 184.291C47.8441 182.674 46.4472 181.371 44.7376 181.256C44.7387 181.234 44.7394 181.21 44.7394 181.186C44.7394 181.168 44.7389 181.149 44.738 181.132C46.5602 181.248 47.9683 182.639 47.9683 184.291C47.9683 184.95 47.7363 185.578 47.3583 186.082Z" fill="white" stroke="#FEC213" stroke-width="0.496751"/>
<path d="M375.566 179.545C375.566 180.543 374.768 181.319 373.792 181.319C373.282 181.319 372.816 181.119 372.484 180.765L369.135 182.45C369.157 182.539 369.18 182.649 369.18 182.738C369.18 182.849 369.157 182.96 369.135 183.049L372.484 184.712C372.816 184.38 373.282 184.157 373.792 184.157C374.768 184.157 375.566 184.956 375.566 185.932C375.566 186.93 374.768 187.706 373.792 187.706C372.795 187.706 372.018 186.93 372.018 185.932C372.018 185.732 372.04 185.51 372.107 185.333L368.891 183.714C368.559 184.202 368.026 184.512 367.405 184.512C366.407 184.512 365.631 183.736 365.631 182.738C365.631 181.763 366.407 180.964 367.405 180.964C368.026 180.964 368.559 181.297 368.891 181.784L372.107 180.166C372.04 179.966 372.018 179.767 372.018 179.545C372.018 178.569 372.795 177.771 373.792 177.771C374.768 177.771 375.566 178.569 375.566 179.545ZM367.383 183.803C367.982 183.803 368.448 183.337 368.448 182.738C368.448 182.162 367.982 181.674 367.383 181.674C366.807 181.674 366.319 182.162 366.319 182.738C366.319 183.337 366.807 183.803 367.383 183.803ZM373.792 178.481C373.193 178.481 372.728 178.968 372.728 179.545C372.728 180.144 373.193 180.609 373.792 180.609C374.369 180.609 374.857 180.144 374.857 179.545C374.857 178.968 374.369 178.481 373.792 178.481ZM373.792 186.996C374.369 186.996 374.857 186.53 374.857 185.932C374.857 185.355 374.369 184.867 373.792 184.867C373.193 184.867 372.728 185.355 372.728 185.932C372.728 186.53 373.193 186.996 373.792 186.996Z" fill="#FEC213"/>
<path d="M213.241 194.711V187.014H228.672L249.24 207.582H202.86L174.522 176.667H195.047L213.135 194.755L213.241 194.861V194.711Z" fill="url(#paint0_linear_17_960)" stroke="#2C2C2C" stroke-width="0.124188"/>
<path d="M210.531 168.846V176.544H195.099L174.531 155.976H220.911L249.249 186.89H228.724L210.636 168.802L210.531 168.697V168.846Z" fill="url(#paint1_linear_17_960)" stroke="#2C2C2C" stroke-width="0.124188"/>
</g>
<defs>
<linearGradient id="paint0_linear_17_960" x1="220.579" y1="186.465" x2="246.658" y2="221.486" gradientUnits="userSpaceOnUse">
<stop offset="0.145"/>
<stop offset="1" stop-color="#1E1E1E"/>
</linearGradient>
<linearGradient id="paint1_linear_17_960" x1="211.886" y1="155.914" x2="212.134" y2="182.242" gradientUnits="userSpaceOnUse">
<stop stop-color="#050505"/>
<stop offset="0.82" stop-color="#1E1E1E"/>
</linearGradient>
</defs>
</svg>
