<svg width="414" height="221" viewBox="0 0 414 221" fill="none" xmlns="http://www.w3.org/2000/svg">
<path d="M193.081 45.3877H44.5513C43.3167 45.3877 42.3159 46.3885 42.3159 47.6231V67.4929C42.3159 68.7275 43.3167 69.7283 44.5513 69.7283H193.081C194.316 69.7283 195.316 68.7275 195.316 67.4929V47.6231C195.316 46.3885 194.316 45.3877 193.081 45.3877Z" fill="#121212" stroke="#2C2C2C" stroke-width="0.496751"/>
<path d="M369.429 45.3877H220.899C219.665 45.3877 218.664 46.3885 218.664 47.6231V67.4929C218.664 68.7275 219.665 69.7283 220.899 69.7283H369.429C370.663 69.7283 371.664 68.7275 371.664 67.4929V47.6231C371.664 46.3885 370.663 45.3877 369.429 45.3877Z" fill="#121212" stroke="#2C2C2C" stroke-width="0.496751"/>
<path d="M193.081 80.6567H44.5513C43.3167 80.6567 42.3159 81.6575 42.3159 82.8921V102.762C42.3159 103.997 43.3167 104.997 44.5513 104.997H193.081C194.316 104.997 195.316 103.997 195.316 102.762V82.8921C195.316 81.6575 194.316 80.6567 193.081 80.6567Z" fill="#121212" stroke="#2C2C2C" stroke-width="0.496751"/>
<path d="M369.429 80.6567H220.899C219.665 80.6567 218.664 81.6575 218.664 82.8921V102.762C218.664 103.997 219.665 104.997 220.899 104.997H369.429C370.663 104.997 371.664 103.997 371.664 102.762V82.8921C371.664 81.6575 370.663 80.6567 369.429 80.6567Z" fill="#121212" stroke="#2C2C2C" stroke-width="0.496751"/>
<path d="M193.081 115.926H44.5513C43.3167 115.926 42.3159 116.927 42.3159 118.161V138.031C42.3159 139.266 43.3167 140.266 44.5513 140.266H193.081C194.316 140.266 195.316 139.266 195.316 138.031V118.161C195.316 116.927 194.316 115.926 193.081 115.926Z" fill="#121212" stroke="#2C2C2C" stroke-width="0.496751"/>
<path d="M369.429 115.926H220.899C219.665 115.926 218.664 116.927 218.664 118.161V138.031C218.664 139.266 219.665 140.266 220.899 140.266H369.429C370.663 140.266 371.664 139.266 371.664 138.031V118.161C371.664 116.927 370.663 115.926 369.429 115.926Z" fill="#121212" stroke="#2C2C2C" stroke-width="0.496751"/>
<path d="M193.081 151.195H44.5513C43.3167 151.195 42.3159 152.196 42.3159 153.43V173.3C42.3159 174.535 43.3167 175.535 44.5513 175.535H193.081C194.316 175.535 195.316 174.535 195.316 173.3V153.43C195.316 152.196 194.316 151.195 193.081 151.195Z" fill="#121212" stroke="#2C2C2C" stroke-width="0.496751"/>
<path d="M369.429 151.195H220.899C219.665 151.195 218.664 152.196 218.664 153.43V173.3C218.664 174.535 219.665 175.535 220.899 175.535H369.429C370.663 175.535 371.664 174.535 371.664 173.3V153.43C371.664 152.196 370.663 151.195 369.429 151.195Z" fill="#121212" stroke="#2C2C2C" stroke-width="0.496751"/>
<path d="M56.7555 60.5386H55.9209V55.7698H54.1724V54.975H58.4961V55.7698H56.7555V60.5386ZM58.7365 60.5386V56.5407H59.4121L59.4916 56.9143H59.5313C59.6108 56.7926 59.7062 56.6997 59.8174 56.6361C59.9342 56.5725 60.0877 56.5407 60.2784 56.5407H60.9779V57.2799H60.35C60.0852 57.2799 59.881 57.3514 59.738 57.4945C59.5949 57.6376 59.5234 57.8417 59.5234 58.1065V60.5386H58.7365ZM62.7786 60.6181C62.4979 60.6181 62.249 60.5649 62.0315 60.4591C61.8144 60.3478 61.6475 60.1993 61.5307 60.014C61.4145 59.8233 61.3559 59.6112 61.3559 59.3782C61.3559 58.9862 61.491 58.6733 61.7612 58.4403C62.0315 58.2073 62.4343 58.0906 62.9693 58.0906H63.9867V57.9873C63.9867 57.7275 63.9102 57.5208 63.7562 57.3673C63.6082 57.2138 63.404 57.1368 63.1442 57.1368C62.8953 57.1368 62.6941 57.195 62.5401 57.3117C62.3866 57.423 62.2967 57.5581 62.2699 57.717H61.4989C61.5148 57.5 61.5894 57.2958 61.7215 57.105C61.8541 56.9088 62.0424 56.7528 62.2858 56.6361C62.5297 56.5194 62.8158 56.4613 63.1442 56.4613C63.6424 56.4613 64.0373 56.5989 64.3284 56.8746C64.6255 57.1502 64.7735 57.5208 64.7735 57.9873V60.5386H64.09L64.0105 60.1014H63.9708C63.8809 60.2341 63.7299 60.3533 63.5177 60.4591C63.3061 60.5649 63.0597 60.6181 62.7786 60.6181ZM62.8581 59.9425C63.2078 59.9425 63.4835 59.8471 63.6847 59.6564C63.8863 59.4601 63.9867 59.1954 63.9867 58.8616V58.7185H63.025C62.7284 58.7185 62.5059 58.7766 62.3573 58.8933C62.2143 59.0101 62.1427 59.1611 62.1427 59.3464C62.1427 59.5267 62.2038 59.6723 62.3255 59.7835C62.4527 59.8893 62.6305 59.9425 62.8581 59.9425ZM65.8232 60.5386V56.5407H66.4988L66.5782 56.954H66.618C66.7188 56.8269 66.8723 56.7131 67.079 56.6123C67.2856 56.5114 67.524 56.4613 67.7943 56.4613C68.1018 56.4613 68.3745 56.5328 68.6129 56.6758C68.8568 56.8134 69.0446 57.0097 69.1772 57.264C69.3148 57.5183 69.3839 57.8099 69.3839 58.1383V60.5386H68.597V58.2019C68.597 57.9157 68.5041 57.6773 68.3188 57.4865C68.1336 57.2958 67.9031 57.2004 67.6274 57.2004C67.4421 57.2004 67.2697 57.2456 67.1107 57.3355C66.9573 57.4254 66.835 57.5476 66.7451 57.7011C66.6552 57.8546 66.61 58.0215 66.61 58.2019V60.5386H65.8232ZM71.7926 60.6181C71.4379 60.6181 71.1329 60.5545 70.8786 60.4273C70.6297 60.3001 70.4415 60.1412 70.3143 59.9504C70.1871 59.7542 70.1235 59.5555 70.1235 59.3543H70.9024C70.9024 59.5188 70.9794 59.6588 71.1329 59.7756C71.2919 59.8923 71.512 59.9504 71.7926 59.9504C72.0738 59.9504 72.2854 59.9027 72.4285 59.8074C72.577 59.7065 72.651 59.5823 72.651 59.4338C72.651 59.2907 72.6033 59.177 72.508 59.092C72.4126 59.0071 72.2566 58.9465 72.039 58.9092L71.3873 58.798C70.5875 58.6604 70.1871 58.2789 70.1871 57.6535C70.1871 57.3092 70.3222 57.0256 70.5925 56.803C70.8627 56.575 71.2497 56.4613 71.7529 56.4613C72.0867 56.4613 72.3758 56.5224 72.6192 56.6441C72.8686 56.7658 73.0564 56.9222 73.1835 57.113C73.3162 57.3037 73.3822 57.5049 73.3822 57.717H72.6113C72.6113 57.5526 72.5318 57.415 72.3728 57.3037C72.2193 57.187 72.0127 57.1289 71.7529 57.1289C71.4986 57.1289 71.3028 57.1791 71.1647 57.2799C71.0326 57.3807 70.966 57.5049 70.966 57.6535C70.966 57.7752 71.0112 57.876 71.1012 57.9555C71.1965 58.035 71.3475 58.0931 71.5542 58.1303L72.2139 58.2416C72.6272 58.3107 72.9322 58.4428 73.1279 58.639C73.3296 58.8352 73.4299 59.0975 73.4299 59.4259C73.4299 59.7701 73.2869 60.0562 73.0007 60.2843C72.7201 60.5068 72.3172 60.6181 71.7926 60.6181ZM75.0558 60.5386H74.2689V54.975H75.0558V60.5386ZM77.4099 60.6181C77.1287 60.6181 76.8799 60.5649 76.6628 60.4591C76.4452 60.3478 76.2783 60.1993 76.162 60.014C76.0453 59.8233 75.9872 59.6112 75.9872 59.3782C75.9872 58.9862 76.1223 58.6733 76.3925 58.4403C76.6628 58.2073 77.0651 58.0906 77.6006 58.0906H78.618V57.9873C78.618 57.7275 78.541 57.5208 78.3875 57.3673C78.239 57.2138 78.0348 57.1368 77.7755 57.1368C77.5261 57.1368 77.3249 57.195 77.1715 57.3117C77.0175 57.423 76.9275 57.5581 76.9012 57.717H76.1303C76.1462 57.5 76.2202 57.2958 76.3528 57.105C76.4849 56.9088 76.6732 56.7528 76.9171 56.6361C77.1605 56.5194 77.4466 56.4613 77.7755 56.4613C78.2732 56.4613 78.6682 56.5989 78.9598 56.8746C79.2563 57.1502 79.4048 57.5208 79.4048 57.9873V60.5386H78.7213L78.6418 60.1014H78.6021C78.5117 60.2341 78.3607 60.3533 78.1491 60.4591C77.9369 60.5649 77.6906 60.6181 77.4099 60.6181ZM77.4894 59.9425C77.8391 59.9425 78.1143 59.8471 78.316 59.6564C78.5171 59.4601 78.618 59.1954 78.618 58.8616V58.7185H77.6563C77.3592 58.7185 77.1367 58.7766 76.9886 58.8933C76.8456 59.0101 76.774 59.1611 76.774 59.3464C76.774 59.5267 76.8347 59.6723 76.9569 59.7835C77.084 59.8893 77.2614 59.9425 77.4894 59.9425ZM81.5369 60.5386C81.2667 60.5386 81.0546 60.4671 80.9011 60.324C80.7525 60.1755 80.6785 59.9768 80.6785 59.7279V57.2799H80.0427V56.5407H80.6785V55.3803H81.4654V56.5407H82.3794V57.2799H81.4654V59.5689C81.4654 59.7334 81.5473 59.8153 81.7118 59.8153H82.3794V60.5386H81.5369ZM84.0584 60.5386H83.2716V56.5407H84.0584V60.5386ZM84.0981 55.7857H83.2398V54.9909H84.0981V55.7857ZM86.875 60.6181C86.5044 60.6181 86.1676 60.5306 85.8656 60.3558C85.5636 60.1755 85.3251 59.9291 85.1503 59.6166C84.9809 59.2987 84.8959 58.9386 84.8959 58.5357C84.8959 58.1383 84.9809 57.7831 85.1503 57.4707C85.3251 57.1527 85.5636 56.9063 85.8656 56.7315C86.1676 56.5512 86.5044 56.4613 86.875 56.4613C87.2461 56.4613 87.5799 56.5512 87.8764 56.7315C88.1785 56.9063 88.4144 57.1527 88.5838 57.4707C88.7587 57.7831 88.8461 58.1383 88.8461 58.5357C88.8461 58.9386 88.7587 59.2987 88.5838 59.6166C88.4144 59.9291 88.1785 60.1755 87.8764 60.3558C87.5799 60.5306 87.2461 60.6181 86.875 60.6181ZM86.875 59.8869C87.0926 59.8869 87.2913 59.8312 87.4711 59.7199C87.6569 59.6087 87.8024 59.4497 87.9082 59.2431C88.0145 59.0364 88.0672 58.8005 88.0672 58.5357C88.0672 58.2709 88.0145 58.0374 87.9082 57.8363C87.8024 57.6296 87.6569 57.4707 87.4711 57.3594C87.2913 57.2481 87.0926 57.1925 86.875 57.1925C86.6579 57.1925 86.4567 57.2481 86.2709 57.3594C86.0911 57.4707 85.948 57.6296 85.8417 57.8363C85.7359 58.0374 85.6828 58.2709 85.6828 58.5357C85.6828 58.8005 85.7359 59.0364 85.8417 59.2431C85.948 59.4497 86.0911 59.6087 86.2709 59.7199C86.4567 59.8312 86.6579 59.8869 86.875 59.8869ZM89.6906 60.5386V56.5407H90.3662L90.4456 56.954H90.4854C90.5862 56.8269 90.7397 56.7131 90.9464 56.6123C91.153 56.5114 91.3914 56.4613 91.6617 56.4613C91.9692 56.4613 92.2419 56.5328 92.4803 56.6758C92.7242 56.8134 92.912 57.0097 93.0446 57.264C93.1822 57.5183 93.2513 57.8099 93.2513 58.1383V60.5386H92.4644V58.2019C92.4644 57.9157 92.3715 57.6773 92.1863 57.4865C92.001 57.2958 91.7705 57.2004 91.4948 57.2004C91.3095 57.2004 91.1371 57.2456 90.9781 57.3355C90.8247 57.4254 90.7025 57.5476 90.6125 57.7011C90.5226 57.8546 90.4774 58.0215 90.4774 58.2019V60.5386H89.6906ZM96.2338 60.5386V56.5407H96.9094L96.9888 56.954H97.0286C97.1289 56.8269 97.2695 56.7131 97.4498 56.6123C97.6297 56.5114 97.8259 56.4613 98.038 56.4613C98.3132 56.4613 98.5516 56.5273 98.7533 56.66C98.96 56.7926 99.103 56.9381 99.1825 57.0971H99.2222C99.328 56.9327 99.495 56.7871 99.723 56.66C99.9559 56.5273 100.216 56.4613 100.502 56.4613C100.777 56.4613 101.023 56.5303 101.241 56.6679C101.464 56.8005 101.638 56.9858 101.766 57.2243C101.893 57.4627 101.956 57.7354 101.956 58.0429V60.5386H101.17V58.0906C101.17 57.8149 101.095 57.5978 100.947 57.4389C100.804 57.2799 100.61 57.2004 100.367 57.2004C100.128 57.2004 99.9217 57.2878 99.7468 57.4627C99.5719 57.6321 99.4845 57.8417 99.4845 58.0906V60.5386H98.7056V58.0906C98.7056 57.8204 98.6311 57.6058 98.4831 57.4468C98.3345 57.2824 98.1383 57.2004 97.8949 57.2004C97.6565 57.2004 97.4498 57.2878 97.275 57.4627C97.1051 57.6321 97.0206 57.8417 97.0206 58.0906V60.5386H96.2338ZM104.751 60.6181C104.38 60.6181 104.043 60.5306 103.741 60.3558C103.439 60.1755 103.201 59.9291 103.026 59.6166C102.856 59.2987 102.772 58.9386 102.772 58.5357C102.772 58.1383 102.856 57.7831 103.026 57.4707C103.201 57.1527 103.439 56.9063 103.741 56.7315C104.043 56.5512 104.38 56.4613 104.751 56.4613C105.105 56.4613 105.426 56.5462 105.712 56.7156C106.003 56.885 106.231 57.1185 106.396 57.415C106.565 57.7116 106.65 58.0454 106.65 58.4165C106.65 58.6018 106.637 58.7423 106.61 58.8377H103.558C103.595 59.1611 103.725 59.4259 103.948 59.6325C104.17 59.8337 104.438 59.9345 104.751 59.9345C104.973 59.9345 105.169 59.8844 105.339 59.7835C105.508 59.6827 105.635 59.553 105.72 59.3941H106.539C106.417 59.7492 106.202 60.0433 105.895 60.2763C105.588 60.5043 105.206 60.6181 104.751 60.6181ZM105.871 58.2337C105.844 57.9157 105.728 57.6535 105.522 57.4468C105.315 57.2402 105.058 57.1368 104.751 57.1368C104.433 57.1368 104.165 57.2402 103.948 57.4468C103.73 57.6535 103.601 57.9157 103.558 58.2337H105.871ZM107.496 60.5386V56.5407H108.172L108.251 56.954H108.291C108.391 56.8269 108.532 56.7131 108.712 56.6123C108.892 56.5114 109.088 56.4613 109.3 56.4613C109.576 56.4613 109.814 56.5273 110.016 56.66C110.222 56.7926 110.365 56.9381 110.445 57.0971H110.485C110.59 56.9327 110.757 56.7871 110.985 56.66C111.218 56.5273 111.478 56.4613 111.764 56.4613C112.039 56.4613 112.286 56.5303 112.503 56.6679C112.726 56.8005 112.901 56.9858 113.028 57.2243C113.155 57.4627 113.219 57.7354 113.219 58.0429V60.5386H112.432V58.0906C112.432 57.8149 112.357 57.5978 112.209 57.4389C112.066 57.2799 111.873 57.2004 111.629 57.2004C111.391 57.2004 111.184 57.2878 111.009 57.4627C110.834 57.6321 110.747 57.8417 110.747 58.0906V60.5386H109.968V58.0906C109.968 57.8204 109.893 57.6058 109.745 57.4468C109.597 57.2824 109.401 57.2004 109.157 57.2004C108.919 57.2004 108.712 57.2878 108.537 57.4627C108.367 57.6321 108.283 57.8417 108.283 58.0906V60.5386H107.496ZM116.013 60.6181C115.642 60.6181 115.306 60.5306 115.004 60.3558C114.701 60.1755 114.463 59.9291 114.288 59.6166C114.118 59.2987 114.034 58.9386 114.034 58.5357C114.034 58.1383 114.118 57.7831 114.288 57.4707C114.463 57.1527 114.701 56.9063 115.004 56.7315C115.306 56.5512 115.642 56.4613 116.013 56.4613C116.383 56.4613 116.717 56.5512 117.014 56.7315C117.316 56.9063 117.552 57.1527 117.722 57.4707C117.897 57.7831 117.984 58.1383 117.984 58.5357C117.984 58.9386 117.897 59.2987 117.722 59.6166C117.552 59.9291 117.316 60.1755 117.014 60.3558C116.717 60.5306 116.383 60.6181 116.013 60.6181ZM116.013 59.8869C116.23 59.8869 116.429 59.8312 116.609 59.7199C116.794 59.6087 116.94 59.4497 117.046 59.2431C117.152 59.0364 117.205 58.8005 117.205 58.5357C117.205 58.2709 117.152 58.0374 117.046 57.8363C116.94 57.6296 116.794 57.4707 116.609 57.3594C116.429 57.2481 116.23 57.1925 116.013 57.1925C115.795 57.1925 115.594 57.2481 115.409 57.3594C115.229 57.4707 115.085 57.6296 114.98 57.8363C114.873 58.0374 114.821 58.2709 114.821 58.5357C114.821 58.8005 114.873 59.0364 114.98 59.2431C115.085 59.4497 115.229 59.6087 115.409 59.7199C115.594 59.8312 115.795 59.8869 116.013 59.8869ZM118.828 60.5386V56.5407H119.504L119.583 56.9143H119.623C119.702 56.7926 119.798 56.6997 119.909 56.6361C120.026 56.5725 120.179 56.5407 120.37 56.5407H121.069V57.2799H120.441C120.177 57.2799 119.973 57.3514 119.829 57.4945C119.686 57.6376 119.615 57.8417 119.615 58.1065V60.5386H118.828ZM124.37 56.5407H125.205L123.432 61.4844C123.353 61.7124 123.247 61.8763 123.114 61.9772C122.982 62.078 122.789 62.1282 122.534 62.1282H121.668V61.397H122.447C122.579 61.397 122.669 61.3254 122.717 61.1824L122.852 60.8088L121.207 56.5407H122.041L123.178 59.5848H123.337L124.37 56.5407Z" fill="white"/>
<path d="M57.0338 95.887C56.541 95.887 56.0905 95.7653 55.6827 95.5214C55.2798 95.2775 54.9594 94.9387 54.7209 94.5041C54.4825 94.0694 54.3633 93.5766 54.3633 93.0257C54.3633 92.4748 54.4825 91.982 54.7209 91.5474C54.9594 91.1127 55.2798 90.7739 55.6827 90.53C56.0905 90.2861 56.541 90.1644 57.0338 90.1644C57.4575 90.1644 57.842 90.2519 58.1863 90.4267C58.5305 90.5961 58.8167 90.8296 59.0447 91.1261C59.2776 91.4227 59.4396 91.754 59.5295 92.1196H58.6632C58.5464 91.7754 58.3428 91.4972 58.0512 91.2851C57.765 91.068 57.4258 90.9592 57.0338 90.9592C56.7 90.9592 56.3925 91.0467 56.1118 91.2215C55.8312 91.3909 55.6086 91.6348 55.4442 91.9527C55.2798 92.2652 55.1978 92.6228 55.1978 93.0257C55.1978 93.4286 55.2798 93.7887 55.4442 94.1066C55.6086 94.4191 55.8312 94.663 56.1118 94.8379C56.3925 95.0073 56.7 95.0922 57.0338 95.0922C57.4367 95.0922 57.7809 94.9834 58.0671 94.7663C58.3532 94.5438 58.5519 94.2522 58.6632 93.892H59.5295C59.4396 94.2681 59.2806 94.6074 59.0526 94.9094C58.8246 95.2114 58.5385 95.4499 58.1942 95.6247C57.85 95.7996 57.463 95.887 57.0338 95.887ZM62.0768 95.887C61.7058 95.887 61.3695 95.7996 61.0674 95.6247C60.7654 95.4444 60.527 95.198 60.3521 94.8856C60.1822 94.5676 60.0978 94.2075 60.0978 93.8046C60.0978 93.4072 60.1822 93.052 60.3521 92.7396C60.527 92.4217 60.7654 92.1753 61.0674 92.0004C61.3695 91.8201 61.7058 91.7302 62.0768 91.7302C62.4474 91.7302 62.7812 91.8201 63.0783 92.0004C63.3803 92.1753 63.6158 92.4217 63.7857 92.7396C63.9605 93.052 64.0479 93.4072 64.0479 93.8046C64.0479 94.2075 63.9605 94.5676 63.7857 94.8856C63.6158 95.198 63.3803 95.4444 63.0783 95.6247C62.7812 95.7996 62.4474 95.887 62.0768 95.887ZM62.0768 95.1558C62.2939 95.1558 62.4926 95.1002 62.6729 94.9889C62.8582 94.8776 63.0038 94.7186 63.1101 94.512C63.2159 94.3053 63.269 94.0694 63.269 93.8046C63.269 93.5399 63.2159 93.3064 63.1101 93.1052C63.0038 92.8985 62.8582 92.7396 62.6729 92.6283C62.4926 92.517 62.2939 92.4614 62.0768 92.4614C61.8593 92.4614 61.6581 92.517 61.4728 92.6283C61.2925 92.7396 61.1494 92.8985 61.0436 93.1052C60.9373 93.3064 60.8846 93.5399 60.8846 93.8046C60.8846 94.0694 60.9373 94.3053 61.0436 94.512C61.1494 94.7186 61.2925 94.8776 61.4728 94.9889C61.6581 95.1002 61.8593 95.1558 62.0768 95.1558ZM64.8919 95.8075V91.8097H65.5675L65.647 92.223H65.6867C65.7876 92.0958 65.9411 91.982 66.1477 91.8812C66.3544 91.7804 66.5928 91.7302 66.863 91.7302C67.1705 91.7302 67.4432 91.8017 67.6817 91.9448C67.9256 92.0824 68.1134 92.2786 68.246 92.5329C68.3836 92.7873 68.4526 93.0789 68.4526 93.4072V95.8075H67.6658V93.4708C67.6658 93.1847 67.5729 92.9462 67.3876 92.7555C67.2023 92.5647 66.9718 92.4694 66.6961 92.4694C66.5108 92.4694 66.3385 92.5146 66.1795 92.6045C66.026 92.6944 65.9038 92.8166 65.8139 92.9701C65.724 93.1236 65.6788 93.2905 65.6788 93.4708V95.8075H64.8919ZM70.5852 95.8075C70.315 95.8075 70.1028 95.736 69.9494 95.5929C69.8008 95.4444 69.7268 95.2457 69.7268 94.9968V92.5488H69.091V91.8097H69.7268V90.6493H70.5137V91.8097H71.4277V92.5488H70.5137V94.8379C70.5137 95.0023 70.5956 95.0843 70.76 95.0843H71.4277V95.8075H70.5852ZM73.9134 95.887C73.5424 95.887 73.2061 95.7996 72.904 95.6247C72.602 95.4444 72.3636 95.198 72.1887 94.8856C72.0188 94.5676 71.9344 94.2075 71.9344 93.8046C71.9344 93.4072 72.0188 93.052 72.1887 92.7396C72.3636 92.4217 72.602 92.1753 72.904 92.0004C73.2061 91.8201 73.5424 91.7302 73.9134 91.7302C74.2681 91.7302 74.589 91.8151 74.8751 91.9845C75.1662 92.1539 75.3942 92.3874 75.5587 92.684C75.7281 92.9805 75.813 93.3143 75.813 93.6854C75.813 93.8707 75.7996 94.0113 75.7733 94.1066H72.7212C72.758 94.43 72.8881 94.6948 73.1107 94.9014C73.3332 95.1026 73.6005 95.2035 73.9134 95.2035C74.136 95.2035 74.3317 95.1533 74.5016 95.0525C74.671 94.9516 74.7981 94.822 74.8831 94.663H75.7017C75.5795 95.0182 75.3649 95.3123 75.0579 95.5452C74.7505 95.7732 74.3689 95.887 73.9134 95.887ZM75.0341 93.5026C75.0073 93.1847 74.891 92.9224 74.6844 92.7157C74.4777 92.5091 74.2204 92.4058 73.9134 92.4058C73.5955 92.4058 73.3278 92.5091 73.1107 92.7157C72.8931 92.9224 72.7634 93.1847 72.7212 93.5026H75.0341ZM76.9168 95.8075H76.0107L77.3619 93.7649L76.0663 91.8097H76.9645L77.8705 93.2006H78.0295L78.9276 91.8097H79.8337L78.5382 93.7649L79.8893 95.8075H78.9753L78.0295 94.3371H77.8705L76.9168 95.8075ZM81.6225 95.8075C81.3523 95.8075 81.1402 95.736 80.9867 95.5929C80.8381 95.4444 80.7641 95.2457 80.7641 94.9968V92.5488H80.1283V91.8097H80.7641V90.6493H81.551V91.8097H82.465V92.5488H81.551V94.8379C81.551 95.0023 81.6329 95.0843 81.7974 95.0843H82.465V95.8075H81.6225ZM89.7484 95.8075H88.8502L88.3734 94.4723H85.8141L85.3372 95.8075H84.4306L86.4817 90.2439H87.7057L89.7484 95.8075ZM87.0142 91.1341L86.0843 93.7172H88.1031L87.1732 91.1341H87.0142ZM91.9917 95.8075H90.8154L89.7583 91.8097H90.5849L91.3638 94.822H91.5228L92.3096 91.8097H93.3349L94.1218 94.822H94.2807L95.0596 91.8097H95.8862L94.8212 95.8075H93.6528L92.9057 92.8827H92.7467L91.9917 95.8075ZM97.6835 95.887C97.4028 95.887 97.1534 95.8338 96.9364 95.728C96.7193 95.6168 96.5524 95.4682 96.4356 95.283C96.3189 95.0922 96.2608 94.8801 96.2608 94.6471C96.2608 94.2552 96.3959 93.9422 96.6661 93.7092C96.9363 93.4763 97.3392 93.3595 97.8742 93.3595H98.8916V93.2562C98.8916 92.9964 98.8146 92.7898 98.6611 92.6363C98.5125 92.4828 98.3089 92.4058 98.0491 92.4058C97.8002 92.4058 97.5985 92.4639 97.445 92.5806C97.2915 92.6919 97.2011 92.827 97.1748 92.986H96.4038C96.4197 92.7689 96.4937 92.5647 96.6264 92.374C96.759 92.1778 96.9468 92.0218 97.1907 91.905C97.4346 91.7883 97.7207 91.7302 98.0491 91.7302C98.5473 91.7302 98.9417 91.8678 99.2333 92.1435C99.5299 92.4192 99.6784 92.7898 99.6784 93.2562V95.8075H98.9949L98.9154 95.3704H98.8757C98.7858 95.503 98.6347 95.6222 98.4226 95.728C98.2105 95.8338 97.9641 95.887 97.6835 95.887ZM97.7629 95.2114C98.1127 95.2114 98.3884 95.116 98.5895 94.9253C98.7907 94.7291 98.8916 94.4643 98.8916 94.1305V93.9874H97.9299C97.6333 93.9874 97.4107 94.0455 97.2622 94.1623C97.1192 94.279 97.0476 94.43 97.0476 94.6153C97.0476 94.7956 97.1087 94.9412 97.2304 95.0525C97.3576 95.1583 97.5349 95.2114 97.7629 95.2114ZM100.728 95.8075V91.8097H101.404L101.483 92.1832H101.523C101.602 92.0615 101.698 91.9686 101.809 91.905C101.925 91.8415 102.079 91.8097 102.27 91.8097H102.969V92.5488H102.341C102.076 92.5488 101.873 92.6204 101.73 92.7634C101.586 92.9065 101.515 93.1107 101.515 93.3754V95.8075H100.728ZM105.271 95.887C104.9 95.887 104.563 95.7996 104.261 95.6247C103.959 95.4444 103.721 95.198 103.546 94.8856C103.376 94.5676 103.292 94.2075 103.292 93.8046C103.292 93.4072 103.376 93.052 103.546 92.7396C103.721 92.4217 103.959 92.1753 104.261 92.0004C104.563 91.8201 104.9 91.7302 105.271 91.7302C105.626 91.7302 105.946 91.8151 106.233 91.9845C106.524 92.1539 106.752 92.3874 106.916 92.684C107.085 92.9805 107.17 93.3143 107.17 93.6854C107.17 93.8707 107.157 94.0113 107.131 94.1066H104.079C104.115 94.43 104.246 94.6948 104.468 94.9014C104.691 95.1026 104.958 95.2035 105.271 95.2035C105.493 95.2035 105.689 95.1533 105.859 95.0525C106.028 94.9516 106.156 94.822 106.241 94.663H107.059C106.937 95.0182 106.722 95.3123 106.415 95.5452C106.108 95.7732 105.726 95.887 105.271 95.887ZM106.392 93.5026C106.365 93.1847 106.248 92.9224 106.042 92.7157C105.835 92.5091 105.578 92.4058 105.271 92.4058C104.953 92.4058 104.685 92.5091 104.468 92.7157C104.251 92.9224 104.121 93.1847 104.079 93.5026H106.392ZM108.016 95.8075V91.8097H108.692L108.771 92.223H108.811C108.912 92.0958 109.066 91.982 109.272 91.8812C109.479 91.7804 109.717 91.7302 109.987 91.7302C110.294 91.7302 110.568 91.8017 110.806 91.9448C111.05 92.0824 111.238 92.2786 111.37 92.5329C111.508 92.7873 111.577 93.0789 111.577 93.4072V95.8075H110.79V93.4708C110.79 93.1847 110.697 92.9462 110.512 92.7555C110.326 92.5647 110.096 92.4694 109.82 92.4694C109.635 92.4694 109.463 92.5146 109.304 92.6045C109.15 92.6944 109.028 92.8166 108.938 92.9701C108.848 93.1236 108.803 93.2905 108.803 93.4708V95.8075H108.016ZM114.375 95.887C114.004 95.887 113.668 95.7996 113.366 95.6247C113.064 95.4444 112.825 95.198 112.651 94.8856C112.481 94.5676 112.396 94.2075 112.396 93.8046C112.396 93.4072 112.481 93.052 112.651 92.7396C112.825 92.4217 113.064 92.1753 113.366 92.0004C113.668 91.8201 114.004 91.7302 114.375 91.7302C114.73 91.7302 115.051 91.8151 115.337 91.9845C115.628 92.1539 115.856 92.3874 116.021 92.684C116.19 92.9805 116.275 93.3143 116.275 93.6854C116.275 93.8707 116.261 94.0113 116.235 94.1066H113.183C113.22 94.43 113.35 94.6948 113.573 94.9014C113.795 95.1026 114.062 95.2035 114.375 95.2035C114.598 95.2035 114.794 95.1533 114.963 95.0525C115.133 94.9516 115.26 94.822 115.345 94.663H116.164C116.041 95.0182 115.827 95.3123 115.52 95.5452C115.212 95.7732 114.831 95.887 114.375 95.887ZM115.496 93.5026C115.469 93.1847 115.353 92.9224 115.146 92.7157C114.94 92.5091 114.682 92.4058 114.375 92.4058C114.057 92.4058 113.79 92.5091 113.573 92.7157C113.355 92.9224 113.225 93.1847 113.183 93.5026H115.496ZM118.48 95.887C118.125 95.887 117.82 95.8234 117.566 95.6963C117.317 95.5691 117.129 95.4101 117.002 95.2194C116.874 95.0231 116.811 94.8245 116.811 94.6233H117.59C117.59 94.7877 117.666 94.9278 117.82 95.0445C117.979 95.1613 118.199 95.2194 118.48 95.2194C118.761 95.2194 118.973 95.1717 119.116 95.0763C119.264 94.9755 119.338 94.8513 119.338 94.7027C119.338 94.5597 119.291 94.4459 119.195 94.361C119.1 94.276 118.943 94.2154 118.726 94.1782L118.075 94.0669C117.274 93.9293 116.874 93.5478 116.874 92.9224C116.874 92.5781 117.01 92.2945 117.28 92.072C117.55 91.8439 117.937 91.7302 118.44 91.7302C118.774 91.7302 119.063 91.7913 119.307 91.913C119.555 92.0347 119.744 92.1912 119.871 92.3819C120.003 92.5727 120.07 92.7739 120.07 92.986H119.299C119.299 92.8216 119.219 92.684 119.06 92.5727C118.906 92.4559 118.7 92.3978 118.44 92.3978C118.186 92.3978 117.99 92.448 117.852 92.5488C117.719 92.6497 117.653 92.7739 117.653 92.9224C117.653 93.0441 117.698 93.1449 117.788 93.2244C117.884 93.3039 118.035 93.362 118.242 93.3993L118.901 93.5105C119.314 93.5796 119.619 93.7117 119.815 93.9079C120.016 94.1042 120.117 94.3664 120.117 94.6948C120.117 95.039 119.974 95.3252 119.688 95.5532C119.407 95.7757 119.005 95.887 118.48 95.887ZM122.275 95.887C121.92 95.887 121.615 95.8234 121.361 95.6963C121.112 95.5691 120.924 95.4101 120.797 95.2194C120.67 95.0231 120.606 94.8245 120.606 94.6233H121.385C121.385 94.7877 121.462 94.9278 121.615 95.0445C121.774 95.1613 121.994 95.2194 122.275 95.2194C122.556 95.2194 122.768 95.1717 122.911 95.0763C123.06 94.9755 123.134 94.8513 123.134 94.7027C123.134 94.5597 123.086 94.4459 122.99 94.361C122.895 94.276 122.739 94.2154 122.522 94.1782L121.87 94.0669C121.07 93.9293 120.67 93.5478 120.67 92.9224C120.67 92.5781 120.805 92.2945 121.075 92.072C121.345 91.8439 121.732 91.7302 122.235 91.7302C122.569 91.7302 122.858 91.7913 123.102 91.913C123.351 92.0347 123.539 92.1912 123.666 92.3819C123.799 92.5727 123.865 92.7739 123.865 92.986H123.094C123.094 92.8216 123.014 92.684 122.855 92.5727C122.702 92.4559 122.495 92.3978 122.235 92.3978C121.981 92.3978 121.785 92.448 121.647 92.5488C121.515 92.6497 121.449 92.7739 121.449 92.9224C121.449 93.0441 121.494 93.1449 121.584 93.2244C121.679 93.3039 121.83 93.362 122.037 93.3993L122.696 93.5105C123.11 93.5796 123.415 93.7117 123.61 93.9079C123.812 94.1042 123.912 94.3664 123.912 94.6948C123.912 95.039 123.769 95.3252 123.483 95.5532C123.203 95.7757 122.8 95.887 122.275 95.887Z" fill="white"/>
<path d="M57.0338 131.156C56.541 131.156 56.0905 131.034 55.6827 130.79C55.2798 130.547 54.9594 130.208 54.7209 129.773C54.4825 129.338 54.3633 128.846 54.3633 128.295C54.3633 127.744 54.4825 127.251 54.7209 126.816C54.9594 126.382 55.2798 126.043 55.6827 125.799C56.0905 125.555 56.541 125.433 57.0338 125.433C57.4575 125.433 57.842 125.521 58.1863 125.696C58.5305 125.865 58.8167 126.099 59.0447 126.395C59.2776 126.692 59.4396 127.023 59.5295 127.389H58.6632C58.5464 127.044 58.3428 126.766 58.0512 126.554C57.765 126.337 57.4258 126.228 57.0338 126.228C56.7 126.228 56.3925 126.316 56.1118 126.491C55.8312 126.66 55.6086 126.904 55.4442 127.222C55.2798 127.534 55.1978 127.892 55.1978 128.295C55.1978 128.698 55.2798 129.058 55.4442 129.376C55.6086 129.688 55.8312 129.932 56.1118 130.107C56.3925 130.276 56.7 130.361 57.0338 130.361C57.4367 130.361 57.7809 130.252 58.0671 130.035C58.3532 129.813 58.5519 129.521 58.6632 129.161H59.5295C59.4396 129.537 59.2806 129.876 59.0526 130.178C58.8246 130.48 58.5385 130.719 58.1942 130.894C57.85 131.069 57.463 131.156 57.0338 131.156ZM62.0768 131.156C61.7058 131.156 61.3695 131.069 61.0674 130.894C60.7654 130.713 60.527 130.467 60.3521 130.155C60.1822 129.837 60.0978 129.477 60.0978 129.074C60.0978 128.676 60.1822 128.321 60.3521 128.009C60.527 127.691 60.7654 127.444 61.0674 127.269C61.3695 127.089 61.7058 126.999 62.0768 126.999C62.4474 126.999 62.7812 127.089 63.0783 127.269C63.3803 127.444 63.6158 127.691 63.7857 128.009C63.9605 128.321 64.0479 128.676 64.0479 129.074C64.0479 129.477 63.9605 129.837 63.7857 130.155C63.6158 130.467 63.3803 130.713 63.0783 130.894C62.7812 131.069 62.4474 131.156 62.0768 131.156ZM62.0768 130.425C62.2939 130.425 62.4926 130.369 62.6729 130.258C62.8582 130.147 63.0038 129.988 63.1101 129.781C63.2159 129.574 63.269 129.338 63.269 129.074C63.269 128.809 63.2159 128.575 63.1101 128.374C63.0038 128.168 62.8582 128.009 62.6729 127.897C62.4926 127.786 62.2939 127.73 62.0768 127.73C61.8593 127.73 61.6581 127.786 61.4728 127.897C61.2925 128.009 61.1494 128.168 61.0436 128.374C60.9373 128.575 60.8846 128.809 60.8846 129.074C60.8846 129.338 60.9373 129.574 61.0436 129.781C61.1494 129.988 61.2925 130.147 61.4728 130.258C61.6581 130.369 61.8593 130.425 62.0768 130.425ZM64.8919 131.077V127.079H65.5675L65.647 127.492H65.6867C65.7876 127.365 65.9411 127.251 66.1477 127.15C66.3544 127.049 66.5928 126.999 66.863 126.999C67.1705 126.999 67.4432 127.071 67.6817 127.214C67.9256 127.351 68.1134 127.548 68.246 127.802C68.3836 128.056 68.4526 128.348 68.4526 128.676V131.077H67.6658V128.74C67.6658 128.454 67.5729 128.215 67.3876 128.025C67.2023 127.834 66.9718 127.738 66.6961 127.738C66.5108 127.738 66.3385 127.784 66.1795 127.874C66.026 127.963 65.9038 128.086 65.8139 128.239C65.724 128.393 65.6788 128.56 65.6788 128.74V131.077H64.8919ZM70.5852 131.077C70.315 131.077 70.1028 131.005 69.9494 130.862C69.8008 130.713 69.7268 130.515 69.7268 130.266V127.818H69.091V127.079H69.7268V125.918H70.5137V127.079H71.4277V127.818H70.5137V130.107C70.5137 130.271 70.5956 130.353 70.76 130.353H71.4277V131.077H70.5852ZM73.9134 131.156C73.5423 131.156 73.206 131.069 72.904 130.894C72.602 130.713 72.3636 130.467 72.1887 130.155C72.0188 129.837 71.9344 129.477 71.9344 129.074C71.9344 128.676 72.0188 128.321 72.1887 128.009C72.3636 127.691 72.602 127.444 72.904 127.269C73.206 127.089 73.5423 126.999 73.9134 126.999C74.2681 126.999 74.589 127.084 74.8751 127.254C75.1662 127.423 75.3942 127.656 75.5587 127.953C75.7281 128.25 75.813 128.583 75.813 128.954C75.813 129.14 75.7996 129.28 75.7733 129.376H72.7212C72.758 129.699 72.8881 129.964 73.1107 130.17C73.3332 130.372 73.6005 130.473 73.9134 130.473C74.136 130.473 74.3317 130.422 74.5016 130.322C74.671 130.221 74.7981 130.091 74.8831 129.932H75.7017C75.5795 130.287 75.3649 130.581 75.0579 130.814C74.7504 131.042 74.3689 131.156 73.9134 131.156ZM75.0341 128.772C75.0073 128.454 74.891 128.191 74.6844 127.985C74.4777 127.778 74.2204 127.675 73.9134 127.675C73.5955 127.675 73.3278 127.778 73.1107 127.985C72.8931 128.191 72.7634 128.454 72.7212 128.772H75.0341ZM76.659 131.077V127.079H77.3345L77.414 127.492H77.4538C77.5541 127.365 77.7081 127.251 77.9147 127.15C78.1214 127.049 78.3598 126.999 78.6301 126.999C78.9371 126.999 79.2103 127.071 79.4487 127.214C79.6921 127.351 79.8804 127.548 80.013 127.802C80.1506 128.056 80.2197 128.348 80.2197 128.676V131.077H79.4328V128.74C79.4328 128.454 79.3399 128.215 79.1546 128.025C78.9689 127.834 78.7384 127.738 78.4627 127.738C78.2774 127.738 78.1055 127.784 77.9465 127.874C77.7926 127.963 77.6708 128.086 77.5809 128.239C77.4905 128.393 77.4458 128.56 77.4458 128.74V131.077H76.659ZM82.3522 131.077C82.082 131.077 81.8699 131.005 81.7164 130.862C81.5679 130.713 81.4938 130.515 81.4938 130.266V127.818H80.858V127.079H81.4938V125.918H82.2807V127.079H83.1947V127.818H82.2807V130.107C82.2807 130.271 82.3627 130.353 82.5271 130.353H83.1947V131.077H82.3522ZM89.4727 131.077H85.9437V125.513H86.7783V130.282H89.4727V131.077ZM91.7418 131.156C91.3712 131.156 91.0345 131.069 90.7324 130.894C90.4304 130.713 90.192 130.467 90.0171 130.155C89.8477 129.837 89.7628 129.477 89.7628 129.074C89.7628 128.676 89.8477 128.321 90.0171 128.009C90.192 127.691 90.4304 127.444 90.7324 127.269C91.0345 127.089 91.3712 126.999 91.7418 126.999C92.097 126.999 92.4174 127.084 92.7035 127.254C92.9951 127.423 93.2231 127.656 93.3871 127.953C93.5569 128.25 93.6414 128.583 93.6414 128.954C93.6414 129.14 93.6285 129.28 93.6017 129.376H90.5496C90.5869 129.699 90.7165 129.964 90.9391 130.17C91.1616 130.372 91.4294 130.473 91.7418 130.473C91.9644 130.473 92.1606 130.422 92.33 130.322C92.4999 130.221 92.627 130.091 92.7115 129.932H93.5301C93.4084 130.287 93.1938 130.581 92.8863 130.814C92.5793 131.042 92.1978 131.156 91.7418 131.156ZM92.8625 128.772C92.8362 128.454 92.7194 128.191 92.5128 127.985C92.3061 127.778 92.0493 127.675 91.7418 127.675C91.4239 127.675 91.1567 127.778 90.9391 127.985C90.722 128.191 90.5923 128.454 90.5496 128.772H92.8625ZM94.4874 131.077V127.079H95.1629L95.2424 127.492H95.2822C95.383 127.365 95.5365 127.251 95.7431 127.15C95.9498 127.049 96.1882 126.999 96.4585 126.999C96.766 126.999 97.0387 127.071 97.2771 127.214C97.521 127.351 97.7088 127.548 97.8414 127.802C97.979 128.056 98.0481 128.348 98.0481 128.676V131.077H97.2612V128.74C97.2612 128.454 97.1683 128.215 96.983 128.025C96.7978 127.834 96.5673 127.738 96.2916 127.738C96.1063 127.738 95.9339 127.784 95.7749 127.874C95.6215 127.963 95.4992 128.086 95.4093 128.239C95.3194 128.393 95.2742 128.56 95.2742 128.74V131.077H94.4874ZM100.854 132.746C100.468 132.746 100.136 132.674 99.8607 132.531C99.5905 132.388 99.3838 132.208 99.2408 131.991C99.0977 131.778 99.0212 131.561 99.0103 131.339H99.8051C99.8264 131.524 99.9273 131.686 100.107 131.824C100.287 131.967 100.536 132.038 100.854 132.038C101.183 132.038 101.445 131.945 101.641 131.76C101.837 131.575 101.935 131.328 101.935 131.021V130.385H101.895C101.758 130.539 101.585 130.661 101.379 130.751C101.172 130.841 100.945 130.886 100.695 130.886C100.351 130.886 100.039 130.804 99.7574 130.639C99.4822 130.475 99.2646 130.245 99.1057 129.948C98.9467 129.651 98.8672 129.315 98.8672 128.939C98.8672 128.563 98.9467 128.229 99.1057 127.937C99.2646 127.641 99.4822 127.41 99.7574 127.246C100.039 127.081 100.351 126.999 100.695 126.999C100.95 126.999 101.183 127.049 101.395 127.15C101.612 127.251 101.787 127.386 101.919 127.556H101.959L102.038 127.079H102.722V131.029C102.722 131.368 102.648 131.667 102.499 131.927C102.351 132.187 102.134 132.388 101.848 132.531C101.567 132.674 101.236 132.746 100.854 132.746ZM100.799 130.17C101.011 130.17 101.201 130.12 101.371 130.019C101.546 129.914 101.684 129.768 101.784 129.582C101.885 129.392 101.935 129.177 101.935 128.939C101.935 128.7 101.885 128.488 101.784 128.303C101.684 128.117 101.546 127.974 101.371 127.874C101.201 127.768 101.011 127.715 100.799 127.715C100.47 127.715 100.198 127.828 99.9799 128.056C99.7683 128.284 99.662 128.578 99.662 128.939C99.662 129.304 99.7683 129.601 99.9799 129.829C100.198 130.057 100.47 130.17 100.799 130.17ZM104.939 131.077C104.668 131.077 104.457 131.005 104.303 130.862C104.155 130.713 104.08 130.515 104.08 130.266V127.818H103.444V127.079H104.08V125.918H104.867V127.079H105.781V127.818H104.867V130.107C104.867 130.271 104.949 130.353 105.113 130.353H105.781V131.077H104.939ZM106.713 131.077V125.513H107.5V127.492H107.54C107.635 127.365 107.783 127.251 107.985 127.15C108.191 127.049 108.425 126.999 108.684 126.999C108.992 126.999 109.264 127.071 109.503 127.214C109.747 127.351 109.935 127.548 110.067 127.802C110.205 128.056 110.274 128.348 110.274 128.676V131.077H109.487V128.74C109.487 128.454 109.394 128.215 109.209 128.025C109.023 127.834 108.793 127.738 108.517 127.738C108.332 127.738 108.159 127.784 108 127.874C107.847 127.963 107.725 128.086 107.635 128.239C107.545 128.393 107.5 128.56 107.5 128.74V131.077H106.713Z" fill="white"/>
<path d="M233.878 166.425C233.386 166.425 232.935 166.304 232.527 166.06C232.124 165.816 231.804 165.477 231.565 165.042C231.327 164.608 231.208 164.115 231.208 163.564C231.208 163.013 231.327 162.52 231.565 162.086C231.804 161.651 232.124 161.312 232.527 161.068C232.935 160.824 233.386 160.703 233.878 160.703C234.302 160.703 234.687 160.79 235.031 160.965C235.375 161.134 235.661 161.368 235.889 161.664C236.122 161.961 236.284 162.292 236.374 162.658H235.508C235.391 162.314 235.187 162.035 234.896 161.823C234.61 161.606 234.27 161.497 233.878 161.497C233.544 161.497 233.237 161.585 232.956 161.76C232.676 161.929 232.453 162.173 232.289 162.491C232.124 162.803 232.042 163.161 232.042 163.564C232.042 163.967 232.124 164.327 232.289 164.645C232.453 164.957 232.676 165.201 232.956 165.376C233.237 165.545 233.544 165.63 233.878 165.63C234.281 165.63 234.625 165.522 234.912 165.305C235.198 165.082 235.396 164.79 235.508 164.43H236.374C236.284 164.806 236.125 165.146 235.897 165.448C235.669 165.75 235.383 165.988 235.039 166.163C234.694 166.338 234.307 166.425 233.878 166.425ZM238.762 166.425C238.455 166.425 238.179 166.356 237.936 166.219C237.697 166.075 237.509 165.877 237.371 165.622C237.239 165.368 237.173 165.077 237.173 164.748V162.348H237.96V164.685C237.96 164.971 238.052 165.209 238.238 165.4C238.423 165.591 238.654 165.686 238.929 165.686C239.115 165.686 239.284 165.641 239.438 165.551C239.597 165.461 239.721 165.339 239.811 165.185C239.901 165.032 239.947 164.865 239.947 164.685V162.348H240.733V166.346H240.058L239.978 165.932H239.939C239.827 166.065 239.668 166.181 239.462 166.282C239.255 166.378 239.022 166.425 238.762 166.425ZM242.625 166.346H241.838V160.782H242.625V166.346ZM244.892 166.346C244.622 166.346 244.409 166.274 244.256 166.131C244.107 165.983 244.033 165.784 244.033 165.535V163.087H243.398V162.348H244.033V161.187H244.82V162.348H245.734V163.087H244.82V165.376C244.82 165.54 244.902 165.622 245.067 165.622H245.734V166.346H244.892ZM248.139 166.425C247.831 166.425 247.555 166.356 247.312 166.219C247.073 166.075 246.885 165.877 246.748 165.622C246.615 165.368 246.549 165.077 246.549 164.748V162.348H247.336V164.685C247.336 164.971 247.428 165.209 247.614 165.4C247.799 165.591 248.03 165.686 248.305 165.686C248.491 165.686 248.66 165.641 248.814 165.551C248.973 165.461 249.097 165.339 249.188 165.185C249.278 165.032 249.323 164.865 249.323 164.685V162.348H250.11V166.346H249.434L249.355 165.932H249.315C249.204 166.065 249.045 166.181 248.838 166.282C248.631 166.378 248.398 166.425 248.139 166.425ZM251.175 166.346V162.348H251.85L251.93 162.721H251.969C252.049 162.6 252.144 162.507 252.256 162.443C252.372 162.38 252.526 162.348 252.717 162.348H253.416V163.087H252.788C252.523 163.087 252.319 163.159 252.176 163.302C252.033 163.445 251.962 163.649 251.962 163.914V166.346H251.175ZM255.217 166.425C254.936 166.425 254.687 166.372 254.47 166.266C254.253 166.155 254.086 166.006 253.969 165.821C253.852 165.63 253.794 165.418 253.794 165.185C253.794 164.793 253.929 164.48 254.199 164.247C254.47 164.014 254.872 163.898 255.407 163.898H256.425V163.794C256.425 163.535 256.348 163.328 256.194 163.174C256.046 163.021 255.842 162.944 255.582 162.944C255.333 162.944 255.132 163.002 254.978 163.119C254.825 163.23 254.734 163.365 254.708 163.524H253.937C253.953 163.307 254.027 163.103 254.16 162.912C254.292 162.716 254.48 162.56 254.724 162.443C254.968 162.327 255.254 162.268 255.582 162.268C256.081 162.268 256.475 162.406 256.767 162.682C257.063 162.957 257.212 163.328 257.212 163.794V166.346H256.528L256.449 165.909H256.409C256.319 166.041 256.168 166.16 255.956 166.266C255.744 166.372 255.497 166.425 255.217 166.425ZM255.296 165.75C255.646 165.75 255.922 165.654 256.123 165.463C256.324 165.267 256.425 165.003 256.425 164.669V164.526H255.463C255.167 164.526 254.944 164.584 254.796 164.7C254.652 164.817 254.581 164.968 254.581 165.154C254.581 165.334 254.642 165.479 254.764 165.591C254.891 165.696 255.068 165.75 255.296 165.75ZM259.088 166.346H258.301V160.782H259.088V166.346ZM262.127 166.346V162.348H262.802L262.882 162.721H262.921C263.001 162.6 263.096 162.507 263.207 162.443C263.324 162.38 263.478 162.348 263.668 162.348H264.368V163.087H263.74C263.475 163.087 263.271 163.159 263.128 163.302C262.985 163.445 262.913 163.649 262.913 163.914V166.346H262.127ZM266.669 166.425C266.298 166.425 265.962 166.338 265.66 166.163C265.358 165.983 265.119 165.736 264.945 165.424C264.775 165.106 264.69 164.746 264.69 164.343C264.69 163.945 264.775 163.59 264.945 163.278C265.119 162.96 265.358 162.713 265.66 162.539C265.962 162.358 266.298 162.268 266.669 162.268C267.024 162.268 267.345 162.353 267.631 162.523C267.923 162.692 268.15 162.926 268.315 163.222C268.484 163.519 268.569 163.853 268.569 164.224C268.569 164.409 268.555 164.549 268.529 164.645H265.477C265.514 164.968 265.644 165.233 265.867 165.44C266.089 165.641 266.357 165.742 266.669 165.742C266.892 165.742 267.088 165.692 267.257 165.591C267.427 165.49 267.554 165.36 267.639 165.201H268.458C268.336 165.556 268.121 165.85 267.814 166.083C267.506 166.311 267.125 166.425 266.669 166.425ZM267.79 164.041C267.764 163.723 267.647 163.461 267.44 163.254C267.234 163.047 266.977 162.944 266.669 162.944C266.351 162.944 266.084 163.047 265.867 163.254C265.65 163.461 265.519 163.723 265.477 164.041H267.79ZM269.647 166.346V163.087H269.004V162.348H269.647V161.648C269.647 161.4 269.724 161.201 269.878 161.052C270.031 160.904 270.238 160.83 270.498 160.83H271.285V161.537H270.681C270.516 161.537 270.434 161.619 270.434 161.784V162.348H271.285V163.087H270.434V166.346H269.647ZM273.608 166.425C273.237 166.425 272.901 166.338 272.599 166.163C272.297 165.983 272.059 165.736 271.884 165.424C271.714 165.106 271.629 164.746 271.629 164.343C271.629 163.945 271.714 163.59 271.884 163.278C272.059 162.96 272.297 162.713 272.599 162.539C272.901 162.358 273.237 162.268 273.608 162.268C273.963 162.268 274.284 162.353 274.57 162.523C274.861 162.692 275.089 162.926 275.254 163.222C275.423 163.519 275.508 163.853 275.508 164.224C275.508 164.409 275.495 164.549 275.468 164.645H272.416C272.453 164.968 272.583 165.233 272.806 165.44C273.028 165.641 273.295 165.742 273.608 165.742C273.831 165.742 274.027 165.692 274.197 165.591C274.366 165.49 274.493 165.36 274.578 165.201H275.397C275.275 165.556 275.06 165.85 274.753 166.083C274.445 166.311 274.064 166.425 273.608 166.425ZM274.729 164.041C274.702 163.723 274.586 163.461 274.379 163.254C274.173 163.047 273.915 162.944 273.608 162.944C273.291 162.944 273.023 163.047 272.806 163.254C272.588 163.461 272.458 163.723 272.416 164.041H274.729ZM276.354 166.346V162.348H277.03L277.109 162.721H277.149C277.228 162.6 277.324 162.507 277.435 162.443C277.551 162.38 277.705 162.348 277.896 162.348H278.595V163.087H277.967C277.702 163.087 277.499 163.159 277.355 163.302C277.212 163.445 277.141 163.649 277.141 163.914V166.346H276.354ZM280.897 166.425C280.526 166.425 280.189 166.338 279.887 166.163C279.585 165.983 279.347 165.736 279.172 165.424C279.002 165.106 278.918 164.746 278.918 164.343C278.918 163.945 279.002 163.59 279.172 163.278C279.347 162.96 279.585 162.713 279.887 162.539C280.189 162.358 280.526 162.268 280.897 162.268C281.251 162.268 281.572 162.353 281.858 162.523C282.15 162.692 282.378 162.926 282.542 163.222C282.711 163.519 282.796 163.853 282.796 164.224C282.796 164.409 282.783 164.549 282.757 164.645H279.705C279.741 164.968 279.871 165.233 280.094 165.44C280.317 165.641 280.584 165.742 280.897 165.742C281.119 165.742 281.315 165.692 281.485 165.591C281.654 165.49 281.781 165.36 281.866 165.201H282.685C282.563 165.556 282.348 165.85 282.041 166.083C281.734 166.311 281.352 166.425 280.897 166.425ZM282.017 164.041C281.991 163.723 281.874 163.461 281.668 163.254C281.461 163.047 281.204 162.944 280.897 162.944C280.579 162.944 280.311 163.047 280.094 163.254C279.876 163.461 279.747 163.723 279.705 164.041H282.017ZM283.642 166.346V162.348H284.317L284.397 162.761H284.437C284.537 162.634 284.691 162.52 284.898 162.419C285.104 162.319 285.343 162.268 285.613 162.268C285.92 162.268 286.193 162.34 286.432 162.483C286.675 162.621 286.864 162.817 286.996 163.071C287.134 163.325 287.203 163.617 287.203 163.945V166.346H286.416V164.009C286.416 163.723 286.323 163.484 286.138 163.294C285.952 163.103 285.722 163.008 285.446 163.008C285.261 163.008 285.088 163.053 284.929 163.143C284.776 163.233 284.654 163.355 284.564 163.508C284.474 163.662 284.429 163.829 284.429 164.009V166.346H283.642ZM290.001 166.425C289.63 166.425 289.294 166.338 288.992 166.163C288.69 165.983 288.451 165.736 288.277 165.424C288.107 165.106 288.022 164.746 288.022 164.343C288.022 163.945 288.107 163.59 288.277 163.278C288.451 162.96 288.69 162.713 288.992 162.539C289.294 162.358 289.63 162.268 290.001 162.268C290.483 162.268 290.886 162.404 291.209 162.674C291.532 162.944 291.742 163.291 291.837 163.715H291.042C290.973 163.492 290.849 163.318 290.669 163.19C290.489 163.063 290.266 163 290.001 163C289.784 163 289.585 163.055 289.405 163.167C289.225 163.278 289.082 163.437 288.976 163.643C288.87 163.845 288.817 164.078 288.817 164.343C288.817 164.608 288.87 164.844 288.976 165.05C289.082 165.257 289.225 165.416 289.405 165.527C289.585 165.638 289.784 165.694 290.001 165.694C290.266 165.694 290.489 165.628 290.669 165.495C290.849 165.363 290.973 165.18 291.042 164.947H291.837C291.742 165.382 291.532 165.736 291.209 166.012C290.886 166.288 290.483 166.425 290.001 166.425ZM294.379 166.425C294.008 166.425 293.671 166.338 293.369 166.163C293.067 165.983 292.829 165.736 292.654 165.424C292.484 165.106 292.4 164.746 292.4 164.343C292.4 163.945 292.484 163.59 292.654 163.278C292.829 162.96 293.067 162.713 293.369 162.539C293.671 162.358 294.008 162.268 294.379 162.268C294.734 162.268 295.054 162.353 295.34 162.523C295.632 162.692 295.859 162.926 296.024 163.222C296.193 163.519 296.278 163.853 296.278 164.224C296.278 164.409 296.265 164.549 296.238 164.645H293.186C293.224 164.968 293.353 165.233 293.576 165.44C293.798 165.641 294.066 165.742 294.379 165.742C294.601 165.742 294.797 165.692 294.967 165.591C295.136 165.49 295.263 165.36 295.348 165.201H296.167C296.045 165.556 295.831 165.85 295.523 166.083C295.216 166.311 294.834 166.425 294.379 166.425ZM295.499 164.041C295.473 163.723 295.356 163.461 295.15 163.254C294.943 163.047 294.686 162.944 294.379 162.944C294.061 162.944 293.793 163.047 293.576 163.254C293.359 163.461 293.229 163.723 293.186 164.041H295.499Z" fill="white"/>
<path d="M233.6 131.077H232.766V126.308H231.017V125.513H235.341V126.308H233.6V131.077ZM237.167 131.156C236.796 131.156 236.459 131.069 236.157 130.894C235.855 130.713 235.617 130.467 235.442 130.155C235.273 129.837 235.188 129.477 235.188 129.074C235.188 128.676 235.273 128.321 235.442 128.009C235.617 127.691 235.855 127.444 236.157 127.269C236.459 127.089 236.796 126.999 237.167 126.999C237.522 126.999 237.842 127.084 238.129 127.254C238.42 127.423 238.648 127.656 238.812 127.953C238.982 128.25 239.066 128.583 239.066 128.954C239.066 129.14 239.054 129.28 239.027 129.376H235.975C236.012 129.699 236.142 129.964 236.364 130.17C236.587 130.372 236.854 130.472 237.167 130.472C237.389 130.472 237.586 130.422 237.755 130.321C237.925 130.221 238.052 130.091 238.137 129.932H238.955C238.833 130.287 238.619 130.581 238.311 130.814C238.004 131.042 237.623 131.156 237.167 131.156ZM238.288 128.772C238.261 128.454 238.144 128.191 237.938 127.985C237.731 127.778 237.474 127.675 237.167 127.675C236.849 127.675 236.582 127.778 236.364 127.985C236.147 128.191 236.017 128.454 235.975 128.772H238.288ZM241.661 131.156C241.29 131.156 240.954 131.069 240.652 130.894C240.35 130.713 240.111 130.467 239.936 130.155C239.767 129.837 239.682 129.477 239.682 129.074C239.682 128.676 239.767 128.321 239.936 128.009C240.111 127.691 240.35 127.444 240.652 127.269C240.954 127.089 241.29 126.999 241.661 126.999C242.143 126.999 242.546 127.134 242.869 127.405C243.192 127.675 243.402 128.022 243.497 128.446H242.702C242.633 128.223 242.509 128.048 242.329 127.921C242.148 127.794 241.926 127.73 241.661 127.73C241.444 127.73 241.245 127.786 241.065 127.897C240.885 128.009 240.741 128.168 240.636 128.374C240.53 128.575 240.477 128.809 240.477 129.074C240.477 129.338 240.53 129.574 240.636 129.781C240.741 129.988 240.885 130.147 241.065 130.258C241.245 130.369 241.444 130.425 241.661 130.425C241.926 130.425 242.148 130.359 242.329 130.226C242.509 130.093 242.633 129.911 242.702 129.678H243.497C243.402 130.112 243.192 130.467 242.869 130.743C242.546 131.018 242.143 131.156 241.661 131.156ZM244.33 131.077V125.513H245.117V127.492H245.157C245.252 127.365 245.4 127.251 245.602 127.15C245.808 127.049 246.041 126.999 246.301 126.999C246.608 126.999 246.881 127.071 247.12 127.214C247.363 127.351 247.551 127.548 247.684 127.802C247.822 128.056 247.891 128.348 247.891 128.676V131.077H247.104V128.74C247.104 128.454 247.011 128.215 246.826 128.025C246.64 127.834 246.409 127.738 246.134 127.738C245.948 127.738 245.777 127.784 245.618 127.874C245.464 127.963 245.342 128.086 245.252 128.239C245.162 128.393 245.117 128.56 245.117 128.74V131.077H244.33ZM248.939 131.077V127.079H249.615L249.694 127.492H249.734C249.835 127.365 249.989 127.251 250.195 127.15C250.402 127.049 250.64 126.999 250.91 126.999C251.218 126.999 251.491 127.071 251.729 127.214C251.973 127.351 252.161 127.548 252.293 127.802C252.431 128.056 252.5 128.348 252.5 128.676V131.077H251.713V128.74C251.713 128.454 251.62 128.215 251.435 128.025C251.25 127.834 251.019 127.738 250.744 127.738C250.558 127.738 250.386 127.784 250.227 127.874C250.073 127.963 249.951 128.086 249.861 128.239C249.771 128.393 249.726 128.56 249.726 128.74V131.077H248.939ZM254.337 131.077H253.55V127.079H254.337V131.077ZM254.376 126.324H253.518V125.529H254.376V126.324ZM257.154 131.156C256.783 131.156 256.446 131.069 256.144 130.894C255.842 130.713 255.604 130.467 255.429 130.155C255.259 129.837 255.175 129.477 255.175 129.074C255.175 128.676 255.259 128.321 255.429 128.009C255.604 127.691 255.842 127.444 256.144 127.269C256.446 127.089 256.783 126.999 257.154 126.999C257.635 126.999 258.038 127.134 258.362 127.405C258.685 127.675 258.894 128.022 258.99 128.446H258.195C258.126 128.223 258.001 128.048 257.821 127.921C257.641 127.794 257.418 127.73 257.154 127.73C256.936 127.73 256.737 127.786 256.558 127.897C256.377 128.009 256.234 128.168 256.128 128.374C256.022 128.575 255.969 128.809 255.969 129.074C255.969 129.338 256.022 129.574 256.128 129.781C256.234 129.988 256.377 130.147 256.558 130.258C256.737 130.369 256.936 130.425 257.154 130.425C257.418 130.425 257.641 130.359 257.821 130.226C258.001 130.093 258.126 129.911 258.195 129.678H258.99C258.894 130.112 258.685 130.467 258.362 130.743C258.038 131.018 257.635 131.156 257.154 131.156ZM261.03 131.156C260.75 131.156 260.5 131.103 260.283 130.997C260.066 130.886 259.899 130.737 259.782 130.552C259.666 130.361 259.608 130.149 259.608 129.916C259.608 129.524 259.743 129.211 260.013 128.978C260.283 128.745 260.686 128.629 261.221 128.629H262.238V128.525C262.238 128.265 262.161 128.059 262.008 127.905C261.859 127.752 261.656 127.675 261.396 127.675C261.147 127.675 260.945 127.733 260.792 127.85C260.638 127.961 260.548 128.096 260.522 128.255H259.751C259.767 128.038 259.841 127.834 259.973 127.643C260.106 127.447 260.294 127.291 260.538 127.174C260.781 127.057 261.068 126.999 261.396 126.999C261.894 126.999 262.289 127.137 262.58 127.413C262.877 127.688 263.025 128.059 263.025 128.525V131.077H262.342L262.262 130.639H262.223C262.133 130.772 261.982 130.891 261.769 130.997C261.557 131.103 261.311 131.156 261.03 131.156ZM261.11 130.48C261.459 130.48 261.735 130.385 261.936 130.194C262.138 129.998 262.238 129.733 262.238 129.4V129.256H261.277C260.98 129.256 260.758 129.315 260.609 129.431C260.466 129.548 260.394 129.699 260.394 129.884C260.394 130.065 260.456 130.21 260.577 130.321C260.704 130.427 260.882 130.48 261.11 130.48ZM264.901 131.077H264.115V125.513H264.901V131.077ZM268.946 131.077C268.675 131.077 268.463 131.005 268.31 130.862C268.161 130.713 268.087 130.515 268.087 130.266V127.818H267.451V127.079H268.087V125.918H268.874V127.079H269.788V127.818H268.874V130.107C268.874 130.271 268.956 130.353 269.12 130.353H269.788V131.077H268.946ZM272.273 131.156C271.902 131.156 271.566 131.069 271.264 130.894C270.962 130.713 270.723 130.467 270.549 130.155C270.379 129.837 270.294 129.477 270.294 129.074C270.294 128.676 270.379 128.321 270.549 128.009C270.723 127.691 270.962 127.444 271.264 127.269C271.566 127.089 271.902 126.999 272.273 126.999C272.628 126.999 272.949 127.084 273.235 127.254C273.527 127.423 273.754 127.656 273.919 127.953C274.088 128.25 274.173 128.583 274.173 128.954C274.173 129.14 274.159 129.28 274.133 129.376H271.081C271.118 129.699 271.248 129.964 271.471 130.17C271.693 130.372 271.961 130.472 272.273 130.472C272.496 130.472 272.692 130.422 272.861 130.321C273.031 130.221 273.158 130.091 273.243 129.932H274.062C273.94 130.287 273.725 130.581 273.418 130.814C273.11 131.042 272.729 131.156 272.273 131.156ZM273.394 128.772C273.368 128.454 273.251 128.191 273.044 127.985C272.838 127.778 272.581 127.675 272.273 127.675C271.955 127.675 271.688 127.778 271.471 127.985C271.253 128.191 271.123 128.454 271.081 128.772H273.394ZM275.019 131.077V127.079H275.694L275.774 127.452H275.814C275.893 127.331 275.988 127.238 276.1 127.174C276.216 127.11 276.37 127.079 276.561 127.079H277.26V127.818H276.632C276.367 127.818 276.163 127.889 276.02 128.032C275.877 128.176 275.806 128.38 275.806 128.644V131.077H275.019ZM277.891 131.077V127.079H278.566L278.646 127.492H278.685C278.786 127.365 278.927 127.251 279.107 127.15C279.287 127.049 279.483 126.999 279.695 126.999C279.97 126.999 280.209 127.065 280.41 127.198C280.617 127.331 280.76 127.476 280.839 127.635H280.879C280.985 127.471 281.152 127.325 281.38 127.198C281.613 127.065 281.872 126.999 282.159 126.999C282.434 126.999 282.681 127.068 282.898 127.206C283.12 127.338 283.295 127.524 283.422 127.762C283.55 128.001 283.613 128.273 283.613 128.581V131.077H282.826V128.629C282.826 128.353 282.752 128.136 282.604 127.977C282.461 127.818 282.267 127.738 282.023 127.738C281.785 127.738 281.578 127.826 281.404 128.001C281.229 128.17 281.141 128.38 281.141 128.629V131.077H280.362V128.629C280.362 128.358 280.288 128.144 280.14 127.985C279.992 127.82 279.796 127.738 279.552 127.738C279.313 127.738 279.107 127.826 278.932 128.001C278.762 128.17 278.677 128.38 278.677 128.629V131.077H277.891ZM286.018 131.156C285.663 131.156 285.358 131.092 285.104 130.965C284.855 130.838 284.667 130.679 284.54 130.488C284.412 130.292 284.349 130.093 284.349 129.892H285.128C285.128 130.057 285.205 130.197 285.358 130.314C285.517 130.43 285.737 130.488 286.018 130.488C286.299 130.488 286.511 130.441 286.654 130.345C286.802 130.245 286.876 130.12 286.876 129.972C286.876 129.829 286.829 129.715 286.733 129.63C286.638 129.545 286.482 129.484 286.264 129.447L285.613 129.336C284.813 129.198 284.412 128.817 284.412 128.191C284.412 127.847 284.547 127.564 284.818 127.341C285.088 127.113 285.475 126.999 285.978 126.999C286.312 126.999 286.601 127.06 286.844 127.182C287.094 127.304 287.282 127.46 287.409 127.651C287.541 127.842 287.607 128.043 287.607 128.255H286.837C286.837 128.091 286.757 127.953 286.598 127.842C286.445 127.725 286.238 127.667 285.978 127.667C285.724 127.667 285.528 127.717 285.39 127.818C285.258 127.919 285.191 128.043 285.191 128.191C285.191 128.313 285.236 128.414 285.326 128.493C285.422 128.573 285.573 128.631 285.779 128.668L286.439 128.78C286.852 128.849 287.157 128.981 287.353 129.177C287.555 129.373 287.655 129.635 287.655 129.964C287.655 130.308 287.512 130.594 287.226 130.822C286.945 131.045 286.542 131.156 286.018 131.156Z" fill="white"/>
<path d="M232.281 95.8076H231.446V90.244H232.281V95.8076ZM235.045 95.8871C234.701 95.8871 234.388 95.7997 234.107 95.6248C233.826 95.45 233.604 95.2036 233.44 94.8857C233.275 94.5677 233.193 94.2076 233.193 93.8047C233.193 93.4019 233.275 93.0442 233.44 92.7317C233.604 92.4138 233.826 92.1674 234.107 91.9926C234.388 91.8177 234.701 91.7303 235.045 91.7303C235.548 91.7303 235.951 91.921 236.253 92.3026H236.293V90.244H237.08V95.8076H236.404L236.325 95.299H236.285C235.978 95.6909 235.564 95.8871 235.045 95.8871ZM235.141 95.1559C235.347 95.1559 235.538 95.1003 235.713 94.989C235.893 94.8777 236.033 94.7188 236.134 94.5121C236.24 94.3055 236.293 94.0695 236.293 93.8047C236.293 93.54 236.24 93.3065 236.134 93.1053C236.033 92.8987 235.893 92.7397 235.713 92.6284C235.538 92.5172 235.347 92.4615 235.141 92.4615C234.929 92.4615 234.735 92.5172 234.56 92.6284C234.386 92.7397 234.245 92.8987 234.139 93.1053C234.038 93.3065 233.988 93.54 233.988 93.8047C233.988 94.075 234.038 94.3134 234.139 94.5201C234.245 94.7212 234.386 94.8777 234.56 94.989C234.735 95.1003 234.929 95.1559 235.141 95.1559ZM238.969 95.8076H238.182V91.8098H238.969V95.8076ZM239.008 91.0547H238.15V90.2599H239.008V91.0547ZM241.785 95.8871C241.414 95.8871 241.078 95.7997 240.776 95.6248C240.474 95.4445 240.235 95.1981 240.06 94.8857C239.891 94.5677 239.806 94.2076 239.806 93.8047C239.806 93.4073 239.891 93.0522 240.06 92.7397C240.235 92.4218 240.474 92.1754 240.776 92.0005C241.078 91.8202 241.414 91.7303 241.785 91.7303C242.156 91.7303 242.49 91.8202 242.787 92.0005C243.089 92.1754 243.325 92.4218 243.494 92.7397C243.669 93.0522 243.756 93.4073 243.756 93.8047C243.756 94.2076 243.669 94.5677 243.494 94.8857C243.325 95.1981 243.089 95.4445 242.787 95.6248C242.49 95.7997 242.156 95.8871 241.785 95.8871ZM241.785 95.1559C242.002 95.1559 242.201 95.1003 242.381 94.989C242.567 94.8777 242.713 94.7188 242.818 94.5121C242.924 94.3055 242.977 94.0695 242.977 93.8047C242.977 93.54 242.924 93.3065 242.818 93.1053C242.713 92.8987 242.567 92.7397 242.381 92.6284C242.201 92.5172 242.002 92.4615 241.785 92.4615C241.568 92.4615 241.366 92.5172 241.181 92.6284C241.001 92.7397 240.858 92.8987 240.752 93.1053C240.646 93.3065 240.593 93.54 240.593 93.8047C240.593 94.0695 240.646 94.3055 240.752 94.5121C240.858 94.7188 241.001 94.8777 241.181 94.989C241.366 95.1003 241.568 95.1559 241.785 95.1559ZM244.601 95.8076V91.8098H245.276L245.356 92.2231H245.396C245.496 92.0959 245.636 91.9821 245.817 91.8813C245.997 91.7805 246.193 91.7303 246.405 91.7303C246.68 91.7303 246.919 91.7964 247.12 91.929C247.327 92.0616 247.47 92.2072 247.549 92.3661H247.589C247.695 92.2017 247.862 92.0562 248.09 91.929C248.323 91.7964 248.583 91.7303 248.869 91.7303C249.144 91.7303 249.39 91.7993 249.608 91.9369C249.831 92.0696 250.005 92.2549 250.133 92.4933C250.26 92.7317 250.323 93.0045 250.323 93.312V95.8076H249.536V93.3596C249.536 93.0839 249.462 92.8669 249.314 92.7079C249.171 92.5489 248.977 92.4695 248.734 92.4695C248.495 92.4695 248.289 92.5569 248.114 92.7317C247.939 92.9011 247.851 93.1108 247.851 93.3596V95.8076H247.073V93.3596C247.073 93.0894 246.998 92.8748 246.85 92.7159C246.702 92.5514 246.505 92.4695 246.262 92.4695C246.023 92.4695 245.817 92.5569 245.642 92.7317C245.472 92.9011 245.388 93.1108 245.388 93.3596V95.8076H244.601ZM252.617 95.8871C252.336 95.8871 252.087 95.834 251.87 95.7281C251.652 95.6169 251.485 95.4683 251.369 95.2831C251.252 95.0923 251.194 94.8802 251.194 94.6472C251.194 94.2553 251.329 93.9423 251.599 93.7094C251.87 93.4764 252.272 93.3596 252.808 93.3596H253.825V93.2563C253.825 92.9965 253.748 92.7899 253.594 92.6364C253.446 92.4829 253.242 92.4059 252.982 92.4059C252.733 92.4059 252.532 92.464 252.378 92.5807C252.224 92.692 252.134 92.8271 252.108 92.9861H251.337C251.353 92.769 251.427 92.5648 251.56 92.3741C251.692 92.1779 251.88 92.0219 252.124 91.9052C252.367 91.7884 252.654 91.7303 252.982 91.7303C253.48 91.7303 253.875 91.8679 254.167 92.1436C254.463 92.4193 254.612 92.7899 254.612 93.2563V95.8076H253.928L253.849 95.3705H253.809C253.719 95.5031 253.568 95.6223 253.356 95.7281C253.144 95.834 252.898 95.8871 252.617 95.8871ZM252.696 95.2115C253.046 95.2115 253.321 95.1162 253.523 94.9254C253.724 94.7292 253.825 94.4644 253.825 94.1306V93.9875H252.863C252.566 93.9875 252.344 94.0457 252.196 94.1624C252.053 94.2791 251.981 94.4301 251.981 94.6154C251.981 94.7958 252.042 94.9413 252.164 95.0526C252.291 95.1584 252.468 95.2115 252.696 95.2115ZM256.744 95.8076C256.474 95.8076 256.261 95.7361 256.108 95.593C255.959 95.4445 255.885 95.2458 255.885 94.9969V92.5489H255.25V91.8098H255.885V90.6494H256.672V91.8098H257.586V92.5489H256.672V94.838C256.672 95.0024 256.754 95.0844 256.919 95.0844H257.586V95.8076H256.744ZM259.265 95.8076H258.479V91.8098H259.265V95.8076ZM259.305 91.0547H258.447V90.2599H259.305V91.0547ZM262.082 95.8871C261.711 95.8871 261.375 95.7997 261.073 95.6248C260.771 95.4445 260.533 95.1981 260.358 94.8857C260.188 94.5677 260.103 94.2076 260.103 93.8047C260.103 93.4073 260.188 93.0522 260.358 92.7397C260.533 92.4218 260.771 92.1754 261.073 92.0005C261.375 91.8202 261.711 91.7303 262.082 91.7303C262.564 91.7303 262.967 91.8654 263.291 92.1356C263.613 92.4059 263.823 92.7531 263.918 93.1768H263.124C263.055 92.9543 262.93 92.7794 262.75 92.6523C262.57 92.5251 262.347 92.4615 262.082 92.4615C261.865 92.4615 261.666 92.5172 261.486 92.6284C261.306 92.7397 261.163 92.8987 261.057 93.1053C260.951 93.3065 260.898 93.54 260.898 93.8047C260.898 94.0695 260.951 94.3055 261.057 94.5121C261.163 94.7188 261.306 94.8777 261.486 94.989C261.666 95.1003 261.865 95.1559 262.082 95.1559C262.347 95.1559 262.57 95.0898 262.75 94.9572C262.93 94.8246 263.055 94.6418 263.124 94.4088H263.918C263.823 94.8434 263.613 95.1981 263.291 95.4738C262.967 95.7495 262.564 95.8871 262.082 95.8871ZM266.684 95.8076V90.244H267.471V92.2231H267.51C267.606 92.0959 267.754 91.9821 267.956 91.8813C268.162 91.7805 268.395 91.7303 268.655 91.7303C268.962 91.7303 269.235 91.8018 269.474 91.9449C269.717 92.0825 269.905 92.2787 270.038 92.533C270.175 92.7874 270.245 93.079 270.245 93.4073V95.8076H269.458V93.4709C269.458 93.1848 269.365 92.9463 269.18 92.7556C268.994 92.5648 268.763 92.4695 268.488 92.4695C268.302 92.4695 268.13 92.5147 267.971 92.6046C267.817 92.6945 267.696 92.8167 267.606 92.9702C267.515 93.1237 267.471 93.2906 267.471 93.4709V95.8076H266.684ZM272.541 95.8871C272.26 95.8871 272.011 95.834 271.794 95.7281C271.577 95.6169 271.41 95.4683 271.293 95.2831C271.176 95.0923 271.118 94.8802 271.118 94.6472C271.118 94.2553 271.253 93.9423 271.524 93.7094C271.794 93.4764 272.197 93.3596 272.732 93.3596H273.749V93.2563C273.749 92.9965 273.672 92.7899 273.519 92.6364C273.37 92.4829 273.166 92.4059 272.907 92.4059C272.658 92.4059 272.456 92.464 272.303 92.5807C272.149 92.692 272.059 92.8271 272.032 92.9861H271.261C271.277 92.769 271.351 92.5648 271.484 92.3741C271.617 92.1779 271.804 92.0219 272.048 91.9052C272.292 91.7884 272.578 91.7303 272.907 91.7303C273.405 91.7303 273.799 91.8679 274.091 92.1436C274.387 92.4193 274.536 92.7899 274.536 93.2563V95.8076H273.852L273.773 95.3705H273.733C273.643 95.5031 273.492 95.6223 273.28 95.7281C273.068 95.834 272.822 95.8871 272.541 95.8871ZM272.621 95.2115C272.97 95.2115 273.246 95.1162 273.447 94.9254C273.648 94.7292 273.749 94.4644 273.749 94.1306V93.9875H272.787C272.491 93.9875 272.268 94.0457 272.12 94.1624C271.977 94.2791 271.905 94.4301 271.905 94.6154C271.905 94.7958 271.966 94.9413 272.088 95.0526C272.215 95.1584 272.393 95.2115 272.621 95.2115ZM275.586 95.8076V91.8098H276.261L276.341 92.2231H276.38C276.481 92.0959 276.635 91.9821 276.841 91.8813C277.048 91.7805 277.287 91.7303 277.557 91.7303C277.864 91.7303 278.137 91.8018 278.375 91.9449C278.619 92.0825 278.807 92.2787 278.94 92.533C279.077 92.7874 279.146 93.079 279.146 93.4073V95.8076H278.359V93.4709C278.359 93.1848 278.267 92.9463 278.081 92.7556C277.896 92.5648 277.665 92.4695 277.39 92.4695C277.204 92.4695 277.032 92.5147 276.873 92.6046C276.719 92.6945 276.597 92.8167 276.508 92.9702C276.417 93.1237 276.372 93.2906 276.372 93.4709V95.8076H275.586ZM281.817 95.8871C281.473 95.8871 281.16 95.7997 280.879 95.6248C280.599 95.45 280.376 95.2036 280.212 94.8857C280.047 94.5677 279.965 94.2076 279.965 93.8047C279.965 93.4019 280.047 93.0442 280.212 92.7317C280.376 92.4138 280.599 92.1674 280.879 91.9926C281.16 91.8177 281.473 91.7303 281.817 91.7303C282.321 91.7303 282.723 91.921 283.025 92.3026H283.065V90.244H283.852V95.8076H283.176L283.097 95.299H283.057C282.75 95.6909 282.336 95.8871 281.817 95.8871ZM281.913 95.1559C282.119 95.1559 282.31 95.1003 282.485 94.989C282.665 94.8777 282.805 94.7188 282.906 94.5121C283.012 94.3055 283.065 94.0695 283.065 93.8047C283.065 93.54 283.012 93.3065 282.906 93.1053C282.805 92.8987 282.665 92.7397 282.485 92.6284C282.31 92.5172 282.119 92.4615 281.913 92.4615C281.701 92.4615 281.507 92.5172 281.333 92.6284C281.158 92.7397 281.017 92.8987 280.911 93.1053C280.81 93.3065 280.76 93.54 280.76 93.8047C280.76 94.075 280.81 94.3134 280.911 94.5201C281.017 94.7212 281.158 94.8777 281.333 94.989C281.507 95.1003 281.701 95.1559 281.913 95.1559ZM285.78 95.8076H284.994V90.244H285.78V95.8076ZM287.674 95.8076H286.887V91.8098H287.674V95.8076ZM287.713 91.0547H286.855V90.2599H287.713V91.0547ZM288.742 95.8076V91.8098H289.417L289.497 92.2231H289.536C289.637 92.0959 289.791 91.9821 289.997 91.8813C290.204 91.7805 290.442 91.7303 290.713 91.7303C291.02 91.7303 291.293 91.8018 291.531 91.9449C291.775 92.0825 291.963 92.2787 292.096 92.533C292.233 92.7874 292.302 93.079 292.302 93.4073V95.8076H291.515V93.4709C291.515 93.1848 291.423 92.9463 291.237 92.7556C291.052 92.5648 290.821 92.4695 290.546 92.4695C290.36 92.4695 290.188 92.5147 290.029 92.6046C289.876 92.6945 289.753 92.8167 289.664 92.9702C289.574 93.1237 289.528 93.2906 289.528 93.4709V95.8076H288.742ZM295.108 97.4767C294.722 97.4767 294.391 97.4052 294.115 97.2621C293.845 97.1191 293.638 96.9387 293.495 96.7217C293.352 96.5095 293.275 96.2925 293.264 96.0699H294.059C294.081 96.2552 294.181 96.4171 294.361 96.5547C294.542 96.6978 294.791 96.7693 295.108 96.7693C295.437 96.7693 295.7 96.6765 295.895 96.4912C296.092 96.3059 296.189 96.0595 296.189 95.752V95.1162H296.15C296.012 95.2696 295.84 95.3918 295.633 95.4818C295.426 95.5717 295.199 95.6169 294.949 95.6169C294.605 95.6169 294.293 95.5349 294.012 95.3705C293.736 95.2061 293.519 94.9756 293.36 94.679C293.201 94.3824 293.121 94.0457 293.121 93.6696C293.121 93.2936 293.201 92.9598 293.36 92.6682C293.519 92.3716 293.736 92.1411 294.012 91.9767C294.293 91.8123 294.605 91.7303 294.949 91.7303C295.204 91.7303 295.437 91.7805 295.649 91.8813C295.866 91.9821 296.041 92.1173 296.173 92.2867H296.213L296.293 91.8098H296.976V95.7599C296.976 96.0992 296.902 96.3983 296.754 96.6581C296.606 96.9179 296.388 97.1191 296.102 97.2621C295.821 97.4052 295.49 97.4767 295.108 97.4767ZM295.053 94.9016C295.265 94.9016 295.456 94.8514 295.625 94.7505C295.8 94.6447 295.938 94.4987 296.038 94.3134C296.139 94.1227 296.189 93.9081 296.189 93.6696C296.189 93.4312 296.139 93.2191 296.038 93.0338C295.938 92.8485 295.8 92.7054 295.625 92.6046C295.456 92.4988 295.265 92.4456 295.053 92.4456C294.724 92.4456 294.452 92.5594 294.234 92.7874C294.023 93.0154 293.916 93.3095 293.916 93.6696C293.916 94.0352 294.023 94.3318 294.234 94.5598C294.452 94.7878 294.724 94.9016 295.053 94.9016Z" fill="white"/>
<path d="M232.281 60.5386H231.446V54.975H235.031V55.7459H232.281V57.3753H234.856V58.1303H232.281V60.5386ZM237.415 60.6181C237.045 60.6181 236.708 60.5306 236.406 60.3558C236.104 60.1755 235.865 59.9291 235.691 59.6166C235.521 59.2987 235.436 58.9386 235.436 58.5357C235.436 58.1383 235.521 57.7831 235.691 57.4707C235.865 57.1527 236.104 56.9063 236.406 56.7315C236.708 56.5512 237.045 56.4613 237.415 56.4613C237.786 56.4613 238.12 56.5512 238.417 56.7315C238.719 56.9063 238.955 57.1527 239.124 57.4707C239.299 57.7831 239.386 58.1383 239.386 58.5357C239.386 58.9386 239.299 59.2987 239.124 59.6166C238.955 59.9291 238.719 60.1755 238.417 60.3558C238.12 60.5306 237.786 60.6181 237.415 60.6181ZM237.415 59.8869C237.633 59.8869 237.832 59.8312 238.011 59.7199C238.197 59.6087 238.343 59.4497 238.448 59.2431C238.555 59.0364 238.607 58.8005 238.607 58.5357C238.607 58.2709 238.555 58.0374 238.448 57.8363C238.343 57.6296 238.197 57.4707 238.011 57.3594C237.832 57.2481 237.633 57.1925 237.415 57.1925C237.198 57.1925 236.997 57.2481 236.811 57.3594C236.631 57.4707 236.488 57.6296 236.382 57.8363C236.276 58.0374 236.223 58.2709 236.223 58.5357C236.223 58.8005 236.276 59.0364 236.382 59.2431C236.488 59.4497 236.631 59.6087 236.811 59.7199C236.997 59.8312 237.198 59.8869 237.415 59.8869ZM240.231 60.5386V56.5407H240.906L240.986 56.9143H241.026C241.105 56.7926 241.201 56.6997 241.312 56.6361C241.428 56.5725 241.582 56.5407 241.773 56.5407H242.472V57.2799H241.844C241.579 57.2799 241.375 57.3514 241.232 57.4945C241.089 57.6376 241.018 57.8417 241.018 58.1065V60.5386H240.231ZM243.103 60.5386V56.5407H243.778L243.858 56.954H243.897C243.998 56.8269 244.138 56.7131 244.319 56.6123C244.499 56.5114 244.695 56.4613 244.907 56.4613C245.182 56.4613 245.421 56.5273 245.622 56.66C245.829 56.7926 245.972 56.9381 246.051 57.0971H246.091C246.197 56.9327 246.364 56.7871 246.592 56.66C246.825 56.5273 247.085 56.4613 247.371 56.4613C247.646 56.4613 247.893 56.5303 248.11 56.6679C248.332 56.8005 248.507 56.9858 248.634 57.2243C248.762 57.4627 248.825 57.7354 248.825 58.0429V60.5386H248.038V58.0906C248.038 57.8149 247.964 57.5978 247.816 57.4389C247.673 57.2799 247.479 57.2004 247.236 57.2004C246.997 57.2004 246.79 57.2878 246.616 57.4627C246.441 57.6321 246.353 57.8417 246.353 58.0906V60.5386H245.574V58.0906C245.574 57.8204 245.5 57.6058 245.352 57.4468C245.203 57.2824 245.008 57.2004 244.764 57.2004C244.525 57.2004 244.319 57.2878 244.144 57.4627C243.974 57.6321 243.889 57.8417 243.889 58.0906V60.5386H243.103ZM251.119 60.6181C250.838 60.6181 250.589 60.5649 250.372 60.4591C250.154 60.3478 249.988 60.1993 249.871 60.014C249.754 59.8233 249.696 59.6112 249.696 59.3782C249.696 58.9862 249.831 58.6733 250.101 58.4403C250.372 58.2073 250.774 58.0906 251.309 58.0906H252.327V57.9873C252.327 57.7275 252.25 57.5208 252.096 57.3673C251.948 57.2138 251.744 57.1368 251.484 57.1368C251.235 57.1368 251.034 57.195 250.88 57.3117C250.727 57.423 250.636 57.5581 250.61 57.717H249.839C249.855 57.5 249.929 57.2958 250.062 57.105C250.194 56.9088 250.382 56.7528 250.626 56.6361C250.87 56.5194 251.156 56.4613 251.484 56.4613C251.982 56.4613 252.377 56.5989 252.669 56.8746C252.965 57.1502 253.114 57.5208 253.114 57.9873V60.5386H252.43L252.351 60.1014H252.311C252.221 60.2341 252.07 60.3533 251.858 60.4591C251.646 60.5649 251.399 60.6181 251.119 60.6181ZM251.198 59.9425C251.548 59.9425 251.824 59.8471 252.025 59.6564C252.226 59.4601 252.327 59.1954 252.327 58.8616V58.7185H251.365C251.068 58.7185 250.846 58.7766 250.697 58.8933C250.554 59.0101 250.483 59.1611 250.483 59.3464C250.483 59.5267 250.544 59.6723 250.666 59.7835C250.793 59.8893 250.97 59.9425 251.198 59.9425ZM254.99 60.5386H254.203V54.975H254.99V60.5386ZM256.882 60.5386H256.096V56.5407H256.882V60.5386ZM256.922 55.7857H256.064V54.9909H256.922V55.7857ZM259.111 60.5386C258.841 60.5386 258.629 60.4671 258.476 60.324C258.327 60.1755 258.253 59.9768 258.253 59.7279V57.2799H257.617V56.5407H258.253V55.3803H259.04V56.5407H259.954V57.2799H259.04V59.5689C259.04 59.7334 259.122 59.8153 259.286 59.8153H259.954V60.5386H259.111ZM263.439 56.5407H264.274L262.501 61.4844C262.422 61.7124 262.315 61.8763 262.183 61.9772C262.051 62.078 261.857 62.1282 261.603 62.1282H260.737V61.397H261.516C261.648 61.397 261.738 61.3254 261.786 61.1824L261.921 60.8088L260.276 56.5407H261.11L262.247 59.5848H262.406L263.439 56.5407Z" fill="white"/>
<path d="M59.7003 163.461H62.0529V166.346H61.3932L61.3137 165.622H61.274C61.1046 165.835 60.8632 166.022 60.5507 166.187C60.2432 166.346 59.9014 166.425 59.5254 166.425C59.0326 166.425 58.5821 166.304 58.1742 166.06C57.7664 165.816 57.443 165.477 57.2046 165.042C56.9661 164.608 56.8469 164.115 56.8469 163.564C56.8469 163.008 56.9661 162.512 57.2046 162.078C57.443 161.643 57.7664 161.307 58.1742 161.068C58.5821 160.824 59.0326 160.703 59.5254 160.703C59.9228 160.703 60.2909 160.785 60.6302 160.949C60.9695 161.108 61.2556 161.325 61.4886 161.601C61.727 161.876 61.8994 162.183 62.0052 162.523H61.1389C61.0013 162.215 60.7837 161.969 60.4871 161.784C60.1955 161.593 59.8751 161.497 59.5254 161.497C59.1861 161.497 58.8762 161.585 58.5955 161.76C58.3148 161.929 58.0923 162.173 57.9279 162.491C57.7634 162.803 57.6815 163.161 57.6815 163.564C57.6815 163.967 57.7634 164.327 57.9279 164.645C58.0923 164.957 58.3148 165.201 58.5955 165.376C58.8762 165.545 59.1861 165.63 59.5254 165.63C59.8274 165.63 60.1056 165.561 60.3599 165.424C60.6143 165.281 60.8155 165.098 60.964 164.875C61.1175 164.647 61.2 164.414 61.2104 164.176L61.2183 164.112H59.7003V163.461ZM64.8476 166.425C64.4765 166.425 64.1402 166.338 63.8382 166.163C63.5362 165.983 63.2977 165.736 63.1229 165.424C62.953 165.106 62.8685 164.746 62.8685 164.343C62.8685 163.945 62.953 163.59 63.1229 163.278C63.2977 162.96 63.5362 162.713 63.8382 162.539C64.1402 162.358 64.4765 162.268 64.8476 162.268C65.2023 162.268 65.5232 162.353 65.8093 162.523C66.1004 162.692 66.3284 162.926 66.4928 163.222C66.6622 163.519 66.7472 163.853 66.7472 164.224C66.7472 164.409 66.7338 164.549 66.7074 164.645H63.6554C63.6922 164.968 63.8223 165.233 64.0449 165.44C64.2674 165.641 64.5346 165.742 64.8476 165.742C65.0701 165.742 65.2659 165.692 65.4358 165.591C65.6051 165.49 65.7323 165.36 65.8173 165.201H66.6359C66.5137 165.556 66.2991 165.85 65.9921 166.083C65.6846 166.311 65.3031 166.425 64.8476 166.425ZM65.9683 164.041C65.9414 163.723 65.8252 163.461 65.6186 163.254C65.4119 163.047 65.1546 162.944 64.8476 162.944C64.5297 162.944 64.2619 163.047 64.0449 163.254C63.8273 163.461 63.6976 163.723 63.6554 164.041H65.9683ZM67.5931 166.346V162.348H68.2687L68.3482 162.761H68.3879C68.4883 162.634 68.6423 162.52 68.8489 162.419C69.0556 162.319 69.294 162.268 69.5642 162.268C69.8712 162.268 70.1445 162.34 70.3829 162.483C70.6263 162.621 70.8146 162.817 70.9472 163.071C71.0848 163.325 71.1539 163.617 71.1539 163.945V166.346H70.367V164.009C70.367 163.723 70.2741 163.484 70.0888 163.294C69.903 163.103 69.6725 163.008 69.3968 163.008C69.2116 163.008 69.0397 163.053 68.8807 163.143C68.7267 163.233 68.605 163.355 68.5151 163.508C68.4247 163.662 68.38 163.829 68.38 164.009V166.346H67.5931ZM73.8249 166.425C73.4801 166.425 73.1677 166.338 72.887 166.163C72.6059 165.988 72.3833 165.742 72.2194 165.424C72.055 165.106 71.973 164.746 71.973 164.343C71.973 163.94 72.055 163.582 72.2194 163.27C72.3833 162.952 72.6059 162.706 72.887 162.531C73.1677 162.356 73.4801 162.268 73.8249 162.268C74.3281 162.268 74.731 162.459 75.033 162.841H75.0727V160.782H75.8596V166.346H75.184L75.1045 165.837H75.0648C74.7573 166.229 74.344 166.425 73.8249 166.425ZM73.9203 165.694C74.1269 165.694 74.3177 165.638 74.4925 165.527C74.6723 165.416 74.8129 165.257 74.9138 165.05C75.0196 164.844 75.0727 164.608 75.0727 164.343C75.0727 164.078 75.0196 163.845 74.9138 163.643C74.8129 163.437 74.6723 163.278 74.4925 163.167C74.3177 163.055 74.1269 163 73.9203 163C73.7081 163 73.5149 163.055 73.3401 163.167C73.1652 163.278 73.0246 163.437 72.9188 163.643C72.818 163.845 72.7678 164.078 72.7678 164.343C72.7678 164.613 72.818 164.851 72.9188 165.058C73.0246 165.259 73.1652 165.416 73.3401 165.527C73.5149 165.638 73.7081 165.694 73.9203 165.694ZM78.7099 166.425C78.3389 166.425 78.0026 166.338 77.7005 166.163C77.3985 165.983 77.1601 165.736 76.9852 165.424C76.8158 165.106 76.7309 164.746 76.7309 164.343C76.7309 163.945 76.8158 163.59 76.9852 163.278C77.1601 162.96 77.3985 162.713 77.7005 162.539C78.0026 162.358 78.3389 162.268 78.7099 162.268C79.0651 162.268 79.3855 162.353 79.6716 162.523C79.9632 162.692 80.1908 162.926 80.3552 163.222C80.5246 163.519 80.6095 163.853 80.6095 164.224C80.6095 164.409 80.5961 164.549 80.5698 164.645H77.5177C77.555 164.968 77.6846 165.233 77.9072 165.44C78.1297 165.641 78.3975 165.742 78.7099 165.742C78.9325 165.742 79.1287 165.692 79.2981 165.591C79.4675 165.49 79.5947 165.36 79.6796 165.201H80.4982C80.3765 165.556 80.1619 165.85 79.8544 166.083C79.547 166.311 79.1655 166.425 78.7099 166.425ZM79.8306 164.041C79.8043 163.723 79.6875 163.461 79.4809 163.254C79.2742 163.047 79.0174 162.944 78.7099 162.944C78.392 162.944 78.1243 163.047 77.9072 163.254C77.6901 163.461 77.56 163.723 77.5177 164.041H79.8306ZM81.4555 166.346V162.348H82.1311L82.2105 162.721H82.2503C82.3298 162.6 82.4251 162.507 82.5364 162.443C82.6526 162.38 82.8066 162.348 82.9974 162.348H83.6968V163.087H83.0689C82.8037 163.087 82.6 163.159 82.4569 163.302C82.3139 163.445 82.2423 163.649 82.2423 163.914V166.346H81.4555ZM86.1046 166.346V162.348H86.7802L86.8596 162.761H86.8994C87.0002 162.634 87.1537 162.52 87.3604 162.419C87.567 162.319 87.8055 162.268 88.0757 162.268C88.3832 162.268 88.6559 162.34 88.8943 162.483C89.1382 162.621 89.326 162.817 89.4586 163.071C89.5962 163.325 89.6653 163.617 89.6653 163.945V166.346H88.8784V164.009C88.8784 163.723 88.7855 163.484 88.6003 163.294C88.415 163.103 88.1845 163.008 87.9088 163.008C87.7235 163.008 87.5511 163.053 87.3922 163.143C87.2387 163.233 87.1165 163.355 87.0265 163.508C86.9366 163.662 86.8914 163.829 86.8914 164.009V166.346H86.1046ZM92.4635 166.425C92.0929 166.425 91.7561 166.338 91.4541 166.163C91.1521 165.983 90.9136 165.736 90.7388 165.424C90.5694 165.106 90.4844 164.746 90.4844 164.343C90.4844 163.945 90.5694 163.59 90.7388 163.278C90.9136 162.96 91.1521 162.713 91.4541 162.539C91.7561 162.358 92.0929 162.268 92.4635 162.268C92.8187 162.268 93.1391 162.353 93.4252 162.523C93.7168 162.692 93.9448 162.926 94.1087 163.222C94.2786 163.519 94.3631 163.853 94.3631 164.224C94.3631 164.409 94.3502 164.549 94.3233 164.645H91.2713C91.3085 164.968 91.4382 165.233 91.6607 165.44C91.8833 165.641 92.151 165.742 92.4635 165.742C92.686 165.742 92.8822 165.692 93.0516 165.591C93.2215 165.49 93.3487 165.36 93.4331 165.201H94.2518C94.1301 165.556 93.9155 165.85 93.608 166.083C93.301 166.311 92.9195 166.425 92.4635 166.425ZM93.5842 164.041C93.5578 163.723 93.4411 163.461 93.2344 163.254C93.0278 163.047 92.771 162.944 92.4635 162.944C92.1456 162.944 91.8783 163.047 91.6607 163.254C91.4437 163.461 91.314 163.723 91.2713 164.041H93.5842ZM96.7986 166.425C96.4916 166.425 96.216 166.356 95.972 166.219C95.7336 166.075 95.5458 165.877 95.4077 165.622C95.2756 165.368 95.209 165.077 95.209 164.748V162.348H95.9959V164.685C95.9959 164.971 96.0888 165.209 96.2741 165.4C96.4598 165.591 96.6903 165.686 96.9655 165.686C97.1513 165.686 97.3207 165.641 97.4742 165.551C97.6332 165.461 97.7579 165.339 97.8478 165.185C97.9382 165.032 97.9829 164.865 97.9829 164.685V162.348H98.7697V166.346H98.0942L98.0147 165.932H97.9749C97.8637 166.065 97.7047 166.181 97.4981 166.282C97.2914 166.378 97.0584 166.425 96.7986 166.425ZM100.996 166.346C100.725 166.346 100.513 166.274 100.36 166.131C100.211 165.983 100.137 165.784 100.137 165.535V163.087H99.5015V162.348H100.137V161.187H100.924V162.348H101.838V163.087H100.924V165.376C100.924 165.54 101.006 165.622 101.171 165.622H101.838V166.346H100.996ZM102.73 166.346V162.348H103.406L103.485 162.721H103.525C103.605 162.6 103.7 162.507 103.811 162.443C103.928 162.38 104.082 162.348 104.272 162.348H104.972V163.087H104.344C104.079 163.087 103.875 163.159 103.732 163.302C103.589 163.445 103.517 163.649 103.517 163.914V166.346H102.73ZM106.772 166.425C106.492 166.425 106.242 166.372 106.025 166.266C105.808 166.155 105.641 166.006 105.525 165.821C105.408 165.63 105.35 165.418 105.35 165.185C105.35 164.793 105.485 164.48 105.755 164.247C106.025 164.014 106.428 163.898 106.963 163.898H107.981V163.794C107.981 163.535 107.904 163.328 107.75 163.174C107.601 163.021 107.398 162.944 107.138 162.944C106.889 162.944 106.687 163.002 106.534 163.119C106.38 163.23 106.29 163.365 106.264 163.524H105.493C105.509 163.307 105.583 163.103 105.715 162.912C105.848 162.716 106.036 162.56 106.28 162.443C106.524 162.327 106.81 162.268 107.138 162.268C107.636 162.268 108.031 162.406 108.322 162.682C108.619 162.957 108.767 163.328 108.767 163.794V166.346H108.084L108.004 165.909H107.965C107.875 166.041 107.724 166.16 107.512 166.266C107.299 166.372 107.053 166.425 106.772 166.425ZM106.852 165.75C107.202 165.75 107.477 165.654 107.678 165.463C107.88 165.267 107.981 165.003 107.981 164.669V164.526H107.019C106.722 164.526 106.5 164.584 106.351 164.7C106.208 164.817 106.137 164.968 106.137 165.154C106.137 165.334 106.198 165.479 106.319 165.591C106.447 165.696 106.624 165.75 106.852 165.75ZM110.644 166.346H109.857V160.782H110.644V166.346ZM112.536 166.346H111.749V162.348H112.536V166.346ZM112.576 161.593H111.718V160.798H112.576V161.593ZM114.765 166.346C114.495 166.346 114.283 166.274 114.129 166.131C113.981 165.983 113.907 165.784 113.907 165.535V163.087H113.271V162.348H113.907V161.187H114.694V162.348H115.608V163.087H114.694V165.376C114.694 165.54 114.776 165.622 114.94 165.622H115.608V166.346H114.765ZM119.092 162.348H119.927L118.154 167.292C118.075 167.52 117.969 167.683 117.837 167.784C117.704 167.885 117.511 167.935 117.256 167.935H116.39V167.204H117.169C117.302 167.204 117.391 167.133 117.439 166.99L117.574 166.616L115.929 162.348H116.764L117.9 165.392H118.059L119.092 162.348Z" fill="white"/>
<path d="M184.139 54.8259H177.681C175.624 54.8259 173.956 56.494 173.956 58.5516C173.956 60.6092 175.624 62.2772 177.681 62.2772H184.139C186.197 62.2772 187.865 60.6092 187.865 58.5516C187.865 56.494 186.197 54.8259 184.139 54.8259Z" fill="#9E7703" stroke="#2C2C2C" stroke-width="0.496751"/>
<path d="M183.643 61.5321C185.289 61.5321 186.623 60.1976 186.623 58.5516C186.623 56.9055 185.289 55.571 183.643 55.571C181.997 55.571 180.662 56.9055 180.662 58.5516C180.662 60.1976 181.997 61.5321 183.643 61.5321Z" fill="#FEC213"/>
<path d="M184.139 89.1014H177.681C175.624 89.1014 173.956 90.7695 173.956 92.8271C173.956 94.8847 175.624 96.5527 177.681 96.5527H184.139C186.197 96.5527 187.865 94.8847 187.865 92.8271C187.865 90.7695 186.197 89.1014 184.139 89.1014Z" fill="#9E7703" stroke="#2C2C2C" stroke-width="0.496751"/>
<path d="M184.139 124.37H177.681C175.624 124.37 173.956 126.039 173.956 128.096C173.956 130.154 175.624 131.822 177.681 131.822H184.139C186.197 131.822 187.865 130.154 187.865 128.096C187.865 126.039 186.197 124.37 184.139 124.37Z" fill="#479801" stroke="#2C2C2C" stroke-width="0.496751"/>
<path d="M184.139 160.633H177.681C175.624 160.633 173.956 162.301 173.956 164.359C173.956 166.416 175.624 168.084 177.681 168.084H184.139C186.197 168.084 187.865 166.416 187.865 164.359C187.865 162.301 186.197 160.633 184.139 160.633Z" fill="#9E7703" stroke="#2C2C2C" stroke-width="0.496751"/>
<path d="M183.643 131.077C185.289 131.077 186.623 129.742 186.623 128.096C186.623 126.45 185.289 125.116 183.643 125.116C181.997 125.116 180.662 126.45 180.662 128.096C180.662 129.742 181.997 131.077 183.643 131.077Z" fill="#69E300"/>
<path d="M183.643 95.8076C185.289 95.8076 186.623 94.4732 186.623 92.8271C186.623 91.181 185.289 89.8466 183.643 89.8466C181.997 89.8466 180.662 91.181 180.662 92.8271C180.662 94.4732 181.997 95.8076 183.643 95.8076Z" fill="#FEC213"/>
<path d="M183.643 167.339C185.289 167.339 186.623 166.005 186.623 164.359C186.623 162.713 185.289 161.378 183.643 161.378C181.997 161.378 180.662 162.713 180.662 164.359C180.662 166.005 181.997 167.339 183.643 167.339Z" fill="#FEC213"/>
<path d="M358.997 54.8259H352.539C350.481 54.8259 348.813 56.494 348.813 58.5516C348.813 60.6092 350.481 62.2772 352.539 62.2772H358.997C361.054 62.2772 362.723 60.6092 362.723 58.5516C362.723 56.494 361.054 54.8259 358.997 54.8259Z" fill="#9E7703" stroke="#2C2C2C" stroke-width="0.496751"/>
<path d="M358.5 61.5321C360.146 61.5321 361.481 60.1976 361.481 58.5516C361.481 56.9055 360.146 55.571 358.5 55.571C356.854 55.571 355.52 56.9055 355.52 58.5516C355.52 60.1976 356.854 61.5321 358.5 61.5321Z" fill="#FEC213"/>
<path d="M358.997 89.1014H352.539C350.481 89.1014 348.813 90.7695 348.813 92.8271C348.813 94.8847 350.481 96.5527 352.539 96.5527H358.997C361.054 96.5527 362.723 94.8847 362.723 92.8271C362.723 90.7695 361.054 89.1014 358.997 89.1014Z" fill="#479801" stroke="#2C2C2C" stroke-width="0.496751"/>
<path d="M358.997 124.37H352.539C350.481 124.37 348.813 126.039 348.813 128.096C348.813 130.154 350.481 131.822 352.539 131.822H358.997C361.054 131.822 362.723 130.154 362.723 128.096C362.723 126.039 361.054 124.37 358.997 124.37Z" fill="#479801" stroke="#2C2C2C" stroke-width="0.496751"/>
<path d="M358.997 160.633H352.539C350.481 160.633 348.813 162.301 348.813 164.359C348.813 166.416 350.481 168.084 352.539 168.084H358.997C361.054 168.084 362.723 166.416 362.723 164.359C362.723 162.301 361.054 160.633 358.997 160.633Z" fill="#9E7703" stroke="#2C2C2C" stroke-width="0.496751"/>
<path d="M358.5 131.077C360.146 131.077 361.481 129.742 361.481 128.096C361.481 126.45 360.146 125.116 358.5 125.116C356.854 125.116 355.52 126.45 355.52 128.096C355.52 129.742 356.854 131.077 358.5 131.077Z" fill="#69E300"/>
<path d="M358.5 95.8076C360.146 95.8076 361.481 94.4732 361.481 92.8271C361.481 91.181 360.146 89.8466 358.5 89.8466C356.854 89.8466 355.52 91.181 355.52 92.8271C355.52 94.4732 356.854 95.8076 358.5 95.8076Z" fill="#69E300"/>
<path d="M358.5 167.339C360.146 167.339 361.481 166.005 361.481 164.359C361.481 162.713 360.146 161.378 358.5 161.378C356.854 161.378 355.52 162.713 355.52 164.359C355.52 166.005 356.854 167.339 358.5 167.339Z" fill="#FEC213"/>
<path d="M184.139 124.37H177.681C175.624 124.37 173.956 126.039 173.956 128.096C173.956 130.154 175.624 131.822 177.681 131.822H184.139C186.197 131.822 187.865 130.154 187.865 128.096C187.865 126.039 186.197 124.37 184.139 124.37Z" fill="#2C2C2C" stroke="#2C2C2C" stroke-width="0.496751"/>
<path d="M358.997 89.1014H352.539C350.481 89.1014 348.813 90.7695 348.813 92.8271C348.813 94.8847 350.481 96.5527 352.539 96.5527H358.997C361.054 96.5527 362.723 94.8847 362.723 92.8271C362.723 90.7695 361.054 89.1014 358.997 89.1014Z" fill="#2C2C2C" stroke="#2C2C2C" stroke-width="0.496751"/>
<path d="M358.997 124.37H352.539C350.481 124.37 348.813 126.039 348.813 128.096C348.813 130.154 350.481 131.822 352.539 131.822H358.997C361.054 131.822 362.723 130.154 362.723 128.096C362.723 126.039 361.054 124.37 358.997 124.37Z" fill="#2C2C2C" stroke="#2C2C2C" stroke-width="0.496751"/>
<path d="M178.178 131.077C179.824 131.077 181.159 129.742 181.159 128.096C181.159 126.45 179.824 125.116 178.178 125.116C176.532 125.116 175.198 126.45 175.198 128.096C175.198 129.742 176.532 131.077 178.178 131.077Z" fill="#D9D9D9"/>
<path d="M353.036 95.8076C354.682 95.8076 356.016 94.4732 356.016 92.8271C356.016 91.181 354.682 89.8466 353.036 89.8466C351.39 89.8466 350.055 91.181 350.055 92.8271C350.055 94.4732 351.39 95.8076 353.036 95.8076Z" fill="#D9D9D9"/>
<path d="M353.036 131.077C354.682 131.077 356.016 129.742 356.016 128.096C356.016 126.45 354.682 125.116 353.036 125.116C351.39 125.116 350.055 126.45 350.055 128.096C350.055 129.742 351.39 131.077 353.036 131.077Z" fill="#D9D9D9"/>
</svg>
