<svg width="414" height="221" viewBox="0 0 414 221" fill="none" xmlns="http://www.w3.org/2000/svg">
<path fill-rule="evenodd" clip-rule="evenodd" d="M113.294 57.5051H47.1059C40.1431 57.5051 34.4986 63.1496 34.4986 70.1126C34.4986 77.075 40.1431 82.7196 47.106 82.7196H113.294C120.257 82.7196 125.902 77.075 125.902 70.1126C125.902 63.1496 120.257 57.5051 113.294 57.5051ZM47.1059 56.4543C39.5629 56.4543 33.448 62.5693 33.448 70.1126C33.448 77.6553 39.5629 83.7703 47.106 83.7703H113.294C120.838 83.7703 126.953 77.6553 126.953 70.1126C126.953 62.5693 120.838 56.4543 113.294 56.4543H47.1059Z" fill="#2C2C2C"/>
<path d="M180.535 148.909C180.535 141.366 186.65 135.251 194.193 135.251H260.381C267.924 135.251 274.039 141.366 274.039 148.909C274.039 156.452 267.924 162.567 260.381 162.567H194.193C186.65 162.567 180.535 156.452 180.535 148.909Z" fill="#121212"/>
<path fill-rule="evenodd" clip-rule="evenodd" d="M260.381 136.301H194.193C187.23 136.301 181.586 141.946 181.586 148.909C181.586 155.872 187.23 161.516 194.193 161.516H260.381C267.344 161.516 272.989 155.872 272.989 148.909C272.989 141.946 267.344 136.301 260.381 136.301ZM194.193 135.251C186.65 135.251 180.535 141.366 180.535 148.909C180.535 156.452 186.65 162.567 194.193 162.567H260.381C267.924 162.567 274.039 156.452 274.039 148.909C274.039 141.366 267.924 135.251 260.381 135.251H194.193Z" fill="#2C2C2C"/>
<path d="M180.535 185.68C180.535 178.138 186.65 172.023 194.193 172.023H260.381C267.924 172.023 274.039 178.138 274.039 185.68C274.039 193.224 267.924 199.339 260.381 199.339H194.193C186.65 199.339 180.535 193.224 180.535 185.68Z" fill="#121212"/>
<path fill-rule="evenodd" clip-rule="evenodd" d="M260.381 173.073H194.193C187.23 173.073 181.586 178.718 181.586 185.68C181.586 192.643 187.23 198.288 194.193 198.288H260.381C267.344 198.288 272.989 192.643 272.989 185.68C272.989 178.718 267.344 173.073 260.381 173.073ZM194.193 172.023C186.65 172.023 180.535 178.138 180.535 185.68C180.535 193.224 186.65 199.339 194.193 199.339H260.381C267.924 199.339 274.039 193.224 274.039 185.68C274.039 178.138 267.924 172.023 260.381 172.023H194.193Z" fill="#2C2C2C"/>
<path d="M180.535 110.036C180.535 102.493 186.65 96.3781 194.193 96.3781H260.381C267.924 96.3781 274.039 102.493 274.039 110.036C274.039 117.579 267.924 123.694 260.381 123.694H194.193C186.65 123.694 180.535 117.579 180.535 110.036Z" fill="#121212"/>
<path fill-rule="evenodd" clip-rule="evenodd" d="M260.381 97.4288H194.193C187.23 97.4288 181.586 103.073 181.586 110.036C181.586 116.999 187.23 122.643 194.193 122.643H260.381C267.344 122.643 272.989 116.999 272.989 110.036C272.989 103.073 267.344 97.4288 260.381 97.4288ZM194.193 96.3781C186.65 96.3781 180.535 102.493 180.535 110.036C180.535 117.579 186.65 123.694 194.193 123.694H260.381C267.924 123.694 274.039 117.579 274.039 110.036C274.039 102.493 267.924 96.3781 260.381 96.3781H194.193Z" fill="#2C2C2C"/>
<path fill-rule="evenodd" clip-rule="evenodd" d="M367.543 97.4288H301.354C294.391 97.4288 288.747 103.073 288.747 110.036C288.747 116.999 294.391 122.643 301.354 122.643H367.543C374.506 122.643 380.15 116.999 380.15 110.036C380.15 103.073 374.506 97.4288 367.543 97.4288ZM301.354 96.3781C293.811 96.3781 287.696 102.493 287.696 110.036C287.696 117.579 293.811 123.694 301.354 123.694H367.543C375.086 123.694 381.201 117.579 381.201 110.036C381.201 102.493 375.086 96.3781 367.543 96.3781H301.354Z" fill="#2C2C2C"/>
<path d="M180.535 72.214C180.535 64.6707 186.65 58.5563 194.193 58.5563H260.381C267.924 58.5563 274.039 64.6707 274.039 72.214C274.039 79.7572 267.924 85.8717 260.381 85.8717H194.193C186.65 85.8717 180.535 79.7572 180.535 72.214Z" fill="#121212"/>
<path fill-rule="evenodd" clip-rule="evenodd" d="M260.381 59.6065H194.193C187.23 59.6065 181.586 65.251 181.586 72.214C181.586 79.177 187.23 84.8215 194.193 84.8215H260.381C267.344 84.8215 272.989 79.177 272.989 72.214C272.989 65.251 267.344 59.6065 260.381 59.6065ZM194.193 58.5563C186.65 58.5563 180.535 64.6707 180.535 72.214C180.535 79.7572 186.65 85.8717 194.193 85.8717H260.381C267.924 85.8717 274.039 79.7572 274.039 72.214C274.039 64.6707 267.924 58.5563 260.381 58.5563H194.193Z" fill="#2C2C2C"/>
<path d="M180.535 35.442C180.535 27.8989 186.65 21.7841 194.193 21.7841H260.381C267.924 21.7841 274.039 27.8989 274.039 35.442C274.039 42.9851 267.924 49.0999 260.381 49.0999H194.193C186.65 49.0999 180.535 42.9851 180.535 35.442Z" fill="#121212"/>
<path fill-rule="evenodd" clip-rule="evenodd" d="M260.381 22.8347H194.193C187.23 22.8347 181.586 28.4792 181.586 35.442C181.586 42.4048 187.23 48.0493 194.193 48.0493H260.381C267.344 48.0493 272.989 42.4048 272.989 35.442C272.989 28.4792 267.344 22.8347 260.381 22.8347ZM194.193 21.7841C186.65 21.7841 180.535 27.8989 180.535 35.442C180.535 42.9851 186.65 49.0999 194.193 49.0999H260.381C267.924 49.0999 274.039 42.9851 274.039 35.442C274.039 27.8989 267.924 21.7841 260.381 21.7841H194.193Z" fill="#2C2C2C"/>
<path d="M67.0669 27.0371C67.0669 24.1359 69.4187 21.7841 72.3199 21.7841H88.0791C90.9803 21.7841 93.3321 24.1359 93.3321 27.0371V42.7963C93.3321 45.6974 90.9803 48.0493 88.0791 48.0493H72.3199C69.4187 48.0493 67.0669 45.6974 67.0669 42.7963V27.0371Z" fill="#121212"/>
<path fill-rule="evenodd" clip-rule="evenodd" d="M88.0791 22.8347H72.3199C69.9989 22.8347 68.1176 24.7162 68.1176 27.0371V42.7963C68.1176 45.1172 69.9989 46.9987 72.3199 46.9987H88.0791C90.4001 46.9987 92.2814 45.1172 92.2814 42.7963V27.0371C92.2814 24.7162 90.4001 22.8347 88.0791 22.8347ZM72.3199 21.7841C69.4187 21.7841 67.0669 24.1359 67.0669 27.0371V42.7963C67.0669 45.6974 69.4187 48.0493 72.3199 48.0493H88.0791C90.9803 48.0493 93.3321 45.6974 93.3321 42.7963V27.0371C93.3321 24.1359 90.9803 21.7841 88.0791 21.7841H72.3199Z" fill="#2C2C2C"/>
<path d="M320.265 68.0116C320.265 65.1103 322.617 62.7585 325.518 62.7585H341.278C344.179 62.7585 346.531 65.1103 346.531 68.0116V83.7707C346.531 86.6715 344.179 89.0238 341.278 89.0238H325.518C322.617 89.0238 320.265 86.6715 320.265 83.7707V68.0116Z" fill="#121212"/>
<path fill-rule="evenodd" clip-rule="evenodd" d="M341.278 63.8088H325.518C323.197 63.8088 321.316 65.6906 321.316 68.0116V83.7707C321.316 86.0917 323.197 87.973 325.518 87.973H341.278C343.599 87.973 345.48 86.0917 345.48 83.7707V68.0116C345.48 65.6906 343.599 63.8088 341.278 63.8088ZM325.518 62.7585C322.617 62.7585 320.265 65.1103 320.265 68.0116V83.7707C320.265 86.6715 322.617 89.0238 325.518 89.0238H341.278C344.179 89.0238 346.531 86.6715 346.531 83.7707V68.0116C346.531 65.1103 344.179 62.7585 341.278 62.7585H325.518Z" fill="#2C2C2C"/>
<path d="M84.5619 39.6457H83.2384V32.0813H80.4648V30.8206H87.323V32.0813H84.5619V39.6457Z" fill="#898989"/>
<path d="M73.2903 39.6457V30.8206H77.2114C77.7072 30.8206 78.1568 30.9424 78.5602 31.1861C78.9636 31.4215 79.2791 31.7535 79.5056 32.1821C79.7411 32.6108 79.8588 33.0982 79.8588 33.6446C79.8588 34.1909 79.7411 34.6826 79.5056 35.1196C79.2791 35.5483 78.9636 35.8845 78.5602 36.1282C78.1568 36.3636 77.7072 36.4812 77.2114 36.4812H74.6142V39.6457H73.2903ZM77.1737 35.2205C77.5517 35.2205 77.8712 35.0776 78.1315 34.7918C78.4007 34.4977 78.5349 34.1153 78.5349 33.6446C78.5349 33.1739 78.4047 32.7957 78.1444 32.5099C77.8836 32.2241 77.5602 32.0813 77.1737 32.0813H74.6142V35.2205H77.1737Z" fill="#898989"/>
<path d="M335.247 80.6202H333.923V71.7953H335.865L339.458 78.6917H339.71V71.7953H341.034V80.6202H339.092L335.499 73.7243H335.247V80.6202Z" fill="#898989"/>
<path d="M332.274 80.6202H326.487V71.7953H332.274V73.0184H327.811V75.5903H332.021V76.788H327.811V79.3976H332.274V80.6202Z" fill="#898989"/>
<path d="M144.813 27.0371C144.813 24.1359 147.165 21.7841 150.066 21.7841H165.825C168.726 21.7841 171.078 24.1359 171.078 27.0371V42.7963C171.078 45.6974 168.726 48.0493 165.825 48.0493H150.066C147.165 48.0493 144.813 45.6974 144.813 42.7963V27.0371Z" fill="#121212"/>
<path fill-rule="evenodd" clip-rule="evenodd" d="M165.825 22.8347H150.066C147.745 22.8347 145.863 24.7162 145.863 27.0371V42.7963C145.863 45.1172 147.745 46.9987 150.066 46.9987H165.825C168.146 46.9987 170.027 45.1172 170.027 42.7963V27.0371C170.027 24.7162 168.146 22.8347 165.825 22.8347ZM150.066 21.7841C147.165 21.7841 144.813 24.1359 144.813 27.0371V42.7963C144.813 45.6974 147.165 48.0493 150.066 48.0493H165.825C168.726 48.0493 171.078 45.6974 171.078 42.7963V27.0371C171.078 24.1359 168.726 21.7841 165.825 21.7841H150.066Z" fill="#2C2C2C"/>
<path d="M144.813 64.8595C144.813 61.9582 147.165 59.6064 150.066 59.6064H165.825C168.726 59.6064 171.078 61.9582 171.078 64.8595V80.6186C171.078 83.5199 168.726 85.8717 165.825 85.8717H150.066C147.165 85.8717 144.813 83.5199 144.813 80.6186V64.8595Z" fill="#121212"/>
<path fill-rule="evenodd" clip-rule="evenodd" d="M165.825 60.6572H150.066C147.745 60.6572 145.863 62.5385 145.863 64.8595V80.6186C145.863 82.9396 147.745 84.8209 150.066 84.8209H165.825C168.146 84.8209 170.027 82.9396 170.027 80.6186V64.8595C170.027 62.5385 168.146 60.6572 165.825 60.6572ZM150.066 59.6064C147.165 59.6064 144.813 61.9582 144.813 64.8595V80.6186C144.813 83.5199 147.165 85.8717 150.066 85.8717H165.825C168.726 85.8717 171.078 83.5199 171.078 80.6186V64.8595C171.078 61.9582 168.726 59.6064 165.825 59.6064H150.066Z" fill="#2C2C2C"/>
<path d="M144.813 102.682C144.813 99.7806 147.165 97.4288 150.066 97.4288H165.825C168.726 97.4288 171.078 99.7806 171.078 102.682V118.441C171.078 121.342 168.726 123.694 165.825 123.694H150.066C147.165 123.694 144.813 121.342 144.813 118.441V102.682Z" fill="#121212"/>
<path fill-rule="evenodd" clip-rule="evenodd" d="M165.825 98.479H150.066C147.745 98.479 145.863 100.361 145.863 102.682V118.441C145.863 120.762 147.745 122.643 150.066 122.643H165.825C168.146 122.643 170.027 120.762 170.027 118.441V102.682C170.027 100.361 168.146 98.479 165.825 98.479ZM150.066 97.4288C147.165 97.4288 144.813 99.7806 144.813 102.682V118.441C144.813 121.342 147.165 123.694 150.066 123.694H165.825C168.726 123.694 171.078 121.342 171.078 118.441V102.682C171.078 99.7806 168.726 97.4288 165.825 97.4288H150.066Z" fill="#2C2C2C"/>
<path d="M144.813 140.504C144.813 137.603 147.165 135.251 150.066 135.251H165.825C168.726 135.251 171.078 137.603 171.078 140.504V156.263C171.078 159.164 168.726 161.516 165.825 161.516H150.066C147.165 161.516 144.813 159.164 144.813 156.263V140.504Z" fill="#121212"/>
<path fill-rule="evenodd" clip-rule="evenodd" d="M165.825 136.301H150.066C147.745 136.301 145.863 138.183 145.863 140.504V156.263C145.863 158.584 147.745 160.466 150.066 160.466H165.825C168.146 160.466 170.027 158.584 170.027 156.263V140.504C170.027 138.183 168.146 136.301 165.825 136.301ZM150.066 135.251C147.165 135.251 144.813 137.603 144.813 140.504V156.263C144.813 159.164 147.165 161.516 150.066 161.516H165.825C168.726 161.516 171.078 159.164 171.078 156.263V140.504C171.078 137.603 168.726 135.251 165.825 135.251H150.066Z" fill="#2C2C2C"/>
<path d="M144.813 178.326C144.813 175.425 147.165 173.073 150.066 173.073H165.825C168.726 173.073 171.078 175.425 171.078 178.326V194.085C171.078 196.986 168.726 199.338 165.825 199.338H150.066C147.165 199.338 144.813 196.986 144.813 194.085V178.326Z" fill="#121212"/>
<path fill-rule="evenodd" clip-rule="evenodd" d="M165.825 174.124H150.066C147.745 174.124 145.863 176.005 145.863 178.326V194.085C145.863 196.406 147.745 198.288 150.066 198.288H165.825C168.146 198.288 170.027 196.406 170.027 194.085V178.326C170.027 176.005 168.146 174.124 165.825 174.124ZM150.066 173.073C147.165 173.073 144.813 175.425 144.813 178.326V194.085C144.813 196.986 147.165 199.338 150.066 199.338H165.825C168.726 199.338 171.078 196.986 171.078 194.085V178.326C171.078 175.425 168.726 173.073 165.825 173.073H150.066Z" fill="#2C2C2C"/>
<path d="M159.794 39.6457H158.47V30.8206H160.412L164.005 37.7167H164.257V30.8206H165.581V39.6457H163.64L160.046 32.7494H159.794V39.6457Z" fill="#898989"/>
<path d="M156.821 39.6457H151.034V30.8206H156.821V32.0435H152.358V34.6153H156.569V35.813H152.358V38.4228H156.821V39.6457Z" fill="#898989"/>
<path d="M159.794 77.4685H158.47V68.6431H160.412L164.005 75.5395H164.257V68.6431H165.581V77.4685H163.64L160.046 70.5721H159.794V77.4685Z" fill="#898989"/>
<path d="M156.821 77.4685H151.034V68.6431H156.821V69.8662H152.358V72.438H156.569V73.6358H152.358V76.2454H156.821V77.4685Z" fill="#898989"/>
<path d="M159.794 115.29H158.47V106.465H160.412L164.005 113.362H164.257V106.465H165.581V115.29H163.64L160.046 108.394H159.794V115.29Z" fill="#898989"/>
<path d="M156.821 115.29H151.034V106.465H156.821V107.689H152.358V110.26H156.569V111.458H152.358V114.068H156.821V115.29Z" fill="#898989"/>
<path d="M159.794 153.113H158.47V144.288H160.412L164.005 151.184H164.257V144.288H165.581V153.113H163.64L160.046 146.217H159.794V153.113Z" fill="#898989"/>
<path d="M156.821 153.113H151.034V144.288H156.821V145.51H152.358V148.083H156.569V149.28H152.358V151.89H156.821V153.113Z" fill="#898989"/>
<path d="M159.794 190.935H158.47V182.11H160.412L164.005 189.006H164.257V182.11H165.581V190.935H163.64L160.046 184.039H159.794V190.935Z" fill="#898989"/>
<path d="M156.821 190.935H151.034V182.11H156.821V183.333H152.358V185.905H156.569V187.102H152.358V189.712H156.821V190.935Z" fill="#898989"/>
<path d="M101.198 74.4402C100.609 74.4402 100.075 74.3016 99.5964 74.0244C99.117 73.7387 98.739 73.3477 98.4617 72.8519C98.1925 72.3477 98.0583 71.7759 98.0583 71.137C98.0583 70.5066 98.1925 69.9437 98.4617 69.4479C98.739 68.9437 99.117 68.5527 99.5964 68.2755C100.075 67.9894 100.609 67.8468 101.198 67.8468C101.76 67.8468 102.269 67.9809 102.723 68.2502C103.185 68.519 103.546 68.8891 103.807 69.3595C104.076 69.83 104.211 70.3596 104.211 70.9483C104.211 71.2423 104.19 71.4649 104.147 71.6164H99.3063C99.3654 72.1291 99.5711 72.5494 99.9243 72.8768C100.277 73.1962 100.702 73.3562 101.198 73.3562C101.55 73.3562 101.861 73.2762 102.131 73.1167C102.399 72.9568 102.601 72.7511 102.736 72.4987H104.034C103.841 73.0621 103.5 73.5286 103.013 73.8982C102.525 74.2593 101.92 74.4402 101.198 74.4402ZM102.975 70.6581C102.933 70.1539 102.748 69.7376 102.42 69.4102C102.093 69.0823 101.685 68.9184 101.198 68.9184C100.693 68.9184 100.269 69.0823 99.9243 69.4102C99.5795 69.7376 99.3734 70.1539 99.3063 70.6581H102.975Z" fill="#FEC213"/>
<path d="M93.4446 74.4421C92.8986 74.4421 92.4028 74.3035 91.9572 74.0258C91.5116 73.7486 91.1589 73.3576 90.8981 72.8534C90.6377 72.3491 90.5071 71.7778 90.5071 71.139C90.5071 70.5001 90.6377 69.9328 90.8981 69.437C91.1589 68.9327 91.5116 68.5417 91.9572 68.2645C92.4028 67.9868 92.8986 67.8482 93.4446 67.8482C94.2434 67.8482 94.8823 68.1508 95.3612 68.7559H95.4243V65.491H96.6722V74.3159H95.6007L95.4745 73.5091H95.4114C94.924 74.1311 94.2683 74.4421 93.4446 74.4421ZM93.5961 73.2821C93.924 73.2821 94.2265 73.1937 94.5037 73.0173C94.7894 72.841 95.0125 72.5886 95.1719 72.2607C95.3403 71.9333 95.4243 71.5592 95.4243 71.139C95.4243 70.7187 95.3403 70.3486 95.1719 70.0291C95.0125 69.7018 94.7894 69.4494 94.5037 69.273C94.2265 69.0967 93.924 69.0082 93.5961 69.0082C93.2598 69.0082 92.9533 69.0967 92.6756 69.273C92.3984 69.4494 92.1758 69.7018 92.0074 70.0291C91.8479 70.3486 91.7679 70.7187 91.7679 71.139C91.7679 71.5677 91.8479 71.9457 92.0074 72.2736C92.1758 72.5931 92.3984 72.841 92.6756 73.0173C92.9533 73.1937 93.2598 73.2821 93.5961 73.2821Z" fill="#FEC213"/>
<path d="M86.0494 74.4402C85.6043 74.4402 85.2093 74.3562 84.8645 74.1883C84.5198 74.0114 84.255 73.7765 84.0702 73.4824C83.8854 73.1793 83.793 72.8435 83.793 72.4734C83.793 71.8514 84.0071 71.3556 84.4358 70.986C84.8645 70.6159 85.5034 70.4311 86.3524 70.4311H87.966V70.2672C87.966 69.8553 87.8443 69.5274 87.6004 69.284C87.3649 69.0401 87.0415 68.9184 86.6296 68.9184C86.2347 68.9184 85.9153 69.0108 85.6713 69.1956C85.4274 69.3719 85.2848 69.5866 85.2426 69.8384H84.02C84.0448 69.4942 84.1626 69.1702 84.3727 68.8677C84.5829 68.5567 84.8814 68.3088 85.2679 68.124C85.6544 67.9392 86.1085 67.8468 86.6296 67.8468C87.4195 67.8468 88.046 68.0654 88.508 68.5021C88.9789 68.9392 89.2139 69.5274 89.2139 70.2672V74.314H88.1299L88.0037 73.621H87.9407C87.7976 73.8311 87.5581 74.0199 87.2223 74.1883C86.886 74.3562 86.495 74.4402 86.0494 74.4402ZM86.1756 73.3686C86.7305 73.3686 87.1677 73.2176 87.4866 72.915C87.806 72.604 87.966 72.1838 87.966 71.6542V71.4272H86.4404C85.9699 71.4272 85.6167 71.5196 85.3812 71.7044C85.1547 71.8892 85.0409 72.1291 85.0409 72.4232C85.0409 72.7089 85.1378 72.9399 85.331 73.1167C85.5327 73.2846 85.8144 73.3686 86.1756 73.3686Z" fill="#FEC213"/>
<path d="M79.0903 74.4421C78.5439 74.4421 78.0481 74.3035 77.6025 74.0258C77.1573 73.7486 76.8041 73.3576 76.5438 72.8534C76.283 72.3491 76.1528 71.7778 76.1528 71.139C76.1528 70.5001 76.283 69.9328 76.5438 69.437C76.8041 68.9327 77.1573 68.5417 77.6025 68.2645C78.0481 67.9868 78.5439 67.8482 79.0903 67.8482C79.8887 67.8482 80.5276 68.1508 81.0065 68.7559H81.0695V65.491H82.318V74.3159H81.2464L81.1202 73.5091H81.0571C80.5698 74.1311 79.914 74.4421 79.0903 74.4421ZM79.2414 73.2821C79.5692 73.2821 79.8718 73.1937 80.1495 73.0173C80.4351 72.841 80.6577 72.5886 80.8177 72.2607C80.9856 71.9333 81.0695 71.5592 81.0695 71.139C81.0695 70.7187 80.9856 70.3486 80.8177 70.0291C80.6577 69.7018 80.4351 69.4494 80.1495 69.273C79.8718 69.0967 79.5692 69.0082 79.2414 69.0082C78.9055 69.0082 78.5985 69.0967 78.3213 69.273C78.0441 69.4494 77.821 69.7018 77.6531 70.0291C77.4932 70.3486 77.4137 70.7187 77.4137 71.139C77.4137 71.5677 77.4932 71.9457 77.6531 72.2736C77.821 72.5931 78.0441 72.841 78.3213 73.0173C78.5985 73.1937 78.9055 73.2821 79.2414 73.2821Z" fill="#FEC213"/>
<path d="M71.7055 74.4411C71.2182 74.4411 70.781 74.3318 70.3945 74.1132C70.0164 73.8867 69.7179 73.5712 69.4993 73.1678C69.2891 72.7644 69.1843 72.3024 69.1843 71.7813V67.9739H70.4323V71.6804C70.4323 72.134 70.5793 72.5125 70.8734 72.8151C71.1675 73.1176 71.5331 73.2687 71.9703 73.2687C72.2644 73.2687 72.5337 73.1971 72.7771 73.0545C73.0295 72.9115 73.2267 72.7182 73.3698 72.4743C73.5128 72.2309 73.5839 71.9661 73.5839 71.6804V67.9739H74.8323V74.3154H73.7607L73.6346 73.6596H73.5715C73.3951 73.8698 73.1427 74.0546 72.8149 74.2145C72.4875 74.3656 72.1174 74.4411 71.7055 74.4411Z" fill="#FEC213"/>
<path d="M64.3575 74.4402C63.9124 74.4402 63.5174 74.3562 63.1726 74.1883C62.8279 74.0114 62.5631 73.7765 62.3783 73.4824C62.1935 73.1793 62.1011 72.8435 62.1011 72.4734C62.1011 71.8514 62.3152 71.3556 62.7439 70.986C63.1726 70.6159 63.8115 70.4311 64.66 70.4311H66.2741V70.2672C66.2741 69.8553 66.1519 69.5274 65.9085 69.284C65.673 69.0401 65.3496 68.9184 64.9377 68.9184C64.5428 68.9184 64.2234 69.0108 63.9794 69.1956C63.7355 69.3719 63.5929 69.5866 63.5507 69.8384H62.3281C62.3529 69.4942 62.4707 69.1702 62.6808 68.8677C62.891 68.5567 63.1895 68.3088 63.576 68.124C63.9625 67.9392 64.4166 67.8468 64.9377 67.8468C65.7276 67.8468 66.3541 68.0654 66.8161 68.5021C67.2866 68.9392 67.522 69.5274 67.522 70.2672V74.314H66.438L66.3118 73.621H66.2488C66.1057 73.8311 65.8662 74.0199 65.5304 74.1883C65.1941 74.3562 64.8031 74.4402 64.3575 74.4402ZM64.4837 73.3686C65.0386 73.3686 65.4758 73.2176 65.7947 72.915C66.1141 72.604 66.2741 72.1838 66.2741 71.6542V71.4272H64.7485C64.278 71.4272 63.9248 71.5196 63.6893 71.7044C63.4628 71.8892 63.349 72.1291 63.349 72.4232C63.349 72.7089 63.4459 72.9399 63.6391 73.1167C63.8408 73.2846 64.1225 73.3686 64.4837 73.3686Z" fill="#FEC213"/>
<path d="M58.5092 74.4402C57.9463 74.4402 57.463 74.3393 57.0596 74.1376C56.6646 73.9359 56.3661 73.6841 56.1644 73.3815C55.9627 73.0705 55.8618 72.7551 55.8618 72.4356H57.0973C57.0973 72.6965 57.2195 72.919 57.463 73.1038C57.7153 73.2886 58.0641 73.3815 58.5092 73.3815C58.9548 73.3815 59.2911 73.3055 59.5182 73.1545C59.7532 72.9945 59.8709 72.7973 59.8709 72.5618C59.8709 72.3348 59.7954 72.154 59.6439 72.0198C59.4928 71.8852 59.2449 71.7883 58.9002 71.7297L57.8664 71.5533C56.5976 71.3348 55.9627 70.7297 55.9627 69.7376C55.9627 69.1916 56.1773 68.742 56.6055 68.3888C57.0342 68.0271 57.6478 67.8468 58.4466 67.8468C58.9757 67.8468 59.4342 67.9432 59.8207 68.1364C60.2157 68.3302 60.5142 68.5781 60.7159 68.8806C60.9261 69.1832 61.0309 69.5026 61.0309 69.8384H59.8078C59.8078 69.5781 59.6821 69.3595 59.4298 69.1832C59.1858 68.9984 58.8584 68.9055 58.4466 68.9055C58.0432 68.9055 57.7322 68.9854 57.5136 69.1454C57.3035 69.3049 57.1982 69.5026 57.1982 69.7376C57.1982 69.9308 57.2697 70.0908 57.4128 70.217C57.5638 70.3427 57.8033 70.4356 58.1311 70.4942L59.1779 70.6706C59.8331 70.7798 60.3165 70.99 60.6275 71.301C60.9469 71.612 61.1064 72.0283 61.1064 72.5494C61.1064 73.0954 60.8794 73.5494 60.4258 73.9106C59.9802 74.2638 59.3413 74.4402 58.5092 74.4402Z" fill="#FEC213"/>
<path d="M210.606 189.883V183.542H211.678L211.804 184.198H211.867C212.027 183.996 212.27 183.815 212.598 183.656C212.926 183.496 213.304 183.416 213.733 183.416C214.22 183.416 214.654 183.53 215.032 183.757C215.418 183.975 215.717 184.286 215.927 184.69C216.145 185.093 216.255 185.555 216.255 186.076V189.883H215.006V186.177C215.006 185.723 214.859 185.345 214.565 185.042C214.271 184.74 213.905 184.589 213.468 184.589C213.174 184.589 212.901 184.66 212.649 184.803C212.405 184.946 212.212 185.139 212.069 185.383C211.926 185.626 211.855 185.891 211.855 186.177V189.883H210.606Z" fill="#898989"/>
<path d="M206.251 190.01C205.663 190.01 205.129 189.871 204.65 189.594C204.171 189.308 203.793 188.917 203.515 188.421C203.246 187.917 203.112 187.345 203.112 186.706C203.112 186.076 203.246 185.513 203.515 185.017C203.793 184.513 204.171 184.122 204.65 183.844C205.129 183.559 205.663 183.416 206.251 183.416C206.814 183.416 207.323 183.55 207.776 183.82C208.239 184.088 208.6 184.458 208.861 184.929C209.13 185.399 209.264 185.929 209.264 186.517C209.264 186.812 209.243 187.034 209.201 187.186H204.36C204.419 187.699 204.625 188.118 204.978 188.446C205.331 188.766 205.755 188.926 206.251 188.926C206.604 188.926 206.915 188.846 207.184 188.686C207.453 188.526 207.655 188.32 207.789 188.068H209.088C208.894 188.631 208.554 189.098 208.067 189.468C207.579 189.829 206.974 190.01 206.251 190.01ZM208.029 186.228C207.987 185.723 207.802 185.307 207.474 184.979C207.146 184.652 206.739 184.488 206.251 184.488C205.747 184.488 205.322 184.652 204.978 184.979C204.633 185.307 204.427 185.723 204.36 186.228H208.029Z" fill="#898989"/>
<path d="M201.374 183.543H202.698L199.887 191.385C199.761 191.746 199.592 192.007 199.383 192.167C199.172 192.326 198.865 192.406 198.462 192.406H197.088V191.246H198.323C198.534 191.246 198.676 191.133 198.752 190.906L198.966 190.313L196.357 183.543H197.681L199.483 188.372H199.735L201.374 183.543Z" fill="#898989"/>
<path d="M242.33 155.758C241.716 155.758 241.191 155.645 240.754 155.418C240.325 155.191 239.997 154.905 239.77 154.56C239.543 154.225 239.422 153.88 239.405 153.527H240.666C240.699 153.821 240.859 154.077 241.145 154.296C241.43 154.523 241.825 154.636 242.33 154.636C242.851 154.636 243.267 154.489 243.578 154.195C243.889 153.901 244.044 153.51 244.044 153.022V152.014H243.981C243.763 152.258 243.489 152.451 243.162 152.594C242.834 152.737 242.472 152.808 242.077 152.808C241.531 152.808 241.035 152.678 240.59 152.417C240.153 152.157 239.808 151.791 239.556 151.32C239.304 150.85 239.178 150.316 239.178 149.719C239.178 149.123 239.304 148.593 239.556 148.131C239.808 147.66 240.153 147.294 240.59 147.034C241.035 146.773 241.531 146.643 242.077 146.643C242.481 146.643 242.851 146.723 243.187 146.883C243.532 147.042 243.809 147.257 244.019 147.526H244.082L244.208 146.769H245.292V153.035C245.292 153.573 245.174 154.048 244.939 154.46C244.704 154.871 244.359 155.191 243.906 155.418C243.46 155.645 242.935 155.758 242.33 155.758ZM242.241 151.674C242.578 151.674 242.88 151.594 243.149 151.434C243.426 151.266 243.645 151.035 243.805 150.741C243.964 150.438 244.044 150.098 244.044 149.719C244.044 149.341 243.964 149.005 243.805 148.711C243.645 148.417 243.426 148.19 243.149 148.03C242.88 147.862 242.578 147.778 242.241 147.778C241.72 147.778 241.288 147.959 240.943 148.32C240.607 148.681 240.439 149.148 240.439 149.719C240.439 150.299 240.607 150.77 240.943 151.132C241.288 151.493 241.72 151.674 242.241 151.674Z" fill="#898989"/>
<path d="M232.225 153.111V146.769H233.296L233.422 147.425H233.485C233.645 147.223 233.889 147.042 234.217 146.883C234.545 146.723 234.923 146.643 235.351 146.643C235.839 146.643 236.271 146.756 236.65 146.983C237.036 147.202 237.335 147.513 237.545 147.916C237.763 148.32 237.873 148.782 237.873 149.303V153.111H236.625V149.404C236.625 148.95 236.478 148.572 236.184 148.27C235.889 147.967 235.524 147.815 235.087 147.815C234.793 147.815 234.519 147.887 234.267 148.03C234.023 148.173 233.83 148.366 233.687 148.61C233.544 148.854 233.473 149.119 233.473 149.404V153.111H232.225Z" fill="#898989"/>
<path d="M230.536 153.112H229.288V146.77H230.536V153.112ZM230.599 145.572H229.238V144.312H230.599V145.572Z" fill="#898989"/>
<path d="M221.974 153.111V146.769H223.046L223.172 147.425H223.235C223.395 147.223 223.639 147.042 223.966 146.883C224.294 146.723 224.672 146.643 225.101 146.643C225.589 146.643 226.022 146.756 226.4 146.983C226.786 147.202 227.085 147.513 227.295 147.916C227.514 148.32 227.622 148.782 227.622 149.303V153.111H226.374V149.404C226.374 148.95 226.227 148.572 225.933 148.27C225.639 147.967 225.274 147.815 224.836 147.815C224.542 147.815 224.269 147.887 224.017 148.03C223.773 148.173 223.58 148.366 223.437 148.61C223.294 148.854 223.223 149.119 223.223 149.404V153.111H221.974Z" fill="#898989"/>
<path d="M217.418 153.112V146.77H218.49L218.615 147.363H218.679C218.805 147.17 218.956 147.022 219.133 146.921C219.317 146.82 219.561 146.77 219.864 146.77H220.973V147.943H219.977C219.557 147.943 219.233 148.056 219.006 148.283C218.779 148.51 218.666 148.833 218.666 149.254V153.112H217.418Z" fill="#898989"/>
<path d="M212.584 153.237C212.138 153.237 211.743 153.152 211.398 152.985C211.054 152.808 210.789 152.573 210.604 152.279C210.419 151.976 210.327 151.64 210.327 151.27C210.327 150.648 210.541 150.152 210.97 149.782C211.398 149.413 212.037 149.227 212.886 149.227H214.5V149.064C214.5 148.652 214.378 148.324 214.134 148.08C213.899 147.836 213.575 147.715 213.164 147.715C212.769 147.715 212.449 147.807 212.205 147.992C211.962 148.169 211.819 148.383 211.777 148.635H210.554C210.579 148.29 210.697 147.967 210.907 147.664C211.117 147.353 211.415 147.106 211.802 146.92C212.188 146.735 212.642 146.643 213.164 146.643C213.953 146.643 214.58 146.862 215.042 147.299C215.513 147.736 215.748 148.324 215.748 149.064V153.111H214.664L214.538 152.417H214.475C214.332 152.627 214.092 152.817 213.756 152.985C213.42 153.152 213.029 153.237 212.584 153.237ZM212.709 152.165C213.264 152.165 213.702 152.014 214.021 151.711C214.34 151.4 214.5 150.98 214.5 150.45V150.223H212.974C212.504 150.223 212.151 150.316 211.916 150.501C211.689 150.686 211.575 150.925 211.575 151.219C211.575 151.505 211.672 151.737 211.865 151.913C212.067 152.081 212.348 152.165 212.709 152.165Z" fill="#898989"/>
<path d="M206.251 153.237C205.663 153.237 205.129 153.098 204.65 152.821C204.171 152.535 203.793 152.144 203.515 151.648C203.246 151.144 203.112 150.572 203.112 149.934C203.112 149.303 203.246 148.74 203.515 148.244C203.793 147.74 204.171 147.349 204.65 147.072C205.129 146.786 205.663 146.643 206.251 146.643C206.814 146.643 207.323 146.778 207.776 147.046C208.239 147.316 208.6 147.685 208.861 148.156C209.13 148.627 209.264 149.156 209.264 149.745C209.264 150.039 209.243 150.261 209.201 150.413H204.36C204.419 150.925 204.625 151.346 204.978 151.674C205.331 151.993 205.755 152.152 206.251 152.152C206.604 152.152 206.915 152.072 207.184 151.913C207.453 151.753 207.655 151.547 207.789 151.295H209.088C208.894 151.858 208.554 152.325 208.067 152.694C207.579 153.056 206.974 153.237 206.251 153.237ZM208.029 149.454C207.987 148.95 207.802 148.534 207.474 148.206C207.146 147.879 206.739 147.715 206.251 147.715C205.747 147.715 205.322 147.879 204.978 148.206C204.633 148.534 204.427 148.95 204.36 149.454H208.029Z" fill="#898989"/>
<path d="M201.374 146.77H202.698L199.887 154.612C199.761 154.973 199.592 155.234 199.383 155.394C199.172 155.553 198.865 155.633 198.462 155.633H197.088V154.473H198.323C198.534 154.473 198.676 154.36 198.752 154.133L198.966 153.54L196.357 146.77H197.681L199.483 151.599H199.735L201.374 146.77Z" fill="#898989"/>
<path d="M218.991 114.364C218.427 114.364 217.944 114.264 217.541 114.062C217.146 113.86 216.847 113.608 216.645 113.306C216.444 112.995 216.343 112.679 216.343 112.36H217.578C217.578 112.621 217.7 112.843 217.944 113.028C218.196 113.213 218.545 113.306 218.991 113.306C219.436 113.306 219.772 113.23 219.999 113.079C220.235 112.919 220.352 112.721 220.352 112.486C220.352 112.259 220.276 112.079 220.125 111.944C219.974 111.809 219.726 111.713 219.381 111.654L218.347 111.478C217.079 111.259 216.444 110.654 216.444 109.662C216.444 109.116 216.658 108.666 217.087 108.313C217.515 107.952 218.129 107.771 218.928 107.771C219.457 107.771 219.915 107.868 220.302 108.061C220.697 108.254 220.995 108.502 221.197 108.805C221.407 109.107 221.512 109.427 221.512 109.763H220.289C220.289 109.502 220.163 109.284 219.911 109.107C219.667 108.923 219.339 108.83 218.928 108.83C218.524 108.83 218.213 108.91 217.995 109.07C217.784 109.229 217.679 109.427 217.679 109.662C217.679 109.856 217.751 110.015 217.894 110.141C218.045 110.267 218.285 110.36 218.612 110.418L219.659 110.595C220.314 110.705 220.797 110.914 221.108 111.225C221.428 111.536 221.587 111.952 221.587 112.474C221.587 113.02 221.361 113.474 220.907 113.835C220.461 114.188 219.823 114.364 218.991 114.364Z" fill="#FEC213"/>
<path d="M212.974 114.364C212.411 114.364 211.928 114.264 211.525 114.062C211.13 113.86 210.831 113.608 210.629 113.306C210.428 112.995 210.327 112.679 210.327 112.36H211.562C211.562 112.621 211.684 112.843 211.928 113.028C212.18 113.213 212.529 113.306 212.974 113.306C213.42 113.306 213.756 113.23 213.983 113.079C214.218 112.919 214.336 112.721 214.336 112.486C214.336 112.259 214.26 112.079 214.109 111.944C213.958 111.809 213.71 111.713 213.365 111.654L212.331 111.478C211.062 111.259 210.428 110.654 210.428 109.662C210.428 109.116 210.642 108.666 211.071 108.313C211.499 107.952 212.113 107.771 212.911 107.771C213.441 107.771 213.899 107.868 214.286 108.061C214.681 108.254 214.979 108.502 215.181 108.805C215.391 109.107 215.496 109.427 215.496 109.763H214.273C214.273 109.502 214.147 109.284 213.895 109.107C213.651 108.923 213.323 108.83 212.911 108.83C212.508 108.83 212.197 108.91 211.978 109.07C211.768 109.229 211.663 109.427 211.663 109.662C211.663 109.856 211.735 110.015 211.877 110.141C212.029 110.267 212.268 110.36 212.596 110.418L213.642 110.595C214.298 110.705 214.782 110.914 215.093 111.225C215.412 111.536 215.572 111.952 215.572 112.474C215.572 113.02 215.344 113.474 214.891 113.835C214.445 114.188 213.806 114.364 212.974 114.364Z" fill="#FEC213"/>
<path d="M209.122 114.24H207.874V107.898H209.122V114.24ZM209.185 106.7H207.824V105.44H209.185V106.7Z" fill="#FEC213"/>
<path d="M197.137 114.239V107.897H198.208L198.334 108.552H198.398C198.557 108.351 198.78 108.17 199.066 108.01C199.351 107.851 199.662 107.771 199.999 107.771C200.436 107.771 200.814 107.876 201.133 108.086C201.461 108.296 201.688 108.528 201.814 108.779H201.877C202.045 108.519 202.31 108.288 202.671 108.086C203.041 107.876 203.453 107.771 203.907 107.771C204.344 107.771 204.735 107.88 205.079 108.099C205.433 108.309 205.71 108.603 205.911 108.981C206.113 109.36 206.214 109.792 206.214 110.28V114.239H204.966V110.355C204.966 109.919 204.848 109.574 204.613 109.321C204.386 109.07 204.079 108.943 203.693 108.943C203.314 108.943 202.986 109.082 202.709 109.36C202.432 109.628 202.293 109.96 202.293 110.355V114.239H201.058V110.355C201.058 109.927 200.94 109.586 200.705 109.334C200.469 109.074 200.158 108.943 199.772 108.943C199.394 108.943 199.066 109.082 198.789 109.36C198.519 109.628 198.385 109.96 198.385 110.355V114.239H197.137Z" fill="#FEC213"/>
<path d="M352.602 114.243C352.173 114.243 351.837 114.129 351.593 113.902C351.358 113.667 351.24 113.351 351.24 112.956V109.074H350.232V107.901H351.24V106.061H352.489V107.901H353.938V109.074H352.489V112.705C352.489 112.965 352.619 113.095 352.879 113.095H353.938V114.243H352.602Z" fill="#FEC213"/>
<path d="M349.06 114.241H347.812V107.899H349.06V114.241ZM349.123 106.701H347.762V105.441H349.123V106.701Z" fill="#FEC213"/>
<path d="M340.889 114.365C340.325 114.365 339.842 114.264 339.438 114.063C339.044 113.861 338.745 113.609 338.544 113.307C338.342 112.996 338.241 112.68 338.241 112.361H339.476C339.476 112.622 339.598 112.844 339.842 113.029C340.094 113.214 340.443 113.307 340.889 113.307C341.334 113.307 341.67 113.231 341.897 113.08C342.133 112.92 342.25 112.722 342.25 112.487C342.25 112.26 342.174 112.08 342.023 111.945C341.872 111.81 341.624 111.714 341.279 111.655L340.245 111.479C338.976 111.26 338.342 110.655 338.342 109.663C338.342 109.117 338.556 108.667 338.985 108.314C339.414 107.953 340.027 107.772 340.826 107.772C341.355 107.772 341.813 107.868 342.2 108.062C342.595 108.255 342.893 108.503 343.095 108.806C343.305 109.108 343.41 109.428 343.41 109.764H342.187C342.187 109.503 342.061 109.285 341.809 109.108C341.565 108.924 341.237 108.831 340.826 108.831C340.422 108.831 340.111 108.911 339.893 109.071C339.682 109.23 339.577 109.428 339.577 109.663C339.577 109.857 339.649 110.016 339.792 110.142C339.943 110.268 340.183 110.361 340.51 110.419L341.557 110.596C342.212 110.705 342.695 110.915 343.006 111.226C343.326 111.537 343.486 111.953 343.486 112.475C343.486 113.021 343.259 113.475 342.805 113.836C342.359 114.189 341.721 114.365 340.889 114.365Z" fill="#FEC213"/>
<path d="M334.863 114.365C334.3 114.365 333.816 114.264 333.413 114.063C333.018 113.861 332.72 113.609 332.518 113.307C332.316 112.996 332.216 112.68 332.216 112.361H333.451C333.451 112.622 333.573 112.844 333.816 113.029C334.069 113.214 334.417 113.307 334.863 113.307C335.309 113.307 335.644 113.231 335.871 113.08C336.107 112.92 336.225 112.722 336.225 112.487C336.225 112.26 336.149 112.08 335.998 111.945C335.846 111.81 335.598 111.714 335.254 111.655L334.22 111.479C332.951 111.26 332.316 110.655 332.316 109.663C332.316 109.117 332.531 108.667 332.959 108.314C333.388 107.953 334.002 107.772 334.8 107.772C335.329 107.772 335.787 107.868 336.174 108.062C336.569 108.255 336.867 108.503 337.069 108.806C337.279 109.108 337.384 109.428 337.384 109.764H336.162C336.162 109.503 336.035 109.285 335.783 109.108C335.54 108.924 335.212 108.831 334.8 108.831C334.396 108.831 334.085 108.911 333.867 109.071C333.657 109.23 333.552 109.428 333.552 109.663C333.552 109.857 333.623 110.016 333.766 110.142C333.918 110.268 334.157 110.361 334.485 110.419L335.531 110.596C336.186 110.705 336.67 110.915 336.981 111.226C337.3 111.537 337.46 111.953 337.46 112.475C337.46 113.021 337.233 113.475 336.779 113.836C336.334 114.189 335.695 114.365 334.863 114.365Z" fill="#FEC213"/>
<path d="M331.011 114.241H329.763V107.899H331.011V114.241ZM331.074 106.701H329.712V105.441H331.074V106.701Z" fill="#FEC213"/>
<path d="M319.035 114.24V107.898H320.106L320.232 108.553H320.296C320.455 108.352 320.678 108.171 320.964 108.011C321.249 107.852 321.56 107.772 321.897 107.772C322.334 107.772 322.712 107.877 323.031 108.087C323.359 108.297 323.586 108.529 323.712 108.78H323.775C323.943 108.52 324.208 108.289 324.569 108.087C324.939 107.877 325.351 107.772 325.805 107.772C326.242 107.772 326.633 107.881 326.977 108.1C327.331 108.31 327.608 108.604 327.809 108.982C328.011 109.361 328.112 109.793 328.112 110.281V114.24H326.864V110.356C326.864 109.92 326.746 109.575 326.511 109.322C326.284 109.071 325.977 108.944 325.591 108.944C325.212 108.944 324.885 109.083 324.607 109.361C324.33 109.629 324.191 109.961 324.191 110.356V114.24H322.956V110.356C322.956 109.928 322.838 109.587 322.603 109.335C322.367 109.075 322.056 108.944 321.67 108.944C321.292 108.944 320.964 109.083 320.686 109.361C320.417 109.629 320.283 109.961 320.283 110.356V114.24H319.035Z" fill="#FEC213"/>
<path d="M314.153 114.241H312.829V105.416H314.153V114.241Z" fill="#FEC213"/>
<path d="M235.225 79.0648C234.612 79.0648 234.086 78.9515 233.649 78.7245C233.221 78.4974 232.893 78.2118 232.666 77.867C232.439 77.5312 232.317 77.1864 232.3 76.8332H233.561C233.595 77.1273 233.754 77.3836 234.04 77.6022C234.326 77.8293 234.721 77.943 235.225 77.943C235.746 77.943 236.162 77.7955 236.473 77.5014C236.784 77.2073 236.94 76.8163 236.94 76.329V75.3205H236.876C236.658 75.5644 236.385 75.7577 236.057 75.9002C235.729 76.0433 235.368 76.1149 234.973 76.1149C234.427 76.1149 233.93 75.9847 233.485 75.7239C233.048 75.4636 232.703 75.0979 232.452 74.627C232.199 74.1565 232.073 73.6225 232.073 73.0258C232.073 72.4292 232.199 71.8996 232.452 71.4376C232.703 70.9666 233.048 70.601 233.485 70.3407C233.93 70.0799 234.427 69.9497 234.973 69.9497C235.376 69.9497 235.746 70.0297 236.082 70.1892C236.427 70.3491 236.704 70.5632 236.914 70.8325H236.977L237.103 70.0759H238.188V76.3419C238.188 76.8794 238.07 77.3543 237.835 77.7662C237.599 78.178 237.255 78.4974 236.801 78.7245C236.355 78.9515 235.83 79.0648 235.225 79.0648ZM235.137 74.9802C235.473 74.9802 235.776 74.9002 236.044 74.7407C236.322 74.5723 236.541 74.3413 236.7 74.0472C236.86 73.7447 236.94 73.4044 236.94 73.0258C236.94 72.6478 236.86 72.3114 236.7 72.0173C236.541 71.7232 236.322 71.4962 236.044 71.3367C235.776 71.1683 235.473 71.0844 235.137 71.0844C234.616 71.0844 234.183 71.2652 233.838 71.6264C233.502 71.988 233.334 72.4545 233.334 73.0258C233.334 73.6061 233.502 74.0765 233.838 74.4382C234.183 74.7994 234.616 74.9802 235.137 74.9802Z" fill="#898989"/>
<path d="M225.13 76.4174V70.0759H226.201L226.328 70.7316H226.391C226.55 70.5295 226.794 70.3491 227.122 70.1892C227.449 70.0297 227.828 69.9497 228.256 69.9497C228.744 69.9497 229.177 70.0635 229.555 70.29C229.942 70.5086 230.24 70.8196 230.45 71.223C230.669 71.6264 230.778 72.0889 230.778 72.61V76.4174H229.53V72.7109C229.53 72.2568 229.383 71.8787 229.088 71.5762C228.794 71.2736 228.429 71.1221 227.992 71.1221C227.697 71.1221 227.425 71.1937 227.172 71.3367C226.928 71.4793 226.735 71.6726 226.592 71.9165C226.449 72.1604 226.378 72.4252 226.378 72.7109V76.4174H225.13Z" fill="#898989"/>
<path d="M223.432 76.4184H222.184V70.0769H223.432V76.4184ZM223.495 68.8796H222.134V67.6188H223.495V68.8796Z" fill="#898989"/>
<path d="M217.546 79.0648C216.933 79.0648 216.407 78.9515 215.971 78.7245C215.542 78.4974 215.214 78.2118 214.987 77.867C214.76 77.5312 214.638 77.1864 214.621 76.8332H215.882C215.916 77.1273 216.075 77.3836 216.361 77.6022C216.647 77.8293 217.042 77.943 217.546 77.943C218.068 77.943 218.483 77.7955 218.794 77.5014C219.105 77.2073 219.261 76.8163 219.261 76.329V75.3205H219.198C218.979 75.5644 218.706 75.7577 218.379 75.9002C218.051 76.0433 217.689 76.1149 217.294 76.1149C216.748 76.1149 216.252 75.9847 215.807 75.7239C215.369 75.4636 215.025 75.0979 214.773 74.627C214.52 74.1565 214.394 73.6225 214.394 73.0258C214.394 72.4292 214.52 71.8996 214.773 71.4376C215.025 70.9666 215.369 70.601 215.807 70.3407C216.252 70.0799 216.748 69.9497 217.294 69.9497C217.697 69.9497 218.068 70.0297 218.404 70.1892C218.748 70.3491 219.026 70.5632 219.235 70.8325H219.299L219.425 70.0759H220.509V76.3419C220.509 76.8794 220.392 77.3543 220.156 77.7662C219.921 78.178 219.576 78.4974 219.122 78.7245C218.677 78.9515 218.151 79.0648 217.546 79.0648ZM217.458 74.9802C217.794 74.9802 218.097 74.9002 218.366 74.7407C218.643 74.5723 218.862 74.3413 219.021 74.0472C219.181 73.7447 219.261 73.4044 219.261 73.0258C219.261 72.6478 219.181 72.3114 219.021 72.0173C218.862 71.7232 218.643 71.4962 218.366 71.3367C218.097 71.1683 217.794 71.0844 217.458 71.0844C216.937 71.0844 216.504 71.2652 216.159 71.6264C215.824 71.988 215.655 72.4545 215.655 73.0258C215.655 73.6061 215.824 74.0765 216.159 74.4382C216.504 74.7994 216.937 74.9802 217.458 74.9802Z" fill="#898989"/>
<path d="M207.451 76.4174V70.0759H208.523L208.649 70.7316H208.712C208.871 70.5295 209.115 70.3491 209.443 70.1892C209.771 70.0297 210.149 69.9497 210.578 69.9497C211.065 69.9497 211.498 70.0635 211.876 70.29C212.263 70.5086 212.561 70.8196 212.771 71.223C212.99 71.6264 213.099 72.0889 213.099 72.61V76.4174H211.851V72.7109C211.851 72.2568 211.704 71.8787 211.41 71.5762C211.115 71.2736 210.75 71.1221 210.313 71.1221C210.019 71.1221 209.746 71.1937 209.493 71.3367C209.25 71.4793 209.056 71.6726 208.914 71.9165C208.771 72.1604 208.699 72.4252 208.699 72.7109V76.4174H207.451Z" fill="#898989"/>
<path d="M202.981 76.5436C202.393 76.5436 201.859 76.4045 201.38 76.1273C200.901 75.8416 200.523 75.4506 200.246 74.9548C199.976 74.4506 199.842 73.8788 199.842 73.2404C199.842 72.61 199.976 72.0466 200.246 71.5509C200.523 71.0466 200.901 70.6556 201.38 70.3784C201.859 70.0928 202.393 69.9497 202.981 69.9497C203.57 69.9497 204.099 70.0928 204.57 70.3784C205.049 70.6556 205.423 71.0466 205.692 71.5509C205.969 72.0466 206.108 72.61 206.108 73.2404C206.108 73.8788 205.969 74.4506 205.692 74.9548C205.423 75.4506 205.049 75.8416 204.57 76.1273C204.099 76.4045 203.57 76.5436 202.981 76.5436ZM202.981 75.3836C203.326 75.3836 203.641 75.2952 203.927 75.1188C204.221 74.9424 204.452 74.6901 204.62 74.3622C204.788 74.0343 204.872 73.6607 204.872 73.2404C204.872 72.8201 204.788 72.45 204.62 72.1306C204.452 71.8032 204.221 71.5509 203.927 71.3745C203.641 71.1981 203.326 71.1097 202.981 71.1097C202.637 71.1097 202.317 71.1981 202.023 71.3745C201.738 71.5509 201.511 71.8032 201.342 72.1306C201.174 72.45 201.09 72.8201 201.09 73.2404C201.09 73.6607 201.174 74.0343 201.342 74.3622C201.511 74.6901 201.738 74.9424 202.023 75.1188C202.317 75.2952 202.637 75.3836 202.981 75.3836Z" fill="#898989"/>
<path d="M198.455 76.4188H197.207V67.5939H198.455V76.4188Z" fill="#898989"/>
<path d="M244.151 39.77C243.706 39.77 243.311 39.686 242.966 39.5179C242.621 39.3414 242.357 39.1061 242.172 38.8119C241.987 38.5093 241.895 38.1731 241.895 37.8033C241.895 37.1814 242.109 36.6855 242.537 36.3156C242.966 35.9458 243.605 35.7609 244.454 35.7609H246.068V35.597C246.068 35.1852 245.946 34.8574 245.702 34.6136C245.466 34.3699 245.143 34.248 244.731 34.248C244.336 34.248 244.017 34.3405 243.773 34.5254C243.529 34.7019 243.386 34.9162 243.344 35.1684H242.122C242.146 34.8238 242.264 34.5002 242.474 34.1976C242.684 33.8866 242.983 33.6387 243.369 33.4537C243.756 33.2688 244.21 33.1764 244.731 33.1764C245.521 33.1764 246.148 33.3949 246.61 33.832C247.081 34.269 247.315 34.8574 247.315 35.597V39.644H246.232L246.105 38.9506H246.042C245.9 39.1607 245.66 39.3498 245.324 39.5179C244.988 39.686 244.597 39.77 244.151 39.77ZM244.277 38.6984C244.832 38.6984 245.269 38.5471 245.589 38.2446C245.908 37.9336 246.068 37.5133 246.068 36.9838V36.7569H244.542C244.071 36.7569 243.718 36.8493 243.483 37.0342C243.256 37.2192 243.142 37.4587 243.142 37.7529C243.142 38.0387 243.239 38.2698 243.433 38.4463C243.634 38.6144 243.916 38.6984 244.277 38.6984Z" fill="#898989"/>
<path d="M240.476 39.6451H239.228V33.3036H240.476V39.6451ZM240.539 32.1059H239.178V30.8452H240.539V32.1059Z" fill="#898989"/>
<path d="M234.59 42.2915C233.977 42.2915 233.452 42.178 233.015 41.9511C232.586 41.7242 232.258 41.4384 232.031 41.0938C231.804 40.7576 231.683 40.413 231.666 40.06H232.927C232.96 40.3542 233.12 40.6105 233.405 40.8291C233.691 41.056 234.086 41.1695 234.59 41.1695C235.111 41.1695 235.528 41.0224 235.839 40.7282C236.15 40.434 236.305 40.0432 236.305 39.5557V38.5471H236.242C236.024 38.7909 235.75 38.9842 235.422 39.1271C235.095 39.2699 234.733 39.3414 234.338 39.3414C233.792 39.3414 233.296 39.2111 232.851 38.9506C232.414 38.69 232.069 38.3244 231.817 37.8537C231.565 37.383 231.439 36.8493 231.439 36.2526C231.439 35.6559 231.565 35.1263 231.817 34.6641C232.069 34.1934 232.414 33.8278 232.851 33.5672C233.296 33.3067 233.792 33.1764 234.338 33.1764C234.742 33.1764 235.111 33.2563 235.448 33.4159C235.793 33.5757 236.07 33.79 236.28 34.0589H236.343L236.469 33.3025H237.553V39.5683C237.553 40.1062 237.435 40.5811 237.2 40.993C236.965 41.4048 236.62 41.7242 236.167 41.9511C235.721 42.178 235.196 42.2915 234.59 42.2915ZM234.502 38.2067C234.839 38.2067 235.141 38.1269 235.41 37.9672C235.687 37.7991 235.906 37.5679 236.066 37.2738C236.225 36.9712 236.305 36.6308 236.305 36.2526C236.305 35.8744 236.225 35.5382 236.066 35.244C235.906 34.9498 235.687 34.7229 235.41 34.5632C235.141 34.3951 234.839 34.3111 234.502 34.3111C233.981 34.3111 233.549 34.4918 233.204 34.8532C232.867 35.2146 232.7 35.681 232.7 36.2526C232.7 36.8326 232.867 37.3032 233.204 37.6646C233.549 38.026 233.981 38.2067 234.502 38.2067Z" fill="#898989"/>
<path d="M230.052 39.6457H228.803V30.8206H230.052V39.6457Z" fill="#898989"/>
<path d="M223.911 39.77C223.466 39.77 223.071 39.686 222.726 39.5179C222.381 39.3414 222.116 39.1061 221.932 38.8119C221.747 38.5093 221.654 38.1731 221.654 37.8033C221.654 37.1814 221.868 36.6855 222.297 36.3156C222.726 35.9458 223.365 35.7609 224.213 35.7609H225.827V35.597C225.827 35.1852 225.705 34.8574 225.462 34.6136C225.226 34.3699 224.903 34.248 224.491 34.248C224.096 34.248 223.777 34.3405 223.533 34.5254C223.289 34.7019 223.146 34.9162 223.104 35.1684H221.881C221.906 34.8238 222.024 34.5002 222.234 34.1976C222.444 33.8866 222.743 33.6387 223.129 33.4537C223.516 33.2688 223.97 33.1764 224.491 33.1764C225.281 33.1764 225.907 33.3949 226.369 33.832C226.84 34.269 227.075 34.8574 227.075 35.597V39.644H225.991L225.865 38.9506H225.802C225.659 39.1607 225.419 39.3498 225.083 39.5179C224.747 39.686 224.356 39.77 223.911 39.77ZM224.037 38.6984C224.592 38.6984 225.028 38.5471 225.348 38.2446C225.667 37.9336 225.827 37.5133 225.827 36.9838V36.7569H224.302C223.831 36.7569 223.478 36.8493 223.243 37.0342C223.016 37.2192 222.902 37.4587 222.902 37.7529C222.902 38.0387 222.999 38.2698 223.192 38.4463C223.394 38.6144 223.676 38.6984 224.037 38.6984Z" fill="#898989"/>
<path d="M219.427 39.6469C218.999 39.6469 218.662 39.5334 218.419 39.3065C218.183 39.0711 218.066 38.756 218.066 38.3609V34.4779H217.057V33.3054H218.066V31.4647H219.314V33.3054H220.764V34.4779H219.314V38.1088C219.314 38.3693 219.444 38.4996 219.705 38.4996H220.764V39.6469H219.427Z" fill="#898989"/>
<path d="M213.844 39.77C213.281 39.77 212.797 39.6692 212.394 39.4675C211.999 39.2657 211.701 39.0136 211.499 38.711C211.297 38.4 211.196 38.0849 211.196 37.7655H212.432C212.432 38.026 212.554 38.2487 212.797 38.4337C213.049 38.6186 213.399 38.711 213.844 38.711C214.289 38.711 214.626 38.6354 214.852 38.4841C215.088 38.3244 215.205 38.1269 215.205 37.8916C215.205 37.6646 215.13 37.4839 214.978 37.3494C214.827 37.2149 214.579 37.1183 214.235 37.0595L213.201 36.883C211.932 36.6644 211.297 36.0593 211.297 35.0675C211.297 34.5212 211.511 34.0716 211.94 33.7185C212.369 33.3571 212.982 33.1764 213.781 33.1764C214.31 33.1764 214.768 33.2731 215.155 33.4664C215.55 33.6597 215.848 33.9076 216.05 34.2102C216.26 34.5128 216.365 34.8322 216.365 35.1684H215.142C215.142 34.9078 215.016 34.6893 214.764 34.5128C214.52 34.3279 214.192 34.2354 213.781 34.2354C213.377 34.2354 213.066 34.3153 212.848 34.4749C212.637 34.6347 212.533 34.8322 212.533 35.0675C212.533 35.2608 212.604 35.4205 212.747 35.5466C212.898 35.6727 213.138 35.7651 213.466 35.8239L214.512 36.0004C215.168 36.1097 215.651 36.3198 215.962 36.6308C216.281 36.9418 216.441 37.3579 216.441 37.8789C216.441 38.4253 216.214 38.8791 215.76 39.2405C215.315 39.5936 214.676 39.77 213.844 39.77Z" fill="#898989"/>
<path d="M207.22 39.77C206.631 39.77 206.097 39.6314 205.618 39.354C205.139 39.0683 204.761 38.6774 204.484 38.1815C204.214 37.6772 204.08 37.1057 204.08 36.4669C204.08 35.8365 204.214 35.2734 204.484 34.7775C204.761 34.2733 205.139 33.8824 205.618 33.6051C206.097 33.3193 206.631 33.1764 207.22 33.1764C207.808 33.1764 208.337 33.3193 208.808 33.6051C209.287 33.8824 209.661 34.2733 209.93 34.7775C210.207 35.2734 210.346 35.8365 210.346 36.4669C210.346 37.1057 210.207 37.6772 209.93 38.1815C209.661 38.6774 209.287 39.0683 208.808 39.354C208.337 39.6314 207.808 39.77 207.22 39.77ZM207.22 38.6102C207.564 38.6102 207.879 38.5219 208.165 38.3454C208.459 38.1689 208.691 37.9167 208.858 37.589C209.026 37.2612 209.11 36.8872 209.11 36.4669C209.11 36.0467 209.026 35.6769 208.858 35.3575C208.691 35.0297 208.459 34.7775 208.165 34.601C207.879 34.4245 207.564 34.3363 207.22 34.3363C206.875 34.3363 206.555 34.4245 206.261 34.601C205.976 34.7775 205.749 35.0297 205.581 35.3575C205.412 35.6769 205.328 36.0467 205.328 36.4669C205.328 36.8872 205.412 37.2612 205.581 37.589C205.749 37.9167 205.976 38.1689 206.261 38.3454C206.555 38.5219 206.875 38.6102 207.22 38.6102Z" fill="#898989"/>
<path d="M197.137 39.644V33.3025H198.208L198.334 33.9581H198.398C198.557 33.7563 198.801 33.5757 199.129 33.4159C199.457 33.2563 199.835 33.1764 200.264 33.1764C200.751 33.1764 201.184 33.2899 201.562 33.5168C201.949 33.7353 202.247 34.0463 202.457 34.4498C202.675 34.8532 202.785 35.3155 202.785 35.8365V39.644H201.537V35.9374C201.537 35.4835 201.39 35.1053 201.096 34.8028C200.802 34.5002 200.436 34.3489 199.999 34.3489C199.705 34.3489 199.431 34.4203 199.179 34.5632C198.936 34.7061 198.742 34.8994 198.599 35.1432C198.456 35.3869 198.385 35.6516 198.385 35.9374V39.644H197.137Z" fill="#898989"/>
<path fill-rule="evenodd" clip-rule="evenodd" d="M93.2929 33.3411H92.283V32.2905H93.2929V33.3411ZM97.3338 33.3411H95.3134V32.2905H97.3338V33.3411ZM101.375 33.3411H99.3543V32.2905H101.375V33.3411ZM105.416 33.3411H103.395V32.2905H105.416V33.3411ZM109.456 33.3411H107.436V32.2905H109.456V33.3411ZM113.497 33.3411H111.477V32.2905H113.497V33.3411ZM117.538 33.3411H115.517V32.2905H117.538V33.3411ZM121.579 33.3411H119.558V32.2905H121.579V33.3411ZM125.619 33.3411H123.599V32.2905H125.619V33.3411ZM129.66 33.3411H127.64V32.2905H129.66V33.3411ZM133.701 33.3411H131.681V32.2905H133.701V33.3411ZM137.742 33.3411H135.722V32.2905H137.742V33.3411ZM141.782 33.3411H139.763V32.2905H141.782V33.3411ZM144.813 33.3411H143.803V32.2905H144.813V33.3411Z" fill="#898989"/>
<path fill-rule="evenodd" clip-rule="evenodd" d="M275.177 111.087H274.039V110.036H275.177V111.087ZM279.729 111.087H277.453V110.036H279.729V111.087ZM284.282 111.087H282.006V110.036H284.282V111.087ZM287.697 111.087H286.558V110.036H287.697V111.087Z" fill="#898989"/>
</svg>
