<svg width="414" height="221" viewBox="0 0 414 221" fill="none" xmlns="http://www.w3.org/2000/svg">
<path d="M0.340088 109.965L413.64 109.968" stroke="#2C2C2C" stroke-width="0.496751" stroke-dasharray="0.99 0.99"/>
<path d="M0.340088 160.136H413.64" stroke="#2C2C2C" stroke-width="0.496751" stroke-dasharray="0.99 0.99"/>
<path d="M3.23706 62.4117H404.949" stroke="#2C2C2C" stroke-width="0.496751" stroke-dasharray="0.99 0.99"/>
<path d="M0.340088 109.965L413.64 109.968" stroke="#2C2C2C" stroke-width="0.496751" stroke-dasharray="0.99 0.99"/>
<path d="M0.340088 160.136H413.64" stroke="#2C2C2C" stroke-width="0.496751" stroke-dasharray="0.99 0.99"/>
<path d="M40.4143 62.6602H71.6587C74.4023 62.6602 76.6263 64.8846 76.6263 67.6276V105.009C76.6263 107.753 78.8503 109.977 81.5938 109.977H230.509C233.253 109.977 235.477 107.753 235.477 105.009V67.6276C235.477 64.8846 237.701 62.6602 240.444 62.6602H279.757C282.501 62.6602 284.725 64.8846 284.725 67.6276V105.009C284.725 107.753 286.949 109.977 289.692 109.977H339.145C341.888 109.977 344.112 107.753 344.112 105.009V67.6276C344.112 64.8846 346.337 62.6602 349.08 62.6602H363.909" stroke="#898989" stroke-width="0.496751"/>
<path d="M39.9312 62.6602H71.1754C73.919 62.6602 76.143 64.8846 76.143 67.6276V155.705C76.143 158.449 78.3674 160.673 81.1105 160.673H180.295C183.038 160.673 185.262 158.449 185.262 155.705V115.91C185.262 113.166 187.486 110.942 190.23 110.942H209.403" stroke="#898989" stroke-width="0.496751"/>
<path d="M210.853 121.564C217.252 121.564 222.44 116.376 222.44 109.976C222.44 103.577 217.252 98.3885 210.853 98.3885C204.453 98.3885 199.265 103.577 199.265 109.976C199.265 116.376 204.453 121.564 210.853 121.564Z" fill="#898989"/>
<path d="M319.006 121.564C325.405 121.564 330.593 116.376 330.593 109.976C330.593 103.577 325.405 98.3885 319.006 98.3885C312.606 98.3885 307.418 103.577 307.418 109.976C307.418 116.376 312.606 121.564 319.006 121.564Z" fill="#898989"/>
<path d="M156.776 171.777C163.176 171.777 168.364 166.589 168.364 160.189C168.364 153.79 163.176 148.602 156.776 148.602C150.377 148.602 145.189 153.79 145.189 160.189C145.189 166.589 150.377 171.777 156.776 171.777Z" fill="#2C2C2C"/>
<path d="M102.7 121.564C109.1 121.564 114.288 116.376 114.288 109.976C114.288 103.577 109.1 98.3885 102.7 98.3885C96.3006 98.3885 91.1125 103.577 91.1125 109.976C91.1125 116.376 96.3006 121.564 102.7 121.564Z" fill="#898989"/>
<path d="M38.9666 62.4117H363.427" stroke="#898989" stroke-width="0.496751"/>
<path d="M363.427 73.2823C369.826 73.2823 375.014 68.0943 375.014 61.6946C375.014 55.2948 369.826 50.1068 363.427 50.1068C357.027 50.1068 351.839 55.2948 351.839 61.6946C351.839 68.0943 357.027 73.2823 363.427 73.2823Z" fill="#FEC213"/>
<path d="M259.135 73.2823C265.535 73.2823 270.723 68.0943 270.723 61.6946C270.723 55.2948 265.535 50.1068 259.135 50.1068C252.736 50.1068 247.548 55.2948 247.548 61.6946C247.548 68.0943 252.736 73.2823 259.135 73.2823Z" fill="white"/>
<path d="M0.340088 62.4117H38.966" stroke="#898989" stroke-width="0.496751"/>
<path d="M375.013 62.4117H413.639" stroke="#898989" stroke-width="0.496751"/>
<path d="M38.9662 73.2823C45.3659 73.2823 50.5539 68.0943 50.5539 61.6946C50.5539 55.2948 45.3659 50.1068 38.9662 50.1068C32.5664 50.1068 27.3784 55.2948 27.3784 61.6946C27.3784 68.0943 32.5664 73.2823 38.9662 73.2823Z" fill="white"/>
</svg>
