<svg width="48" height="37" viewBox="0 0 48 37" fill="none" xmlns="http://www.w3.org/2000/svg">
<path d="M40.634 3.03291C37.5221 1.60444 34.2379 0.585803 30.8638 0.00251399C30.8332 -0.00320406 30.8015 0.000889152 30.7733 0.0142108C30.7451 0.0275325 30.7218 0.0494042 30.7068 0.0767142C30.2848 0.827314 29.8174 1.80631 29.4902 2.57571C25.8008 2.02331 22.1302 2.02331 18.5166 2.57571C18.1894 1.78911 17.705 0.827314 17.2812 0.0767142C17.2655 0.0500265 17.2421 0.0286899 17.2141 0.0154892C17.1861 0.0022885 17.1548 -0.00216322 17.1242 0.00271427C13.7498 0.584647 10.4654 1.6032 7.35381 3.03271C7.32719 3.04409 7.30476 3.06345 7.28961 3.08811C1.06681 12.3849 -0.637992 21.4531 0.198408 30.4089C0.200773 30.4308 0.207514 30.4521 0.218233 30.4713C0.228951 30.4906 0.243429 30.5075 0.260808 30.5211C4.36641 33.5363 8.34341 35.3667 12.2466 36.5799C12.277 36.589 12.3094 36.5885 12.3394 36.5787C12.3695 36.5688 12.3959 36.55 12.415 36.5247C13.3382 35.2639 14.1612 33.9343 14.867 32.5363C14.8767 32.5172 14.8822 32.4962 14.8833 32.4748C14.8843 32.4533 14.8807 32.4319 14.8729 32.4119C14.865 32.392 14.853 32.3739 14.8377 32.3589C14.8223 32.3439 14.804 32.3323 14.7838 32.3249C13.4782 31.8297 12.2352 31.2259 11.0394 30.5403C11.0176 30.5275 10.9993 30.5095 10.9861 30.488C10.9729 30.4664 10.9652 30.4419 10.9637 30.4167C10.9622 30.3914 10.9669 30.3662 10.9775 30.3432C10.988 30.3202 11.0041 30.3002 11.0242 30.2849C11.2758 30.0963 11.5276 29.9003 11.7678 29.7021C11.7892 29.6845 11.815 29.6732 11.8424 29.6695C11.8698 29.6658 11.8977 29.6698 11.923 29.6811C19.7786 33.2677 28.283 33.2677 36.0458 29.6811C36.0711 29.6691 36.0993 29.6645 36.1271 29.6678C36.1549 29.6712 36.1811 29.6824 36.2028 29.7001C36.4432 29.8981 36.6948 30.0963 36.9484 30.2849C36.9686 30.3001 36.9847 30.32 36.9954 30.3428C37.0061 30.3657 37.0111 30.3908 37.0097 30.416C37.0084 30.4412 37.001 30.4657 36.988 30.4874C36.975 30.509 36.9568 30.5271 36.9352 30.5401C35.739 31.2388 34.4859 31.8352 33.1892 32.3229C33.1691 32.3306 33.1508 32.3425 33.1356 32.3577C33.1203 32.373 33.1085 32.3913 33.1008 32.4114C33.0931 32.4316 33.0898 32.4531 33.091 32.4746C33.0922 32.4961 33.0979 32.5172 33.1078 32.5363C33.8286 33.9323 34.6516 35.2619 35.5578 36.5227C35.5763 36.5487 35.6025 36.5682 35.6328 36.5785C35.663 36.5888 35.6957 36.5893 35.7262 36.5799C39.6482 35.3665 43.6252 33.5361 47.7308 30.5211C47.7485 30.5082 47.7632 30.4917 47.774 30.4727C47.7848 30.4536 47.7914 30.4325 47.7934 30.4107C48.7942 20.0567 46.117 11.0629 40.6964 3.08991C40.6831 3.06401 40.661 3.04392 40.634 3.03291ZM16.04 24.9557C13.675 24.9557 11.7262 22.7843 11.7262 20.1177C11.7262 17.4513 13.6372 15.2799 16.0402 15.2799C18.4618 15.2799 20.3916 17.4703 20.3538 20.1179C20.3538 22.7843 18.4428 24.9557 16.04 24.9557ZM31.9896 24.9557C29.6246 24.9557 27.6758 22.7843 27.6758 20.1177C27.6758 17.4513 29.5866 15.2799 31.9896 15.2799C34.4112 15.2799 36.341 17.4703 36.3032 20.1179C36.3032 22.7843 34.4112 24.9557 31.9896 24.9557Z" fill="#ECEDEE"/>
</svg>
