<svg width="48" height="47" viewBox="0 0 48 47" fill="none" xmlns="http://www.w3.org/2000/svg">
<path d="M24 0C10.74 0 0 10.746 0 24C0 34.606 6.876 43.6 16.41 46.77C17.61 46.996 18.05 46.254 18.05 45.616C18.05 45.046 18.03 43.536 18.02 41.536C11.344 42.984 9.936 38.316 9.936 38.316C8.844 35.546 7.266 34.806 7.266 34.806C5.092 33.318 7.434 33.348 7.434 33.348C9.844 33.516 11.11 35.82 11.11 35.82C13.25 39.49 16.728 38.43 18.1 37.816C18.316 36.264 18.934 35.206 19.62 34.606C14.29 34.006 8.688 31.942 8.688 22.746C8.688 20.126 9.618 17.986 11.158 16.306C10.888 15.7 10.078 13.26 11.368 9.954C11.368 9.954 13.378 9.31 17.968 12.414C19.888 11.88 21.928 11.616 23.968 11.604C26.008 11.616 28.048 11.88 29.968 12.414C34.528 9.31 36.538 9.954 36.538 9.954C37.828 13.26 37.018 15.7 36.778 16.306C38.308 17.986 39.238 20.126 39.238 22.746C39.238 31.966 33.628 33.996 28.288 34.586C29.128 35.306 29.908 36.778 29.908 39.026C29.908 42.238 29.878 44.818 29.878 45.598C29.878 46.228 30.298 46.978 31.528 46.738C41.13 43.59 48 34.59 48 24C48 10.746 37.254 0 24 0Z" fill="#ECEDEE"/>
</svg>
