<svg width="48" height="48" viewBox="0 0 48 48" fill="none" xmlns="http://www.w3.org/2000/svg">
<path d="M40.894 40.904H33.786V29.766C33.786 27.11 33.732 23.692 30.082 23.692C26.376 23.692 25.81 26.582 25.81 29.57V40.904H18.702V18H25.53V21.122H25.622C26.576 19.322 28.896 17.422 32.362 17.422C39.564 17.422 40.896 22.162 40.896 28.332L40.894 40.904ZM10.674 14.866C8.386 14.866 6.548 13.014 6.548 10.736C6.548 8.46 8.388 6.61 10.674 6.61C12.954 6.61 14.802 8.46 14.802 10.736C14.802 13.014 12.952 14.866 10.674 14.866ZM14.238 40.904H7.11V18H14.238V40.904ZM44.45 0H3.542C1.584 0 0 1.548 0 3.458V44.542C0 46.454 1.584 48 3.542 48H44.444C46.4 48 48 46.454 48 44.542V3.458C48 1.548 46.4 0 44.444 0H44.45Z" fill="#ECEDEE"/>
</svg>
