<svg width="1783" height="232" viewBox="0 0 1783 232" fill="none" xmlns="http://www.w3.org/2000/svg">
<rect width="1777.69" height="221" transform="translate(5.15503 5.5)" fill="#0A0A0A"/>
<g clip-path="url(#clip0_17_2330)">
<path d="M100.872 116L117.671 86.8646H151.329C171.139 52.492 201.485 0 201.485 0H67.5151L0.5 116H100.872Z" fill="url(#paint0_linear_17_2330)"/>
<path d="M117.671 145.135L100.872 116H0.5L67.5151 232H201.485C201.485 232 171.379 179.508 151.329 145.135H117.671Z" fill="url(#paint1_linear_17_2330)"/>
<path d="M201.485 0L151.329 86.8646L168.128 116L151.329 145.135L201.485 232L268.5 116L201.485 0Z" fill="url(#paint2_linear_17_2330)"/>
<path d="M134.831 116.541L142.478 129.845L134.59 116.12L134.831 116.541Z" fill="white"/>
</g>
<mask id="path-5-outside-1_17_2330" maskUnits="userSpaceOnUse" x="314.5" y="29" width="1465" height="187" fill="black">
<rect fill="white" x="314.5" y="29" width="1465" height="187"/>
<path d="M469.5 118C469.5 130 466.967 141 461.9 151C456.833 160.867 449.7 169.133 440.5 175.8C431.433 182.467 420.967 186.867 409.1 189V215H376.5V189C364.767 186.867 354.3 182.467 345.1 175.8C336.033 169.133 328.967 160.8 323.9 150.8C318.833 140.8 316.3 129.867 316.3 118C316.3 104.267 319.567 91.9333 326.1 81C332.767 69.9333 341.9 61.2667 353.5 55C365.233 48.7333 378.367 45.6 392.9 45.6C407.433 45.6 420.5 48.7333 432.1 55C443.7 61.2667 452.833 69.9333 459.5 81C466.167 91.9333 469.5 104.267 469.5 118ZM407.7 160.6C416.633 157.8 423.7 152.667 428.9 145.2C434.1 137.6 436.7 128.533 436.7 118C436.7 109.333 434.767 101.6 430.9 94.8C427.167 88 421.967 82.7333 415.3 79C408.633 75.1333 401.167 73.2 392.9 73.2C384.633 73.2 377.167 75.1333 370.5 79C363.833 82.7333 358.567 88 354.7 94.8C350.967 101.6 349.1 109.333 349.1 118C349.1 128.533 351.633 137.533 356.7 145C361.9 152.467 368.9 157.667 377.7 160.6V131.8H407.7V160.6ZM600.05 80.4V188H570.45V175.2C566.317 179.867 561.383 183.467 555.65 186C549.917 188.4 543.717 189.6 537.05 189.6C522.917 189.6 511.717 185.533 503.45 177.4C495.183 169.267 491.05 157.2 491.05 141.2V80.4H522.25V136.6C522.25 153.933 529.517 162.6 544.05 162.6C551.517 162.6 557.517 160.2 562.05 155.4C566.583 150.467 568.85 143.2 568.85 133.6V80.4H600.05ZM738.155 80.4V188H708.355V175.6C700.621 184.933 689.421 189.6 674.755 189.6C664.621 189.6 655.421 187.333 647.155 182.8C639.021 178.267 632.621 171.8 627.955 163.4C623.288 155 620.955 145.267 620.955 134.2C620.955 123.133 623.288 113.4 627.955 105C632.621 96.6 639.021 90.1333 647.155 85.6C655.421 81.0667 664.621 78.8 674.755 78.8C688.488 78.8 699.221 83.1333 706.955 91.8V80.4H738.155ZM680.155 164C688.021 164 694.555 161.333 699.755 156C704.955 150.533 707.555 143.267 707.555 134.2C707.555 125.133 704.955 117.933 699.755 112.6C694.555 107.133 688.021 104.4 680.155 104.4C672.155 104.4 665.555 107.133 660.355 112.6C655.155 117.933 652.555 125.133 652.555 134.2C652.555 143.267 655.155 150.533 660.355 156C665.555 161.333 672.155 164 680.155 164ZM832.441 78.8C845.774 78.8 856.507 82.8 864.641 90.8C872.907 98.8 877.041 110.667 877.041 126.4V188H845.841V131.2C845.841 122.667 843.974 116.333 840.241 112.2C836.507 107.933 831.107 105.8 824.041 105.8C816.174 105.8 809.907 108.267 805.241 113.2C800.574 118 798.241 125.2 798.241 134.8V188H767.041V80.4H796.841V93C800.974 88.4667 806.107 85 812.241 82.6C818.374 80.0667 825.107 78.8 832.441 78.8ZM970.122 182.8C967.055 185.067 963.255 186.8 958.722 188C954.322 189.067 949.722 189.6 944.922 189.6C931.989 189.6 922.055 186.333 915.122 179.8C908.189 173.267 904.722 163.667 904.722 151V56.6H935.922V82.8H962.522V106.8H935.922V150.6C935.922 155.133 937.055 158.667 939.322 161.2C941.589 163.6 944.855 164.8 949.122 164.8C953.922 164.8 958.189 163.467 961.922 160.8L970.122 182.8ZM1096.14 80.4V188H1066.54V175.2C1062.41 179.867 1057.48 183.467 1051.74 186C1046.01 188.4 1039.81 189.6 1033.14 189.6C1019.01 189.6 1007.81 185.533 999.544 177.4C991.277 169.267 987.144 157.2 987.144 141.2V80.4H1018.34V136.6C1018.34 153.933 1025.61 162.6 1040.14 162.6C1047.61 162.6 1053.61 160.2 1058.14 155.4C1062.68 150.467 1064.94 143.2 1064.94 133.6V80.4H1096.14ZM1262.85 78.8C1276.32 78.8 1286.98 82.8 1294.85 90.8C1302.85 98.6667 1306.85 110.533 1306.85 126.4V188H1275.65V131.2C1275.65 122.667 1273.85 116.333 1270.25 112.2C1266.78 107.933 1261.78 105.8 1255.25 105.8C1247.92 105.8 1242.12 108.2 1237.85 113C1233.58 117.667 1231.45 124.667 1231.45 134V188H1200.25V131.2C1200.25 114.267 1193.45 105.8 1179.85 105.8C1172.65 105.8 1166.92 108.2 1162.65 113C1158.38 117.667 1156.25 124.667 1156.25 134V188H1125.05V80.4H1154.85V92.8C1158.85 88.2667 1163.72 84.8 1169.45 82.4C1175.32 80 1181.72 78.8 1188.65 78.8C1196.25 78.8 1203.12 80.3333 1209.25 83.4C1215.38 86.3333 1220.32 90.6667 1224.05 96.4C1228.45 90.8 1233.98 86.4667 1240.65 83.4C1247.45 80.3333 1254.85 78.8 1262.85 78.8ZM1465.41 48V188H1433.01V130.6H1369.41V188H1337.01V48H1369.41V103.2H1433.01V48H1465.41ZM1496.34 80.4H1527.54V188H1496.34V80.4ZM1511.94 65.4C1506.2 65.4 1501.54 63.7333 1497.94 60.4C1494.34 57.0667 1492.54 52.9333 1492.54 48C1492.54 43.0667 1494.34 38.9333 1497.94 35.6C1501.54 32.2667 1506.2 30.6 1511.94 30.6C1517.67 30.6 1522.34 32.2 1525.94 35.4C1529.54 38.6 1531.34 42.6 1531.34 47.4C1531.34 52.6 1529.54 56.9333 1525.94 60.4C1522.34 63.7333 1517.67 65.4 1511.94 65.4ZM1663.29 80.4L1617.89 188H1585.69L1540.49 80.4H1572.69L1602.49 153.6L1633.29 80.4H1663.29ZM1727.3 164.6C1732.9 164.6 1737.83 163.8 1742.1 162.2C1746.5 160.467 1750.56 157.8 1754.3 154.2L1770.9 172.2C1760.76 183.8 1745.96 189.6 1726.5 189.6C1714.36 189.6 1703.63 187.267 1694.3 182.6C1684.96 177.8 1677.76 171.2 1672.7 162.8C1667.63 154.4 1665.1 144.867 1665.1 134.2C1665.1 123.667 1667.56 114.2 1672.5 105.8C1677.56 97.2667 1684.43 90.6667 1693.1 86C1701.9 81.2 1711.76 78.8 1722.7 78.8C1732.96 78.8 1742.3 81 1750.7 85.4C1759.1 89.6667 1765.76 95.9333 1770.7 104.2C1775.76 112.333 1778.3 122 1778.3 133.2L1698.7 148.6C1700.96 153.933 1704.5 157.933 1709.3 160.6C1714.23 163.267 1720.23 164.6 1727.3 164.6ZM1722.7 102.4C1714.83 102.4 1708.43 104.933 1703.5 110C1698.56 115.067 1695.96 122.067 1695.7 131L1748.1 120.8C1746.63 115.2 1743.63 110.733 1739.1 107.4C1734.56 104.067 1729.1 102.4 1722.7 102.4Z"/>
</mask>
<path d="M469.5 118C469.5 130 466.967 141 461.9 151C456.833 160.867 449.7 169.133 440.5 175.8C431.433 182.467 420.967 186.867 409.1 189V215H376.5V189C364.767 186.867 354.3 182.467 345.1 175.8C336.033 169.133 328.967 160.8 323.9 150.8C318.833 140.8 316.3 129.867 316.3 118C316.3 104.267 319.567 91.9333 326.1 81C332.767 69.9333 341.9 61.2667 353.5 55C365.233 48.7333 378.367 45.6 392.9 45.6C407.433 45.6 420.5 48.7333 432.1 55C443.7 61.2667 452.833 69.9333 459.5 81C466.167 91.9333 469.5 104.267 469.5 118ZM407.7 160.6C416.633 157.8 423.7 152.667 428.9 145.2C434.1 137.6 436.7 128.533 436.7 118C436.7 109.333 434.767 101.6 430.9 94.8C427.167 88 421.967 82.7333 415.3 79C408.633 75.1333 401.167 73.2 392.9 73.2C384.633 73.2 377.167 75.1333 370.5 79C363.833 82.7333 358.567 88 354.7 94.8C350.967 101.6 349.1 109.333 349.1 118C349.1 128.533 351.633 137.533 356.7 145C361.9 152.467 368.9 157.667 377.7 160.6V131.8H407.7V160.6ZM600.05 80.4V188H570.45V175.2C566.317 179.867 561.383 183.467 555.65 186C549.917 188.4 543.717 189.6 537.05 189.6C522.917 189.6 511.717 185.533 503.45 177.4C495.183 169.267 491.05 157.2 491.05 141.2V80.4H522.25V136.6C522.25 153.933 529.517 162.6 544.05 162.6C551.517 162.6 557.517 160.2 562.05 155.4C566.583 150.467 568.85 143.2 568.85 133.6V80.4H600.05ZM738.155 80.4V188H708.355V175.6C700.621 184.933 689.421 189.6 674.755 189.6C664.621 189.6 655.421 187.333 647.155 182.8C639.021 178.267 632.621 171.8 627.955 163.4C623.288 155 620.955 145.267 620.955 134.2C620.955 123.133 623.288 113.4 627.955 105C632.621 96.6 639.021 90.1333 647.155 85.6C655.421 81.0667 664.621 78.8 674.755 78.8C688.488 78.8 699.221 83.1333 706.955 91.8V80.4H738.155ZM680.155 164C688.021 164 694.555 161.333 699.755 156C704.955 150.533 707.555 143.267 707.555 134.2C707.555 125.133 704.955 117.933 699.755 112.6C694.555 107.133 688.021 104.4 680.155 104.4C672.155 104.4 665.555 107.133 660.355 112.6C655.155 117.933 652.555 125.133 652.555 134.2C652.555 143.267 655.155 150.533 660.355 156C665.555 161.333 672.155 164 680.155 164ZM832.441 78.8C845.774 78.8 856.507 82.8 864.641 90.8C872.907 98.8 877.041 110.667 877.041 126.4V188H845.841V131.2C845.841 122.667 843.974 116.333 840.241 112.2C836.507 107.933 831.107 105.8 824.041 105.8C816.174 105.8 809.907 108.267 805.241 113.2C800.574 118 798.241 125.2 798.241 134.8V188H767.041V80.4H796.841V93C800.974 88.4667 806.107 85 812.241 82.6C818.374 80.0667 825.107 78.8 832.441 78.8ZM970.122 182.8C967.055 185.067 963.255 186.8 958.722 188C954.322 189.067 949.722 189.6 944.922 189.6C931.989 189.6 922.055 186.333 915.122 179.8C908.189 173.267 904.722 163.667 904.722 151V56.6H935.922V82.8H962.522V106.8H935.922V150.6C935.922 155.133 937.055 158.667 939.322 161.2C941.589 163.6 944.855 164.8 949.122 164.8C953.922 164.8 958.189 163.467 961.922 160.8L970.122 182.8ZM1096.14 80.4V188H1066.54V175.2C1062.41 179.867 1057.48 183.467 1051.74 186C1046.01 188.4 1039.81 189.6 1033.14 189.6C1019.01 189.6 1007.81 185.533 999.544 177.4C991.277 169.267 987.144 157.2 987.144 141.2V80.4H1018.34V136.6C1018.34 153.933 1025.61 162.6 1040.14 162.6C1047.61 162.6 1053.61 160.2 1058.14 155.4C1062.68 150.467 1064.94 143.2 1064.94 133.6V80.4H1096.14ZM1262.85 78.8C1276.32 78.8 1286.98 82.8 1294.85 90.8C1302.85 98.6667 1306.85 110.533 1306.85 126.4V188H1275.65V131.2C1275.65 122.667 1273.85 116.333 1270.25 112.2C1266.78 107.933 1261.78 105.8 1255.25 105.8C1247.92 105.8 1242.12 108.2 1237.85 113C1233.58 117.667 1231.45 124.667 1231.45 134V188H1200.25V131.2C1200.25 114.267 1193.45 105.8 1179.85 105.8C1172.65 105.8 1166.92 108.2 1162.65 113C1158.38 117.667 1156.25 124.667 1156.25 134V188H1125.05V80.4H1154.85V92.8C1158.85 88.2667 1163.72 84.8 1169.45 82.4C1175.32 80 1181.72 78.8 1188.65 78.8C1196.25 78.8 1203.12 80.3333 1209.25 83.4C1215.38 86.3333 1220.32 90.6667 1224.05 96.4C1228.45 90.8 1233.98 86.4667 1240.65 83.4C1247.45 80.3333 1254.85 78.8 1262.85 78.8ZM1465.41 48V188H1433.01V130.6H1369.41V188H1337.01V48H1369.41V103.2H1433.01V48H1465.41ZM1496.34 80.4H1527.54V188H1496.34V80.4ZM1511.94 65.4C1506.2 65.4 1501.54 63.7333 1497.94 60.4C1494.34 57.0667 1492.54 52.9333 1492.54 48C1492.54 43.0667 1494.34 38.9333 1497.94 35.6C1501.54 32.2667 1506.2 30.6 1511.94 30.6C1517.67 30.6 1522.34 32.2 1525.94 35.4C1529.54 38.6 1531.34 42.6 1531.34 47.4C1531.34 52.6 1529.54 56.9333 1525.94 60.4C1522.34 63.7333 1517.67 65.4 1511.94 65.4ZM1663.29 80.4L1617.89 188H1585.69L1540.49 80.4H1572.69L1602.49 153.6L1633.29 80.4H1663.29ZM1727.3 164.6C1732.9 164.6 1737.83 163.8 1742.1 162.2C1746.5 160.467 1750.56 157.8 1754.3 154.2L1770.9 172.2C1760.76 183.8 1745.96 189.6 1726.5 189.6C1714.36 189.6 1703.63 187.267 1694.3 182.6C1684.96 177.8 1677.76 171.2 1672.7 162.8C1667.63 154.4 1665.1 144.867 1665.1 134.2C1665.1 123.667 1667.56 114.2 1672.5 105.8C1677.56 97.2667 1684.43 90.6667 1693.1 86C1701.9 81.2 1711.76 78.8 1722.7 78.8C1732.96 78.8 1742.3 81 1750.7 85.4C1759.1 89.6667 1765.76 95.9333 1770.7 104.2C1775.76 112.333 1778.3 122 1778.3 133.2L1698.7 148.6C1700.96 153.933 1704.5 157.933 1709.3 160.6C1714.23 163.267 1720.23 164.6 1727.3 164.6ZM1722.7 102.4C1714.83 102.4 1708.43 104.933 1703.5 110C1698.56 115.067 1695.96 122.067 1695.7 131L1748.1 120.8C1746.63 115.2 1743.63 110.733 1739.1 107.4C1734.56 104.067 1729.1 102.4 1722.7 102.4Z" fill="url(#paint3_linear_17_2330)"/>
<path d="M461.9 151L462.79 151.457L462.792 151.452L461.9 151ZM440.5 175.8L439.913 174.99L439.908 174.994L440.5 175.8ZM409.1 189L408.923 188.016L408.1 188.164V189H409.1ZM409.1 215V216H410.1V215H409.1ZM376.5 215H375.5V216H376.5V215ZM376.5 189H377.5V188.165L376.679 188.016L376.5 189ZM345.1 175.8L344.508 176.606L344.513 176.61L345.1 175.8ZM323.9 150.8L324.792 150.348L323.9 150.8ZM326.1 81L325.243 80.484L325.242 80.487L326.1 81ZM353.5 55L353.029 54.1179L353.025 54.1202L353.5 55ZM459.5 81L458.643 81.516L458.646 81.5206L459.5 81ZM407.7 160.6H406.7V161.961L407.999 161.554L407.7 160.6ZM428.9 145.2L429.721 145.772L429.725 145.765L428.9 145.2ZM430.9 94.8L430.023 95.2812L430.027 95.2878L430.031 95.2943L430.9 94.8ZM415.3 79L414.798 79.865L414.805 79.8688L414.811 79.8725L415.3 79ZM370.5 79L370.989 79.8725L370.995 79.8688L371.002 79.865L370.5 79ZM354.7 94.8L353.831 94.3057L353.827 94.3122L353.823 94.3187L354.7 94.8ZM356.7 145L355.872 145.562L355.879 145.571L356.7 145ZM377.7 160.6L377.384 161.549L378.7 161.987V160.6H377.7ZM377.7 131.8V130.8H376.7V131.8H377.7ZM407.7 131.8H408.7V130.8H407.7V131.8ZM468.5 118C468.5 129.854 465.999 140.698 461.008 150.548L462.792 151.452C467.935 141.302 470.5 130.146 470.5 118H468.5ZM461.01 150.543C456.017 160.267 448.989 168.413 439.913 174.99L441.087 176.61C450.411 169.853 457.649 161.467 462.79 151.457L461.01 150.543ZM439.908 174.994C430.973 181.564 420.65 185.908 408.923 188.016L409.277 189.984C421.283 187.826 431.894 183.369 441.092 176.606L439.908 174.994ZM408.1 189V215H410.1V189H408.1ZM409.1 214H376.5V216H409.1V214ZM377.5 215V189H375.5V215H377.5ZM376.679 188.016C365.085 185.908 354.76 181.565 345.687 174.99L344.513 176.61C353.84 183.369 364.448 187.825 376.321 189.984L376.679 188.016ZM345.692 174.994C336.751 168.42 329.788 160.208 324.792 150.348L323.008 151.252C328.146 161.392 335.315 169.847 344.508 176.606L345.692 174.994ZM324.792 150.348C319.8 140.496 317.3 129.719 317.3 118H315.3C315.3 130.014 317.866 141.104 323.008 151.252L324.792 150.348ZM317.3 118C317.3 104.433 320.525 92.2791 326.958 81.513L325.242 80.487C318.608 91.5875 315.3 104.101 315.3 118H317.3ZM326.957 81.516C333.529 70.6058 342.529 62.0633 353.975 55.8798L353.025 54.1202C341.271 60.47 332.004 69.2609 325.243 80.484L326.957 81.516ZM353.971 55.8821C365.546 49.6998 378.515 46.6 392.9 46.6V44.6C378.218 44.6 364.92 47.7668 353.029 54.1179L353.971 55.8821ZM392.9 46.6C407.285 46.6 420.185 49.6999 431.625 55.8798L432.575 54.1202C420.815 47.7668 407.582 44.6 392.9 44.6V46.6ZM431.625 55.8798C443.071 62.0633 452.071 70.6058 458.643 81.516L460.357 80.484C453.596 69.2609 444.329 60.47 432.575 54.1202L431.625 55.8798ZM458.646 81.5206C465.21 92.2857 468.5 104.436 468.5 118H470.5C470.5 104.097 467.123 91.5809 460.354 80.4794L458.646 81.5206ZM407.999 161.554C417.137 158.69 424.39 153.426 429.721 145.771L428.079 144.629C423.01 151.908 416.129 156.91 407.401 159.646L407.999 161.554ZM429.725 145.765C435.055 137.975 437.7 128.705 437.7 118H435.7C435.7 128.362 433.145 137.225 428.075 144.635L429.725 145.765ZM437.7 118C437.7 109.179 435.731 101.272 431.769 94.3057L430.031 95.2943C433.803 101.928 435.7 109.487 435.7 118H437.7ZM431.777 94.3187C427.955 87.3572 422.621 81.9538 415.789 78.1275L414.811 79.8725C421.312 83.5129 426.379 88.6428 430.023 95.2812L431.777 94.3187ZM415.802 78.135C408.972 74.1735 401.33 72.2 392.9 72.2V74.2C401.004 74.2 408.295 76.0932 414.798 79.865L415.802 78.135ZM392.9 72.2C384.47 72.2 376.828 74.1735 369.998 78.135L371.002 79.865C377.505 76.0932 384.796 74.2 392.9 74.2V72.2ZM370.011 78.1275C363.182 81.9521 357.785 87.3513 353.831 94.3057L355.569 95.2943C359.348 88.6487 364.485 83.5146 370.989 79.8725L370.011 78.1275ZM353.823 94.3187C350 101.283 348.1 109.185 348.1 118H350.1C350.1 109.481 351.933 101.917 355.577 95.2812L353.823 94.3187ZM348.1 118C348.1 128.699 350.676 137.903 355.873 145.562L357.527 144.438C352.591 137.164 350.1 128.367 350.1 118H348.1ZM355.879 145.571C361.205 153.219 368.384 158.549 377.384 161.549L378.016 159.651C369.416 156.785 362.595 151.715 357.521 144.429L355.879 145.571ZM378.7 160.6V131.8H376.7V160.6H378.7ZM377.7 132.8H407.7V130.8H377.7V132.8ZM406.7 131.8V160.6H408.7V131.8H406.7ZM600.05 80.4H601.05V79.4H600.05V80.4ZM600.05 188V189H601.05V188H600.05ZM570.45 188H569.45V189H570.45V188ZM570.45 175.2H571.45V172.563L569.701 174.537L570.45 175.2ZM555.65 186L556.036 186.922L556.045 186.919L556.054 186.915L555.65 186ZM503.45 177.4L504.151 176.687L503.45 177.4ZM491.05 80.4V79.4H490.05V80.4H491.05ZM522.25 80.4H523.25V79.4H522.25V80.4ZM562.05 155.4L562.777 156.087L562.786 156.077L562.05 155.4ZM568.85 80.4V79.4H567.85V80.4H568.85ZM599.05 80.4V188H601.05V80.4H599.05ZM600.05 187H570.45V189H600.05V187ZM571.45 188V175.2H569.45V188H571.45ZM569.701 174.537C565.664 179.095 560.848 182.61 555.246 185.085L556.054 186.915C561.918 184.324 566.969 180.638 571.199 175.863L569.701 174.537ZM555.264 185.078C549.661 187.423 543.594 188.6 537.05 188.6V190.6C543.84 190.6 550.172 189.377 556.036 186.922L555.264 185.078ZM537.05 188.6C523.118 188.6 512.192 184.598 504.151 176.687L502.749 178.113C511.242 186.469 522.715 190.6 537.05 190.6V188.6ZM504.151 176.687C496.139 168.804 492.05 157.036 492.05 141.2H490.05C490.05 157.364 494.228 169.729 502.749 178.113L504.151 176.687ZM492.05 141.2V80.4H490.05V141.2H492.05ZM491.05 81.4H522.25V79.4H491.05V81.4ZM521.25 80.4V136.6H523.25V80.4H521.25ZM521.25 136.6C521.25 145.382 523.087 152.155 526.934 156.742C530.809 161.364 536.578 163.6 544.05 163.6V161.6C536.988 161.6 531.858 159.503 528.466 155.457C525.046 151.378 523.25 145.151 523.25 136.6H521.25ZM544.05 163.6C551.752 163.6 558.029 161.114 562.777 156.087L561.323 154.713C557.004 159.286 551.281 161.6 544.05 161.6V163.6ZM562.786 156.077C567.55 150.892 569.85 143.343 569.85 133.6H567.85C567.85 143.057 565.616 150.041 561.314 154.723L562.786 156.077ZM569.85 133.6V80.4H567.85V133.6H569.85ZM568.85 81.4H600.05V79.4H568.85V81.4ZM738.155 80.4H739.155V79.4H738.155V80.4ZM738.155 188V189H739.155V188H738.155ZM708.355 188H707.355V189H708.355V188ZM708.355 175.6H709.355V172.826L707.585 174.962L708.355 175.6ZM647.155 182.8L646.668 183.673L646.674 183.677L647.155 182.8ZM627.955 163.4L627.081 163.886L627.955 163.4ZM627.955 105L627.081 104.514L627.955 105ZM647.155 85.6L646.674 84.7232L646.668 84.7265L647.155 85.6ZM706.955 91.8L706.209 92.4658L707.955 94.4227V91.8H706.955ZM706.955 80.4V79.4H705.955V80.4H706.955ZM699.755 156L700.471 156.698L700.479 156.689L699.755 156ZM699.755 112.6L699.03 113.289L699.039 113.298L699.755 112.6ZM660.355 112.6L661.071 113.298L661.079 113.289L660.355 112.6ZM660.355 156L659.63 156.689L659.639 156.698L660.355 156ZM737.155 80.4V188H739.155V80.4H737.155ZM738.155 187H708.355V189H738.155V187ZM709.355 188V175.6H707.355V188H709.355ZM707.585 174.962C700.081 184.018 689.192 188.6 674.755 188.6V190.6C689.65 190.6 701.161 185.849 709.125 176.238L707.585 174.962ZM674.755 188.6C664.776 188.6 655.744 186.37 647.636 181.923L646.674 183.677C655.099 188.297 664.466 190.6 674.755 190.6V188.6ZM647.642 181.927C639.676 177.487 633.408 171.157 628.829 162.914L627.081 163.886C631.835 172.443 638.366 179.046 646.668 183.673L647.642 181.927ZM628.829 162.914C624.257 154.684 621.955 145.123 621.955 134.2H619.955C619.955 145.411 622.32 155.316 627.081 163.886L628.829 162.914ZM621.955 134.2C621.955 123.277 624.257 113.716 628.829 105.486L627.081 104.514C622.32 113.084 619.955 122.989 619.955 134.2H621.955ZM628.829 105.486C633.408 97.243 639.676 90.9131 647.642 86.4735L646.668 84.7265C638.366 89.3535 631.835 95.957 627.081 104.514L628.829 105.486ZM647.636 86.4768C655.744 82.0303 664.776 79.8 674.755 79.8V77.8C664.466 77.8 655.099 80.103 646.674 84.7232L647.636 86.4768ZM674.755 79.8C688.26 79.8 698.7 84.0508 706.209 92.4658L707.701 91.1342C699.743 82.2159 688.716 77.8 674.755 77.8V79.8ZM707.955 91.8V80.4H705.955V91.8H707.955ZM706.955 81.4H738.155V79.4H706.955V81.4ZM680.155 165C688.274 165 695.071 162.236 700.471 156.698L699.039 155.302C694.038 160.43 687.769 163 680.155 163V165ZM700.479 156.689C705.891 151 708.555 143.468 708.555 134.2H706.555C706.555 143.065 704.019 150.066 699.03 155.311L700.479 156.689ZM708.555 134.2C708.555 124.933 705.891 117.461 700.471 111.902L699.039 113.298C704.019 118.406 706.555 125.334 706.555 134.2H708.555ZM700.479 111.911C695.082 106.236 688.282 103.4 680.155 103.4V105.4C687.761 105.4 694.028 108.03 699.03 113.289L700.479 111.911ZM680.155 103.4C671.899 103.4 665.031 106.233 659.63 111.911L661.079 113.289C666.078 108.034 672.41 105.4 680.155 105.4V103.4ZM659.639 111.902C654.219 117.461 651.555 124.933 651.555 134.2H653.555C653.555 125.334 656.091 118.406 661.071 113.298L659.639 111.902ZM651.555 134.2C651.555 143.468 654.219 151 659.63 156.689L661.079 155.311C656.091 150.066 653.555 143.065 653.555 134.2H651.555ZM659.639 156.698C665.042 162.24 671.907 165 680.155 165V163C672.402 163 666.068 160.427 661.071 155.302L659.639 156.698ZM864.641 90.8L863.939 91.5129L863.945 91.5186L864.641 90.8ZM877.041 188V189H878.041V188H877.041ZM845.841 188H844.841V189H845.841V188ZM840.241 112.2L839.488 112.859L839.493 112.864L839.499 112.87L840.241 112.2ZM805.241 113.2L805.958 113.897L805.967 113.887L805.241 113.2ZM798.241 188V189H799.241V188H798.241ZM767.041 188H766.041V189H767.041V188ZM767.041 80.4V79.4H766.041V80.4H767.041ZM796.841 80.4H797.841V79.4H796.841V80.4ZM796.841 93H795.841V95.581L797.58 93.6738L796.841 93ZM812.241 82.6L812.605 83.5312L812.614 83.5278L812.622 83.5243L812.241 82.6ZM832.441 79.8C845.559 79.8 856.025 83.7278 863.939 91.5129L865.342 90.0871C856.99 81.8722 845.989 77.8 832.441 77.8V79.8ZM863.945 91.5186C871.954 99.2692 876.041 110.835 876.041 126.4H878.041C878.041 110.498 873.86 98.3308 865.336 90.0814L863.945 91.5186ZM876.041 126.4V188H878.041V126.4H876.041ZM877.041 187H845.841V189H877.041V187ZM846.841 188V131.2H844.841V188H846.841ZM846.841 131.2C846.841 122.546 844.951 115.923 840.983 111.53L839.499 112.87C842.997 116.743 844.841 122.787 844.841 131.2H846.841ZM840.993 111.541C837.025 107.006 831.319 104.8 824.041 104.8V106.8C830.896 106.8 835.99 108.861 839.488 112.859L840.993 111.541ZM824.041 104.8C815.947 104.8 809.4 107.348 804.514 112.513L805.967 113.887C810.415 109.186 816.401 106.8 824.041 106.8V104.8ZM804.524 112.503C799.609 117.557 797.241 125.053 797.241 134.8H799.241C799.241 125.347 801.538 118.443 805.958 113.897L804.524 112.503ZM797.241 134.8V188H799.241V134.8H797.241ZM798.241 187H767.041V189H798.241V187ZM768.041 188V80.4H766.041V188H768.041ZM767.041 81.4H796.841V79.4H767.041V81.4ZM795.841 80.4V93H797.841V80.4H795.841ZM797.58 93.6738C801.602 89.2621 806.604 85.8795 812.605 83.5312L811.876 81.6688C805.611 84.1205 800.346 87.6712 796.102 92.3262L797.58 93.6738ZM812.622 83.5243C818.623 81.0459 825.224 79.8 832.441 79.8V77.8C824.99 77.8 818.125 79.0874 811.859 81.6757L812.622 83.5243ZM970.122 182.8L970.716 183.604L971.322 183.156L971.059 182.451L970.122 182.8ZM958.722 188L958.957 188.972L958.968 188.969L958.978 188.967L958.722 188ZM915.122 179.8L914.436 180.528L915.122 179.8ZM904.722 56.6V55.6H903.722V56.6H904.722ZM935.922 56.6H936.922V55.6H935.922V56.6ZM935.922 82.8H934.922V83.8H935.922V82.8ZM962.522 82.8H963.522V81.8H962.522V82.8ZM962.522 106.8V107.8H963.522V106.8H962.522ZM935.922 106.8V105.8H934.922V106.8H935.922ZM939.322 161.2L938.577 161.867L938.586 161.877L938.595 161.887L939.322 161.2ZM961.922 160.8L962.859 160.451L962.403 159.227L961.341 159.986L961.922 160.8ZM969.527 181.996C966.583 184.172 962.904 185.858 958.466 187.033L958.978 188.967C963.606 187.742 967.528 185.961 970.716 183.604L969.527 181.996ZM958.486 187.028C954.168 188.075 949.647 188.6 944.922 188.6V190.6C949.797 190.6 954.476 190.058 958.957 188.972L958.486 187.028ZM944.922 188.6C932.151 188.6 922.497 185.376 915.808 179.072L914.436 180.528C921.613 187.291 931.826 190.6 944.922 190.6V188.6ZM915.808 179.072C909.135 172.784 905.722 163.486 905.722 151H903.722C903.722 163.847 907.242 173.749 914.436 180.528L915.808 179.072ZM905.722 151V56.6H903.722V151H905.722ZM904.722 57.6H935.922V55.6H904.722V57.6ZM934.922 56.6V82.8H936.922V56.6H934.922ZM935.922 83.8H962.522V81.8H935.922V83.8ZM961.522 82.8V106.8H963.522V82.8H961.522ZM962.522 105.8H935.922V107.8H962.522V105.8ZM934.922 106.8V150.6H936.922V106.8H934.922ZM934.922 150.6C934.922 155.296 936.098 159.096 938.577 161.867L940.067 160.533C938.013 158.237 936.922 154.971 936.922 150.6H934.922ZM938.595 161.887C941.102 164.541 944.665 165.8 949.122 165.8V163.8C945.046 163.8 942.075 162.659 940.049 160.513L938.595 161.887ZM949.122 165.8C954.12 165.8 958.592 164.407 962.503 161.614L961.341 159.986C957.785 162.526 953.724 163.8 949.122 163.8V165.8ZM960.985 161.149L969.185 183.149L971.059 182.451L962.859 160.451L960.985 161.149ZM1096.14 80.4H1097.14V79.4H1096.14V80.4ZM1096.14 188V189H1097.14V188H1096.14ZM1066.54 188H1065.54V189H1066.54V188ZM1066.54 175.2H1067.54V172.563L1065.8 174.537L1066.54 175.2ZM1051.74 186L1052.13 186.922L1052.14 186.919L1052.15 186.915L1051.74 186ZM999.544 177.4L1000.25 176.687L999.544 177.4ZM987.144 80.4V79.4H986.144V80.4H987.144ZM1018.34 80.4H1019.34V79.4H1018.34V80.4ZM1058.14 155.4L1058.87 156.087L1058.88 156.077L1058.14 155.4ZM1064.94 80.4V79.4H1063.94V80.4H1064.94ZM1095.14 80.4V188H1097.14V80.4H1095.14ZM1096.14 187H1066.54V189H1096.14V187ZM1067.54 188V175.2H1065.54V188H1067.54ZM1065.8 174.537C1061.76 179.095 1056.94 182.61 1051.34 185.085L1052.15 186.915C1058.01 184.324 1063.06 180.638 1067.29 175.863L1065.8 174.537ZM1051.36 185.078C1045.76 187.423 1039.69 188.6 1033.14 188.6V190.6C1039.93 190.6 1046.27 189.377 1052.13 186.922L1051.36 185.078ZM1033.14 188.6C1019.21 188.6 1008.29 184.598 1000.25 176.687L998.842 178.113C1007.34 186.469 1018.81 190.6 1033.14 190.6V188.6ZM1000.25 176.687C992.233 168.804 988.144 157.036 988.144 141.2H986.144C986.144 157.364 990.321 169.729 998.842 178.113L1000.25 176.687ZM988.144 141.2V80.4H986.144V141.2H988.144ZM987.144 81.4H1018.34V79.4H987.144V81.4ZM1017.34 80.4V136.6H1019.34V80.4H1017.34ZM1017.34 136.6C1017.34 145.382 1019.18 152.155 1023.03 156.742C1026.9 161.364 1032.67 163.6 1040.14 163.6V161.6C1033.08 161.6 1027.95 159.503 1024.56 155.457C1021.14 151.378 1019.34 145.151 1019.34 136.6H1017.34ZM1040.14 163.6C1047.85 163.6 1054.12 161.114 1058.87 156.087L1057.42 154.713C1053.1 159.286 1047.37 161.6 1040.14 161.6V163.6ZM1058.88 156.077C1063.64 150.892 1065.94 143.343 1065.94 133.6H1063.94C1063.94 143.057 1061.71 150.041 1057.41 154.723L1058.88 156.077ZM1065.94 133.6V80.4H1063.94V133.6H1065.94ZM1064.94 81.4H1096.14V79.4H1064.94V81.4ZM1294.85 90.8L1294.14 91.5011L1294.14 91.5071L1294.15 91.513L1294.85 90.8ZM1306.85 188V189H1307.85V188H1306.85ZM1275.65 188H1274.65V189H1275.65V188ZM1270.25 112.2L1269.47 112.831L1269.48 112.844L1269.49 112.857L1270.25 112.2ZM1237.85 113L1238.59 113.675L1238.6 113.664L1237.85 113ZM1231.45 188V189H1232.45V188H1231.45ZM1200.25 188H1199.25V189H1200.25V188ZM1162.65 113L1163.39 113.675L1163.4 113.664L1162.65 113ZM1156.25 188V189H1157.25V188H1156.25ZM1125.05 188H1124.05V189H1125.05V188ZM1125.05 80.4V79.4H1124.05V80.4H1125.05ZM1154.85 80.4H1155.85V79.4H1154.85V80.4ZM1154.85 92.8H1153.85V95.4448L1155.6 93.4616L1154.85 92.8ZM1169.45 82.4L1169.07 81.4744L1169.06 81.4776L1169.45 82.4ZM1209.25 83.4L1208.8 84.2944L1208.81 84.2984L1208.82 84.3021L1209.25 83.4ZM1224.05 96.4L1223.21 96.9457L1223.97 98.1156L1224.83 97.0178L1224.05 96.4ZM1240.65 83.4L1240.24 82.4884L1240.23 82.4915L1240.65 83.4ZM1262.85 79.8C1276.1 79.8 1286.49 83.7298 1294.14 91.5011L1295.56 90.0988C1287.47 81.8702 1276.53 77.8 1262.85 77.8V79.8ZM1294.15 91.513C1301.89 99.1252 1305.85 110.689 1305.85 126.4H1307.85C1307.85 110.378 1303.81 98.2081 1295.55 90.087L1294.15 91.513ZM1305.85 126.4V188H1307.85V126.4H1305.85ZM1306.85 187H1275.65V189H1306.85V187ZM1276.65 188V131.2H1274.65V188H1276.65ZM1276.65 131.2C1276.65 122.554 1274.83 115.936 1271 111.543L1269.49 112.857C1272.87 116.73 1274.65 122.78 1274.65 131.2H1276.65ZM1271.02 111.569C1267.33 107.024 1262.02 104.8 1255.25 104.8V106.8C1261.54 106.8 1266.23 108.843 1269.47 112.831L1271.02 111.569ZM1255.25 104.8C1247.67 104.8 1241.59 107.291 1237.1 112.336L1238.6 113.664C1242.64 109.109 1248.16 106.8 1255.25 106.8V104.8ZM1237.11 112.325C1232.61 117.247 1230.45 124.534 1230.45 134H1232.45C1232.45 124.8 1234.55 118.086 1238.59 113.675L1237.11 112.325ZM1230.45 134V188H1232.45V134H1230.45ZM1231.45 187H1200.25V189H1231.45V187ZM1201.25 188V131.2H1199.25V188H1201.25ZM1201.25 131.2C1201.25 122.626 1199.53 116.01 1195.93 111.524C1192.29 106.996 1186.87 104.8 1179.85 104.8V106.8C1186.43 106.8 1191.21 108.838 1194.37 112.776C1197.57 116.757 1199.25 122.841 1199.25 131.2H1201.25ZM1179.85 104.8C1172.4 104.8 1166.38 107.295 1161.9 112.336L1163.4 113.664C1167.45 109.105 1172.9 106.8 1179.85 106.8V104.8ZM1161.91 112.325C1157.41 117.247 1155.25 124.534 1155.25 134H1157.25C1157.25 124.8 1159.35 118.086 1163.39 113.675L1161.91 112.325ZM1155.25 134V188H1157.25V134H1155.25ZM1156.25 187H1125.05V189H1156.25V187ZM1126.05 188V80.4H1124.05V188H1126.05ZM1125.05 81.4H1154.85V79.4H1125.05V81.4ZM1153.85 80.4V92.8H1155.85V80.4H1153.85ZM1155.6 93.4616C1159.5 89.0448 1164.24 85.6658 1169.83 83.3224L1169.06 81.4776C1163.19 83.9342 1158.2 87.4885 1154.1 92.1384L1155.6 93.4616ZM1169.83 83.3255C1175.56 80.9791 1181.83 79.8 1188.65 79.8V77.8C1181.6 77.8 1175.07 79.0209 1169.07 81.4745L1169.83 83.3255ZM1188.65 79.8C1196.11 79.8 1202.82 81.3044 1208.8 84.2944L1209.7 82.5056C1203.41 79.3622 1196.39 77.8 1188.65 77.8V79.8ZM1208.82 84.3021C1214.78 87.1557 1219.58 91.3652 1223.21 96.9457L1224.89 95.8543C1221.05 89.9681 1215.98 85.511 1209.68 82.4979L1208.82 84.3021ZM1224.83 97.0178C1229.13 91.5464 1234.54 87.3109 1241.07 84.3085L1240.23 82.4915C1233.42 85.6224 1227.76 90.0536 1223.26 95.7822L1224.83 97.0178ZM1241.06 84.3116C1247.72 81.3073 1254.98 79.8 1262.85 79.8V77.8C1254.72 77.8 1247.18 79.3593 1240.24 82.4884L1241.06 84.3116ZM1465.41 48H1466.41V47H1465.41V48ZM1465.41 188V189H1466.41V188H1465.41ZM1433.01 188H1432.01V189H1433.01V188ZM1433.01 130.6H1434.01V129.6H1433.01V130.6ZM1369.41 130.6V129.6H1368.41V130.6H1369.41ZM1369.41 188V189H1370.41V188H1369.41ZM1337.01 188H1336.01V189H1337.01V188ZM1337.01 48V47H1336.01V48H1337.01ZM1369.41 48H1370.41V47H1369.41V48ZM1369.41 103.2H1368.41V104.2H1369.41V103.2ZM1433.01 103.2V104.2H1434.01V103.2H1433.01ZM1433.01 48V47H1432.01V48H1433.01ZM1464.41 48V188H1466.41V48H1464.41ZM1465.41 187H1433.01V189H1465.41V187ZM1434.01 188V130.6H1432.01V188H1434.01ZM1433.01 129.6H1369.41V131.6H1433.01V129.6ZM1368.41 130.6V188H1370.41V130.6H1368.41ZM1369.41 187H1337.01V189H1369.41V187ZM1338.01 188V48H1336.01V188H1338.01ZM1337.01 49H1369.41V47H1337.01V49ZM1368.41 48V103.2H1370.41V48H1368.41ZM1369.41 104.2H1433.01V102.2H1369.41V104.2ZM1434.01 103.2V48H1432.01V103.2H1434.01ZM1433.01 49H1465.41V47H1433.01V49ZM1496.34 80.4V79.4H1495.34V80.4H1496.34ZM1527.54 80.4H1528.54V79.4H1527.54V80.4ZM1527.54 188V189H1528.54V188H1527.54ZM1496.34 188H1495.34V189H1496.34V188ZM1497.94 60.4L1497.26 61.1338L1497.94 60.4ZM1497.94 35.6L1498.62 36.3338L1497.94 35.6ZM1525.94 35.4L1525.27 36.1474L1525.94 35.4ZM1525.94 60.4L1526.62 61.1338L1526.62 61.1271L1526.63 61.1203L1525.94 60.4ZM1496.34 81.4H1527.54V79.4H1496.34V81.4ZM1526.54 80.4V188H1528.54V80.4H1526.54ZM1527.54 187H1496.34V189H1527.54V187ZM1497.34 188V80.4H1495.34V188H1497.34ZM1511.94 64.4C1506.41 64.4 1502 62.7999 1498.62 59.6662L1497.26 61.1338C1501.07 64.6667 1506 66.4 1511.94 66.4V64.4ZM1498.62 59.6662C1495.22 56.5233 1493.54 52.6565 1493.54 48H1491.54C1491.54 53.2101 1493.45 57.61 1497.26 61.1338L1498.62 59.6662ZM1493.54 48C1493.54 43.3435 1495.22 39.4766 1498.62 36.3338L1497.26 34.8662C1493.45 38.39 1491.54 42.7898 1491.54 48H1493.54ZM1498.62 36.3338C1502 33.2 1506.41 31.6 1511.94 31.6V29.6C1506 29.6 1501.07 31.3333 1497.26 34.8662L1498.62 36.3338ZM1511.94 31.6C1517.48 31.6 1521.89 33.14 1525.27 36.1474L1526.6 34.6526C1522.79 31.2599 1517.87 29.6 1511.94 29.6V31.6ZM1525.27 36.1474C1528.66 39.1584 1530.34 42.8868 1530.34 47.4H1532.34C1532.34 42.3132 1530.41 38.0416 1526.6 34.6526L1525.27 36.1474ZM1530.34 47.4C1530.34 52.3406 1528.64 56.4099 1525.24 59.6797L1526.63 61.1203C1530.44 57.4568 1532.34 52.8594 1532.34 47.4H1530.34ZM1525.26 59.6662C1521.87 62.7999 1517.46 64.4 1511.94 64.4V66.4C1517.88 66.4 1522.8 64.6667 1526.62 61.1338L1525.26 59.6662ZM1663.29 80.4L1664.22 80.7887L1664.8 79.4H1663.29V80.4ZM1617.89 188V189H1618.56L1618.82 188.389L1617.89 188ZM1585.69 188L1584.77 188.387L1585.03 189H1585.69V188ZM1540.49 80.4V79.4H1538.99L1539.57 80.7873L1540.49 80.4ZM1572.69 80.4L1573.62 80.0229L1573.37 79.4H1572.69V80.4ZM1602.49 153.6L1601.57 153.977L1602.48 156.215L1603.42 153.988L1602.49 153.6ZM1633.29 80.4V79.4H1632.63L1632.37 80.0122L1633.29 80.4ZM1662.37 80.0112L1616.97 187.611L1618.82 188.389L1664.22 80.7887L1662.37 80.0112ZM1617.89 187H1585.69V189H1617.89V187ZM1586.62 187.613L1541.42 80.0127L1539.57 80.7873L1584.77 188.387L1586.62 187.613ZM1540.49 81.4H1572.69V79.4H1540.49V81.4ZM1571.77 80.7771L1601.57 153.977L1603.42 153.223L1573.62 80.0229L1571.77 80.7771ZM1603.42 153.988L1634.22 80.7878L1632.37 80.0122L1601.57 153.212L1603.42 153.988ZM1633.29 81.4H1663.29V79.4H1633.29V81.4ZM1742.1 162.2L1742.45 163.136L1742.45 163.133L1742.46 163.13L1742.1 162.2ZM1754.3 154.2L1755.03 153.522L1754.34 152.77L1753.6 153.48L1754.3 154.2ZM1770.9 172.2L1771.65 172.858L1772.24 172.182L1771.63 171.522L1770.9 172.2ZM1694.3 182.6L1693.84 183.489L1693.85 183.494L1694.3 182.6ZM1672.7 162.8L1671.84 163.316L1672.7 162.8ZM1672.5 105.8L1671.64 105.289L1671.63 105.294L1672.5 105.8ZM1693.1 86L1693.57 86.8805L1693.57 86.8779L1693.1 86ZM1750.7 85.4L1750.23 86.2859L1750.24 86.2916L1750.7 85.4ZM1770.7 104.2L1769.84 104.712L1769.84 104.721L1769.85 104.729L1770.7 104.2ZM1778.3 133.2L1778.49 134.182L1779.3 134.025V133.2H1778.3ZM1698.7 148.6L1698.51 147.618L1697.29 147.853L1697.78 148.991L1698.7 148.6ZM1709.3 160.6L1708.81 161.474L1708.82 161.48L1709.3 160.6ZM1703.5 110L1704.21 110.698L1703.5 110ZM1695.7 131L1694.7 130.97L1694.66 132.221L1695.89 131.982L1695.7 131ZM1748.1 120.8L1748.29 121.782L1749.33 121.578L1749.06 120.547L1748.1 120.8ZM1739.1 107.4L1738.5 108.206L1739.1 107.4ZM1727.3 165.6C1732.99 165.6 1738.05 164.787 1742.45 163.136L1741.74 161.264C1737.61 162.813 1732.8 163.6 1727.3 163.6V165.6ZM1742.46 163.13C1747 161.345 1751.17 158.602 1754.99 154.92L1753.6 153.48C1749.95 156.998 1746 159.589 1741.73 161.27L1742.46 163.13ZM1753.56 154.878L1770.16 172.878L1771.63 171.522L1755.03 153.522L1753.56 154.878ZM1770.14 171.542C1760.25 182.87 1745.76 188.6 1726.5 188.6V190.6C1746.17 190.6 1761.28 184.73 1771.65 172.858L1770.14 171.542ZM1726.5 188.6C1714.49 188.6 1703.92 186.292 1694.74 181.706L1693.85 183.494C1703.34 188.241 1714.23 190.6 1726.5 190.6V188.6ZM1694.75 181.711C1685.57 176.989 1678.52 170.513 1673.55 162.284L1671.84 163.316C1677.01 171.887 1684.35 178.611 1693.84 183.489L1694.75 181.711ZM1673.55 162.284C1668.59 154.053 1666.1 144.701 1666.1 134.2H1664.1C1664.1 145.032 1666.67 154.747 1671.84 163.316L1673.55 162.284ZM1666.1 134.2C1666.1 123.83 1668.52 114.54 1673.36 106.306L1671.63 105.294C1666.6 113.86 1664.1 123.504 1664.1 134.2H1666.1ZM1673.36 106.311C1678.33 97.9319 1685.06 91.4604 1693.57 86.8805L1692.62 85.1195C1683.79 89.873 1676.79 96.6015 1671.64 105.289L1673.36 106.311ZM1693.57 86.8779C1702.21 82.1651 1711.91 79.8 1722.7 79.8V77.8C1711.61 77.8 1701.58 80.2348 1692.62 85.1221L1693.57 86.8779ZM1722.7 79.8C1732.81 79.8 1741.99 81.9669 1750.23 86.2858L1751.16 84.5142C1742.6 80.0331 1733.11 77.8 1722.7 77.8V79.8ZM1750.24 86.2916C1758.47 90.4708 1765 96.6042 1769.84 104.712L1771.55 103.688C1766.53 95.2625 1759.72 88.8625 1751.15 84.5084L1750.24 86.2916ZM1769.85 104.729C1774.8 112.678 1777.3 122.155 1777.3 133.2H1779.3C1779.3 121.845 1776.73 111.988 1771.54 103.671L1769.85 104.729ZM1778.11 132.218L1698.51 147.618L1698.89 149.582L1778.49 134.182L1778.11 132.218ZM1697.78 148.991C1700.12 154.517 1703.8 158.693 1708.81 161.474L1709.78 159.726C1705.19 157.174 1701.8 153.349 1699.62 148.209L1697.78 148.991ZM1708.82 161.48C1713.93 164.243 1720.1 165.6 1727.3 165.6V163.6C1720.35 163.6 1714.52 162.29 1709.77 159.72L1708.82 161.48ZM1722.7 101.4C1714.59 101.4 1707.92 104.02 1702.78 109.302L1704.21 110.698C1708.93 105.847 1715.07 103.4 1722.7 103.4V101.4ZM1702.78 109.302C1697.63 114.592 1694.97 121.855 1694.7 130.97L1696.69 131.03C1696.96 122.278 1699.5 115.541 1704.21 110.698L1702.78 109.302ZM1695.89 131.982L1748.29 121.782L1747.9 119.818L1695.5 130.018L1695.89 131.982ZM1749.06 120.547C1747.54 114.732 1744.41 110.068 1739.69 106.594L1738.5 108.206C1742.85 111.399 1745.72 115.668 1747.13 121.053L1749.06 120.547ZM1739.69 106.594C1734.96 103.118 1729.28 101.4 1722.7 101.4V103.4C1728.91 103.4 1734.16 105.016 1738.5 108.206L1739.69 106.594Z" fill="#2A2A2A" mask="url(#path-5-outside-1_17_2330)"/>
<defs>
<linearGradient id="paint0_linear_17_2330" x1="115.082" y1="172.525" x2="82.0411" y2="-96.4378" gradientUnits="userSpaceOnUse">
<stop stop-color="#070707"/>
<stop offset="0.665" stop-color="#2D2E2C"/>
</linearGradient>
<linearGradient id="paint1_linear_17_2330" x1="96.1756" y1="92.3425" x2="145.706" y2="928.603" gradientUnits="userSpaceOnUse">
<stop stop-color="#070707"/>
<stop offset="0.165" stop-color="#2D2E2C"/>
</linearGradient>
<linearGradient id="paint2_linear_17_2330" x1="256.879" y1="161.93" x2="-209.729" y2="-225.124" gradientUnits="userSpaceOnUse">
<stop stop-color="#070707"/>
<stop offset="0.255" stop-color="#2D2E2C"/>
</linearGradient>
<linearGradient id="paint3_linear_17_2330" x1="1048.5" y1="77" x2="1048.5" y2="188.5" gradientUnits="userSpaceOnUse">
<stop stop-color="#2D2E2C"/>
<stop offset="1" stop-color="#070707"/>
</linearGradient>
<clipPath id="clip0_17_2330">
<rect width="268" height="232" fill="white" transform="translate(0.5)"/>
</clipPath>
</defs>
</svg>
