<svg width="295" height="64" viewBox="0 0 295 64" fill="none" xmlns="http://www.w3.org/2000/svg">
<g opacity="0.5">
<mask id="mask0_17_685" style="mask-type:luminance" maskUnits="userSpaceOnUse" x="0" y="0" width="295" height="64">
<path d="M294.318 0H0.5V64H294.318V0Z" fill="white"/>
</mask>
<g mask="url(#mask0_17_685)">
<path d="M29.7602 60.5586C13.0706 60.5586 0.5 47.3493 0.5 31.0412C0.5 14.679 12.4287 1.36084 29.7602 1.36084C38.9608 1.36084 45.3262 4.18754 50.301 10.6564L42.2772 17.3427C38.9073 13.7549 34.8418 11.961 29.7602 11.961C18.4733 11.961 12.2682 20.6042 12.2682 31.0412C12.2682 41.4785 19.0617 49.9585 29.7602 49.9585C34.7883 49.9585 39.0679 48.1647 42.4377 44.577L50.3545 51.5349C45.5938 57.7319 39.0679 60.5586 29.7602 60.5586Z" fill="#ECEDEE"/>
<path d="M84.9108 17.1229H95.716V59.5235H84.9108V53.3265C82.6641 57.7297 78.9195 60.665 71.7518 60.665C60.3045 60.665 51.1572 50.7174 51.1572 38.4864C51.1572 26.2553 60.3045 16.3075 71.7518 16.3075C78.8663 16.3075 82.6641 19.2429 84.9108 23.6461V17.1229ZM85.2317 38.4864C85.2317 31.8545 80.6848 26.3641 73.517 26.3641C66.6164 26.3641 62.123 31.9086 62.123 38.4864C62.123 44.9006 66.6164 50.6086 73.517 50.6086C80.6315 50.6086 85.2317 45.0638 85.2317 38.4864Z" fill="#ECEDEE"/>
<path d="M103.365 0H114.17V59.4697H103.365V0Z" fill="#ECEDEE"/>
<path d="M118.985 53.871C118.985 50.3921 121.766 47.4565 125.564 47.4565C129.362 47.4565 132.037 50.3921 132.037 53.871C132.037 57.4588 129.309 60.3941 125.564 60.3941C121.82 60.3941 118.985 57.4588 118.985 53.871Z" fill="#ECEDEE"/>
<path d="M173.386 52.6743C169.374 57.5665 163.276 60.665 156.055 60.665C143.163 60.665 133.695 50.7174 133.695 38.4864C133.695 26.2553 143.163 16.3075 156.055 16.3075C163.009 16.3075 169.053 19.2429 173.065 23.8635L164.721 30.8759C162.634 28.2667 159.906 26.3097 156.055 26.3097C149.154 26.3097 144.661 31.8545 144.661 38.432C144.661 45.0094 149.154 50.5542 156.055 50.5542C160.227 50.5542 163.116 48.3799 165.255 45.4443L173.386 52.6743Z" fill="#ECEDEE"/>
<path d="M174.295 38.4864C174.295 26.2553 183.763 16.3075 196.655 16.3075C209.547 16.3075 219.015 26.2553 219.015 38.4864C219.015 50.7174 209.547 60.665 196.655 60.665C183.763 60.6106 174.295 50.7174 174.295 38.4864ZM208.049 38.4864C208.049 31.8545 203.555 26.3641 196.655 26.3641C189.755 26.3097 185.261 31.8545 185.261 38.4864C185.261 45.0638 189.755 50.6086 196.655 50.6086C203.555 50.6086 208.049 45.0638 208.049 38.4864Z" fill="#ECEDEE"/>
<path d="M292.084 33.5947V59.4699H281.28V36.2583C281.28 28.9198 277.856 25.7669 272.721 25.7669C267.906 25.7669 264.483 28.1588 264.483 36.2583V59.4699H253.678V36.2583C253.678 28.9198 250.201 25.7669 245.119 25.7669C240.305 25.7669 236.079 28.1588 236.079 36.2583V59.4699H225.273V17.0694H236.079V22.9402C238.325 18.374 242.391 16.0909 248.649 16.0909C254.587 16.0909 259.562 19.0263 262.29 23.973C265.018 18.9176 269.03 16.0909 276.305 16.0909C285.184 16.1453 292.084 22.8858 292.084 33.5947Z" fill="#ECEDEE"/>
</g>
</g>
</svg>
