<svg width="308" height="64" viewBox="0 0 308 64" fill="none" xmlns="http://www.w3.org/2000/svg">
<g opacity="0.5">
<path fill-rule="evenodd" clip-rule="evenodd" d="M167.913 0H160.297V7.61606H167.913V0ZM167.913 12.9501H160.297V51.0496H167.913V12.9501ZM96.9534 17.0669V12.9499L89.3282 12.9857V63.9996H96.9534V46.9324C98.5456 48.5332 100.448 49.7916 102.544 50.6304C104.641 51.4692 106.886 51.8704 109.143 51.8098C120.724 51.8098 128.949 43.6656 128.949 32.004C128.949 20.3424 120.724 12.1891 109.143 12.1891C106.886 12.1285 104.641 12.5302 102.544 13.369C100.448 14.2077 98.5456 15.4661 96.9534 17.0669ZM109.143 44.8026C101.903 44.8026 96.9534 39.692 96.9534 32.004C96.9534 24.3072 101.831 19.1252 109.143 19.1252C116.455 19.1252 121.333 24.3162 121.333 32.004C121.333 39.692 116.383 44.8026 109.143 44.8026ZM174.062 32.0044C174.062 20.4234 182.296 12.1895 193.877 12.1895C205.458 12.1895 213.684 20.4234 213.684 32.0044C213.684 43.5854 205.458 51.8102 193.877 51.8102C182.296 51.8102 174.062 43.657 174.062 32.0044ZM206.066 32.0044C206.066 24.3076 201.19 19.1255 193.877 19.1255C186.565 19.1255 181.679 24.3076 181.679 32.0044C181.679 39.7012 186.637 44.8028 193.877 44.8028C201.118 44.8028 206.066 39.7012 206.066 32.0044ZM227.346 12.9505H219.73L219.704 51.0502H227.32V28.1922C227.32 22.8582 230.676 19.1258 236.162 19.1258C241.416 19.1258 244.844 22.8224 244.844 28.1922V51.0502H252.468V28.1922C252.468 18.8218 246.32 12.1897 237.254 12.1897C235.4 12.1488 233.558 12.5013 231.852 13.2232C230.144 13.9452 228.608 15.0203 227.346 16.3784V12.9505ZM83.2726 51.8196H63.4578C59.5362 51.8212 55.7022 50.6598 52.4408 48.4822C49.1794 46.3046 46.6372 43.2088 45.1356 39.586C43.634 35.9634 43.2408 31.9768 44.0056 28.1306C44.7702 24.2842 46.6582 20.751 49.4312 17.9781C52.204 15.2051 55.7372 13.3169 59.5836 12.5523C63.4298 11.7877 67.4164 12.1813 71.0392 13.6828C74.6618 15.1843 77.7578 17.7264 79.9354 20.9878C82.113 24.2492 83.2742 28.083 83.2726 32.0046V51.8196ZM63.4578 20.2356C61.8856 20.1922 60.3206 20.4646 58.8552 21.0362C57.39 21.608 56.0542 22.4676 54.9268 23.5642C53.7994 24.661 52.9032 25.9728 52.2912 27.4218C51.6794 28.8706 51.3642 30.4274 51.3642 32.0002C51.3642 33.573 51.6794 35.1298 52.2912 36.5786C52.9032 38.0276 53.7994 39.3394 54.9268 40.436C56.0542 41.5328 57.39 42.3924 58.8552 42.9642C60.3206 43.5358 61.8856 43.808 63.4578 43.7646H75.2178V32.0046C75.2154 28.8854 73.976 25.8948 71.7714 23.6884C69.5666 21.482 66.5768 20.2404 63.4578 20.2356ZM20.4868 44.8028C25.1676 44.8028 28.8548 42.7084 30.8954 39.1284H39.1202C36.5068 46.87 29.562 51.8102 20.4868 51.8102C8.90582 51.8102 0.671875 43.5854 0.671875 32.0044C0.671875 20.4234 8.90582 12.1895 20.4868 12.1895C29.4904 12.1895 36.4712 17.1749 39.1024 24.8716H30.9044C28.8638 21.265 25.1676 19.1255 20.4868 19.1255C13.2465 19.1255 8.29712 24.3166 8.29712 32.0044C8.29712 39.6922 13.2465 44.8028 20.4868 44.8028ZM153.58 19.8862V12.9501H141.703V0H134.078V38.2512C134.078 46.7088 138.347 51.0496 146.957 51.0496H153.589V44.042H147.494C143.61 44.042 141.703 42.1354 141.703 38.2512V19.8862H153.58ZM264.99 40.2472L258.984 43.5674C261.982 49.3312 267.514 52.1686 274.692 52.1686C282.908 52.1686 290.004 47.5146 290.004 40.1668C290.004 31.7552 282.64 30.1046 276.398 28.7058C271.81 27.6772 267.826 26.7846 267.826 23.4396C267.826 20.3608 271.058 18.4635 274.61 18.4635C278.164 18.4635 281.324 19.645 282.978 23.0458L288.984 19.6447C286.532 15.1519 281.618 11.8315 274.458 11.8315C266.01 11.8315 260.014 16.8078 260.014 23.5916C260.014 32.0696 267.324 33.651 273.55 34.9978C278.168 35.9968 282.192 36.867 282.192 40.328C282.192 43.7468 278.8 45.5366 274.378 45.5366C270.118 45.5366 266.958 44.1224 264.99 40.2472Z" fill="#ECEDEE"/>
<path d="M299.038 19.6033V14.2521H301.528C302.034 14.2521 302.442 14.3898 302.752 14.6653C303.06 14.9408 303.216 15.2989 303.216 15.7397C303.216 16.4146 302.878 16.8416 302.202 17.0207V17.0413C302.722 17.1791 303.004 17.5647 303.046 18.1983C303.06 18.3223 303.074 18.4669 303.088 18.6322C303.102 18.7975 303.11 18.9215 303.11 19.0041C303.124 19.0868 303.138 19.1763 303.152 19.2727C303.166 19.3554 303.18 19.4242 303.194 19.4793C303.222 19.5207 303.25 19.5482 303.278 19.562V19.6033H302.372C302.272 19.562 302.196 19.1556 302.14 18.3843C302.112 17.7094 301.752 17.3719 301.064 17.3719H299.966V19.6033H299.038ZM299.966 16.6694H301.316C301.964 16.6694 302.286 16.3939 302.286 15.843C302.286 15.2782 301.97 14.9959 301.338 14.9959H299.966V16.6694ZM297.984 20.1198C298.77 20.9326 299.776 21.3388 301 21.3388C302.224 21.3388 303.23 20.9326 304.016 20.1198C304.804 19.3072 305.198 18.2672 305.198 17C305.198 15.7466 304.804 14.7135 304.016 13.9008C303.23 13.0744 302.224 12.6612 301 12.6612C299.776 12.6612 298.77 13.0744 297.984 13.9008C297.196 14.7135 296.802 15.7466 296.802 17C296.802 18.2672 297.196 19.3072 297.984 20.1198ZM304.544 20.5744C303.588 21.5248 302.406 22 301 22C299.594 22 298.406 21.5248 297.434 20.5744C296.478 19.624 296 18.4325 296 17C296 15.5675 296.478 14.376 297.434 13.4256C298.406 12.4752 299.594 12 301 12C302.406 12 303.588 12.4752 304.544 13.4256C305.514 14.376 306 15.5675 306 17C306 18.4325 305.514 19.624 304.544 20.5744Z" fill="#ECEDEE"/>
</g>
</svg>
