<svg width="320" height="64" viewBox="0 0 320 64" fill="none" xmlns="http://www.w3.org/2000/svg">
<g opacity="0.5">
<mask id="mask0_17_639" style="mask-type:luminance" maskUnits="userSpaceOnUse" x="0" y="0" width="60" height="64">
<path d="M59.6369 0.989624H0V63.012H59.6369V0.989624Z" fill="white"/>
</mask>
<g mask="url(#mask0_17_639)">
<path d="M20.0131 28.5822C24.1981 28.5822 27.5907 25.1897 27.5907 21.0047C27.5907 16.8197 24.1981 13.4271 20.0131 13.4271C15.8281 13.4271 12.4355 16.8197 12.4355 21.0047C12.4355 25.1897 15.8281 28.5822 20.0131 28.5822Z" fill="#ECEDEE"/>
<path d="M32.5594 21.6423C32.5594 28.1711 27.2387 33.4812 20.6965 33.4812C15.8626 33.4812 11.9282 37.4076 11.9282 42.2315C11.9282 47.0556 15.8626 50.982 20.6965 50.982C25.5303 50.982 29.4648 47.0556 29.4648 42.2315C29.4648 35.7027 34.7855 30.3928 41.3276 30.3928C46.1615 30.3928 50.0958 26.4664 50.0958 21.6423C50.0958 16.8181 46.1615 12.8917 41.3276 12.8917C36.4937 12.8917 32.5594 16.8181 32.5594 21.6423Z" fill="#ECEDEE"/>
</g>
<path d="M289.128 44.2121V6.94193L284.1 5.52751V2.40403L294.984 0.989624L296.405 2.32089V27.0494L296.109 31.2926L307.703 19.9603L303.031 18.9618V14.968H316.815L318.353 16.2993V18.9618L313.442 19.9603L304.687 27.9335L316.047 44.3301L319.654 44.9193V47.9249H304.45V44.9193L307.94 44.2121L300.132 31.8819L296.168 36.0073L296.345 41.0298V44.3301L300.249 44.9193V47.9249H284.691V44.9193L289.128 44.2121Z" fill="#ECEDEE"/>
<path d="M253.237 20.1263V44.3298L249.451 44.9192V47.9249H264.595V44.9192L260.574 44.2709V22.4522C261.638 21.6665 262.82 21.0771 264.124 20.6842C265.463 20.2913 266.647 20.0949 267.671 20.0949C269.329 20.0949 270.59 20.4092 271.458 21.0378C272.326 21.6665 272.917 22.6487 273.233 23.9846C273.549 25.281 273.707 27.0884 273.707 29.4065V44.2709L269.389 44.9192V47.9249H289.252V43.0907C288.975 43.6454 287.748 44.7549 285.075 44.7549C281.734 44.7549 280.983 42.7579 280.983 40.2619V28.2867C280.983 23.6505 280.292 20.2717 278.912 18.1501C277.572 16.0285 275.204 14.9677 271.814 14.9677C269.803 14.9677 267.633 15.4195 265.306 16.3231C263.019 17.2268 261.124 18.3465 259.627 19.6824V16.2989L258.029 14.9677L249.214 16.2989V18.9615L253.237 20.1263Z" fill="#ECEDEE"/>
<path d="M241.342 3.31873C242.801 3.31873 243.904 3.71162 244.655 4.49741C245.442 5.24391 245.837 6.26541 245.837 7.56197C245.837 9.01567 245.306 10.214 244.239 11.1569C243.174 12.0998 241.933 12.5713 240.512 12.5713C239.29 12.5713 238.225 12.1784 237.318 11.3926C236.45 10.6069 236.017 9.58535 236.017 8.32809C236.017 6.95297 236.57 5.7743 237.673 4.79207C238.778 3.80984 240 3.31873 241.342 3.31873Z" fill="#ECEDEE"/>
<path d="M245.186 40.5947V16.2989L243.471 14.9677L234.182 16.2989V18.9615L238.086 19.9599V44.2709L233.532 44.919V47.9246H253.338V42.9243C253.227 43.5345 252.301 44.7549 249.495 44.7549C245.988 44.7549 245.186 43.0907 245.186 40.5947Z" fill="#ECEDEE"/>
<path d="M202.404 44.2709L202.269 6.59551L197.654 5.35792V2.23443L208.066 0.996826L209.545 2.3207L209.549 14.8499L209.253 19.152C210.831 17.8162 212.625 16.7947 214.637 16.0875C216.649 15.341 218.541 14.9677 220.316 14.9677C222.959 14.9677 224.971 15.5178 226.351 16.6179C227.77 17.718 228.736 19.3485 229.248 21.5093C229.762 23.6704 230.072 26.6299 230.031 30.2446V40.9275C230.031 40.9275 229.781 44.7549 233.792 44.7549C237.299 44.7549 238.136 43.4237 238.136 43.4237V47.9246H218.14V44.919L222.754 44.2709V32.3662C222.754 29.3017 222.564 26.8723 222.328 25.2221C222.091 23.5328 221.519 22.2361 220.612 21.3326C219.704 20.3896 218.264 19.96 216.369 19.96C213.688 19.96 211.462 20.5861 209.608 21.9219L209.68 44.2709L213.348 44.919V47.9246H198.144V44.919L202.404 44.2709Z" fill="#ECEDEE"/>
<path d="M198.087 19.9605V16.2995L196.541 14.9682H188.385V7.24792H184.835C184.835 10.6416 183.178 14.9682 177.085 14.9682V19.9605H181.463V38.8414C181.463 41.9846 182.035 44.2831 183.179 45.7368C184.323 47.1904 186.156 47.9172 188.681 47.9172H202.555V42.925C197.21 46.9188 188.74 44.5464 188.74 39.0183C188.621 37.6039 188.562 35.3841 188.562 32.3588V19.9605H198.087Z" fill="#ECEDEE"/>
<path d="M152.641 57.1773C151.576 57.2166 150.571 57.0988 149.624 56.8236V62.5992C149.822 62.7172 150.236 62.8153 150.867 62.8938C151.537 62.9725 152.168 63.0118 152.76 63.0118C155.323 63.232 161.551 60.782 165.952 49.2213C166.741 47.2569 168.2 43.4457 170.33 37.7881C172.46 32.1305 174.59 26.1284 176.719 19.9599H179.736V14.9677H166.485V18.9615L170.803 19.9599L165.42 38.0238L164 42.7976L162.58 38.0827L156.25 19.9599L160.096 18.9615V16.2989L158.454 14.9677H149.099L146.76 19.3117L148.264 19.9599L158.788 47.9165H161.16C160.214 51.217 158.991 53.543 157.492 54.9969C155.994 56.4505 154.377 57.1773 152.641 57.1773Z" fill="#ECEDEE"/>
<path d="M131.068 19.9599V44.2709L126.808 44.9192V47.9249H146.035V44.9192L138.403 44.1531V21.6241C140.02 20.5632 142.051 20.0328 144.497 20.0328C147.431 20.0328 148.935 21.6241 149.584 23.1217V14.9677C142.621 14.9677 138.558 17.9307 137.398 19.2943V16.2989L135.741 14.9677H126.986V18.9615L131.068 19.9599Z" fill="#ECEDEE"/>
<path d="M91.3477 18.9615V14.9677H103.832L105.487 16.2989V18.9615L102.292 20.0189L107.674 33.9383L110.819 41.6106L113.187 34.6039L117.496 19.9599L113.828 18.9615V14.9677H126.488V18.9615L123.294 19.9599L112.416 47.9165H106.915L94.1873 19.9599L91.3477 18.9615Z" fill="#ECEDEE"/>
<path d="M79.7537 14.9677C83.5397 14.9677 86.4779 16.0874 88.5684 18.3269C90.6981 20.5664 91.7629 23.7094 91.7629 27.7563C91.7629 29.485 91.6248 31.1155 91.3488 32.6478H70.4656C70.5445 36.3016 71.4712 38.1533 73.2462 40.1964C75.0604 42.2393 77.624 43.261 80.9368 43.261C82.396 43.261 83.954 43.1037 85.6103 42.7895C87.2669 42.4358 88.6079 42.0036 89.6331 41.4929L90.8756 44.3217C89.6135 45.4218 87.7795 46.3059 85.3737 46.9736C82.968 47.6023 80.5818 47.9168 78.2155 47.9168C73.4038 47.8773 69.6769 46.3844 67.0343 43.4376C64.392 40.4911 63.0708 37.4803 63.0708 32.4121C63.0708 29.0724 63.7806 26.0866 65.2005 23.454C66.6202 20.7825 68.5923 18.7001 71.1165 17.2071C73.6404 15.7141 76.5195 14.9677 79.7537 14.9677ZM78.393 18.4448C76.2239 18.4448 74.4293 19.3288 73.0094 21.0968C71.6291 22.8648 70.8009 25.4186 70.5247 28.7581H84.3681C84.4075 28.3259 84.4272 27.6776 84.4272 26.8134C84.4272 23.9059 84.0325 21.8982 82.7822 20.4592C81.5318 19.0201 80.3649 18.4448 78.393 18.4448Z" fill="#ECEDEE"/>
<path d="M126.716 19.9599C124.043 19.9599 122.651 21.5131 122.373 22.2897L122.54 14.9677H131.561V24.1201H131.06C131.06 21.4577 130.057 19.9599 126.716 19.9599Z" fill="#ECEDEE"/>
</g>
</svg>
