<svg width="359" height="64" viewBox="0 0 359 64" fill="none" xmlns="http://www.w3.org/2000/svg">
<g opacity="0.5">
<mask id="mask0_17_667" style="mask-type:luminance" maskUnits="userSpaceOnUse" x="0" y="0" width="359" height="64">
<path d="M358.38 0.00219727H0V63.9979H358.38V0.00219727Z" fill="white"/>
</mask>
<g mask="url(#mask0_17_667)">
<path d="M32.2105 63.3516C14.8036 63.3516 0.649902 49.2875 0.649902 31.9916C0.649902 14.7127 14.8036 0.64856 32.2105 0.64856C49.6173 0.64856 63.771 14.7127 63.771 32.0086C63.771 49.2875 49.6002 63.3516 32.2105 63.3516ZM32.2105 1.18826C15.0937 1.18826 1.19386 14.9985 1.19386 32.0086C1.19386 48.9995 15.1108 62.8311 32.2105 62.8311C49.3101 62.8311 63.2292 48.9995 63.2292 32.0086C63.2292 15.0007 49.308 1.18826 32.2105 1.18826Z" fill="#ECEDEE"/>
<path d="M32.2109 55.6997C19.0513 55.6997 8.35119 45.0657 8.35119 31.9914C8.35119 18.9149 19.0491 8.30017 32.2109 8.30017C45.3706 8.30017 56.0536 18.9341 56.0536 31.9914C56.0536 45.0679 45.3535 55.6997 32.2109 55.6997ZM32.2109 8.83987C19.3585 8.83987 8.89516 19.22 8.89516 31.9914C8.89516 44.7607 19.3414 55.16 32.2109 55.16C45.0634 55.16 55.5118 44.7799 55.5118 31.9914C55.5118 19.2392 45.0634 8.83987 32.2109 8.83987ZM10.8278 45.7142L7.80936 47.617L7.57471 47.2394L10.5932 45.3366L10.8278 45.7142ZM9.99588 44.4023L6.7961 45.9467L6.68944 45.7313L8.06108 42.5166L5.67617 43.6664L5.49485 43.2696L8.67544 41.7252L8.76717 41.9235L7.41046 45.1553L9.7975 44.0077L9.99588 44.4023ZM8.11654 40.1445L5.13434 41.1151L5.60364 42.5166L5.22394 42.6424L4.13814 39.4085L4.51785 39.2826L4.98715 40.7012L7.97149 39.7328L8.11654 40.1445ZM7.48298 38.0795L3.99522 38.7622L3.45125 36.0509L3.85016 35.9783L4.3024 38.2779L5.33273 38.0795L5.06181 36.6972L5.45859 36.6247L5.7295 38.007L6.99448 37.7574L6.52518 35.3128L6.92196 35.2424L7.48298 38.0795ZM6.84943 34.5598L3.30833 34.7027L3.2166 32.6911C3.18465 32.3959 3.2688 32.0998 3.45125 31.8655C3.53712 31.7625 3.64486 31.68 3.76663 31.6241C3.88841 31.568 4.02114 31.5396 4.15521 31.5413C4.39592 31.5242 4.63471 31.5946 4.82759 31.7397C5.02045 31.8847 5.15439 32.0947 5.20474 32.3306L6.72357 31.3813L6.74277 31.8655L5.22394 32.8169L5.27727 34.1822L6.83236 34.1097L6.84943 34.5598ZM4.86129 34.2014L4.78877 32.6548C4.79015 32.4746 4.73328 32.2988 4.62664 32.1535C4.56962 32.0989 4.50121 32.0575 4.42636 32.0326C4.35148 32.0074 4.272 31.9993 4.19361 32.0085C4.11114 32.0087 4.02965 32.0266 3.95462 32.0607C3.87958 32.0949 3.8127 32.1448 3.75843 32.2069C3.64985 32.3436 3.59862 32.5172 3.61551 32.6911L3.68804 34.2718L4.86129 34.2014ZM6.76197 30.6262L3.2358 30.2315L3.25287 29.9969L6.14547 28.0215L3.50672 27.7336L3.56005 27.3027L7.08621 27.6973L7.06701 27.9127L4.17441 29.8902L6.8153 30.1953L6.75983 30.6262H6.76197ZM7.17581 27.1576L4.21067 24.5551L4.3024 24.1967L8.18907 23.4416L8.06108 23.9087L7.01368 24.1221L6.50812 26.0099L7.30166 26.7096L7.17581 27.1576ZM6.14547 25.7049L6.56145 24.2138L4.84423 24.5551L6.14547 25.7049ZM8.54958 22.6864L5.63991 21.5196L5.07888 22.9019L4.69917 22.759L5.98335 19.5975L6.36306 19.7405L5.80203 21.1249L8.7117 22.2918L8.54958 22.6864ZM9.45405 20.6748L6.27133 19.0579L6.47185 18.6632L9.65031 20.2802L9.45405 20.6748ZM11.0987 18.0531C10.9706 18.259 10.802 18.4367 10.6033 18.5756C10.4046 18.7146 10.1798 18.8119 9.94255 18.8616C9.70178 18.9073 9.45427 18.9038 9.2149 18.8514C8.97551 18.799 8.7492 18.6987 8.54958 18.5566C8.1297 18.2911 7.83093 17.8712 7.71764 17.3876C7.63177 16.9061 7.73675 16.4102 8.01031 16.0048C8.28389 15.5994 8.70453 15.3165 9.18314 15.216C9.6659 15.1384 10.1602 15.2448 10.5683 15.5142C10.9763 15.7836 11.2684 16.1964 11.3867 16.6708C11.4955 17.155 11.3867 17.6585 11.0987 18.0531ZM10.7553 17.8185C10.8608 17.6691 10.9346 17.4996 10.972 17.3205C11.0094 17.1415 11.0097 16.9567 10.9729 16.7775C10.9288 16.5926 10.8486 16.4183 10.737 16.2646C10.6253 16.1108 10.4844 15.9806 10.3223 15.8815C10.0049 15.6639 9.61741 15.5733 9.23647 15.6277C9.05647 15.6624 8.88511 15.7324 8.7322 15.8334C8.57929 15.9345 8.44785 16.0648 8.34539 16.2168C8.24293 16.3688 8.17149 16.5396 8.13514 16.7192C8.09879 16.8989 8.09828 17.084 8.13361 17.2638C8.33199 18.0169 9.07221 18.5203 9.85083 18.4115C10.0359 18.3862 10.2131 18.32 10.3696 18.2178C10.526 18.1157 10.6577 17.9778 10.7553 17.8185Z" fill="#ECEDEE"/>
<path d="M12.5431 15.8798L9.96191 13.4906L10.1219 13.3306L13.6289 13.4543L11.677 11.6582L11.9842 11.3361L14.5867 13.7423L14.4438 13.9044L10.9176 13.7978L12.8695 15.5918L12.5431 15.8798ZM14.9664 13.3306L14.1345 9.4866L14.4246 9.25195L18.0041 10.9414L17.6244 11.2273L16.6474 10.7793L15.1115 11.9824L15.3291 13.0234L14.9664 13.3306ZM15.0027 11.5515L16.2314 10.6001L14.6422 9.84498L15.0027 11.5515ZM18.4926 10.6705L16.7007 7.61793L17.0826 7.40248L18.6548 10.0967L20.66 8.94691L20.8605 9.30742L18.4926 10.6705ZM23.9344 4.38401C24.4035 4.22462 24.9168 4.2576 25.3615 4.47574C25.574 4.58364 25.7611 4.7355 25.9104 4.92123C26.0597 5.10695 26.1679 5.3223 26.2276 5.553C26.3919 6.00097 26.3364 6.5044 26.121 6.91824C25.9966 7.13105 25.8294 7.31576 25.6301 7.4608C25.4307 7.60581 25.2035 7.70797 24.9626 7.76085L23.4992 8.19176L22.486 4.81705L23.9323 4.38401H23.9344ZM24.0411 4.78079L23.0107 5.08583L23.7872 7.68832L24.8176 7.38541C25.1866 7.29296 25.5049 7.06033 25.705 6.73692C25.7925 6.57612 25.8441 6.39838 25.8567 6.2158C25.8693 6.0332 25.8422 5.85007 25.7775 5.67886C25.7327 5.50072 25.6517 5.33377 25.5392 5.18842C25.427 5.04306 25.2858 4.92245 25.1248 4.83412C24.9567 4.75433 24.7743 4.70856 24.5883 4.6994C24.4022 4.69025 24.2164 4.7179 24.0411 4.78079ZM27.4948 7.1145L27.0425 3.6118L29.0669 3.34302C29.3549 3.28969 29.6642 3.34302 29.916 3.50514C30.1335 3.66726 30.2786 3.91898 30.2957 4.18776C30.3277 4.42407 30.2743 4.66406 30.1453 4.86462C30.0164 5.06518 29.8202 5.21321 29.5917 5.28209L30.6754 6.70279L30.1869 6.75612L29.1032 5.33755L27.7465 5.51674L27.9449 7.0441L27.4948 7.1145ZM27.674 5.1221L29.2291 4.92371C29.4106 4.90556 29.5817 4.83011 29.7176 4.70826C29.7696 4.64735 29.8063 4.575 29.8249 4.49711C29.8434 4.41923 29.8432 4.33806 29.8242 4.26029C29.817 4.17857 29.7922 4.09938 29.7517 4.028C29.7112 3.95663 29.6559 3.89472 29.5896 3.84645C29.4385 3.7538 29.2579 3.72178 29.084 3.75685L27.5118 3.95311L27.674 5.1221ZM31.4711 6.71986L31.3985 3.16383H31.8508L31.9233 6.71986H31.4711ZM34.4512 6.80945L34.1824 6.79238L32.7723 3.12756L33.2416 3.16383L34.3616 6.10763L35.9722 3.39848L36.4607 3.43261L34.4512 6.80945ZM36.6761 7.07823L37.4718 3.64806L40.1831 4.27735L40.0935 4.67199L37.8153 4.13443L37.5806 5.13916L38.9715 5.46341L38.8819 5.85805L37.491 5.5338L37.2009 6.77319L39.6413 7.32995L39.5517 7.72672L36.6761 7.07823ZM40.166 7.94217L41.4673 4.65493L43.3659 5.39088C43.6485 5.48015 43.887 5.67291 44.0336 5.93058C44.1616 6.18016 44.1616 6.46814 44.0528 6.70279C43.9632 6.92462 43.7978 7.10756 43.5862 7.21921C43.3746 7.33089 43.1304 7.36406 42.8966 7.31288L43.1483 9.07276L42.696 8.89358L42.4422 7.1337L41.1601 6.63026L40.5991 8.06803L40.166 7.94217ZM41.286 6.27189L42.7494 6.84571C42.9145 6.91747 43.0979 6.93612 43.2741 6.89904C43.3503 6.86967 43.4192 6.82385 43.4755 6.76487C43.5318 6.70586 43.5747 6.63513 43.6005 6.55773C43.6364 6.48506 43.6549 6.40515 43.6549 6.32415C43.6549 6.24315 43.6364 6.16324 43.6005 6.09056C43.515 5.94256 43.3808 5.82876 43.2208 5.76845L41.7382 5.19249L41.286 6.27189ZM43.7989 8.82105L44.2149 8.62266C44.3216 8.91064 44.4666 9.16236 44.6671 9.39701C44.8293 9.61033 45.0447 9.79165 45.2815 9.93457C45.5162 10.0796 45.7871 10.1692 46.0751 10.15C46.2926 10.15 46.5102 10.0434 46.619 9.84498C46.6617 9.77194 46.6856 9.68949 46.6886 9.605C46.6916 9.5205 46.6734 9.43658 46.6361 9.36075C46.5442 9.16392 46.4004 8.9958 46.2201 8.87438C46.1668 8.84025 46.0943 8.78478 46.0047 8.73145C45.6621 8.51954 45.3517 8.25949 45.0831 7.95924C44.9841 7.8301 44.9267 7.67382 44.9189 7.51127C44.9005 7.35843 44.9391 7.20418 45.0276 7.07823C45.0983 6.95737 45.1983 6.85625 45.3184 6.78428C45.4385 6.71233 45.5746 6.67182 45.7145 6.66653C46.0663 6.64647 46.4151 6.74076 46.7086 6.93531C46.9625 7.07823 47.1971 7.27662 47.3784 7.49207C47.5768 7.72672 47.7411 7.9955 47.8648 8.28135L47.451 8.46267C47.358 8.21407 47.2229 7.98322 47.0521 7.78005C46.8899 7.58476 46.6941 7.42003 46.474 7.29368C46.2805 7.1671 46.0546 7.09897 45.8233 7.09743C45.7431 7.09169 45.6625 7.10673 45.5898 7.1411C45.5168 7.17546 45.4541 7.22802 45.4074 7.29368C45.3739 7.34115 45.3551 7.39763 45.354 7.45581C45.354 7.52834 45.3711 7.5838 45.3903 7.63499C45.4607 7.79712 45.6975 8.03177 46.0943 8.28348C46.2756 8.40721 46.4185 8.4968 46.5273 8.58853C46.7809 8.7668 46.9763 9.01621 47.0883 9.30528C47.1329 9.4295 47.1478 9.56235 47.1323 9.6934C47.1169 9.82442 47.0711 9.95006 46.9987 10.0604C46.9185 10.2024 46.8033 10.3215 46.664 10.4063C46.5247 10.4911 46.366 10.5387 46.203 10.5447C45.8024 10.5766 45.4022 10.4762 45.0639 10.2588C44.4835 9.94693 44.0344 9.4366 43.7989 8.82105ZM48.5709 12.5392L52.2955 11.2273L52.5664 11.479L51.3356 15.2334L50.9942 14.9113L51.3185 13.8874L49.9084 12.5221L48.9144 12.8805L48.5709 12.5392ZM50.3415 12.36L51.4636 13.4373L52.0054 11.767L50.3415 12.36ZM51.8966 15.0905L52.3488 15.0713C52.3488 15.3763 52.3851 15.6835 52.4555 15.9694C52.5302 16.2403 52.656 16.4899 52.8181 16.7053C52.9803 16.94 53.1979 17.1192 53.4688 17.2088C53.5686 17.2507 53.6776 17.2662 53.7851 17.2539C53.8929 17.2416 53.9955 17.2018 54.0831 17.1384C54.1508 17.0887 54.2058 17.0238 54.2436 16.9489C54.2813 16.8741 54.3009 16.7913 54.3007 16.7075C54.299 16.4879 54.2297 16.2741 54.1023 16.0952C54.0661 16.0419 54.0127 15.9694 53.9573 15.8606C53.7177 15.5321 53.5287 15.1698 53.3962 14.7854C53.357 14.6247 53.3636 14.4562 53.4154 14.2991C53.4679 14.1552 53.5622 14.0303 53.6864 13.9407C53.7999 13.8589 53.931 13.8047 54.0691 13.7824C54.2073 13.7602 54.3487 13.7706 54.4821 13.8127C54.8063 13.9215 55.0964 14.154 55.2948 14.4441C55.4761 14.6788 55.6212 14.9454 55.7108 15.2334C55.8004 15.5214 55.8558 15.8264 55.8558 16.1507L55.4036 16.1678C55.4194 15.9015 55.3891 15.6344 55.314 15.3785C55.2438 15.1364 55.1271 14.9104 54.9706 14.7129C54.8447 14.5183 54.6612 14.3677 54.4458 14.282C54.372 14.2439 54.289 14.2271 54.206 14.2335C54.1232 14.24 54.0437 14.2693 53.9765 14.3183C53.9255 14.3526 53.8873 14.4029 53.8677 14.4612C53.8453 14.525 53.8329 14.5919 53.8314 14.6596C53.8314 14.8388 53.9594 15.1268 54.2282 15.5385C54.3562 15.7177 54.4458 15.8627 54.4991 15.9694C54.6634 16.2403 54.753 16.5453 54.7338 16.8504C54.7248 16.9825 54.686 17.1108 54.6203 17.2258C54.5546 17.3407 54.4635 17.4392 54.3541 17.5138C54.2244 17.6122 54.0725 17.6769 53.9116 17.7023C53.7508 17.7276 53.5861 17.7127 53.4325 17.6589C53.0494 17.5284 52.7198 17.2758 52.4939 16.94C52.2921 16.6729 52.1336 16.3756 52.0246 16.059C51.9467 15.7418 51.9036 15.417 51.8966 15.0905ZM54.2837 18.3052L54.7338 18.3585C54.6738 18.6544 54.6681 18.9587 54.7167 19.2566C54.753 19.5254 54.8234 19.7963 54.9514 20.0288C55.0793 20.2805 55.2777 20.496 55.5124 20.6389C55.6937 20.7456 55.9284 20.7669 56.1268 20.6581C56.2001 20.6187 56.2631 20.5623 56.31 20.4936C56.3571 20.425 56.3872 20.3461 56.3977 20.2635C56.4171 20.048 56.3802 19.8312 56.291 19.6342C56.2599 19.5479 56.2228 19.4638 56.1801 19.3825C55.9973 19.0201 55.8695 18.6326 55.8004 18.2327C55.785 18.0714 55.817 17.9091 55.8921 17.7655C55.9659 17.6385 56.0717 17.5333 56.1993 17.4605C56.32 17.39 56.4574 17.3529 56.5971 17.3529C56.7371 17.3529 56.8742 17.39 56.995 17.4605C57.3019 17.6248 57.5485 17.8825 57.6989 18.1964C57.9882 18.7346 58.0904 19.3537 57.9891 19.9563L57.5368 19.903C57.6367 19.3901 57.5599 18.8586 57.3192 18.3948C57.2138 18.1912 57.0583 18.0179 56.867 17.8914C56.8019 17.839 56.7232 17.8061 56.64 17.7967C56.557 17.7872 56.473 17.8016 56.3977 17.838C56.3465 17.8703 56.3027 17.9132 56.2697 17.9639C56.2356 18.0188 56.2117 18.0796 56.1993 18.1431C56.1801 18.3223 56.2526 18.6273 56.451 19.0774C56.5427 19.2737 56.6153 19.4358 56.6515 19.5446C56.7804 19.8325 56.8117 20.1545 56.7411 20.4619C56.7125 20.5915 56.6558 20.7133 56.5745 20.8184C56.4935 20.9235 56.39 21.0094 56.2718 21.0698C56.131 21.1495 55.9719 21.1913 55.81 21.1913C55.6483 21.1913 55.4891 21.1495 55.3481 21.0698C54.9898 20.8896 54.7039 20.5922 54.5375 20.2272C54.3756 19.937 54.2651 19.6209 54.2111 19.2929C54.2282 18.9516 54.2282 18.6273 54.2837 18.3052ZM56.1801 23.8366C56.0931 23.6109 56.0547 23.3696 56.067 23.1282C56.0796 22.8867 56.1428 22.6505 56.2526 22.4351C56.49 22.0003 56.8821 21.6708 57.351 21.5112C57.8199 21.3514 58.3314 21.3736 58.7847 21.5733C59.2199 21.7958 59.5516 22.1787 59.7101 22.6412C59.8684 23.1034 59.8411 23.6094 59.6338 24.052C59.3963 24.4862 59.0049 24.8155 58.5364 24.9751C58.068 25.1346 57.5569 25.1127 57.1038 24.9139C56.8855 24.8053 56.6914 24.6538 56.5327 24.4689C56.3742 24.2837 56.2541 24.0687 56.1801 23.8366ZM56.579 23.6937C56.6857 24.052 56.9416 24.34 57.283 24.483C57.6362 24.6295 58.0307 24.6429 58.3931 24.5209C58.7555 24.3991 59.0614 24.1497 59.2541 23.8195C59.3355 23.6544 59.3833 23.4746 59.3946 23.2909C59.4059 23.107 59.3806 22.923 59.32 22.7489C59.2594 22.575 59.1649 22.415 59.0418 22.2779C58.9189 22.1409 58.7698 22.0298 58.6034 21.9509C58.2532 21.8032 57.8606 21.7894 57.5008 21.9122C57.1411 22.0349 56.8388 22.2856 56.6515 22.6164C56.5645 22.7809 56.5131 22.9618 56.5005 23.1474C56.4881 23.333 56.5148 23.519 56.579 23.6937ZM58.6205 28.8859L58.4221 29.2784C58.1043 29.1768 57.8207 28.9887 57.6038 28.7353C57.3866 28.4816 57.2446 28.1725 57.1934 27.8427C57.1443 27.6045 57.1445 27.3587 57.194 27.1206C57.2435 26.8826 57.3414 26.6571 57.4813 26.4583C57.786 26.0671 58.2261 25.8043 58.7148 25.7213C59.2037 25.6383 59.7057 25.7415 60.1223 26.0103C60.3196 26.1513 60.4868 26.3305 60.614 26.537C60.7411 26.7437 60.8256 26.9737 60.8625 27.2134C60.9173 27.5191 60.899 27.8333 60.8092 28.1307C60.7089 28.4176 60.5406 28.6762 60.3185 28.8837L59.9943 28.5616C60.1771 28.4134 60.32 28.222 60.4103 28.0049C60.5003 27.7762 60.5197 27.5257 60.4657 27.286C60.4405 27.1029 60.3755 26.9278 60.2752 26.7725C60.175 26.6174 60.0419 26.486 59.8855 26.3879C59.5617 26.1876 59.1762 26.1116 58.8005 26.1746C58.4251 26.2373 58.0851 26.4344 57.844 26.7292C57.7361 26.8777 57.6597 27.0464 57.6194 27.2254C57.5791 27.4046 57.5756 27.5897 57.6093 27.7702C57.6531 28.0287 57.7649 28.2711 57.9336 28.472C58.132 28.6512 58.3688 28.8133 58.6205 28.8837V28.8859ZM57.5901 30.2852L61.1526 30.0698L61.1697 30.5178L57.6072 30.7161L57.5901 30.2852ZM57.6989 31.3092L61.1526 33.212L61.1334 33.5725L57.5006 35.151L57.5176 34.686L58.4946 34.2551L58.5842 32.3139L57.6627 31.7934L57.6989 31.3092ZM59.0194 32.4952L58.9469 34.0396L60.5553 33.3378L59.0194 32.4952ZM57.3192 35.9787L60.4124 36.4992L60.6641 35.0444L61.0609 35.1169L60.502 38.4746L60.1031 38.4042L60.3569 36.9323L57.2638 36.4096L57.3192 35.9787ZM56.8862 38.1162L60.3377 38.995L60.2311 39.4281L56.7774 38.5471L56.8862 38.1162ZM55.8558 41.045C55.9348 40.8144 56.0606 40.6026 56.2255 40.4232C56.3904 40.2436 56.5907 40.1003 56.8137 40.0019C57.2732 39.8182 57.7849 39.8142 58.2474 39.9904C58.7097 40.1666 59.0889 40.5105 59.3095 40.9533C59.5004 41.403 59.509 41.9092 59.3334 42.3649C59.1581 42.8207 58.812 43.1904 58.3688 43.3958C57.9093 43.5795 57.3975 43.5835 56.9352 43.4073C56.4728 43.2311 56.0937 42.8873 55.8729 42.4444C55.7763 42.2238 55.7249 41.9862 55.7219 41.7454C55.7189 41.5045 55.7645 41.2677 55.8558 41.045ZM56.2356 41.188C56.1652 41.3569 56.1321 41.5391 56.1383 41.7219C56.1445 41.9049 56.1901 42.0843 56.2718 42.2482C56.6345 42.9478 57.4643 43.2529 58.2045 42.9841C58.3728 42.9114 58.5251 42.8064 58.6527 42.6748C58.7803 42.5432 58.8805 42.3877 58.9479 42.2172C59.0153 42.047 59.0484 41.8648 59.0452 41.6816C59.0422 41.4983 59.003 41.3177 58.9298 41.1496C58.7517 40.808 58.4539 40.5444 58.0932 40.4089C57.7326 40.2735 57.3348 40.2758 56.9758 40.4158C56.8066 40.4876 56.6537 40.593 56.5263 40.7257C56.3992 40.8586 56.3002 41.0158 56.2356 41.188ZM54.9151 43.4683L57.9869 45.2474L57.8803 45.4437L54.4266 46.09L56.7241 47.419L56.5065 47.7966L53.4346 46.0196L53.5413 45.8213L56.995 45.1749L54.6996 43.8459L54.9151 43.4683ZM32.2113 10.2204C20.1011 10.2204 10.2862 19.9755 10.2862 32.0089C10.2862 44.0443 20.0989 53.7973 32.2113 53.7973C44.3237 53.7973 54.1386 44.0443 54.1386 32.0089C54.1023 19.9755 44.3045 10.2396 32.2113 10.2204ZM30.7116 13.4906V18.6465H25.9759C26.0292 18.5399 26.0826 18.4311 26.138 18.3415C27.4756 15.7369 29.084 14.1028 30.7116 13.4906ZM33.6939 13.4906C35.3215 14.1199 36.93 15.7369 38.2675 18.3415C38.3208 18.4481 38.3742 18.5548 38.4296 18.6465H33.6939V13.4906ZM24.8901 14.6425C24.0102 15.8788 23.2823 17.2167 22.7228 18.6273H18.8873C20.6152 16.9281 22.6519 15.5748 24.888 14.6404L24.8901 14.6425ZM39.5133 14.6425C41.7536 15.5694 43.7923 16.9228 45.5162 18.6273H41.6828C41.4481 18.0535 41.1964 17.4967 40.9255 16.957C40.5204 16.1467 40.0481 15.3738 39.5133 14.6425ZM16.4128 21.6074H21.637C21.1677 23.2244 20.8242 24.8776 20.6067 26.5649H14.0812C14.6092 24.8063 15.395 23.1356 16.4128 21.6074ZM24.8005 21.6074H30.7095V26.5649H23.6443C23.896 24.8776 24.2757 23.2244 24.8005 21.6074ZM33.6939 21.6074H39.6029C40.1298 23.2244 40.5095 24.8776 40.7612 26.5649H33.6939V21.6074ZM42.7494 21.6074H47.9757C48.9927 23.1358 49.7777 24.8066 50.3052 26.5649H43.7627C43.5628 24.8872 43.224 23.2291 42.7494 21.6074ZM13.4476 29.5301H20.3357C20.2824 30.3407 20.2632 31.1641 20.2632 32.0089C20.2632 32.8536 20.2995 33.6791 20.3357 34.4876H13.4476C13.334 33.6661 13.2741 32.838 13.2684 32.0089C13.2684 31.1641 13.3409 30.3386 13.4476 29.5301ZM23.3179 29.5301H30.7116V34.4876H23.3158C23.2642 33.6623 23.2399 32.8357 23.2433 32.0089C23.2433 31.1641 23.2646 30.3386 23.3179 29.5301ZM33.6939 29.5301H41.0876C41.1409 30.3407 41.1601 31.1641 41.1601 32.0089C41.1601 32.8536 41.1409 33.6791 41.0876 34.4876H33.6939V29.5301ZM44.0869 29.5301H50.975C51.2097 31.1641 51.2097 32.8365 50.975 34.4876H44.0869C44.1424 33.6791 44.1594 32.8536 44.1594 32.0089C44.1594 31.1641 44.1232 30.3386 44.0869 29.5301ZM14.0812 37.4506H20.6237C20.8413 39.123 21.1848 40.7741 21.6562 42.3911H16.4128C15.3984 40.8669 14.6129 39.2024 14.0812 37.4506ZM23.6251 37.4506H30.7116V42.3911H24.7813C24.2621 40.7784 23.8753 39.1262 23.6251 37.4506ZM33.6939 37.4506H40.7804C40.5296 39.1262 40.1422 40.7786 39.6221 42.3911H33.6939V37.4506ZM43.7797 37.4506H50.3244C49.7988 39.2018 49.0189 40.8663 48.0099 42.3911H42.7707C43.24 40.7741 43.5813 39.123 43.7797 37.4506ZM18.8723 45.3754H22.7228C22.9574 45.9514 23.2091 46.506 23.4801 47.0265C23.896 47.8542 24.3845 48.6264 24.9264 49.3794C22.6675 48.4504 20.6112 47.0905 18.8723 45.3754ZM25.9759 45.3754H30.7116V50.5292C29.084 49.9021 27.4756 48.2851 26.138 45.6975L25.9759 45.3754ZM33.6939 45.3754H38.4296C38.3763 45.4821 38.323 45.5887 38.2675 45.6805C36.93 48.283 35.3215 49.9021 33.6939 50.5121V45.3754ZM41.702 45.3754H45.5524C43.816 47.082 41.7553 48.4472 39.4962 49.3794C40.0381 48.6264 40.5266 47.8542 40.9425 47.0265C41.2135 46.4889 41.4673 45.9492 41.702 45.3754ZM75.5411 14.1199H73.1541V29.2613H75.5411V14.1199ZM83.114 18.8598L92.2442 29.2613H93.5625V14.1924H91.1947V24.6088L82.1029 14.1924H80.7462V29.2613H83.114V18.8598ZM101.263 29.2613H103.631V16.4195H109.796V14.1924H95.1177V16.4195H101.261L101.263 29.2613ZM124.021 27.0513H113.736V22.3455H119.592V20.1398H113.736V16.4195H123.425V14.1924H111.386V29.2613H124.021V27.0513ZM129.823 22.9023H135.066L138.716 29.2613H141.357L137.652 22.8127C138.612 22.5819 139.464 22.0311 140.069 21.2508C140.673 20.4705 140.994 19.5076 140.977 18.5207C140.977 17.1917 140.525 16.1315 139.657 15.3593C138.808 14.6041 137.613 14.2095 136.116 14.2095H127.455V29.2784H129.806V22.9023H129.823ZM129.823 16.4173H136.095C136.873 16.4173 137.47 16.6157 137.904 16.9933C138.319 17.3709 138.518 17.8914 138.518 18.574C138.518 19.2758 138.319 19.7963 137.904 20.1547C137.488 20.5152 136.837 20.6944 135.988 20.6944H129.806L129.823 16.4173ZM157.896 29.2613V14.1924H155.528V24.6088L146.436 14.1924H145.099V29.2613H147.448V18.862L156.578 29.2613H157.896ZM174.906 29.2613H177.473L169.974 14.1924H168.129L160.699 29.2613H163.248L165.183 25.3448H172.92L174.906 29.2613ZM171.851 23.1177H166.301L169.068 17.5693L171.851 23.1177ZM175.267 16.4195H181.413V29.2613H183.78V16.4195H189.945V14.1924H175.269L175.267 16.4195ZM193.958 14.1199H191.573V29.2613H193.958V14.1199ZM205.817 29.6389C208.076 29.6389 209.974 28.8837 211.457 27.3926C212.937 25.9207 213.68 24.0158 213.68 21.7546C213.68 19.4913 212.92 17.5863 211.44 16.0952C209.955 14.6041 208.059 13.8682 205.797 13.8682C203.538 13.8682 201.659 14.6233 200.176 16.0952C198.694 17.5671 197.954 19.4721 197.954 21.7546C197.954 24.0158 198.694 25.9207 200.176 27.3926C201.676 28.8859 203.575 29.6389 205.817 29.6389ZM200.394 21.7717C200.394 20.1376 200.919 18.7724 201.93 17.7122C202.943 16.652 204.261 16.1123 205.817 16.1123C207.389 16.1123 208.69 16.652 209.703 17.6951C210.714 18.7532 211.239 20.1184 211.239 21.7525C211.239 23.3886 210.714 24.7539 209.703 25.7949C208.69 26.8551 207.372 27.3734 205.817 27.3734C204.261 27.3734 202.96 26.8359 201.93 25.7949C200.919 24.7709 200.394 23.4057 200.394 21.7717ZM220.06 18.8598L229.171 29.2613H230.492V14.1924H228.122V24.6088L219.049 14.1924H217.692V29.2613H220.06V18.8598ZM250.085 29.2613L242.583 14.1924H240.74L233.31 29.2613H235.859L237.794 25.3448H245.531L247.519 29.2613H250.085ZM244.445 23.1177H238.877L241.644 17.5693L244.445 23.1177ZM264.853 27.0513H255.309V14.1924H252.959V29.2613H264.853V27.0513ZM79.6625 34.686H73.1349V49.7549H79.6625C82.0667 49.7549 84.0185 49.0552 85.4457 47.707C86.8749 46.3418 87.6151 44.5093 87.6151 42.2652C87.6151 40.0382 86.8749 38.1887 85.4286 36.8043C83.9652 35.3857 82.0304 34.686 79.6625 34.686ZM79.6625 47.5278H75.4857V36.8768H79.6625C81.3435 36.8768 82.6981 37.361 83.6943 38.3316C84.6862 39.3022 85.1939 40.5928 85.1939 42.2119C85.1939 43.8459 84.6862 45.1386 83.7284 46.09C82.7535 47.0436 81.3968 47.5278 79.6625 47.5278ZM105.039 38.978C105.039 37.649 104.606 36.5888 103.738 35.8166C102.889 35.0636 101.696 34.6668 100.197 34.6668H91.536V49.7378H93.9039V43.3788H99.1281L102.78 49.7357H105.419L101.714 43.2721C102.677 43.0473 103.533 42.4977 104.139 41.7157C104.745 40.9337 105.063 39.9669 105.039 38.978ZM102.582 39.0313C102.582 39.7331 102.383 40.2536 101.967 40.612C101.551 40.9725 100.901 41.1517 100.052 41.1517H93.8697L93.8889 36.896H100.141C100.92 36.896 101.517 37.0922 101.95 37.4698C102.383 37.8282 102.582 38.3508 102.582 39.0313ZM111.584 34.5964H109.199V49.7378H111.584V34.5964ZM122.286 45.9642L116.808 34.686H114.242L121.544 49.7378H123.026L130.365 34.686H127.745L122.286 45.9642ZM135.374 42.822H141.229V40.612H135.374V36.8939H145.063V34.6881H133.023V49.7399H145.658V47.5299H135.374V42.822ZM162.615 38.978C162.615 37.649 162.18 36.5888 161.313 35.8166C160.462 35.0636 159.27 34.6668 157.77 34.6668H149.109V49.7378H151.46V43.3788H156.704L160.373 49.7357H162.994L159.289 43.2721C160.249 43.0413 161.102 42.4901 161.706 41.7093C162.311 40.9288 162.631 39.9652 162.615 38.978ZM151.458 36.8939H157.73C158.508 36.8939 159.106 37.0922 159.539 37.4698C159.955 37.8474 160.153 38.3658 160.153 39.0484C160.153 39.7523 159.955 40.2707 159.539 40.6312C159.123 40.9896 158.472 41.1688 157.623 41.1688H151.441L151.458 36.8939ZM178.575 42.1223C177.671 41.3117 176.442 40.8104 174.906 40.6291C174.192 40.5433 173.475 40.4842 172.756 40.452C170.821 40.324 169.573 40.0552 169.012 39.6414C168.83 39.5057 168.677 39.3353 168.562 39.1401C168.469 38.962 168.42 38.7649 168.417 38.5641C168.417 38.0266 168.724 37.5765 169.356 37.1989C170.025 36.8043 170.892 36.608 171.941 36.608C172.971 36.608 173.946 36.7872 174.906 37.1285C175.909 37.4971 176.844 38.0306 177.671 38.7071L177.906 38.8884L179.281 36.9301L179.064 36.768C178.015 35.9915 176.849 35.3861 175.61 34.974C174.418 34.5644 173.166 34.3575 171.905 34.3618C170.188 34.3618 168.741 34.7585 167.658 35.5478C166.538 36.3563 165.977 37.3802 165.977 38.6367C165.977 39.3193 166.175 39.9656 166.555 40.5224C166.971 41.1154 167.549 41.5826 168.219 41.8706C169.121 42.2823 170.766 42.5703 173.225 42.7324C173.678 42.7495 174.057 42.7857 174.328 42.8049C175.339 42.8945 176.135 43.1462 176.696 43.5771C176.943 43.7518 177.144 43.9835 177.282 44.2523C177.421 44.5211 177.493 44.8191 177.492 45.1216C177.492 45.93 177.112 46.5764 176.353 47.0969C175.557 47.6345 174.507 47.9054 173.225 47.9054C172.125 47.9003 171.034 47.6929 170.008 47.2932C168.872 46.8635 167.81 46.2581 166.862 45.4991L166.627 45.3178L165.271 47.3294L165.471 47.4915C166.568 48.3504 167.802 49.0181 169.121 49.4669C170.439 49.9031 171.818 50.1277 173.206 50.1324C175.211 50.1324 176.858 49.6845 178.106 48.7672C179.352 47.8329 180.005 46.6468 180.005 45.192C179.999 44.6077 179.869 44.0311 179.623 43.5014C179.376 42.9715 179.019 42.5027 178.575 42.1223ZM199.724 34.686L192.294 49.7549H194.843L196.778 45.8405H204.515L206.503 49.7549H209.07L201.567 34.6881L199.724 34.686ZM203.449 43.5942H197.881L200.646 38.0436L203.449 43.5942ZM223.802 42.1223C222.9 41.3117 221.669 40.8104 220.133 40.6291C219.418 40.5433 218.701 40.4842 217.982 40.452C216.048 40.324 214.8 40.0552 214.241 39.6414C214.057 39.5059 213.904 39.3355 213.789 39.1401C213.695 38.9622 213.646 38.7649 213.644 38.5641C213.644 38.0266 213.951 37.5765 214.584 37.1989C215.252 36.8043 216.12 36.608 217.168 36.608H217.204C218.217 36.608 219.192 36.7872 220.152 37.1285C221.163 37.5061 222.085 38.0458 222.917 38.7071L223.151 38.8884L224.525 36.9301L224.307 36.768C223.254 35.9958 222.089 35.3848 220.856 34.9548C219.663 34.5459 218.411 34.3396 217.151 34.3447C215.433 34.3447 213.987 34.7393 212.903 35.5286C211.781 36.3392 211.222 37.3632 211.222 38.6196C211.222 39.3022 211.42 39.9486 211.798 40.5053C212.216 41.0984 212.794 41.5655 213.462 41.8514C214.367 42.2652 216.011 42.5532 218.469 42.7153C218.921 42.7324 219.301 42.7687 219.572 42.7857C220.585 42.8753 221.381 43.127 221.94 43.5579C222.187 43.7327 222.388 43.9641 222.526 44.2329C222.665 44.5017 222.735 44.7999 222.735 45.1024C222.735 45.913 222.356 46.5572 221.596 47.0798C220.803 47.6174 219.753 47.8862 218.469 47.8862C217.368 47.8817 216.278 47.675 215.252 47.2761C214.115 46.8458 213.055 46.2398 212.107 45.4799L211.873 45.3008L210.516 47.3124L210.714 47.4745C211.815 48.3423 213.056 49.0161 214.384 49.4669C215.685 49.8965 217.046 50.1147 218.416 50.1132H218.524C220.495 50.1132 222.121 49.6482 223.35 48.748C224.598 47.8158 225.248 46.6297 225.248 45.1749C225.231 44.5936 225.095 44.0221 224.845 43.4967C224.595 42.9713 224.241 42.5033 223.802 42.1223ZM241.337 42.1223C240.432 41.3117 239.204 40.8104 237.668 40.6291C236.953 40.5429 236.234 40.4832 235.515 40.4499C233.583 40.3262 232.316 40.0552 231.774 39.6435C231.59 39.5074 231.437 39.3364 231.321 39.1401C231.23 38.9684 231.181 38.7777 231.179 38.5833C231.179 38.0436 231.486 37.5957 232.117 37.2181C232.787 36.8235 233.653 36.6251 234.703 36.6251C235.714 36.6251 236.727 36.8043 237.685 37.1456C238.698 37.5231 239.62 38.0628 240.452 38.7263L240.686 38.9055L242.06 36.9493L241.842 36.7872C240.793 36.0103 239.628 35.404 238.391 34.991C237.198 34.5821 235.944 34.3758 234.683 34.381C232.966 34.381 231.522 34.7756 230.436 35.5649C229.316 36.3755 228.755 37.3994 228.755 38.6537C228.755 39.3364 228.954 39.9849 229.333 40.5416C229.749 41.1325 230.327 41.5997 230.997 41.8877C231.9 42.3015 233.546 42.5873 236.004 42.7495C236.456 42.7687 236.836 42.8028 237.107 42.822C238.118 42.9116 238.914 43.1633 239.475 43.5942C239.98 43.9526 240.27 44.5115 240.27 45.1386C240.27 45.9471 239.891 46.5935 239.131 47.114C238.335 47.6537 237.288 47.9246 236.004 47.9246C234.903 47.9197 233.813 47.7121 232.787 47.3124C231.648 46.8785 230.579 46.2726 229.623 45.5162L229.389 45.337L228.032 47.3486L228.23 47.5107C229.327 48.3698 230.562 49.0377 231.882 49.4861C233.201 49.9215 234.579 50.1452 235.968 50.1495H236.04C238.011 50.1495 239.637 49.6823 240.865 48.7843C242.113 47.8499 242.764 46.666 242.764 45.2112C242.76 44.6241 242.632 44.0447 242.384 43.5119C242.139 42.9792 241.781 42.5052 241.337 42.1223ZM253.718 34.3447C251.478 34.3447 249.58 35.0998 248.097 36.5717C246.614 38.0436 245.874 39.9486 245.874 42.229C245.874 44.4923 246.614 46.3972 248.097 47.8691C249.56 49.3602 251.459 50.0962 253.718 50.0962C255.977 50.0962 257.876 49.341 259.358 47.8521C260.841 46.3802 261.581 44.4752 261.581 42.2119C261.581 39.9486 260.822 38.0436 259.341 36.5547C257.876 35.0977 255.977 34.3447 253.718 34.3447ZM259.141 42.2482C259.141 43.8822 258.618 45.2474 257.605 46.2884C256.594 47.3486 255.273 47.8691 253.718 47.8691C252.165 47.8691 250.862 47.3294 249.831 46.2884C248.801 45.2282 248.295 43.863 248.295 42.2482C248.295 40.612 248.82 39.2468 249.831 38.1887C250.845 37.1285 252.165 36.5888 253.718 36.5888C255.273 36.5888 256.594 37.1285 257.605 38.1695C258.618 39.2468 259.141 40.612 259.141 42.2482ZM277.29 44.7248C276.808 45.6785 276.085 46.4902 275.193 47.0798C274.321 47.6223 273.31 47.9022 272.283 47.8862C270.728 47.8862 269.427 47.3486 268.397 46.3076C267.366 45.2474 266.861 43.8822 266.861 42.2652C266.861 40.6312 267.383 39.266 268.397 38.2058C269.408 37.1456 270.728 36.6059 272.283 36.6059C273.241 36.5888 274.199 36.8405 275.031 37.3098C275.844 37.7578 276.477 38.4212 276.91 39.2297L277.055 39.4985L279.044 38.0991L278.918 37.8815C278.222 36.7814 277.25 35.8838 276.098 35.279C274.92 34.6647 273.61 34.3496 272.283 34.3618C270.041 34.3618 268.143 35.1169 266.66 36.5888C265.18 38.0607 264.437 39.9657 264.437 42.246C264.437 44.5093 265.18 46.4143 266.66 47.8862C268.126 49.3794 270.024 50.1132 272.264 50.1132H272.409C273.802 50.1132 275.176 49.7549 276.386 49.0552C277.606 48.3416 278.598 47.2944 279.242 46.0367L279.351 45.8405L277.452 44.4389L277.29 44.7248ZM285.731 34.5964H283.346V49.7378H285.731V34.5964ZM296.018 34.686L288.588 49.7549H291.137L293.072 45.8405H300.807L302.795 49.7549H305.38L297.88 34.686H296.018ZM299.723 43.5942H294.172L296.939 38.0436L299.723 43.5942ZM303.157 36.8939H309.303V49.7357H311.671V36.8939H317.817V34.6881H303.157V36.8939ZM321.829 34.5964H319.445V49.7378H321.829V34.5964ZM333.705 34.3447C331.446 34.3447 329.567 35.0998 328.084 36.5717C326.601 38.0436 325.861 39.9486 325.861 42.229C325.861 44.4923 326.601 46.3972 328.084 47.8691C329.547 49.3602 331.446 50.0962 333.705 50.0962C335.966 50.0962 337.863 49.341 339.345 47.8521C340.828 46.3802 341.57 44.4752 341.57 42.2119C341.57 39.9486 340.811 38.0436 339.328 36.5547C337.863 35.0977 335.966 34.3447 333.705 34.3447ZM339.13 42.2482C339.13 43.8822 338.605 45.2474 337.592 46.2884C336.581 47.3486 335.26 47.8691 333.705 47.8691C332.152 47.8691 330.851 47.3294 329.82 46.2884C328.807 45.2282 328.282 43.863 328.282 42.2482C328.282 40.612 328.807 39.2468 329.82 38.1887C330.832 37.1285 332.152 36.5888 333.705 36.5888C335.279 36.5888 336.581 37.1285 337.592 38.1695C338.605 39.2468 339.13 40.612 339.13 42.2482ZM356.012 34.686V45.0853L346.92 34.686H345.583V49.7378H347.931V39.3364L357.06 49.7378H358.38V34.686H356.012Z" fill="#ECEDEE"/>
</g>
</g>
</svg>
