<svg width="200" height="64" viewBox="0 0 200 64" fill="none" xmlns="http://www.w3.org/2000/svg">
<g opacity="0.5">
<path d="M84.6206 11.0448H88.9805L90.7793 17.55L91.3965 20.0883H91.5095L92.1191 17.55L93.9263 11.0448H98.2862V29.4013H94.7705V23.7187L94.7727 23.4224C94.8031 21.25 95.1421 17.0854 95.3273 15.1917H95.243L93.834 20.1187L92.4047 24.5405H90.3882L88.9341 20.1187L87.62 15.1917H87.5226L87.5674 15.6307C87.7787 17.7748 88.0794 21.7927 88.0794 23.7187V29.4013H84.6206V11.0448ZM101.995 25.9179H106.284V14.5283H101.995V11.0447H114.729V14.5283H110.441V25.9179H114.729V29.4016H101.995V25.9179ZM118.237 27.0886L120.623 24.2353C122.011 25.3716 123.724 26.1508 125.505 26.1508C127.269 26.1508 128.083 25.4682 128.083 24.5709C128.083 23.249 126.992 22.9294 125.254 22.2021L122.861 21.1813C120.827 20.4084 118.968 18.8487 118.968 16.1767C118.968 13.1366 121.708 10.7067 125.7 10.7067C127.908 10.7067 130.14 11.5348 131.799 13.1101L129.705 15.7289C128.411 14.8005 127.266 14.2949 125.472 14.2949C124.103 14.2949 123.174 14.8624 123.174 15.9343C123.174 17.0386 124.405 17.4429 126.167 18.1028L128.413 19.0545C130.819 19.9555 132.337 21.4549 132.337 24.0455C132.337 27.097 129.775 29.7391 125.229 29.7391C122.747 29.7391 120.185 28.8317 118.237 27.0886ZM140.103 14.5283H134.597V11.0447H149.765V14.5283H144.26V29.4016H140.103V14.5283ZM156.757 14.3419H158.783C160.966 14.3419 162.138 14.9512 162.138 16.7639C162.138 18.5609 160.966 19.5004 158.783 19.5004H156.757V14.3419ZM167.094 29.4015L162.941 22.0577C164.902 21.1714 166.214 19.4612 166.214 16.7639C166.214 12.4401 163.076 11.072 159.238 11.045L152.592 11.0446V29.4015H156.757V22.7977H158.939L162.445 29.4015H167.094ZM173.994 21.7989L174.428 20.1077L175.853 14.1877H175.966C176.281 15.5713 176.657 17.0636 177.015 18.4713L177.864 21.7989H173.994ZM179.804 29.4012H184.211L178.49 11.0447H173.508L167.788 29.4012H172.041L173.162 25.0359H178.69L179.804 29.4012ZM187.458 11.0448H191.606V25.918H199.781V29.4013H187.458V11.0448Z" fill="#ECEDEE"/>
<path d="M89.4481 51.2471L89.8826 49.5559L91.3076 43.6355H91.4203C91.7358 45.0191 92.1113 46.5116 92.4697 47.9194L93.3182 51.2471H89.4481ZM95.2562 58.8566H99.6651L93.9426 40.4925H88.9583L83.2358 58.8566H87.4907L88.6128 54.4887H94.1421L95.2562 58.8566ZM101.995 55.3661H106.284V43.9761H101.995V40.4924H114.729V43.9761H110.441V55.3661H114.729V58.8498H101.995V55.3661ZM118.425 60.6767H132.03V63.8406H118.425V60.6767Z" fill="#ECEDEE"/>
<path d="M59.9566 0.00378418H47.9653V11.9951H59.9566V0.00378418Z" fill="#ECEDEE"/>
<path d="M65.9522 0.00378418H53.9609V11.9951H65.9522V0.00378418Z" fill="#F7D046"/>
<path d="M11.9913 0.00378418H0V11.9951H11.9913V0.00378418Z" fill="#ECEDEE"/>
<path d="M11.9913 11.9951H0V23.9864H11.9913V11.9951Z" fill="#ECEDEE"/>
<path d="M11.9913 23.9863H0V35.9776H11.9913V23.9863Z" fill="#ECEDEE"/>
<path d="M11.9913 35.9777H0V47.9689H11.9913V35.9777Z" fill="#ECEDEE"/>
<path d="M11.9913 47.9689H0V59.9602H11.9913V47.9689Z" fill="#ECEDEE"/>
<path d="M17.9869 0.00378418H5.99561V11.9951H17.9869V0.00378418Z" fill="#F7D046"/>
<path d="M65.9522 11.9951H53.9609V23.9864H65.9522V11.9951Z" fill="#F2A73B"/>
<path d="M17.9869 11.9951H5.99561V23.9864H17.9869V11.9951Z" fill="#F2A73B"/>
<path d="M47.9649 11.9951H35.9736V23.9864H47.9649V11.9951Z" fill="#ECEDEE"/>
<path d="M53.961 11.9951H41.9697V23.9864H53.961V11.9951Z" fill="#F2A73B"/>
<path d="M29.9781 11.9951H17.9868V23.9864H29.9781V11.9951Z" fill="#F2A73B"/>
<path d="M41.9693 23.9863H29.978V35.9776H41.9693V23.9863Z" fill="#EE792F"/>
<path d="M53.961 23.9863H41.9697V35.9776H53.961V23.9863Z" fill="#EE792F"/>
<path d="M29.9781 23.9863H17.9868V35.9776H29.9781V23.9863Z" fill="#EE792F"/>
<path d="M35.9737 35.9777H23.9824V47.9689H35.9737V35.9777Z" fill="#ECEDEE"/>
<path d="M41.9693 35.9777H29.978V47.9689H41.9693V35.9777Z" fill="#EB5829"/>
<path d="M65.9522 23.9863H53.9609V35.9776H65.9522V23.9863Z" fill="#EE792F"/>
<path d="M17.9869 23.9863H5.99561V35.9776H17.9869V23.9863Z" fill="#EE792F"/>
<path d="M59.9566 35.9777H47.9653V47.9689H59.9566V35.9777Z" fill="#ECEDEE"/>
<path d="M65.9522 35.9777H53.9609V47.9689H65.9522V35.9777Z" fill="#EB5829"/>
<path d="M59.9566 47.9689H47.9653V59.9602H59.9566V47.9689Z" fill="#ECEDEE"/>
<path d="M17.9869 35.9777H5.99561V47.9689H17.9869V35.9777Z" fill="#EB5829"/>
<path d="M65.9522 47.9689H53.9609V59.9602H65.9522V47.9689Z" fill="#EA3326"/>
<path d="M17.9869 47.9689H5.99561V59.9602H17.9869V47.9689Z" fill="#EA3326"/>
</g>
</svg>
