<svg width="238" height="64" viewBox="0 0 238 64" fill="none" xmlns="http://www.w3.org/2000/svg">
<g opacity="0.5">
<path d="M217.43 41.375L217.448 32.6648H218.504L226.89 22.7272H235.226L223.96 35.8864H222.238L217.43 41.375ZM210.852 48.909V14H218.112V48.909H210.852ZM227.214 48.909L219.51 37.5056L224.352 32.375L235.72 48.909H227.214Z" fill="#ECEDEE"/>
<path d="M193.61 48.909V22.7272H200.65V27.2954H200.924C201.4 25.6704 202.202 24.4432 203.326 23.6136C204.452 22.7728 205.746 22.3522 207.212 22.3522C207.576 22.3522 207.968 22.375 208.388 22.4204C208.81 22.466 209.178 22.5284 209.496 22.608V29.0512C209.156 28.9488 208.684 28.858 208.082 28.7784C207.48 28.6988 206.928 28.659 206.428 28.659C205.36 28.659 204.406 28.892 203.566 29.358C202.736 29.8124 202.076 30.4488 201.588 31.267C201.11 32.0852 200.872 33.0284 200.872 34.0966V48.909H193.61Z" fill="#ECEDEE"/>
<path d="M175.633 49.4034C173.962 49.4034 172.474 49.1136 171.167 48.534C169.86 47.9432 168.826 47.0738 168.064 45.9262C167.314 44.767 166.939 43.3238 166.939 41.5966C166.939 40.142 167.207 38.9204 167.741 37.9318C168.275 36.9432 169.002 36.1478 169.922 35.5454C170.843 34.9432 171.888 34.4886 173.059 34.1818C174.241 33.875 175.479 33.659 176.775 33.534C178.297 33.375 179.525 33.2272 180.457 33.0908C181.388 32.9432 182.065 32.7272 182.485 32.4432C182.905 32.159 183.116 31.7386 183.116 31.1818V31.0796C183.116 30 182.775 29.1648 182.093 28.5738C181.422 27.983 180.468 27.6874 179.229 27.6874C177.922 27.6874 176.883 27.9772 176.11 28.5568C175.337 29.125 174.826 29.8408 174.576 30.7046L167.86 30.159C168.201 28.5682 168.871 27.1932 169.871 26.034C170.871 24.8636 172.161 23.9658 173.741 23.3408C175.332 22.7046 177.172 22.3864 179.263 22.3864C180.718 22.3864 182.11 22.5568 183.439 22.8978C184.78 23.2386 185.968 23.767 187.002 24.483C188.047 25.1988 188.871 26.1194 189.474 27.2444C190.076 28.358 190.377 29.6932 190.377 31.25V48.909H183.491V45.2784H183.286C182.866 46.0966 182.303 46.8182 181.599 47.4432C180.894 48.0568 180.047 48.5398 179.059 48.892C178.07 49.233 176.928 49.4034 175.633 49.4034ZM177.712 44.392C178.78 44.392 179.724 44.1818 180.542 43.7614C181.36 43.3295 182.002 42.75 182.468 42.0228C182.934 41.2954 183.167 40.4716 183.167 39.5512V36.7728C182.94 36.9204 182.627 37.0568 182.229 37.1818C181.843 37.2954 181.405 37.4034 180.917 37.5056C180.428 37.5966 179.94 37.6818 179.451 37.7614C178.962 37.8296 178.519 37.892 178.121 37.9488C177.269 38.0738 176.525 38.2728 175.888 38.5454C175.252 38.8182 174.758 39.1874 174.405 39.6534C174.053 40.108 173.877 40.6762 173.877 41.358C173.877 42.3466 174.235 43.1022 174.951 43.625C175.678 44.1364 176.599 44.392 177.712 44.392Z" fill="#ECEDEE"/>
<path d="M126.786 48.909V22.7272H133.706V27.3466H134.013C134.558 25.8124 135.467 24.6022 136.74 23.7158C138.013 22.8296 139.536 22.3864 141.308 22.3864C143.104 22.3864 144.632 22.8352 145.893 23.733C147.155 24.6194 147.996 25.8238 148.416 27.3466H148.689C149.223 25.8466 150.189 24.6478 151.587 23.75C152.996 22.8408 154.661 22.3864 156.581 22.3864C159.024 22.3864 161.007 23.1648 162.53 24.7216C164.064 26.267 164.831 28.4602 164.831 31.3012V48.909H157.587V32.733C157.587 31.2784 157.2 30.1874 156.428 29.4602C155.655 28.733 154.689 28.3694 153.53 28.3694C152.212 28.3694 151.183 28.7898 150.445 29.6306C149.706 30.4602 149.337 31.5568 149.337 32.9204V48.909H142.297V32.5796C142.297 31.2954 141.928 30.2728 141.189 29.5114C140.462 28.75 139.501 28.3694 138.308 28.3694C137.501 28.3694 136.774 28.5738 136.126 28.983C135.49 29.3806 134.984 29.9432 134.609 30.6704C134.234 31.3864 134.047 32.2272 134.047 33.1932V48.909H126.786Z" fill="#ECEDEE"/>
<path d="M109.545 48.909V22.7272H116.585V27.2954H116.858C117.335 25.6704 118.136 24.4432 119.261 23.6136C120.386 22.7728 121.681 22.3522 123.147 22.3522C123.511 22.3522 123.903 22.375 124.324 22.4204C124.744 22.466 125.113 22.5284 125.431 22.608V29.0512C125.091 28.9488 124.619 28.858 124.017 28.7784C123.414 28.6988 122.863 28.659 122.363 28.659C121.295 28.659 120.341 28.892 119.5 29.358C118.67 29.8124 118.011 30.4488 117.522 31.267C117.045 32.0852 116.806 33.0284 116.806 34.0966V48.909H109.545Z" fill="#ECEDEE"/>
<path d="M95.1893 49.4204C92.4961 49.4204 90.1779 48.875 88.2347 47.784C86.3029 46.6818 84.8143 45.125 83.7689 43.1136C82.7233 41.0908 82.2007 38.6988 82.2007 35.9374C82.2007 33.2444 82.7233 30.8806 83.7689 28.8466C84.8143 26.8124 86.2859 25.2272 88.1837 24.0908C90.0927 22.9546 92.3313 22.3864 94.8995 22.3864C96.6269 22.3864 98.2347 22.6648 99.7235 23.2216C101.223 23.767 102.53 24.5908 103.644 25.6932C104.769 26.7954 105.644 28.1818 106.269 29.8522C106.894 31.5114 107.206 33.4546 107.206 35.6818V37.6762H85.0985V33.1762H100.371C100.371 32.1306 100.144 31.2046 99.6893 30.3978C99.2347 29.5908 98.6041 28.9602 97.7973 28.5056C97.0019 28.0398 96.0757 27.8068 95.0189 27.8068C93.9165 27.8068 92.9393 28.0624 92.0871 28.5738C91.2461 29.0738 90.5871 29.75 90.1097 30.6022C89.6325 31.4432 89.3881 32.3806 89.3769 33.4148V37.6932C89.3769 38.9886 89.6155 40.108 90.0927 41.0512C90.5813 41.9944 91.2689 42.7216 92.1553 43.233C93.0415 43.7444 94.0927 44 95.3087 44C96.1155 44 96.8541 43.8864 97.5245 43.659C98.1949 43.4318 98.7689 43.0907 99.2461 42.6364C99.7233 42.1818 100.087 41.625 100.337 40.966L107.053 41.409C106.712 43.0228 106.013 44.4318 104.956 45.6364C103.911 46.8295 102.559 47.7614 100.899 48.4318C99.2519 49.0908 97.3483 49.4204 95.1893 49.4204Z" fill="#ECEDEE"/>
<path d="M55.2822 58.7271V22.7272H62.4414V27.125H62.7652C63.0834 26.4204 63.5436 25.7046 64.1458 24.9772C64.7594 24.2386 65.555 23.625 66.5322 23.1364C67.5208 22.6364 68.7482 22.3864 70.214 22.3864C72.1232 22.3864 73.8844 22.8864 75.4982 23.8864C77.1118 24.875 78.4016 26.3694 79.3674 28.3694C80.3334 30.358 80.8164 32.8522 80.8164 35.8522C80.8164 38.7728 80.3448 41.2386 79.4016 43.25C78.4698 45.25 77.197 46.767 75.5834 47.8012C73.981 48.8238 72.1856 49.3352 70.197 49.3352C68.7878 49.3352 67.589 49.1021 66.6004 48.6364C65.6232 48.1704 64.822 47.5852 64.197 46.8806C63.572 46.1648 63.0948 45.4432 62.7652 44.7158H62.5436V58.7271H55.2822ZM62.3902 35.8182C62.3902 37.375 62.606 38.733 63.0378 39.892C63.4698 41.0512 64.0948 41.9546 64.9128 42.6022C65.731 43.2386 66.7254 43.5568 67.8958 43.5568C69.0776 43.5568 70.0776 43.233 70.8958 42.5852C71.714 41.9262 72.3334 41.017 72.7538 39.858C73.1856 38.6874 73.4016 37.3408 73.4016 35.8182C73.4016 34.3068 73.1912 32.9772 72.7708 31.8296C72.3504 30.6818 71.731 29.784 70.9128 29.1364C70.0948 28.4886 69.089 28.1648 67.8958 28.1648C66.714 28.1648 65.714 28.4772 64.8958 29.1022C64.089 29.7272 63.4698 30.6136 63.0378 31.7614C62.606 32.909 62.3902 34.2614 62.3902 35.8182Z" fill="#ECEDEE"/>
<path d="M37.3045 49.4034C35.6339 49.4034 34.1453 49.1136 32.8385 48.534C31.5317 47.9432 30.4977 47.0738 29.7363 45.9262C28.9863 44.767 28.6113 43.3238 28.6113 41.5966C28.6113 40.142 28.8783 38.9204 29.4123 37.9318C29.9465 36.9432 30.6737 36.1478 31.5943 35.5454C32.5147 34.9432 33.5601 34.4886 34.7305 34.1818C35.9123 33.875 37.1511 33.659 38.4465 33.534C39.9693 33.375 41.1965 33.2272 42.1283 33.0908C43.0601 32.9432 43.7363 32.7272 44.1567 32.4432C44.5771 32.159 44.7873 31.7386 44.7873 31.1818V31.0796C44.7873 30 44.4465 29.1648 43.7647 28.5738C43.0943 27.983 42.1397 27.6874 40.9011 27.6874C39.5943 27.6874 38.5545 27.9772 37.7817 28.5568C37.0089 29.125 36.4977 29.8408 36.2477 30.7046L29.5317 30.159C29.8727 28.5682 30.5431 27.1932 31.5431 26.034C32.5431 24.8636 33.8329 23.9658 35.4123 23.3408C37.0033 22.7046 38.8443 22.3864 40.9351 22.3864C42.3897 22.3864 43.7817 22.5568 45.1113 22.8978C46.4521 23.2386 47.6397 23.767 48.6737 24.483C49.7193 25.1988 50.5431 26.1194 51.1453 27.2444C51.7477 28.358 52.0487 29.6932 52.0487 31.25V48.909H45.1623V45.2784H44.9579C44.5373 46.0966 43.9749 46.8182 43.2703 47.4432C42.5659 48.0568 41.7193 48.5398 40.7305 48.892C39.7419 49.233 38.5999 49.4034 37.3045 49.4034ZM39.3839 44.392C40.4521 44.392 41.3953 44.1818 42.2135 43.7614C43.0317 43.3295 43.6737 42.75 44.1397 42.0228C44.6055 41.2954 44.8385 40.4716 44.8385 39.5512V36.7728C44.6113 36.9204 44.2987 37.0568 43.9011 37.1818C43.5147 37.2954 43.0771 37.4034 42.5885 37.5056C42.0999 37.5966 41.6113 37.6818 41.1227 37.7614C40.6339 37.8296 40.1909 37.892 39.7931 37.9488C38.9409 38.0738 38.1965 38.2728 37.5601 38.5454C36.9237 38.8182 36.4295 39.1874 36.0771 39.6534C35.7249 40.108 35.5487 40.6762 35.5487 41.358C35.5487 42.3466 35.9067 43.1022 36.6227 43.625C37.3499 44.1364 38.2703 44.392 39.3839 44.392Z" fill="#ECEDEE"/>
<path d="M2 48.909V14H15.7727C18.4205 14 20.6762 14.5057 22.5398 15.517C24.4034 16.517 25.8238 17.9091 26.8012 19.6932C27.7898 21.466 28.284 23.5114 28.284 25.8296C28.284 28.1478 27.784 30.1932 26.784 31.966C25.784 33.7386 24.3352 35.1194 22.4376 36.108C20.5512 37.0966 18.267 37.591 15.5852 37.591H6.80682V31.6762H14.392C15.8125 31.6762 16.983 31.4318 17.9034 30.9432C18.8352 30.4432 19.5284 29.7556 19.983 28.8806C20.4488 27.9944 20.6818 26.9772 20.6818 25.8296C20.6818 24.6704 20.4488 23.659 19.983 22.7954C19.5284 21.9204 18.8352 21.2444 17.9034 20.767C16.9716 20.2784 15.7898 20.034 14.358 20.034H9.38068V48.909H2Z" fill="#ECEDEE"/>
</g>
</svg>
