<svg width="210" height="26" viewBox="0 0 210 26" fill="none" xmlns="http://www.w3.org/2000/svg">
<path d="M10.1645 13L11.8658 10.0488H15.2743C17.2803 6.56713 20.3535 1.2501 20.3535 1.2501H6.78653L0 13H10.1645Z" fill="url(#paint0_linear_17_2355)"/>
<path d="M11.8658 15.9512L10.1645 13H0L6.78653 24.7499H20.3535C20.3535 24.7499 17.3047 19.4329 15.2743 15.9512H11.8658Z" fill="url(#paint1_linear_17_2355)"/>
<path d="M20.3534 1.2501L15.2742 10.0488L16.9754 13L15.2742 15.9512L20.3534 24.7499L27.1399 13L20.3534 1.2501Z" fill="url(#paint2_linear_17_2355)"/>
<path d="M13.6035 13.0549L14.3779 14.4024L13.5791 13.0122L13.6035 13.0549Z" fill="white"/>
<path d="M50.4599 13.6C50.4599 15.04 50.1559 16.36 49.5479 17.56C48.9399 18.744 48.0839 19.736 46.9799 20.536C45.8919 21.336 44.6359 21.864 43.2119 22.12V25.24H39.2999V22.12C37.8919 21.864 36.6359 21.336 35.5319 20.536C34.4439 19.736 33.5959 18.736 32.9879 17.536C32.3799 16.336 32.0759 15.024 32.0759 13.6C32.0759 11.952 32.4679 10.472 33.2519 9.16C34.0519 7.832 35.1479 6.792 36.5399 6.04C37.9479 5.288 39.5239 4.912 41.2679 4.912C43.0119 4.912 44.5799 5.288 45.9719 6.04C47.3639 6.792 48.4599 7.832 49.2599 9.16C50.0599 10.472 50.4599 11.952 50.4599 13.6ZM43.0439 18.712C44.1159 18.376 44.9639 17.76 45.5879 16.864C46.2119 15.952 46.5239 14.864 46.5239 13.6C46.5239 12.56 46.2919 11.632 45.8279 10.816C45.3799 10 44.7559 9.368 43.9559 8.92C43.1559 8.456 42.2599 8.224 41.2679 8.224C40.2759 8.224 39.3799 8.456 38.5799 8.92C37.7799 9.368 37.1479 10 36.6839 10.816C36.2359 11.632 36.0119 12.56 36.0119 13.6C36.0119 14.864 36.3159 15.944 36.9239 16.84C37.5479 17.736 38.3879 18.36 39.4439 18.712V15.256H43.0439V18.712ZM66.1259 9.088V22H62.5739V20.464C62.0779 21.024 61.4859 21.456 60.7979 21.76C60.1099 22.048 59.3659 22.192 58.5659 22.192C56.8699 22.192 55.5259 21.704 54.5339 20.728C53.5419 19.752 53.0459 18.304 53.0459 16.384V9.088H56.7899V15.832C56.7899 17.912 57.6619 18.952 59.4059 18.952C60.3019 18.952 61.0219 18.664 61.5659 18.088C62.1099 17.496 62.3819 16.624 62.3819 15.472V9.088H66.1259ZM82.6985 9.088V22H79.1225V20.512C78.1945 21.632 76.8505 22.192 75.0905 22.192C73.8745 22.192 72.7705 21.92 71.7785 21.376C70.8025 20.832 70.0345 20.056 69.4745 19.048C68.9145 18.04 68.6345 16.872 68.6345 15.544C68.6345 14.216 68.9145 13.048 69.4745 12.04C70.0345 11.032 70.8025 10.256 71.7785 9.712C72.7705 9.168 73.8745 8.896 75.0905 8.896C76.7385 8.896 78.0265 9.416 78.9545 10.456V9.088H82.6985ZM75.7385 19.12C76.6825 19.12 77.4665 18.8 78.0905 18.16C78.7145 17.504 79.0265 16.632 79.0265 15.544C79.0265 14.456 78.7145 13.592 78.0905 12.952C77.4665 12.296 76.6825 11.968 75.7385 11.968C74.7785 11.968 73.9865 12.296 73.3625 12.952C72.7385 13.592 72.4265 14.456 72.4265 15.544C72.4265 16.632 72.7385 17.504 73.3625 18.16C73.9865 18.8 74.7785 19.12 75.7385 19.12ZM94.0128 8.896C95.6128 8.896 96.9008 9.376 97.8768 10.336C98.8688 11.296 99.3648 12.72 99.3648 14.608V22H95.6208V15.184C95.6208 14.16 95.3968 13.4 94.9488 12.904C94.5008 12.392 93.8528 12.136 93.0048 12.136C92.0608 12.136 91.3088 12.432 90.7488 13.024C90.1888 13.6 89.9088 14.464 89.9088 15.616V22H86.1648V9.088H89.7408V10.6C90.2368 10.056 90.8528 9.64 91.5888 9.352C92.3248 9.048 93.1328 8.896 94.0128 8.896ZM110.535 21.376C110.167 21.648 109.711 21.856 109.167 22C108.639 22.128 108.087 22.192 107.511 22.192C105.959 22.192 104.767 21.8 103.935 21.016C103.103 20.232 102.687 19.08 102.687 17.56V6.232H106.431V9.376H109.623V12.256H106.431V17.512C106.431 18.056 106.567 18.48 106.839 18.784C107.111 19.072 107.503 19.216 108.015 19.216C108.591 19.216 109.103 19.056 109.551 18.736L110.535 21.376ZM125.657 9.088V22H122.105V20.464C121.609 21.024 121.017 21.456 120.329 21.76C119.641 22.048 118.897 22.192 118.097 22.192C116.401 22.192 115.057 21.704 114.065 20.728C113.073 19.752 112.577 18.304 112.577 16.384V9.088H116.321V15.832C116.321 17.912 117.193 18.952 118.937 18.952C119.833 18.952 120.553 18.664 121.097 18.088C121.641 17.496 121.913 16.624 121.913 15.472V9.088H125.657ZM145.662 8.896C147.278 8.896 148.558 9.376 149.502 10.336C150.462 11.28 150.942 12.704 150.942 14.608V22H147.198V15.184C147.198 14.16 146.982 13.4 146.55 12.904C146.134 12.392 145.534 12.136 144.75 12.136C143.87 12.136 143.174 12.424 142.662 13C142.15 13.56 141.894 14.4 141.894 15.52V22H138.15V15.184C138.15 13.152 137.334 12.136 135.702 12.136C134.838 12.136 134.15 12.424 133.638 13C133.126 13.56 132.87 14.4 132.87 15.52V22H129.126V9.088H132.702V10.576C133.182 10.032 133.766 9.616 134.454 9.328C135.158 9.04 135.926 8.896 136.758 8.896C137.67 8.896 138.494 9.08 139.23 9.448C139.966 9.8 140.558 10.32 141.006 11.008C141.534 10.336 142.198 9.816 142.998 9.448C143.814 9.08 144.702 8.896 145.662 8.896ZM169.97 5.2V22H166.082V15.112H158.45V22H154.562V5.2H158.45V11.824H166.082V5.2H169.97ZM173.68 9.088H177.424V22H173.68V9.088ZM175.552 7.288C174.864 7.288 174.304 7.088 173.872 6.688C173.44 6.288 173.224 5.792 173.224 5.2C173.224 4.608 173.44 4.112 173.872 3.712C174.304 3.312 174.864 3.112 175.552 3.112C176.24 3.112 176.8 3.304 177.232 3.688C177.664 4.072 177.88 4.552 177.88 5.128C177.88 5.752 177.664 6.272 177.232 6.688C176.8 7.088 176.24 7.288 175.552 7.288ZM193.715 9.088L188.267 22H184.403L178.979 9.088H182.843L186.419 17.872L190.115 9.088H193.715ZM201.395 19.192C202.067 19.192 202.659 19.096 203.171 18.904C203.699 18.696 204.187 18.376 204.635 17.944L206.627 20.104C205.411 21.496 203.635 22.192 201.299 22.192C199.843 22.192 198.555 21.912 197.435 21.352C196.315 20.776 195.451 19.984 194.843 18.976C194.235 17.968 193.931 16.824 193.931 15.544C193.931 14.28 194.227 13.144 194.819 12.136C195.427 11.112 196.251 10.32 197.291 9.76C198.347 9.184 199.531 8.896 200.843 8.896C202.075 8.896 203.195 9.16 204.203 9.688C205.211 10.2 206.011 10.952 206.603 11.944C207.211 12.92 207.515 14.08 207.515 15.424L197.963 17.272C198.235 17.912 198.659 18.392 199.235 18.712C199.827 19.032 200.547 19.192 201.395 19.192ZM200.843 11.728C199.899 11.728 199.131 12.032 198.539 12.64C197.947 13.248 197.635 14.088 197.603 15.16L203.891 13.936C203.715 13.264 203.355 12.728 202.811 12.328C202.267 11.928 201.611 11.728 200.843 11.728Z" fill="#FEC213"/>
<defs>
<linearGradient id="paint0_linear_17_2355" x1="11.6036" y1="18.7256" x2="8.25603" y2="-8.5181" gradientUnits="userSpaceOnUse">
<stop stop-color="#876400"/>
<stop offset="0.665" stop-color="#FEC213"/>
</linearGradient>
<linearGradient id="paint1_linear_17_2355" x1="9.68894" y1="10.6037" x2="14.7072" y2="95.3102" gradientUnits="userSpaceOnUse">
<stop stop-color="#876400"/>
<stop offset="0.165" stop-color="#FEC213"/>
</linearGradient>
<linearGradient id="paint2_linear_17_2355" x1="25.9631" y1="17.6524" x2="-21.2987" y2="-21.5424" gradientUnits="userSpaceOnUse">
<stop stop-color="#876400"/>
<stop offset="0.255" stop-color="#FEC213"/>
</linearGradient>
</defs>
</svg>
