<svg width="269" height="64" viewBox="0 0 269 64" fill="none" xmlns="http://www.w3.org/2000/svg">
<g opacity="0.5">
<path d="M240.822 54.0444L242.551 43.0364C239.208 42.1912 236.653 40.5773 234.885 38.1949C233.118 35.7745 232.234 32.9694 232.234 29.7804C232.234 29.2418 232.273 28.6849 232.349 28.1089C232.426 27.4943 232.503 26.9177 232.58 26.3791L234.597 13.7003H244.107L242.032 26.841C241.993 27.2278 241.935 27.6124 241.859 27.9936C241.822 28.3188 241.803 28.6458 241.802 28.9732C241.802 30.933 242.416 32.5082 243.646 33.6994C244.914 34.8906 246.623 35.4862 248.775 35.4862C250.312 35.4862 251.638 35.1789 252.752 34.5636C253.905 33.911 254.827 32.9694 255.519 31.7396C256.21 30.5103 256.69 29.0498 256.96 27.3593L259.15 13.6997H268.66L266.354 28.3389C265.663 32.7198 264.087 36.1198 261.628 38.5402C259.169 40.9227 255.999 42.5365 252.118 43.3818L250.447 54.0444H240.822Z" fill="#ECEDEE"/>
<path d="M224.485 54.0444C222.064 54.0444 220.086 53.6414 218.548 52.8341C217.012 51.9889 215.859 50.8744 215.091 49.4911C214.361 48.0699 213.995 46.4941 213.995 44.7656C213.995 44.1123 214.034 43.4014 214.11 42.6328C214.226 41.8256 214.322 41.173 214.399 40.673L218.606 13.6997H228.232L223.851 41.7109C223.813 42.0182 223.775 42.3445 223.736 42.6905C223.697 42.9978 223.678 43.2861 223.678 43.5547C223.678 44.2467 223.851 44.8226 224.197 45.2845C224.581 45.7452 225.292 45.9752 226.329 45.9752H237.28L235.955 54.0444H224.485ZM193.877 54.0444C191.34 54.0444 189.169 53.5641 187.363 52.6035C185.558 51.6429 184.174 50.3751 183.214 48.7999C182.291 47.186 181.831 45.4182 181.831 43.4971C181.831 41.4606 182.311 39.5591 183.271 37.7913C184.229 35.9894 185.542 34.401 187.133 33.1228C186.404 32.1261 185.804 31.0417 185.346 29.8951C184.923 28.7039 184.712 27.398 184.712 25.9761C184.712 23.5937 185.327 21.4806 186.557 19.6361C187.786 17.7923 189.496 16.3508 191.686 15.3135C193.877 14.2377 196.374 13.6997 199.179 13.6997H215.605L214.337 21.7112H198.084C196.624 21.7112 195.49 22.1339 194.683 22.9791C193.915 23.7857 193.531 24.8039 193.531 26.0338C193.531 26.3798 193.55 26.7637 193.588 27.187C193.661 27.5987 193.818 27.9909 194.05 28.3389C195.548 27.4937 197.008 26.8791 198.43 26.4951C199.852 26.1105 201.388 25.9185 203.041 25.9185C204.923 25.9185 206.537 26.2258 207.882 26.841C209.227 27.4557 210.245 28.3009 210.937 29.3768C211.628 30.4527 211.974 31.6629 211.974 33.0075C211.974 34.6599 211.533 36.1585 210.649 37.503C209.804 38.8095 208.612 39.8474 207.075 40.6154C205.538 41.3459 203.771 41.7109 201.773 41.7109C200.652 41.7137 199.534 41.6172 198.43 41.4226C197.381 41.2006 196.357 40.8722 195.375 40.4424C194.442 40.0355 193.554 39.5333 192.724 38.9439C192.301 39.4824 191.993 40.0394 191.801 40.6154C191.609 41.1539 191.513 41.7686 191.513 42.4598C191.513 43.1898 191.686 43.824 192.032 44.362C192.378 44.8999 192.896 45.3225 193.588 45.6299C194.28 45.8991 195.144 46.0335 196.182 46.0335L210.534 45.9758L209.266 53.9873L193.877 54.0444ZM202.061 35.3709C202.868 35.3709 203.463 35.1979 203.847 34.8519C204.27 34.506 204.482 34.122 204.482 33.6987C204.482 33.2767 204.29 32.9308 203.905 32.6621C203.521 32.3928 202.964 32.2585 202.234 32.2585C201.427 32.2585 200.658 32.3738 199.928 32.6045C199.198 32.8351 198.41 33.2001 197.565 33.6994C198.296 34.276 199.045 34.6986 199.813 34.9673C200.62 35.2365 201.369 35.3709 202.061 35.3709ZM161.14 54.7356C157.836 54.7356 154.954 54.159 152.495 53.0071C150.074 51.8539 148.191 50.2211 146.847 48.1079C145.501 45.9562 144.829 43.4781 144.829 40.673C144.829 40.2117 144.848 39.7505 144.887 39.2898C144.963 38.7899 145.041 38.2716 145.117 37.7336L148.921 13.6997H158.489L154.628 38.4249L154.512 39.2322V40.0388C154.512 41.3839 154.781 42.5555 155.319 43.5547C155.895 44.5153 156.702 45.2643 157.739 45.8022C158.815 46.3021 160.045 46.5518 161.428 46.5518C163.004 46.5518 164.349 46.2445 165.463 45.6292C166.616 44.9766 167.538 44.035 168.23 42.8052C168.96 41.5759 169.459 40.1161 169.728 38.4249L173.59 13.6997H183.157L179.238 39.0592C178.7 42.4402 177.624 45.3029 176.01 47.6467C174.435 49.9911 172.379 51.7583 169.844 52.9495C167.346 54.1407 164.444 54.7356 161.14 54.7356ZM105.664 54.0444L112.004 13.6997H129.353C132.274 13.6997 134.752 14.2763 136.788 15.4289C138.825 16.5434 140.381 18.0609 141.457 19.9821C142.533 21.9032 143.071 24.0164 143.071 26.3221C143.071 28.1279 142.725 29.9147 142.033 31.6826C141.38 33.4111 140.4 35.0059 139.093 36.4664C137.787 37.8876 136.135 39.0978 134.137 40.0971L136.269 44.8809C136.461 45.1882 136.692 45.4575 136.961 45.6875C137.269 45.9181 137.653 46.0335 138.114 46.0335H141.975L140.707 54.0444H135.174C133.138 54.0444 131.524 53.6217 130.333 52.7771C129.18 51.8932 128.277 50.6634 127.624 49.0882L124.685 41.8839H117.307L115.405 54.0444H105.664ZM118.575 33.8724H125.895C127.47 33.8724 128.815 33.565 129.929 32.9498C131.044 32.3352 131.889 31.5089 132.466 30.4723C133.073 29.4629 133.391 28.3065 133.388 27.1287C133.388 26.0915 133.157 25.1886 132.696 24.42C132.274 23.6134 131.639 22.9791 130.794 22.5178C129.949 22.0185 128.892 21.7689 127.624 21.7689H120.477L118.575 33.8724ZM95.5154 54.045C91.9036 54.045 89.2139 53.1421 87.4467 51.3356C85.6789 49.4918 84.7956 47.1474 84.7956 44.3043C84.7956 43.7664 84.8146 43.2284 84.8526 42.6905L85.0832 41.0766L88.138 21.7689H77.1299L78.4554 13.6997H109.925L108.657 21.7689H97.7635L94.6511 41.5379C94.615 41.906 94.5572 42.2716 94.4781 42.6328C94.4401 42.9401 94.4204 43.2094 94.4204 43.4401C94.4204 44.208 94.6511 44.8232 95.1124 45.2839C95.573 45.7452 96.2839 45.9758 97.2445 45.9758H100.415L99.1467 54.045H95.5154Z" fill="#ECEDEE"/>
<path d="M49.6817 0.3125H13.6805C6.12499 0.3125 0 6.43749 0 13.993V49.9942C0 57.5498 6.12499 63.6748 13.6805 63.6748H49.6817C57.2373 63.6748 63.3623 57.5498 63.3623 49.9942V13.993C63.3623 6.43749 57.2373 0.3125 49.6817 0.3125Z" fill="white"/>
<path fill-rule="evenodd" clip-rule="evenodd" d="M31.9592 26.0725L23.4123 13.0281H15.1435V26.0725H4.31934L15.8145 42.5422H32.1987L35.9168 48.12H46.4039L42.7498 42.5422H50.6669C55.3203 42.5422 59.0498 38.6898 58.8977 34.039C58.7526 29.5973 55.1105 26.0725 50.6669 26.0725H31.9592Z" fill="#23DD57"/>
<path d="M26.5331 34.3083L32.2807 42.5435H26.5331V34.3083ZM9.22314 26.0725L14.237 33.2559C14.4626 33.579 14.9714 33.4194 14.9714 33.0253V26.0725H9.22314Z" fill="#ECEDEE"/>
<path d="M49.5681 40.26C52.9833 40.26 55.7522 37.491 55.7522 34.0758C55.7522 30.6593 52.9833 27.8904 49.5681 27.8904C46.1529 27.8904 43.3833 30.6593 43.3833 34.0752C43.3833 37.491 46.1522 40.26 49.5681 40.26Z" fill="#ECEDEE" stroke="white" stroke-width="0.336137"/>
<path d="M42.8422 42.949L34.9771 30.5795L43.5145 42.949H42.8422Z" fill="#ECEDEE" stroke="#ECEDEE" stroke-width="0.067164"/>
<path d="M33.0826 27.1711L32.423 25.9413H31.8179L32.857 27.3156C32.9571 27.448 33.1612 27.3169 33.0826 27.1711Z" fill="#ECEDEE"/>
</g>
</svg>
