<svg width="96" height="96" viewBox="0 0 96 96" fill="none" xmlns="http://www.w3.org/2000/svg">
<g clip-path="url(#clip0_17_1541)">
<g clip-path="url(#clip1_17_1541)">
<path d="M12.0001 28.4998L44.3551 7.09782C45.4359 6.38183 46.7037 6 48.0001 6C49.2966 6 50.5643 6.38183 51.6451 7.09782L84.0001 28.4998C84.9247 29.115 85.6825 29.9496 86.206 30.929C86.7295 31.9085 87.0023 33.0023 87.0001 34.1128V61.8628C87.0063 62.9774 86.7354 64.0761 86.2117 65.06C85.688 66.044 84.9281 66.8824 84.0001 67.4998L51.6451 88.9018C50.5643 89.6178 49.2966 89.9996 48.0001 89.9996C46.7037 89.9996 45.4359 89.6178 44.3551 88.9018L12.0001 67.4998C11.0755 66.8846 10.3177 66.05 9.7942 65.0706C9.27072 64.0912 8.9979 62.9974 9.0001 61.8868V34.1368C8.99392 33.0222 9.26484 31.9236 9.7885 30.9396C10.3122 29.9557 11.0721 29.1173 12.0001 28.4998Z" fill="#0366D6"/>
<path d="M50.6011 34.875V32.25H46.2661C46.1519 32.2496 46.0388 32.2267 45.9334 32.1826C45.828 32.1385 45.7323 32.0741 45.6518 31.9931C45.5713 31.912 45.5076 31.8159 45.4642 31.7102C45.4208 31.6045 45.3987 31.4912 45.3991 31.377V25.251C45.3983 25.02 45.4891 24.7981 45.6516 24.6339C45.8141 24.4697 46.0351 24.3766 46.2661 24.375H52.3321C52.4466 24.3754 52.5599 24.3984 52.6655 24.4427C52.7711 24.4869 52.8669 24.5516 52.9475 24.633C53.028 24.7144 53.0917 24.8109 53.1349 24.9169C53.1781 25.023 53.1999 25.1365 53.1991 25.251V34.875H66.2011C66.8936 34.879 67.5562 35.1577 68.0433 35.6499C68.5305 36.1421 68.8023 36.8075 68.7991 37.5V48H70.5331C70.6476 48.0004 70.7609 48.0234 70.8665 48.0677C70.9721 48.1119 71.0679 48.1766 71.1485 48.258C71.229 48.3394 71.2927 48.4359 71.3359 48.5419C71.3791 48.648 71.4009 48.7615 71.4001 48.876V57.627C71.4005 57.7412 71.3784 57.8545 71.335 57.9602C71.2917 58.0659 71.2279 58.162 71.1474 58.2431C71.0669 58.3241 70.9712 58.3885 70.8658 58.4326C70.7604 58.4767 70.6474 58.4996 70.5331 58.5H68.7991V63.75C68.8011 64.0931 68.7355 64.4333 68.606 64.7511C68.4765 65.0689 68.2857 65.358 68.0444 65.6021C67.8032 65.8461 67.5162 66.0402 67.1999 66.1734C66.8837 66.3065 66.5443 66.376 66.2011 66.378H29.7991C29.456 66.376 29.1166 66.3065 28.8003 66.1734C28.484 66.0402 28.1971 65.8461 27.9558 65.6021C27.7146 65.358 27.5238 65.0689 27.3943 64.7511C27.2648 64.4333 27.1991 64.0931 27.2011 63.75V58.5H25.4671C25.3529 58.4996 25.2398 58.4767 25.1344 58.4326C25.029 58.3885 24.9333 58.3241 24.8528 58.2431C24.7723 58.162 24.7086 58.0659 24.6652 57.9602C24.6218 57.8545 24.5997 57.7412 24.6001 57.627V48.876C24.5993 48.7615 24.6211 48.648 24.6643 48.5419C24.7075 48.4359 24.7712 48.3394 24.8517 48.258C24.9323 48.1766 25.0281 48.1119 25.1337 48.0677C25.2393 48.0234 25.3526 48.0004 25.4671 48H27.2011V37.5C27.1979 36.8075 27.4698 36.1421 27.9569 35.6499C28.444 35.1577 29.1066 34.879 29.7991 34.875H50.6011Z" fill="white"/>
<path d="M55.0562 55.5632C55.1535 55.6637 55.2701 55.7436 55.3989 55.7982C55.5278 55.8528 55.6663 55.8809 55.8062 55.8809C55.9461 55.8809 56.0846 55.8528 56.2135 55.7982C56.3423 55.7436 56.4588 55.6637 56.5562 55.5632L62.0072 50.0612C62.2043 49.8613 62.3148 49.5919 62.3148 49.3112C62.3148 49.0305 62.2043 48.761 62.0072 48.5612L60.8882 47.4332C60.7916 47.3347 60.6762 47.2564 60.549 47.203C60.4218 47.1496 60.2852 47.1221 60.1472 47.1221C60.0092 47.1221 59.8726 47.1496 59.7454 47.203C59.6181 47.2564 59.5028 47.3347 59.4062 47.4332L55.8062 51.0602L54.3812 49.6202C54.2839 49.5197 54.1673 49.4397 54.0385 49.3851C53.9096 49.3306 53.7711 49.3024 53.6312 49.3024C53.4913 49.3024 53.3528 49.3306 53.2239 49.3851C53.0951 49.4397 52.9785 49.5197 52.8812 49.6202L51.7652 50.7482C51.5666 50.9473 51.4551 51.217 51.4551 51.4982C51.4551 51.7794 51.5666 52.0491 51.7652 52.2482L55.0562 55.5632Z" fill="#0366D6"/>
<path d="M37.7252 55.5632C37.8218 55.6617 37.9371 55.7399 38.0644 55.7934C38.1916 55.8468 38.3282 55.8743 38.4662 55.8743C38.6042 55.8743 38.7408 55.8468 38.868 55.7934C38.9953 55.7399 39.1106 55.6617 39.2072 55.5632L44.6582 50.0612C44.8553 49.8613 44.9658 49.5919 44.9658 49.3112C44.9658 49.0305 44.8553 48.761 44.6582 48.5612L43.5392 47.4332C43.4426 47.3347 43.3273 47.2564 43.2 47.203C43.0728 47.1496 42.9362 47.1221 42.7982 47.1221C42.6602 47.1221 42.5236 47.1496 42.3964 47.203C42.2691 47.2564 42.1538 47.3347 42.0572 47.4332L38.4572 51.0602L37.0322 49.6202C36.9351 49.522 36.8195 49.444 36.692 49.3907C36.5646 49.3375 36.4278 49.3101 36.2897 49.3101C36.1516 49.3101 36.0148 49.3375 35.8874 49.3907C35.7599 49.444 35.6443 49.522 35.5472 49.6202L34.4312 50.7482C34.2341 50.948 34.1235 51.2175 34.1235 51.4982C34.1235 51.7789 34.2341 52.0483 34.4312 52.2482L37.7252 55.5632Z" fill="#0366D6"/>
</g>
</g>
<defs>
<clipPath id="clip0_17_1541">
<rect width="48" height="48" fill="white" transform="scale(2)"/>
</clipPath>
<clipPath id="clip1_17_1541">
<rect width="48" height="48" fill="white" transform="scale(2)"/>
</clipPath>
</defs>
</svg>
