<svg width="93" height="96" viewBox="0 0 93 96" fill="none" xmlns="http://www.w3.org/2000/svg">
<g clip-path="url(#clip0_17_1555)">
<g clip-path="url(#clip1_17_1555)">
<g clip-path="url(#clip2_17_1555)">
<path d="M54.1223 93.692C51.693 96.7512 46.7675 95.0751 46.7089 91.1689L45.853 34.0361H84.269C91.2272 34.0361 95.1079 42.0729 90.7812 47.5223L54.1223 93.692Z" fill="url(#paint0_linear_17_1555)"/>
<path d="M54.1223 93.692C51.693 96.7512 46.7675 95.0751 46.7089 91.1689L45.853 34.0361H84.269C91.2272 34.0361 95.1079 42.0729 90.7812 47.5223L54.1223 93.692Z" fill="url(#paint1_linear_17_1555)" fill-opacity="0.2"/>
<path d="M38.4987 1.76019C40.928 -1.29934 45.8536 0.377062 45.9121 4.28331L46.2872 61.416H8.352C1.39362 61.416 -2.4872 53.3792 1.83973 47.9298L38.4987 1.76019Z" fill="#3ECF8E"/>
</g>
</g>
</g>
<defs>
<linearGradient id="paint0_linear_17_1555" x1="45.853" y1="46.7039" x2="79.9958" y2="61.0233" gradientUnits="userSpaceOnUse">
<stop stop-color="#249361"/>
<stop offset="1" stop-color="#3ECF8E"/>
</linearGradient>
<linearGradient id="paint1_linear_17_1555" x1="30.7159" y1="25.9785" x2="46.2868" y2="55.2899" gradientUnits="userSpaceOnUse">
<stop/>
<stop offset="1" stop-opacity="0"/>
</linearGradient>
<clipPath id="clip0_17_1555">
<rect width="46.3" height="48" fill="white" transform="scale(2)"/>
</clipPath>
<clipPath id="clip1_17_1555">
<rect width="46.3" height="48" fill="white" transform="scale(2)"/>
</clipPath>
<clipPath id="clip2_17_1555">
<rect width="46.3" height="47.9991" fill="white" transform="matrix(2 0 0 2 0 0.000976562)"/>
</clipPath>
</defs>
</svg>
